<svg xmlns="http://www.w3.org/2000/svg" width="1584" height="1080" viewBox="0 0 1584 1080"><path d="M1475.333 838.959v-512.5h-85.416v-85.417h85.416v-85.417H108.667v85.417h85.417v85.417h-85.417v512.5h85.417v85.416h1195.833v-85.416h85.416zm-1195.833 0h-85.417v-85.418H279.5v85.418zm0-85.418v-85.416h85.417v85.416H279.5zm0-341.666h170.833v85.417H279.5v-85.417zm0-85.417v85.417h-85.417v-85.417H279.5zm341.667 256.251h341.667v85.416H621.167v-85.416zm0-85.417v85.417H450.333v-85.417h170.834zm768.75 341.667H1304.5v-85.418h85.417v85.418zm0-427.084H1304.5v-85.417h85.417v85.417zM962.833 582.709v-85.417h170.834v85.417H962.833zm341.667 85.416v85.416h-85.417v-85.416h85.417zm0-256.25v85.417h-170.833v-85.417H1304.5zM450.333 582.709v85.416h-85.417v-85.416h85.417zm768.75 0v85.416h-85.416v-85.416h85.416zM23.25 70.208h1537.5v939.583H23.25V70.208z"/></svg>