<svg xmlns="http://www.w3.org/2000/svg" width="152.064" height="152.064" viewBox="0 0 152.064 152.064"><path d="M0 147.313v-4.752h4.752v-4.752h4.752v-4.753h4.752v-4.752h4.752v-4.752h4.752V118.8h4.752v-4.752H0v-9.504h4.752v-4.752h4.752V95.04h4.752v-4.752h4.752v-4.752h4.752v-4.752h4.752v-4.752H0v-9.505h4.752v-4.752h4.752v-4.751h4.752v-4.752h4.752V47.52h4.752v-4.752h4.752v-4.752H0v-9.504h4.752V23.76h4.752v-4.752h4.752v-4.753h4.752V9.504h4.752V4.752h4.752V0h4.752v4.752h-4.752v4.752H23.76v4.752h-4.752v4.753h-4.752v4.752h4.752v4.752h4.752V23.76h4.752v4.752h4.752v4.752h4.752v-4.752h4.753V23.76h4.752v-4.752h4.752v-4.753h4.752V9.504h4.751V4.752h4.752V0h4.752v4.752h-4.752v4.752h-4.752v4.752h-4.752v4.753h-4.752v4.752h4.752v4.752h4.752V23.76h4.752v4.752h4.752v4.752h4.752v-4.752h4.752V23.76h4.752v-4.752h4.752v-4.753h4.752V9.504h4.752V4.752h4.752V0h4.752v4.752h-4.752v4.752h-4.752v4.752H95.04v4.753h-4.752v4.752h4.752v4.752h4.752V23.76h4.752v4.752h4.752v4.752h4.753v-4.752h4.752V23.76h4.752v-4.752h4.752v-4.753h4.752V9.504h4.752V4.752h4.752V0h4.752v4.752h-4.752v4.752h-4.752v4.752h-4.752v4.753h-4.752v4.752h4.752v4.752h4.752V23.76h4.752v4.752h4.752v4.752h4.752v4.752h-4.752v4.752h-4.752v4.752h-4.752v4.752h-4.752v4.752h-4.752v4.752h4.752v4.752h4.752v-4.752h4.752v4.752h4.752v4.753h4.752v4.752h-4.752v4.752h-4.752v4.752h-4.752v4.752h-4.752v4.752h-4.752v4.752h4.752v4.752h4.752v-4.752h4.752v4.752h4.752v4.752h4.752v4.752h-4.752v4.752h-4.752v4.752h-4.752v4.752h-4.752v4.752h-4.752v4.753h4.752v4.752h4.752v-4.752h4.752v4.752h4.752v4.752h4.752v4.752H0v-4.753zm9.504-2.376v-2.376h4.752v4.752h4.752v-4.752h4.752v4.752h4.752v-4.752h4.752v4.752h4.752v-4.752h4.753v4.752h4.752v-4.752h4.752v4.752h4.752v-4.752h4.751v4.752h4.752v-4.752h4.752v4.752h4.752v-4.752h4.752v4.752h4.752v-4.752h4.752v4.752h4.752v-4.752h4.752v4.752h4.752v-4.752h4.752v4.752h4.753v-4.752h4.752v4.752h4.752v-4.752h4.752v4.752h4.752v-4.752h-4.752v-4.752h-4.752v-4.753h4.752v-4.752h4.752v-4.752h4.752V118.8h4.752v-4.752h-33.265v4.752h-4.752v-4.752H71.28v4.752h-4.752v-4.752H33.263v4.752h-4.752v4.752H23.76v4.752h-4.752v4.752h-4.752v4.753H9.504v4.752H4.752v4.752h4.752v-2.376zm4.752-4.752v-2.376h4.752v4.752h-4.752v-2.376zm9.504 0v-2.376h4.752v4.752H23.76v-2.376zm19.008 0v-2.376h4.752v-4.753h4.752v-4.752h4.752v-4.752h4.752V118.8h4.752v4.752h-4.752v4.752h-4.752v4.752h-4.752v4.753h4.752v4.752h-4.752v-4.752H47.52v4.752h-4.752v-2.376zm19.008 0v-2.376h4.752v4.752h-4.752v-2.376zm19.008 0v-2.376h4.752v-4.753h4.752v-4.752h4.752v-4.752h4.752V118.8h4.752v4.752h-4.752v4.752H95.04v4.752h-4.752v4.753h4.752v4.752h-4.752v-4.752h-4.752v4.752h-4.752v-2.376zm19.008 0v-2.376h4.752v4.752h-4.752v-2.376zm19.009 0v-2.376h4.752v4.752h-4.752v-2.376zm23.759 4.752v-2.376h-4.752v4.752h4.752v-2.376zM9.504 106.921v-2.376h4.752v4.752h4.752v-4.752h4.752v4.752h4.752v-4.752h4.752v4.752h4.752v-4.752h4.753v4.752h4.752v-4.752h4.752v4.752h4.752v-4.752h4.751v4.752h4.752v-4.752h4.752v4.752h4.752v-4.752h4.752v4.752h4.752v-4.752h4.752v4.752h4.752v-4.752h4.752v4.752h4.752v-4.752h4.752v4.752h4.753v-4.752h4.752v4.752h4.752v-4.752h4.752v4.752h4.752v-4.752h-4.752v-4.752h-4.752v-4.752h4.752v-4.752h4.752v-4.752h4.752v-4.752h4.752v-4.752h-33.265v4.752h-4.752v-4.752H71.28v4.752h-4.752v-4.752H33.263v4.752h-4.752v4.752H23.76v4.752h-4.752v4.752h-4.752v4.752H9.504v4.752H4.752v4.752h4.752v-2.376zm4.752-4.752v-2.376h4.752v4.752h-4.752v-2.376zm9.504 0v-2.376h4.752v4.752H23.76v-2.376zm19.008 0v-2.376h4.752v-4.752h4.752v-4.752h4.752v-4.752h4.752v-4.752h4.752v4.752h-4.752v4.752h-4.752v4.752h-4.752v4.752h4.752v4.752h-4.752v-4.752H47.52v4.752h-4.752v-2.376zm19.008 0v-2.376h4.752v4.752h-4.752v-2.376zm19.008 0v-2.376h4.752v-4.752h4.752v-4.752h4.752v-4.752h4.752v-4.752h4.752v4.752h-4.752v4.752H95.04v4.752h-4.752v4.752h4.752v4.752h-4.752v-4.752h-4.752v4.752h-4.752v-2.376zm19.008 0v-2.376h4.752v4.752h-4.752v-2.376zm19.009 0v-2.376h4.752v4.752h-4.752v-2.376zm23.759 4.752v-2.376h-4.752v4.752h4.752v-2.376zM9.504 68.904v-2.376h4.752v4.753h4.752v-4.753h4.752v4.753h4.752v-4.753h4.752v4.753h4.752v-4.753h4.753v4.753h4.752v-4.753h4.752v4.753h4.752v-4.753h4.751v4.753h4.752v-4.753h4.752v4.753h4.752v-4.753h4.752v4.753h4.752v-4.753h4.752v4.753h4.752v-4.753h4.752v4.753h4.752v-4.753h4.752v4.753h4.753v-4.753h4.752v4.753h4.752v-4.753h4.752v4.753h4.752v-4.753h-4.752v-4.752h-4.752v-4.752h4.752v-4.752h4.752V47.52h4.752v-4.752h4.752v-4.752h-33.265v4.752h-4.752v-4.752H71.28v4.752h-4.752v-4.752H33.263v4.752h-4.752v4.752H23.76v4.752h-4.752v4.752h-4.752v4.752H9.504v4.752H4.752v4.753h4.752v-2.377zm4.752-4.752v-2.376h4.752v4.752h-4.752v-2.376zm9.504 0v-2.376h4.752v4.752H23.76v-2.376zm19.008 0v-2.376h4.752v-4.752h4.752v-4.752h4.752V47.52h4.752v-4.752h4.752v4.752h-4.752v4.752h-4.752v4.752h-4.752v4.752h4.752v4.752h-4.752v-4.752H47.52v4.752h-4.752v-2.376zm19.008 0v-2.376h4.752v4.752h-4.752v-2.376zm19.008 0v-2.376h4.752v-4.752h4.752v-4.752h4.752V47.52h4.752v-4.752h4.752v4.752h-4.752v4.752H95.04v4.752h-4.752v4.752h4.752v4.752h-4.752v-4.752h-4.752v4.752h-4.752v-2.376zm19.008 0v-2.376h4.752v4.752h-4.752v-2.376zm19.009 0v-2.376h4.752v4.752h-4.752v-2.376zm23.759 4.752v-2.376h-4.752v4.753h4.752v-2.377zM9.504 30.888v-2.376h4.752v4.752h4.752v-4.752h-4.752V23.76H9.504v4.752H4.752v4.752h4.752v-2.376zm19.007 0v-2.376H23.76v4.752h4.752v-2.376zm19.009 0v-2.376h4.752v4.752h4.752v-4.752h-4.752V23.76H47.52v4.752h-4.752v4.752h4.752v-2.376zm19.008 0v-2.376h-4.752v4.752h4.752v-2.376zm19.008 0v-2.376h4.752v4.752h4.752v-4.752h-4.752V23.76h-4.752v4.752h-4.752v4.752h4.752v-2.376zm19.008 0v-2.376h-4.752v4.752h4.752v-2.376zm19.008 0v-2.376h4.752v4.752h4.752v-4.752h-4.752V23.76h-4.752v4.752H118.8v4.752h4.752v-2.376zm19.008 0v-2.376h-4.752v4.752h4.752v-2.376z"/></svg>