<svg xmlns="http://www.w3.org/2000/svg" width="152.064" height="152.064" viewBox="0 0 152.064 152.064"><path d="M4.752 149.688v-2.377h4.752v-4.752h4.752v-4.752h4.752v-4.752h4.753v-4.752h4.752v-4.752h4.752V118.8h4.752v-4.752h4.752v-4.752h4.752v-4.752h4.752v-4.752h4.752V95.04h4.751v-4.752h4.752v-4.752h4.752v-4.752h4.752v-4.752h4.752V71.28h4.752v-4.752h4.752v-4.752h4.754v-4.752h4.752v-4.752h4.752V47.52h4.752v-4.752h4.752v-4.752h4.752v-4.752h4.752v-4.752h4.752V23.76h4.752v-4.752h4.752v-4.752h4.752V9.504h4.752V4.752h4.752v4.752h-4.752v4.752h-4.752v4.752h-4.752v4.752h-4.752v4.752h-4.752v4.752h-4.752v4.752h-4.752v4.752h-4.752v4.752h-4.752v4.752h-4.752v4.752h-4.752v4.752h-4.752v4.752h-4.754v4.752h-4.752v4.752h-4.752v4.752h-4.752v4.752H71.28v4.752h-4.752v4.752h-4.752v4.752h-4.752v4.752h-4.752v4.752H47.52v4.752h-4.752v4.752h-4.752v4.752h-4.752v4.752h-4.752v4.752H23.76v4.752h-4.753v4.752h-4.752v4.752H9.504v4.752H4.752v-2.376zm19.008 0v-2.377h4.752v-4.752h4.752v-4.752h4.752v-4.752h4.752v-4.752h4.752v-4.752h4.752V118.8h4.752v-4.752h4.752v-4.752h4.752v-4.752h4.752v-4.752h4.752V95.04h4.752v-4.752h4.752v-4.752h4.752v-4.752h4.754v-4.752h4.752V71.28h4.752v-4.752h4.752v-4.752h4.752v-4.752h4.752v-4.752h4.752V47.52h4.752v-4.752h4.752v-4.752h4.752v-4.752h4.752v-4.752h4.752V23.76h4.752v4.752h-4.752v4.752h-4.752v4.752h-4.752v4.752h-4.752v4.752h-4.752v4.752h-4.752v4.752h-4.752v4.752h-4.752v4.752h-4.752v4.752h-4.752v4.752h-4.752v4.752h-4.752v4.752h-4.754v4.752h-4.752v4.752h-4.752v4.752h-4.752v4.752H71.28v4.752h-4.752v4.752h-4.752v4.752h-4.752v4.752h-4.752v4.752H47.52v4.752h-4.752v4.752h-4.752v4.752h-4.752v4.752h-4.752v4.752H23.76v-2.376zm19.008 0v-2.377h4.752v-4.752h4.752v-4.752h4.752v-4.752h4.752v-4.752h4.752v-4.752h4.752V118.8h4.752v-4.752h4.752v-4.752h4.752v-4.752h4.752v-4.752h4.754V95.04h4.752v-4.752h4.752v-4.752h4.752v-4.752h4.752v-4.752h4.752V71.28h4.752v-4.752h4.752v-4.752h4.752v-4.752h4.752v-4.752h4.752V47.52h4.752v-4.752h4.752v4.752h-4.752v4.752h-4.752v4.752h-4.752v4.752h-4.752v4.752h-4.752v4.752h-4.752v4.752h-4.752v4.752h-4.752v4.752h-4.752v4.752h-4.752v4.752h-4.752v4.752h-4.752v4.752h-4.754v4.752h-4.752v4.752h-4.752v4.752h-4.752v4.752H71.28v4.752h-4.752v4.752h-4.752v4.752h-4.752v4.752h-4.752v4.752H47.52v4.752h-4.752v-2.376zm19.008 0v-2.377h4.752v-4.752h4.752v-4.752h4.752v-4.752h4.752v-4.752h4.752v-4.752h4.752V118.8h4.754v-4.752h4.752v-4.752h4.752v-4.752h4.752v-4.752h4.752V95.04h4.752v-4.752h4.752v-4.752h4.752v-4.752h4.752v-4.752h4.752V71.28h4.752v-4.752h4.752v-4.752h4.752v4.752h-4.752v4.752h-4.752v4.752h-4.752v4.752h-4.752v4.752h-4.752v4.752h-4.752v4.752h-4.752v4.752h-4.752v4.752h-4.752v4.752h-4.752v4.752h-4.752v4.752h-4.752v4.752h-4.754v4.752h-4.752v4.752h-4.752v4.752h-4.752v4.752H71.28v4.752h-4.752v4.752h-4.752v-2.376zm19.008 0v-2.377h4.752v-4.752h4.752v-4.752h4.754v-4.752h4.752v-4.752h4.752v-4.752h4.752V118.8h4.752v-4.752h4.752v-4.752h4.752v-4.752h4.752v-4.752h4.752V95.04h4.752v-4.752h4.752v-4.752h4.752v-4.752h4.752v4.752h-4.752v4.752h-4.752v4.752h-4.752v4.752h-4.752v4.752h-4.752v4.752h-4.752v4.752h-4.752v4.752h-4.752v4.752h-4.752v4.752h-4.752v4.752h-4.752v4.752h-4.752v4.752h-4.754v4.752h-4.752v4.752h-4.752v-2.376zm19.01 0v-2.377h4.752v-4.752h4.752v-4.752h4.752v-4.752h4.752v-4.752h4.752v-4.752h4.752V118.8h4.752v-4.752h4.752v-4.752h4.752v-4.752h4.752v-4.752h4.752v4.752h-4.752v4.752h-4.752v4.752h-4.752v4.752h-4.752v4.752h-4.752v4.752h-4.752v4.752h-4.752v4.752h-4.752v4.752h-4.752v4.752h-4.752v4.752h-4.752v-2.376zm19.008 0v-2.377h4.752v-4.752h4.752v-4.752h4.752v-4.752h4.752v-4.752h4.752v-4.752h4.752V118.8h4.752v4.752h-4.752v4.752h-4.752v4.752h-4.752v4.752h-4.752v4.752h-4.752v4.752h-4.752v4.752h-4.752v-2.376zm19.007 0v-2.377h4.752v-4.752h4.752v-4.752h4.752v4.752h-4.752v4.752h-4.752v4.752h-4.752v-2.375zM0 135.432v-2.377h4.752v-4.752h4.752v-4.752h4.752V118.8h4.752v-4.752h4.753v-4.752h4.752v-4.752h4.752v-4.752h4.752V95.04h4.752v-4.752h4.752v-4.752h4.752v-4.752h4.752v-4.752h4.751V71.28h4.752v-4.752h4.752v-4.752h4.752v-4.752h4.752v-4.752h4.752V47.52h4.752v-4.752h4.754v-4.752h4.752v-4.752h4.752v-4.752h4.752V23.76h4.752v-4.752h4.752v-4.752h4.752V9.504h4.752V4.752h4.752V0h4.752v4.752h-4.752v4.752h-4.752v4.752h-4.752v4.752h-4.752v4.752h-4.752v4.752h-4.752v4.752h-4.752v4.752h-4.752v4.752h-4.752v4.752h-4.754v4.752h-4.752v4.752h-4.752v4.752h-4.752v4.752H71.28v4.752h-4.752v4.752h-4.752v4.752h-4.752v4.752h-4.752v4.752H47.52v4.752h-4.752v4.752h-4.752v4.752h-4.752v4.752h-4.752v4.752H23.76v4.752h-4.753v4.752h-4.752v4.752H9.504v4.752H4.752v4.752H0v-2.376zm0-19.007v-2.377h4.752v-4.752h4.752v-4.752h4.752v-4.752h4.752V95.04h4.753v-4.752h4.752v-4.752h4.752v-4.752h4.752v-4.752h4.752V71.28h4.752v-4.752h4.752v-4.752h4.752v-4.752h4.751v-4.752h4.752V47.52h4.752v-4.752h4.752v-4.752h4.752v-4.752h4.752v-4.752h4.752V23.76h4.754v-4.752h4.752v-4.752h4.752V9.504h4.752V4.752h4.752V0h4.752v4.752h-4.752v4.752h-4.752v4.752h-4.752v4.752h-4.752v4.752h-4.752v4.752h-4.754v4.752h-4.752v4.752h-4.752v4.752h-4.752v4.752H71.28v4.752h-4.752v4.752h-4.752v4.752h-4.752v4.752h-4.752v4.752H47.52v4.752h-4.752v4.752h-4.752v4.752h-4.752v4.752h-4.752v4.752H23.76v4.752h-4.753v4.752h-4.752v4.752H9.504v4.752H4.752v4.752H0v-2.375zm0-19.008V95.04h4.752v-4.752h4.752v-4.752h4.752v-4.752h4.752v-4.752h4.753V71.28h4.752v-4.752h4.752v-4.752h4.752v-4.752h4.752v-4.752h4.752V47.52h4.752v-4.752h4.752v-4.752h4.751v-4.752h4.752v-4.752h4.752V23.76h4.752v-4.752h4.752v-4.752h4.752V9.504h4.752V4.752h4.754V0h4.752v4.752h-4.752v4.752h-4.754v4.752h-4.752v4.752h-4.752v4.752h-4.752v4.752H71.28v4.752h-4.752v4.752h-4.752v4.752h-4.752v4.752h-4.752v4.752H47.52v4.752h-4.752v4.752h-4.752v4.752h-4.752v4.752h-4.752v4.752H23.76v4.752h-4.753v4.752h-4.752v4.752H9.504v4.752H4.752v4.752H0v-2.375zm0-19.009v-2.376h4.752V71.28h4.752v-4.752h4.752v-4.752h4.752v-4.752h4.753v-4.752h4.752V47.52h4.752v-4.752h4.752v-4.752h4.752v-4.752h4.752v-4.752h4.752V23.76h4.752v-4.752h4.751v-4.752h4.752V9.504h4.752V4.752h4.752V0h4.752v4.752h-4.752v4.752H71.28v4.752h-4.752v4.752h-4.752v4.752h-4.752v4.752h-4.752v4.752H47.52v4.752h-4.752v4.752h-4.752v4.752h-4.752v4.752h-4.752v4.752H23.76v4.752h-4.753v4.752h-4.752v4.752H9.504v4.752H4.752v4.752H0v-2.376zM0 59.4v-2.376h4.752v-4.752h4.752V47.52h4.752v-4.752h4.752v-4.752h4.753v-4.752h4.752v-4.752h4.752V23.76h4.752v-4.752h4.752v-4.752h4.752V9.504h4.752V4.752h4.752V0h4.751v4.752h-4.752v4.752h-4.752v4.752H47.52v4.752h-4.752v4.752h-4.752v4.752h-4.752v4.752h-4.752v4.752H23.76v4.752h-4.753v4.752h-4.752v4.752H9.504v4.752H4.752v4.752H0V59.4zm0-19.008v-2.376h4.752v-4.752h4.752v-4.752h4.752V23.76h4.752v-4.752h4.753v-4.752h4.752V9.504h4.752V4.752h4.752V0h4.752v4.752h-4.752v4.752h-4.753v4.752h-4.752v4.752H23.76v4.752h-4.753v4.752h-4.752v4.752H9.504v4.752H4.752v4.752H0v-2.376zm0-19.008v-2.376h4.752v-4.752h4.752V9.504h4.752V4.752h4.752V0h4.753v4.752h-4.753v4.752h-4.752v4.752H9.504v4.752H4.752v4.752H0v-2.376zM0 2.376V0h4.752v4.752H0V2.376z"/></svg>