<svg xmlns="http://www.w3.org/2000/svg" width="152.064" height="152.064" viewBox="0 0 152.064 152.064"><path d="M0 147.312v-4.752h11.879v-4.752h4.752v-9.504H7.128v-4.752H2.376V118.8H0v-14.256h11.879v-4.752h4.752v-9.504H7.128v-4.752H2.376v-4.752H0V66.528h11.879v-4.752h4.752v-9.504H7.128V47.52H2.376v-4.752H0V28.511h11.879V23.76h4.752v-9.504H7.128V9.504H2.376V4.752H0V0h2.376v4.752h4.752v4.752h23.761V4.752h4.752V0h4.752v4.752h4.752v4.752h23.76V4.752h4.752V0h4.752v4.752h4.752v4.752h23.761V4.752h4.752V0h4.752v4.752h4.752v4.752h23.761V4.752h4.752V0h2.376v4.752h-2.376v4.752h-4.752v4.752h-9.505v9.504h4.752v4.752h11.879v14.257h-2.376v4.752h-4.752v4.752h-9.505v9.504h4.752v4.752h11.879v14.256h-2.376v4.752h-4.752v4.752h-9.505v9.505h4.752v4.752h11.879v14.256h-2.376v4.752h-4.752v4.752h-9.505v9.504h4.752v4.752h11.879v9.504h-2.376v-4.752h-9.505v-4.752h-4.752v-4.752h-4.752v4.752h-4.752v4.752h-9.504v4.752h-4.752v-4.752h-9.504v-4.752H97.41v-4.752h-4.753v4.752h-4.752v4.752h-9.497v4.752h-4.752v-4.752h-9.504v-4.752H59.4v-4.752h-4.752v4.752h-4.752v4.752h-9.504v4.752H35.64v-4.752h-9.504v-4.752h-4.751v-4.752h-4.753v4.752H11.88v4.752H2.376v4.752H0v-4.754zm49.896-7.128v-2.376h4.752v-9.504h-9.504v-4.752h23.76v4.752H59.4v9.504h4.752v4.752h23.76v-4.752h4.752v-9.504H83.16v-4.752h23.761v4.752h-9.504v9.504h4.752v4.752h23.76v-4.752h4.752v-9.504h-9.504v-4.752h23.761V118.8h4.752v-9.504h-9.505v-4.752h-4.752v-4.752h-4.752v-9.504h-9.504v-4.752h23.761v-4.752h4.752V71.28h-9.505v-4.752h-4.752v-4.752h-4.752v-9.504h-9.504V47.52h23.761v-4.752h4.752v-9.505h-9.505v-4.752h-4.752V23.76h-4.752v-9.504h-9.504V9.504h-4.752V4.752h-4.752v4.752h-4.752v4.752h-9.504v9.504h-4.753v-9.504H83.16V9.504h-4.752V4.752h-4.752v4.752h-4.752v4.752H59.4v9.504h-4.752v-9.504h-9.504V9.504h-4.752V4.752H35.64v4.752h-4.752v4.752h-9.504v9.504h-4.753v4.752H11.88v4.752H2.376v9.505h4.752v4.752h23.761v4.752h-9.504v9.504h-4.753v4.752H11.88v4.752H2.376v9.504h4.752v4.752h23.761v4.752h-9.504v9.505h-4.753v4.752H11.88v4.752H2.376v9.504h4.752v4.752h23.761v4.752h-9.504v9.504h4.752v4.752h23.76v-2.378zm-19.008-19.007v-2.376h4.752v-9.504h-9.504v-4.752h-4.751v-4.752h4.752v4.752h23.76v-4.752h4.752v-9.505h-9.504v-4.752h-4.752v-4.752H35.64v4.752h-4.752v-4.752h4.752V71.28h-9.504v-4.752h-4.751v-4.752h4.752v4.752h23.76v-4.752h4.752v-9.504h-9.504V47.52h-4.752v-4.752H35.64v4.752h-4.752v-4.752h4.752v-9.505h-9.504v-4.752h-4.751V23.76h4.752v4.752h23.76V23.76h4.752v4.752h-4.752v4.752h-9.504v9.505h4.752v4.752h23.76v-4.752h4.752v-9.505h-9.504v-4.752H59.4V23.76h4.752v4.752h23.76V23.76h4.752v4.752h-4.752v4.752h-9.504v9.505h4.752v4.752h23.761v-4.752h4.752v-9.505h-9.504v-4.752h-4.752V23.76h4.752v4.752h23.76V23.76h4.752v4.752h-4.752v4.752h-9.504v9.505h4.752v4.752h-4.752v-4.752h-4.752v4.752h-4.752v4.752h-9.504v9.504h4.752v4.752h23.76v-4.752h4.752v4.752h-4.752v4.752h-9.504v9.504h4.752v4.752h-4.752v-4.753h-4.752v4.752h-4.752v4.752h-9.504v9.505h4.752v4.752h23.76v-4.752h4.752v4.752h-4.752v4.752h-9.504v9.504h4.752v4.752h-4.752v-4.752h-4.752v4.752h-4.752v-4.752h4.752v-9.504h-9.504v-4.752h-4.752v-4.752h-4.753v4.752h-4.752v4.752h-9.504v9.504h4.752v4.752h-4.752v-4.752h-4.752v4.752h-4.752v-4.752h4.752v-9.504h-9.504v-4.752H59.4v-4.752h-4.752v4.752h-4.752v4.752h-9.504v9.504h4.752v4.752h-4.752v-4.752H35.64v4.752h-4.752v-2.376zm57.024-19.009v-2.375h4.752v-9.505H83.16v-4.752h23.761v-4.752h4.752V71.28h-9.504v-4.752h-4.752v-4.752h-4.753v-9.504H83.16V47.52h-4.752v-4.752h-4.752v4.752h-4.752v4.752H59.4v9.504h-4.752v4.752h-4.752v4.752h-9.504v9.504h4.752v4.752h23.76v4.752H59.4v9.505h4.752v4.752h23.76v-2.377zM68.904 83.16v-2.376h4.752V71.28h-9.504v-4.752H59.4v-4.752h4.752v4.752h23.76v-4.752h4.752v4.752h-4.752v4.752h-9.504v9.504h4.752v4.752h-4.752v-4.752h-4.752v4.752h-4.752V83.16z"/></svg>