<svg xmlns="http://www.w3.org/2000/svg" width="152.064" height="152.064" viewBox="0 0 152.064 152.064"><path d="M19.008 142.561v-9.504H0v-4.753h19.008V95.041H0v-4.752h19.008V57.024H0v-4.752h19.008V19.009H0v-4.752h19.008V0h4.752v14.257h33.264V0h4.752v14.257H95.04V0h4.752v14.257h33.264V0h4.752v14.257h14.258v4.752h-14.258v33.263h14.258v4.752h-14.258v33.265h14.258v4.752h-14.258v33.264h14.258v4.753h-14.258v19.008h-4.752v-19.008H99.792v19.008H95.04v-19.008H61.776v19.008h-4.752v-19.008H23.76v19.008h-4.752v-9.505zm38.016-30.888V95.041H23.76v33.264h33.264v-16.632zm38.016 0V95.041H61.776v33.264H95.04v-16.632zm38.015 0V95.041H99.792v33.264h33.264v-16.632zM57.024 73.657V57.024H23.76v33.265h33.264V73.657zm38.016 0V57.024H61.776v33.265H95.04V73.657zm38.015 0V57.024H99.792v33.265h33.264V73.657zM57.024 35.64V19.009H23.76v33.263h33.264V35.64zm38.016 0V19.009H61.776v33.263H95.04V35.64zm38.015 0V19.009H99.792v33.263h33.264V35.64z"/></svg>