<svg xmlns="http://www.w3.org/2000/svg" width="152.064" height="152.064" viewBox="0 0 152.064 152.064"><path d="M11.88 147.313v-2.377H7.128v-4.752H2.376v-4.752h4.752v4.752h4.752v4.752h4.752v4.752H11.88v-2.375zm38.016 0v-2.377h-4.753v-4.752h-4.752v-4.752h4.752v4.752h4.753v4.752h4.752v4.752h-4.752v-2.375zm38.016 0v-2.377H83.16v-4.752h-4.752v-4.752h4.752v4.752h4.752v4.752h4.752v4.752h-4.752v-2.375zm38.016 0v-2.377h-4.752v-4.752h-4.752v-4.752h4.752v4.752h4.752v4.752h4.752v4.752h-4.752v-2.375zM21.383 128.305v-2.377h4.752v-4.752h4.752v-4.752h4.752v4.752h-4.752v4.752h-4.752v4.752h-4.752v-2.375zm38.017 0v-2.377h4.752v-4.752h4.752v-4.752h4.752v4.752h-4.752v4.752h-4.752v4.752H59.4v-2.375zm38.016 0v-2.377h4.753v-4.752h4.752v-4.752h4.752v4.752h-4.752v4.752h-4.752v4.752h-4.753v-2.375zm38.016 0v-2.377h4.752v-4.752h4.752v-4.752h4.752v4.752h-4.752v4.752h-4.752v4.752h-4.752v-2.375zM11.88 109.295v-2.374H7.128v-4.752H2.376v-4.752h4.752v4.752h4.752v4.752h4.752v4.752H11.88v-2.377zm38.016 0v-2.374h-4.753v-4.752h-4.752v-4.752h4.752v4.752h4.753v4.752h4.752v4.752h-4.752v-2.377zm38.016 0v-2.374H83.16v-4.752h-4.752v-4.752h4.752v4.752h4.752v4.752h4.752v4.752h-4.752v-2.377zm38.016 0v-2.374h-4.752v-4.752h-4.752v-4.752h4.752v4.752h4.752v4.752h4.752v4.752h-4.752v-2.377zM21.383 90.289v-2.375h4.752V83.16h4.752v-4.752h4.752v4.752h-4.752v4.752h-4.752v4.752h-4.752v-2.377zm38.017 0v-2.375h4.752V83.16h4.752v-4.752h4.752v4.752h-4.752v4.752h-4.752v4.752H59.4v-2.377zm38.016 0v-2.375h4.753V83.16h4.752v-4.752h4.752v4.752h-4.752v4.752h-4.752v4.752h-4.753v-2.377zm38.016 0v-2.375h4.752V83.16h4.752v-4.752h4.752v4.752h-4.752v4.752h-4.752v4.752h-4.752v-2.377zM11.88 71.28v-2.376H7.128v-4.753H2.376V59.4h4.752v4.752h4.752v4.753h4.752v4.752H11.88v-2.376zm38.016 0v-2.376h-4.753v-4.753h-4.752V59.4h4.752v4.752h4.753v4.753h4.752v4.752h-4.752v-2.376zm38.016 0v-2.376H83.16v-4.753h-4.752V59.4h4.752v4.752h4.752v4.753h4.752v4.752h-4.752v-2.376zm38.016 0v-2.376h-4.752v-4.753h-4.752V59.4h4.752v4.752h4.752v4.753h4.752v4.752h-4.752v-2.376zM21.383 52.272v-2.376h4.752v-4.752h4.752v-4.752h4.752v4.752h-4.752v4.752h-4.752v4.752h-4.752v-2.376zm38.017 0v-2.376h4.752v-4.752h4.752v-4.752h4.752v4.752h-4.752v4.752h-4.752v4.752H59.4v-2.376zm38.016 0v-2.376h4.753v-4.752h4.752v-4.752h4.752v4.752h-4.752v4.752h-4.752v4.752h-4.753v-2.376zm38.016 0v-2.376h4.752v-4.752h4.752v-4.752h4.752v4.752h-4.752v4.752h-4.752v4.752h-4.752v-2.376zM11.88 33.264v-2.376H7.128v-4.752H2.376v-4.752h4.752v4.752h4.752v4.752h4.752v4.752H11.88v-2.376zm38.016 0v-2.376h-4.753v-4.752h-4.752v-4.752h4.752v4.752h4.753v4.752h4.752v4.752h-4.752v-2.376zm38.016 0v-2.376H83.16v-4.752h-4.752v-4.752h4.752v4.752h4.752v4.752h4.752v4.752h-4.752v-2.376zm38.016 0v-2.376h-4.752v-4.752h-4.752v-4.752h4.752v4.752h4.752v4.752h4.752v4.752h-4.752v-2.376zM21.383 14.257V11.88h4.752V7.129h4.752V2.376h4.752v4.753h-4.752v4.752h-4.752v4.752h-4.752v-2.376zm38.017 0V11.88h4.752V7.129h4.752V2.376h4.752v4.753h-4.752v4.752h-4.752v4.752H59.4v-2.376zm38.016 0V11.88h4.753V7.129h4.752V2.376h4.752v4.753h-4.752v4.752h-4.752v4.752h-4.753v-2.376zm38.016 0V11.88h4.752V7.129h4.752V2.376h4.752v4.753h-4.752v4.752h-4.752v4.752h-4.752v-2.376z"/><path fill="none" d="M0 0h152.063v152.065H0z"/></svg>