<svg xmlns="http://www.w3.org/2000/svg" width="152.064" height="152.064" viewBox="0 0 152.064 152.064"><path d="M0 149.688v-2.377h14.256v-14.256H0v-4.752h33.264v-14.256H0v-4.752h14.256V95.04H0v-4.752h33.264V76.032H0V71.28h14.256V57.023H0v-4.752h33.264V38.015H0v-4.752h14.256V19.007H0v-4.752h33.264V0h4.752v14.256H71.28V0h4.752v14.256h33.264V0h4.752v14.256h33.264V0h4.752v19.008h-19.008v14.256h19.008v23.76h-19.008v14.257h19.008V95.04h-19.008v14.256h19.008v23.76h-19.008v14.256h19.008v4.752H0v-2.376zm52.272-9.504v-7.129H19.008v14.256h33.265v-7.127zm38.016 0v-7.129H57.024v14.256h33.264v-7.127zm38.015 0v-7.129H95.04v14.256h33.264v-7.127zM71.28 121.175v-7.127H38.015v14.256H71.28v-7.129zm38.016 0v-7.127H76.032v14.256h33.264v-7.129zm38.015 0v-7.127h-33.264v14.256h33.264v-7.129zm-95.039-19.008V95.04H19.008v14.256h33.265v-7.129zm38.016 0V95.04H57.024v14.256h33.264v-7.129zm38.015 0V95.04H95.04v14.256h33.264v-7.129zM71.28 83.159v-7.127H38.015v14.256H71.28v-7.129zm38.016 0v-7.127H76.032v14.256h33.264v-7.129zm38.015 0v-7.127h-33.264v14.256h33.264v-7.129zM52.272 64.152v-7.129H19.008V71.28h33.265v-7.128zm38.016 0v-7.129H57.024V71.28h33.264v-7.128zm38.015 0v-7.129H95.04V71.28h33.264v-7.128zM71.28 45.143v-7.128H38.015v14.256H71.28v-7.128zm38.016 0v-7.128H76.032v14.256h33.264v-7.128zm38.015 0v-7.128h-33.264v14.256h33.264v-7.128zM52.272 26.135v-7.128H19.008v14.256h33.265v-7.128zm38.016 0v-7.128H57.024v14.256h33.264v-7.128zm38.015 0v-7.128H95.04v14.256h33.264v-7.128z"/></svg>