<svg xmlns="http://www.w3.org/2000/svg" width="152.064" height="152.064" viewBox="0 0 152.064 152.064"><path d="M9.504 148.501v-3.564H0v-14.256h4.752v-4.752H0v-4.752h9.504v-14.256H0V92.664h4.752v-4.752H0V83.16h9.504V68.904H0V54.648h4.752v-4.752H0v-4.752h9.504V30.887H0V16.632h4.752V11.88H0V7.128h9.504V0h23.76v7.127h14.257V0H71.28v7.127h14.256V0h23.76v7.127h14.257V0h23.76v7.127h4.752v4.752h-4.752v4.752h4.752v14.256h-4.752v14.257h4.752v4.752h-4.752v4.752h4.752v14.256h-4.752V83.16h4.752v4.752h-4.752v4.752h4.752v14.257h-4.752v14.256h4.752v4.752h-4.752v4.752h4.752v14.256h-4.752v7.127h-23.76v-7.127h-14.257v7.127h-23.76v-7.127H71.28v7.127H47.52v-7.127H33.263v7.127H9.504v-3.563zm14.256-1.189v-2.376h-9.504v-4.752h14.256v4.752h4.752v-4.752h-4.752v-14.256h4.752v4.752h9.504v-4.752h-9.504v-4.752h14.257v4.752h4.752v14.256H47.52v4.752h4.752v4.752h9.504v-4.752h-9.504v-4.752h14.256v4.752h4.752v-4.752h-4.752v-14.256h4.752v4.752h9.504v-4.752H71.28v-4.752h14.256v4.752h4.752v14.256h-4.752v4.752h4.752v4.752h9.504v-4.752h-9.504v-4.752h14.256v4.752h4.752v-4.752h-4.752v-14.256h4.752v4.752h9.505v-4.752h-9.505v-4.752h14.257v4.752h4.752v14.256h-4.752v4.752h4.752v4.752h9.504v-4.752h-9.504v-4.752h14.256v4.752h4.752v-4.752h-4.752v-14.256h4.752v-4.752h-4.752v4.752h-14.256v-4.752h-4.752V106.92h4.752v4.752h9.504v-4.752h-9.504v-4.753h14.256v4.753h4.752v-4.753h-4.752V87.912h4.752V83.16h-4.752v4.752h-14.256V83.16h-4.752V68.904h4.752v4.752h9.504v-4.752h-9.504v-4.752h14.256v4.752h4.752v-4.752h-4.752V49.896h4.752v-4.752h-4.752v4.752h-14.256v-4.752h-4.752V30.887h4.752v4.753h9.504v-4.753h-9.504v-4.752h14.256v4.752h4.752v-4.752h-4.752V11.88h4.752V7.128h-4.752v4.752h-14.256V7.128h-4.752v4.752h4.752v14.256h-4.752v4.752h-14.257v-4.752h-4.752V11.88h4.752v4.752h9.505V11.88h-9.505V7.128h-4.752v4.752H90.288V7.128h-4.752v4.752h4.752v14.256h-4.752v4.752H71.28v-4.752h-4.752V11.88h4.752v4.752h9.504V11.88H71.28V7.128h-4.752v4.752H52.272V7.128H47.52v4.752h4.752v14.256H47.52v4.752H33.263v-4.752h-4.752V11.88h4.752v4.752h9.504V11.88h-9.504V7.128h-4.752v4.752H14.255V7.128H9.504v4.752h4.752v14.256H9.504v4.752h4.752v4.753h9.504v-4.753h-9.504v-4.752h14.256v4.752h4.752v14.257h-4.752v4.752H14.256v-4.753H9.504v4.752h4.752v14.256H9.504v4.752h4.752v4.752h9.504v-4.752h-9.504v-4.752h14.256v4.752h4.752V83.16h-4.752v4.752H14.256V83.16H9.504v4.752h4.752v14.256H9.504v4.753h4.752v4.752h9.504v-4.752h-9.504v-4.753h14.256v4.753h4.752v14.256h-4.752v4.752H14.256v-4.752H9.504v4.752h4.752v14.256H9.504v4.752h4.752v4.752h9.504v-2.377zm28.512-23.76v-2.376H47.52V106.92H33.263v-4.753h-4.752V87.912h4.752V83.16H47.52V68.904H33.263v-4.752h-4.752V49.896h4.752v-4.752H47.52V30.887h4.752v-4.752h14.256v4.752h4.752v14.257h14.256V30.887h4.752v-4.752h14.256v4.752h4.752v14.257h14.257v4.752h4.752v14.256h-4.752v4.752h-14.257V83.16h14.257v4.752h4.752v14.256h-4.752v4.753h-14.257v14.256h-4.752v4.752H90.288v-4.752h-4.752v-14.256H71.28v14.256h-4.752v4.752H52.272v-2.377zm9.504-14.255v-2.376h-9.504v-4.753h14.256v4.753h4.752v-4.753h-4.752V87.912h4.752v4.752h9.504v-4.752H71.28V83.16h14.256v4.752h4.752v14.256h-4.752v4.753h4.752v4.752h9.504v-4.752h-9.504v-4.753h14.256v4.753h4.752v-4.753h-4.752V87.912h4.752v4.752h9.505v-4.752h-9.505V83.16h-4.752v4.752H90.288V83.16h-4.752V68.904h4.752v4.752h9.504v-4.752h-9.504v-4.752h14.256v4.752h4.752v-4.752h-4.752V49.896h4.752v4.752h9.505v-4.752h-9.505v-4.752h-4.752v4.752H90.288v-4.752h-4.752v4.752h4.752v14.256h-4.752v4.752H71.28v-4.752h-4.752V49.896h4.752v4.752h9.504v-4.752H71.28v-4.752h-4.752v4.752H52.272v-4.752H47.52v4.752h4.752v14.256H47.52v4.752h4.752v4.752h9.504v-4.752h-9.504v-4.752h14.256v4.752h4.752V83.16h-4.752v4.752H52.272V83.16H47.52v4.752h4.752v14.256H47.52v4.753h4.752v4.752h9.504v-2.376zM42.767 90.288v-2.376h-9.504v4.752h9.504v-2.376zm0-38.016v-2.376h-9.504v4.752h9.504v-2.376zm19.009-19.009v-2.376h-9.504v4.753h9.504v-2.377zm38.016 0v-2.376h-9.504v4.753h9.504v-2.377z"/></svg>