<svg xmlns="http://www.w3.org/2000/svg" width="152.064" height="152.064" viewBox="0 0 152.064 152.064"><path d="M21.384 144.937v-2.376h4.752v-4.752h4.753v4.752h4.752v4.752h-4.752v-4.752h-4.753v4.752h-4.752v-2.376zm38.016 0v-2.376h4.752v-4.752h4.752v4.752h4.752v4.752h-4.752v-4.752h-4.752v4.752H59.4v-2.376zm38.017 0v-2.376h4.752v-4.752h4.752v4.752h4.752v4.752h-4.752v-4.752h-4.752v4.752h-4.752v-2.376zm38.015 0v-2.376h4.752v-4.752h4.752v4.752h4.752v4.752h-4.752v-4.752h-4.752v4.752h-4.752v-2.376zM2.376 125.928v-2.376h4.752V118.8h4.752v4.752h4.752v4.753H11.88v-4.753H7.128v4.753H2.376v-2.377zm38.016 0v-2.376h4.752V118.8h4.752v4.752h4.752v4.753h-4.752v-4.753h-4.752v4.753h-4.752v-2.377zm38.016 0v-2.376h4.752V118.8h4.753v4.752h4.752v4.753h-4.752v-4.753H83.16v4.753h-4.752v-2.377zm38.017 0v-2.376h4.752V118.8h4.752v4.752h4.752v4.753h-4.752v-4.753h-4.752v4.753h-4.752v-2.377zm-95.041-19.007v-2.376h4.752v-4.752h4.753v4.752h4.752v4.752h-4.752v-4.752h-4.753v4.752h-4.752v-2.376zm38.016 0v-2.376h4.752v-4.752h4.752v4.752h4.752v4.752h-4.752v-4.752h-4.752v4.752H59.4v-2.376zm38.017 0v-2.376h4.752v-4.752h4.752v4.752h4.752v4.752h-4.752v-4.752h-4.752v4.752h-4.752v-2.376zm38.015 0v-2.376h4.752v-4.752h4.752v4.752h4.752v4.752h-4.752v-4.752h-4.752v4.752h-4.752v-2.376zM2.376 87.913v-2.376h4.752v-4.752h4.752v4.752h4.752v4.752H11.88v-4.752H7.128v4.752H2.376v-2.376zm38.016 0v-2.376h4.752v-4.752h4.752v4.752h4.752v4.752h-4.752v-4.752h-4.752v4.752h-4.752v-2.376zm38.016 0v-2.376h4.752v-4.752h4.753v4.752h4.752v4.752h-4.752v-4.752H83.16v4.752h-4.752v-2.376zm38.017 0v-2.376h4.752v-4.752h4.752v4.752h4.752v4.752h-4.752v-4.752h-4.752v4.752h-4.752v-2.376zM21.384 68.905V66.53h4.752v-4.753h4.753v4.753h4.752v4.752h-4.752V66.53h-4.753v4.752h-4.752v-2.376zm38.016 0V66.53h4.752v-4.753h4.752v4.753h4.752v4.752h-4.752V66.53h-4.752v4.752H59.4v-2.376zm38.017 0V66.53h4.752v-4.753h4.752v4.753h4.752v4.752h-4.752V66.53h-4.752v4.752h-4.752v-2.376zm38.015 0V66.53h4.752v-4.753h4.752v4.753h4.752v4.752h-4.752V66.53h-4.752v4.752h-4.752v-2.376zM2.376 49.896V47.52h4.752v-4.752h4.752v4.752h4.752v4.752H11.88V47.52H7.128v4.752H2.376v-2.376zm38.016 0V47.52h4.752v-4.752h4.752v4.752h4.752v4.752h-4.752V47.52h-4.752v4.752h-4.752v-2.376zm38.016 0V47.52h4.752v-4.752h4.753v4.752h4.752v4.752h-4.752V47.52H83.16v4.752h-4.752v-2.376zm38.017 0V47.52h4.752v-4.752h4.752v4.752h4.752v4.752h-4.752V47.52h-4.752v4.752h-4.752v-2.376zM21.384 30.888v-2.376h4.752V23.76h4.753v4.752h4.752v4.752h-4.752v-4.752h-4.753v4.752h-4.752v-2.376zm38.016 0v-2.376h4.752V23.76h4.752v4.752h4.752v4.752h-4.752v-4.752h-4.752v4.752H59.4v-2.376zm38.017 0v-2.376h4.752V23.76h4.752v4.752h4.752v4.752h-4.752v-4.752h-4.752v4.752h-4.752v-2.376zm38.015 0v-2.376h4.752V23.76h4.752v4.752h4.752v4.752h-4.752v-4.752h-4.752v4.752h-4.752v-2.376zM2.376 11.881V9.505h4.752V4.753h4.752v4.752h4.752v4.752H11.88V9.505H7.128v4.752H2.376V11.88zm38.016 0V9.505h4.752V4.753h4.752v4.752h4.752v4.752h-4.752V9.505h-4.752v4.752h-4.752V11.88zm38.016 0V9.505h4.752V4.753h4.753v4.752h4.752v4.752h-4.752V9.505H83.16v4.752h-4.752V11.88zm38.017 0V9.505h4.752V4.753h4.752v4.752h4.752v4.752h-4.752V9.505h-4.752v4.752h-4.752V11.88z"/><path fill="none" d="M0 0h152.065v152.065H0z"/></svg>