<svg xmlns="http://www.w3.org/2000/svg" width="152.064" height="152.064" viewBox="0 0 152.064 152.064"><path d="M28.511 149.688v-2.376H23.76v-4.752h-9.504v-4.752H4.752v-4.752H0v-4.752h4.752v4.752h9.504v-4.752h4.752v-4.752h4.752V118.8h4.752v-9.504H23.76v-4.752h-9.504v-4.752H4.752V95.04H0v-4.752h4.752v4.752h9.504v-4.752h4.752v-4.752h4.752v-4.752h4.752V71.28H23.76v-4.752h-9.504v-4.752H4.752v-4.752H0v-4.752h4.752v4.752h9.504v-4.752h4.752V47.52h4.752v-4.752h4.752v-9.505H23.76v-4.752h-9.504V23.76H4.752v-4.752H0v-4.752h4.752v4.752h9.504v-4.752h4.752V9.504h4.752V4.752h4.752V0h4.752v9.504h4.752v4.752h4.753v4.752h9.504v-4.752h4.752V9.504h4.751V4.752h4.752V0h4.752v9.504h4.752v4.752h4.752v4.752h9.504v-4.752h4.752V9.504h4.752V4.752h4.752V0h4.752v9.504h4.753v4.752h4.752v4.752h9.504v-4.752h4.752V9.504h4.752V4.752h4.752V0h4.752v9.504h4.752v4.752h-4.752V9.504h-9.504v4.752h-4.752v4.752h-4.752v4.752h9.504v4.752h4.752v4.752h4.752v14.257h4.752v4.752h-4.752V47.52h-9.504v4.752h-4.752v4.752h-4.752v4.752h9.504v4.752h4.752v4.752h4.752v14.256h4.752v4.752h-4.752v-4.752h-9.504v4.752h-4.752v4.752h-4.752v4.753h9.504v4.752h4.752v4.752h4.752v14.256h4.752v4.752h-4.752v-4.752h-9.504v4.752h-4.752v4.752h-4.752v4.752h9.504v4.752h4.752v4.752h4.752v4.752h-4.752v-4.752h-4.752v-4.752h-9.504v-4.752h-9.504v-4.752h-4.752v-4.752h-4.753v-4.752h-9.504v4.752H95.04v4.752h-4.752v4.752h9.504v4.752h4.752v4.752h4.752v4.752h-4.752v-4.752h-4.752v-4.752h-9.504v-4.752h-9.504v-4.752h-4.752v-4.752H71.28v-4.752h-9.504v4.752h-4.752v4.752h-4.752v4.752h9.504v4.752h4.752v4.752h4.752v4.752h-4.752v-4.752h-4.752v-4.752h-9.504v-4.752h-9.504v-4.752h-4.753v-4.752h-4.752v-4.752H23.76v4.752h-4.752v4.752h-4.752v4.752h9.504v4.752h4.752v4.752h4.752v4.752h-4.752v-2.377zm23.761-19.008v-2.376h4.752v-4.752h4.752V118.8h4.752v-9.504h4.752v14.256h4.752v4.752h4.752v4.752h9.504v-4.752h4.752v-4.752h4.752V118.8h4.752v-9.504h4.752v14.256h4.753v4.752h4.752v4.752h9.504v-4.752h4.752v-4.752h4.752V118.8h4.752v-9.504h-4.752v-4.752h-9.504v-4.752h-9.504V95.04h9.504v-4.752h4.752v-4.752h4.752v-4.752h4.752V71.28h-4.752v-4.752h-9.504v-4.752h-9.504v-4.752h9.504v-4.752h4.752V47.52h4.752v-4.752h4.752v-9.505h-4.752v-4.752h-9.504V23.76h-9.504v-4.752h-4.752v-4.752h-4.753V9.504h-9.504v4.752H95.04v4.752h-4.752v4.752h-9.504v-4.752h-4.752v-4.752H71.28V9.504h-9.504v4.752h-4.752v4.752h-4.752v4.752h-9.504v-4.752h-4.753v-4.752h-4.752V9.504H23.76v4.752h-4.752v4.752h-4.752v4.752h9.504v4.752h4.752v4.752h4.752v14.257H23.76v4.752h-4.752v4.752h-4.752v4.751h9.504v4.752h4.752v4.752h4.752v14.256H23.76v4.752h-4.752v4.752h-4.752v4.753h9.504v4.752h4.752v4.752h4.752v14.256h4.752v4.752h4.753v4.752h9.504v-2.377zm9.504-23.759v-2.376h-9.504v-4.752h-9.504V95.04h-4.753v-4.752h-4.752v-4.752h4.752v4.752h4.753v4.752h9.504v-4.752h4.752v-4.752h4.752v-4.752h4.752V71.28h-4.752v-4.752h-9.504v-4.752h-9.504v-4.752h-4.753v-4.752h-4.752V47.52h4.752v4.752h4.753v4.752h9.504v-4.752h4.752V47.52h4.752v-4.752h4.752v-9.505h-4.752v-4.752h-9.504V23.76h9.504v4.752h4.752v4.752h4.752v14.257h4.752v4.752h4.752v4.752h9.504v-4.752h4.752V47.52h4.752v-4.752h4.752v-9.505h-4.752v-4.752h-9.504V23.76h9.504v4.752h4.752v4.752h4.752v14.257h4.753v4.752h4.752v4.752h-4.752v-4.752h-4.753V47.52h-9.504v4.752H95.04v4.752h-4.752v4.752h9.504v4.752h4.752v4.752h4.752v14.256h4.753v4.752h4.752v4.752h-4.752v-4.752h-4.753v-4.752h-9.504v4.752H95.04v4.752h-4.752v4.753h9.504v4.752h4.752v4.752h-4.752v-4.752h-9.504v-4.752h-9.504V95.04h-4.752v-4.752H71.28v-4.752h-9.504v4.752h-4.752v4.752h-4.752v4.753h9.504v4.752h4.752v4.752h-4.752v-2.376zm28.512-14.257v-2.376h4.752v-4.752h4.752v-4.752h4.752V71.28h-4.752v-4.752h-9.504v-4.752h-9.504v-4.752h-4.752v-4.752H71.28V47.52h-9.504v4.752h-4.752v4.752h-4.752v4.752h9.504v4.752h4.752v4.752h4.752v14.256h4.752v4.752h4.752v4.752h9.504v-2.376z"/></svg>