<svg xmlns="http://www.w3.org/2000/svg" width="152.064" height="152.064" viewBox="0 0 152.064 152.064"><path d="M16.632 133.057v-2.377h4.752v4.752h-4.752v-2.375zm38.016 0v-2.377H59.4v4.752h-4.752v-2.375zm38.017 0v-2.377h4.752v4.752h-4.752v-2.375zm38.015 0v-2.377h4.752v4.752h-4.752v-2.375zM16.632 95.04v-2.375h4.752v4.752h-4.752V95.04zm38.016 0v-2.375H59.4v4.752h-4.752V95.04zm38.017 0v-2.375h4.752v4.752h-4.752V95.04zm38.015 0v-2.375h4.752v4.752h-4.752V95.04zM16.632 57.024v-2.376h4.752V59.4h-4.752v-2.376zm38.016 0v-2.376H59.4V59.4h-4.752v-2.376zm38.017 0v-2.376h4.752V59.4h-4.752v-2.376zm38.015 0v-2.376h4.752V59.4h-4.752v-2.376zM16.632 19.009v-2.376h4.752v4.752h-4.752v-2.376zm38.016 0v-2.376H59.4v4.752h-4.752v-2.376zm38.017 0v-2.376h4.752v4.752h-4.752v-2.376zm38.015 0v-2.376h4.752v4.752h-4.752v-2.376z"/><path fill="none" d="M152.064 0v152.065H0V0"/></svg>