<svg xmlns="http://www.w3.org/2000/svg" width="152.064" height="152.064" viewBox="0 0 152.064 152.064"><path d="M16.632 148.501v-3.564H11.88v-4.752H7.128v-4.752H0v-4.752h7.128v-4.752h4.752v-4.752h4.752v-14.256H11.88v-4.753H7.128v-4.752H0v-4.752h7.128v-4.752h4.752V83.16h4.752V68.904H11.88v-4.752H7.128V59.4H0v-4.752h7.128v-4.752h4.752v-4.752h4.752V30.887H11.88v-4.752H7.128v-4.751H0v-4.752h7.128V11.88h4.752V7.128h4.752V0h4.752v7.127h4.752v4.752h4.752v4.752h14.256V11.88h4.752V7.128h4.752V0H59.4v7.127h4.752v4.752h4.752v4.752H83.16V11.88h4.752V7.128h4.752V0h4.752v7.127h4.752v4.752h4.752v4.752h14.257V11.88h4.752V7.128h4.752V0h4.752v7.127h4.752v4.752h4.752v4.752h7.127v4.752h-7.127v4.752h-4.752v4.752h-4.752v14.257h4.752v4.752h4.752v4.752h7.127V59.4h-7.127v4.752h-4.752v4.752h-4.752V83.16h4.752v4.752h4.752v4.752h7.127v4.752h-7.127v4.752h-4.752v4.753h-4.752v14.256h4.752v4.752h4.752v4.752h7.127v4.752h-7.127v4.752h-4.752v4.752h-4.752v7.127h-4.752v-7.127h-4.752v-4.752h-4.752v-4.752H106.92v4.752h-4.752v4.752h-4.752v7.127h-4.752v-7.127h-4.752v-4.752H83.16v-4.752H68.904v4.752h-4.752v4.752H59.4v7.127h-4.752v-7.127h-4.752v-4.752h-4.752v-4.752H30.888v4.752h-4.752v4.752h-4.752v7.127h-4.752v-3.563zm4.752-5.94v-2.376h4.752v-4.752h4.752v-4.752h14.256v4.752h4.752v4.752h4.752v4.752H59.4v-4.752h4.752v-4.752h4.752v-4.752H83.16v4.752h4.752v4.752h4.752v4.752h4.752v-4.752h4.752v-4.752h4.752v-4.752h14.257v4.752h4.752v4.752h4.752v4.752h4.752v-4.752h4.752v-4.752h4.752v-4.752h-4.752v-4.752h-4.752v-4.752h-4.752v-14.256h4.752v-4.753h4.752v-4.752h4.752v-4.752h-4.752v-4.752h-4.752V83.16h-4.752V68.904h4.752v-4.752h4.752V59.4h4.752v-4.752h-4.752v-4.752h-4.752v-4.752h-4.752V30.887h4.752v-4.752h4.752v-4.751h4.752v-4.752h-4.752V11.88h-4.752V7.128h-4.752v4.752h-4.752v4.752h-4.752v4.752H106.92v-4.752h-4.752V11.88h-4.752V7.128h-4.752v4.752h-4.752v4.752H83.16v4.752H68.904v-4.752h-4.752V11.88H59.4V7.128h-4.752v4.752h-4.752v4.752h-4.752v4.752H30.888v-4.752h-4.752V11.88h-4.752V7.128h-4.752v4.752H11.88v4.752H7.128v4.752h4.752v4.752h4.752v4.752h4.752v14.257h-4.752v4.752H11.88v4.752H7.128V59.4h4.752v4.752h4.752v4.752h4.752V83.16h-4.752v4.752H11.88v4.752H7.128v4.752h4.752v4.752h4.752v4.753h4.752v14.256h-4.752v4.752H11.88v4.752H7.128v4.752h4.752v4.752h4.752v4.752h4.752v-2.376zm-4.752-9.504v-2.376h4.752v4.752h-4.752v-2.376zm38.016 0v-2.376H59.4v4.752h-4.752v-2.376zm38.016 0v-2.376h4.752v4.752h-4.752v-2.376zm38.017 0v-2.376h4.752v4.752h-4.752v-2.376zm-104.545-4.752v-2.376h-4.752v-4.752h4.752v4.752h4.752v4.752h-4.752v-2.376zm19.008 0v-2.376h4.752v-4.752h4.752v-14.256h-4.752v-4.753h-4.752v-4.752H30.888v4.752h-4.752v4.753h-4.752v-4.753h4.752v-4.752h4.752v-4.752h-4.752v-4.752h-4.752V83.16h4.752v4.752h4.752v4.752h14.256v-4.752h4.752V83.16h4.752V68.904h-4.752v-4.752h-4.752V59.4H30.888v4.752h-4.752v4.752h-4.752v-4.752h4.752V59.4h4.752v-4.752h-4.752v-4.752h-4.752v-4.752h4.752v4.752h4.752v4.752h14.256v-4.752h4.752v-4.752h4.752V30.887h-4.752v-4.752h-4.752v-4.751h4.752v4.752h4.752v4.752H59.4v-4.752h4.752v-4.752h4.752v4.752h-4.752v4.752H59.4v14.257h4.752v4.752h4.752v4.752H83.16v-4.752h4.752v-4.752h4.752V30.888h-4.752v-4.752H83.16v-4.752h4.752v4.752h4.752v4.752h4.752v-4.752h4.752v-4.752h4.752v4.752h-4.752v4.752h-4.752v14.257h4.752v4.752h4.752v4.752h14.257v-4.752h4.752v-4.752h4.752v4.752h-4.752v4.752h-4.752V59.4h4.752v4.752h4.752v4.752h-4.752v-4.752h-4.752V59.4H106.92v4.752h-4.752v4.752h-4.752V83.16h4.752v4.752h4.752v4.752h14.257v-4.752h4.752V83.16h4.752v4.752h-4.752v4.752h-4.752v4.752h4.752v4.752h4.752v4.753h-4.752v-4.753h-4.752v-4.752H106.92v4.752h-4.752v4.753h-4.752v14.256h4.752v4.752h4.752v4.752h-4.752v-4.752h-4.752v-4.752h-4.752v4.752h-4.752v4.752H83.16v-4.752h4.752v-4.752h4.752v-14.256h-4.752v-4.753H83.16v-4.752H68.904v4.752h-4.752v4.753H59.4v14.256h4.752v4.752h4.752v4.752h-4.752v-4.752H59.4v-4.752h-4.752v4.752h-4.752v4.752h-4.752v-2.376zm14.256-23.76v-2.377h4.752v-4.752h4.752v-4.752H83.16v4.752h4.752v4.752h4.752v4.753h4.752v-4.753h4.752v-4.752h4.752v-4.752h-4.752v-4.752h-4.752V83.16h-4.752V68.904h4.752v-4.752h4.752V59.4h4.752v-4.752h-4.752v-4.752h-4.752v-4.752h-4.752v4.752h-4.752v4.752H83.16V59.4H68.904v-4.752h-4.752v-4.752H59.4v-4.752h-4.752v4.752h-4.752v4.752h-4.752V59.4h4.752v4.752h4.752v4.752H59.4V83.16h-4.752v4.752h-4.752v4.752h-4.752v4.752h4.752v4.752h4.752v4.753H59.4v-2.376zm-4.752-9.505v-2.376H59.4v4.752h-4.752V95.04zm38.016 0v-2.376h4.752v4.752h-4.752V95.04zm-28.512-4.752v-2.376H59.4V83.16h4.752v4.752h4.752v4.752h-4.752v-2.376zm19.008 0v-2.376h4.752V83.16h4.752v4.752h-4.752v4.752H83.16v-2.376zM59.4 66.528v-2.376h4.752V59.4h4.752v4.752h-4.752v4.752H59.4v-2.376zm28.512 0v-2.376H83.16V59.4h4.752v4.752h4.752v4.752h-4.752v-2.376zm-33.264-9.504v-2.376H59.4V59.4h-4.752v-2.376zm38.016 0v-2.376h4.752V59.4h-4.752v-2.376zm28.513 71.281v-2.376h4.752v-4.752h4.752v4.752h-4.752v4.752h-4.752v-2.376zM16.632 95.04v-2.376h4.752v4.752h-4.752V95.04zm114.049 0v-2.376h4.752v4.752h-4.752V95.04zM16.632 57.024v-2.376h4.752V59.4h-4.752v-2.376zm114.049 0v-2.376h4.752V59.4h-4.752v-2.376zM21.384 28.512v-2.376h4.752v-4.752h4.752v4.752h-4.752v4.752h-4.752v-2.376zm104.545 0v-2.376h-4.752v-4.752h4.752v4.752h4.752v4.752h-4.752v-2.376zM16.632 19.008v-2.376h4.752v4.752h-4.752v-2.376zm38.016 0v-2.376H59.4v4.752h-4.752v-2.376zm38.016 0v-2.376h4.752v4.752h-4.752v-2.376zm38.017 0v-2.376h4.752v4.752h-4.752v-2.376z"/></svg>