<svg xmlns="http://www.w3.org/2000/svg" width="152.064" height="152.064" viewBox="0 0 152.064 152.064"><path d="M9.504 149.688v-2.377h4.753v-4.752H9.504v-4.752H4.752v-4.752H0v-4.752h4.752v4.752h4.752v4.752h14.257v-4.752h4.752v-4.752h4.752v-4.752h4.752V118.8h4.752v-4.752h4.752v-4.752h4.752v-4.752H47.52v-4.752h-4.752V95.04H28.512v4.752H23.76v4.752h-4.752v4.752h-4.752v4.752H9.504v4.752H4.752v4.752H0V118.8h4.752v-4.752h4.752v-4.752h4.753v-4.752H9.504v-4.752H4.752V95.04H0v-4.752h4.752v4.752h4.752v4.752h14.257V95.04h4.752v-4.752h4.752v-4.752h4.752v-4.752h4.752v-4.752h4.752V71.28h4.752v-4.752H47.52v-4.752h-4.752v-4.752H28.512v4.752H23.76v4.752h-4.752v4.752h-4.752v4.752H9.504v4.752H4.752v4.752H0v-4.752h4.752v-4.752h4.752V71.28h4.753v-4.752H9.504v-4.752H4.752v-4.752H0v-4.752h4.752v4.752h4.752v4.752h14.257v-4.752h4.752v-4.752h4.752V47.52h4.752v-4.752h4.752v-4.753h4.752v-4.752h4.752v-4.752H47.52V23.76h-4.752v-4.752H28.512v4.752H23.76v4.752h-4.752v4.752h-4.752v4.752H9.504v4.753H4.752v4.752H0v-4.752h4.752v-4.753h4.752v-4.753h4.753v-4.752H9.504V23.76H4.752v-4.752H0v-4.752h4.752v4.752h4.752v4.752h14.257v-4.752h4.752v-4.752h4.752V9.504h4.752V4.752h4.752V0h4.752v4.752h-4.752v4.752h-4.752v4.752h4.752v4.752h4.752v4.752h14.256v-4.752h4.752v-4.752h4.753V9.504h4.752V4.752h4.752V0h4.752v4.752h-4.752v4.752h-4.752v4.752h4.752v4.752h4.752v4.752h14.256v-4.752h4.752v-4.752h4.752V9.504h4.752V4.752h4.752V0h4.752v4.752h-4.752v4.752h-4.752v4.752h4.752v4.752h4.752v4.752h14.257v-4.752h4.752v-4.752h4.752V9.504h4.752v9.504h-9.504v4.752h-4.752v4.752h-4.753v4.752h-4.752v4.752h-4.752v4.753h-4.752v4.752h-4.752v4.752h4.752v4.752h4.752v4.751h14.257v-4.752h4.752v-4.752h4.752V47.52h4.752v9.504h-9.504v4.752h-4.752v4.752h-4.753v4.752h-4.752v4.752h-4.752v4.752h-4.752v4.752h-4.752v4.752h4.752v4.752h4.752v4.752h14.257V95.04h4.752v-4.752h4.752v-4.752h4.752v9.504h-9.504v4.752h-4.752v4.752h-4.753v4.752h-4.752v4.752h-4.752v4.752h-4.752v4.752h-4.752v4.752h4.752v4.752h4.752v4.752h14.257v-4.752h4.752v-4.752h4.752v-4.752h4.752v9.504h-9.504v4.752h-4.752v4.752h-4.753v4.752h-4.752v4.752h-4.752v-4.752h4.752v-4.752h-4.752v-4.752h-4.752v-4.752h-14.256v4.752h-4.752v4.752h-4.752v4.752H90.29v4.752h-4.752v-4.752h4.752v-4.752h-4.752v-4.752h-4.752v-4.752H66.529v4.752h-4.752v4.752h-4.753v4.752h-4.752v4.752H47.52v-4.752h4.752v-4.752H47.52v-4.752h-4.752v-4.752H28.512v4.752H23.76v4.752h-4.752v4.752h-4.752v4.752H9.504v-2.376zm52.272-14.256v-2.377h4.752v-4.752h4.753v-4.752h4.752v4.752h4.752v4.752h4.752v4.752h14.256v-4.752h4.752v-4.752h4.752v-4.752h4.752V118.8h4.752v-4.752h4.752v-4.752h4.752v-4.752h-4.752v-4.752h-4.752V95.04h-14.256v-4.752h4.752v-4.752h4.752v-4.752h4.752v-4.752h4.752V71.28h4.752v-4.752h-4.752v-4.752h-4.752v-4.752h-14.256v-4.752h4.752V47.52h4.752v-4.752h4.752v-4.753h4.752v-4.752h4.752v-4.752h-4.752V23.76h-4.752v-4.752h-14.256v4.752h-4.752v4.752h-4.752v4.752h-4.752v-4.752h-4.752V23.76h-4.752v-4.752H66.528v4.752h-4.752v4.752h-4.752v4.752h-4.752v4.752H47.52v4.753h-4.752v4.752h-4.752v4.752h4.752v4.752h4.752v4.751h14.256v4.752h-4.752v4.752h-4.752v4.752H47.52v4.752h-4.752v4.752h-4.752v4.752h4.752v4.752h4.752v4.752h14.256v4.752h-4.752v4.752h-4.752v4.752H47.52v4.752h-4.752v4.752h-4.752v4.752h4.752v4.752h4.752v4.752h14.256v-2.376zm14.257-14.255V118.8h4.752v-4.752h4.752v-4.752h4.752v-4.752h-4.752v-4.752h-4.752V95.04H66.528v4.752h-4.752V95.04h4.752v-4.752h4.753v-4.752h4.752v-4.752h4.752v-4.752h4.752V71.28h4.752v-4.752h-4.752v-4.752h-4.752v-4.752H66.528v4.752h-4.752v-4.752h4.752v-4.752h4.753V47.52h4.752v-4.752h4.752v-4.753h4.752v-4.752h4.752v4.752h-4.752v4.753h-4.752v4.752h-4.752v4.752h4.752v4.752h4.752v4.752h14.256v-4.752h4.752v4.752h-4.752v4.752h-4.752v4.752h-4.752v4.752h-4.752v4.752h-4.752v4.752h-4.752v4.752h4.752v4.752h4.752v4.752h14.256V95.04h4.752v4.752h-4.752v4.752h-4.752v4.752h-4.752v4.752h-4.752v4.752h-4.752v4.752h-4.752v-2.375zM0 7.128V4.752h4.752V0h4.752v4.752H4.752v4.752H0V7.128z"/></svg>