<svg xmlns="http://www.w3.org/2000/svg" width="152.064" height="152.064" viewBox="0 0 152.064 152.064"><path d="M7.721 148.5v-3.563H0v-4.752h7.722v-14.257H0v-4.752h7.722V106.92H0v-4.752h7.722V87.912H0V83.16h7.722V68.904H0v-4.752h7.722V49.895H0v-4.752h7.722V30.887H0v-4.752h7.722V11.88H0V7.128h7.722V0h4.752v7.127H26.73V0h4.752v7.127h14.256V0h4.752v7.127h14.256V0h4.752v7.127h14.257V0h4.752v7.127h14.256V0h4.752v7.127h14.256V0h4.752v7.127h14.257V0h4.752v7.127h6.534v4.752h-6.534v14.256h6.534v4.752h-6.534v14.256h6.534v4.752h-6.534v14.257h6.534v4.752h-6.534V83.16h6.534v4.752h-6.534v14.256h6.534v4.752h-6.534v14.256h6.534v4.752h-6.534v14.257h6.534v4.752h-6.534v7.127h-4.752v-7.127h-14.257v7.127h-4.752v-7.127h-14.256v7.127h-4.752v-7.127H88.507v7.127h-4.752v-7.127H69.498v7.127h-4.752v-7.127H50.49v7.127h-4.752v-7.127H31.482v7.127H26.73v-7.127H12.474v7.127H7.721V148.5zm19.009-15.444v-7.129H12.474v14.257H26.73v-7.128zm19.008 0v-7.129H31.482v14.257h14.256v-7.128zm19.008 0v-7.129H50.49v14.257h14.256v-7.128zm19.009 0v-7.129H69.498v14.257h14.257v-7.128zm19.007 0v-7.129H88.506v14.257h14.256v-7.128zm19.008 0v-7.129h-14.256v14.257h14.256v-7.128zm19.009 0v-7.129h-14.257v14.257h14.257v-7.128zM26.73 114.048v-7.128H12.474v14.256H26.73v-7.128zm19.008 0v-7.128H31.482v14.256h14.256v-7.128zm19.008 0v-7.128H50.49v14.256h14.256v-7.128zm19.009 0v-7.128H69.498v14.256h14.257v-7.128zm19.007 0v-7.128H88.506v14.256h14.256v-7.128zm19.008 0v-7.128h-14.256v14.256h14.256v-7.128zm19.009 0v-7.128h-14.257v14.256h14.257v-7.128zM26.73 95.04v-7.128H12.474v14.256H26.73V95.04zm19.008 0v-7.128H31.482v14.256h14.256V95.04zm19.008 0v-7.128H50.49v14.256h14.256V95.04zm19.009 0v-7.128H69.498v14.256h14.257V95.04zm19.007 0v-7.128H88.506v14.256h14.256V95.04zm19.008 0v-7.128h-14.256v14.256h14.256V95.04zm19.009 0v-7.128h-14.257v14.256h14.257V95.04zM26.73 76.032v-7.128H12.474V83.16H26.73v-7.128zm19.008 0v-7.128H31.482V83.16h14.256v-7.128zm19.008 0v-7.128H50.49V83.16h14.256v-7.128zm19.009 0v-7.128H69.498V83.16h14.257v-7.128zm19.007 0v-7.128H88.506V83.16h14.256v-7.128zm19.008 0v-7.128h-14.256V83.16h14.256v-7.128zm19.009 0v-7.128h-14.257V83.16h14.257v-7.128zM26.73 57.023v-7.128H12.474v14.257H26.73v-7.129zm19.008 0v-7.128H31.482v14.257h14.256v-7.129zm19.008 0v-7.128H50.49v14.257h14.256v-7.129zm19.009 0v-7.128H69.498v14.257h14.257v-7.129zm19.007 0v-7.128H88.506v14.257h14.256v-7.129zm19.008 0v-7.128h-14.256v14.257h14.256v-7.129zm19.009 0v-7.128h-14.257v14.257h14.257v-7.129zM26.73 38.015v-7.128H12.474v14.256H26.73v-7.128zm19.008 0v-7.128H31.482v14.256h14.256v-7.128zm19.008 0v-7.128H50.49v14.256h14.256v-7.128zm19.009 0v-7.128H69.498v14.256h14.257v-7.128zm19.007 0v-7.128H88.506v14.256h14.256v-7.128zm19.008 0v-7.128h-14.256v14.256h14.256v-7.128zm19.009 0v-7.128h-14.257v14.256h14.257v-7.128zM26.73 19.008V11.88H12.474v14.256H26.73v-7.128zm19.008 0V11.88H31.482v14.256h14.256v-7.128zm19.008 0V11.88H50.49v14.256h14.256v-7.128zm19.009 0V11.88H69.498v14.256h14.257v-7.128zm19.007 0V11.88H88.506v14.256h14.256v-7.128zm19.008 0V11.88h-14.256v14.256h14.256v-7.128zm19.009 0V11.88h-14.257v14.256h14.257v-7.128z"/></svg>