<svg xmlns="http://www.w3.org/2000/svg" width="152.064" height="152.064" viewBox="0 0 152.064 152.064"><path d="M0 147.313v-4.752h4.752v-4.752H0v-14.256h4.752V118.8H0v-14.256h4.752v-4.752H0V85.536h4.752v-4.752H0V66.528h4.752v-4.752H0V47.52h4.752v-4.752H0V28.512h4.752V23.76H0V9.504h4.752V4.752H0V0h4.752v4.752h4.752V0H23.76v4.752h4.752V0h14.257v4.752h4.752V0h14.256v4.752h4.752V0h14.256v4.752h4.752V0h14.256v4.752h4.752V0h14.256v4.752h4.752V0h14.256v4.752h4.752V0h9.504v9.504h-4.752v4.752h4.752v14.256h-4.752v4.752h4.752V47.52h-4.752v4.752h4.752v14.256h-4.752v4.752h4.752v14.256h-4.752v4.752h4.752v14.256h-4.752v4.752h4.752v14.258h-4.752v4.752h4.752v14.256h-4.752v4.752h4.752v4.752h-4.752v-4.752h-4.752v4.752h-14.256v-4.752h-4.752v4.752h-14.256v-4.752h-4.752v4.752H90.289v-4.752h-4.752v4.752H71.28v-4.752h-4.752v4.752H52.272v-4.752H47.52v4.752H33.263v-4.752h-4.752v4.752H14.255v-4.752H9.504v4.752H0v-4.753zm19.008-2.377v-2.375h4.752v-4.752h4.752v-4.752h4.752v-4.752h4.752v-4.752h4.753V118.8h4.752v-4.752h4.752v-4.752h4.752v-4.752h4.751v-4.752h4.752V95.04h4.752v-4.752h4.752v-4.752h4.752v-4.752h4.752v-4.752h4.752V71.28h4.752v-4.752h4.752v-4.752h4.752v-4.752h4.752v-4.752h4.752V47.52h4.752v-4.752h4.752v-4.752h4.752v-4.752h4.752v-4.752h4.752V23.76h4.752v-4.752h4.752v-4.752h-4.752v4.752h-4.752v4.752h-4.752v4.752h-4.752v4.752h-4.752v4.752H118.8v4.752h-4.752v4.752h-4.752v4.752h-4.752v4.752h-4.752v4.752H95.04v4.752h-4.752v4.752h-4.752v4.752h-4.752v4.752h-4.752v4.752H71.28v4.752h-4.752v4.752h-4.752v4.752h-4.752v4.752h-4.752v4.752H47.52v4.752h-4.752v4.752h-4.753v4.754h-4.752v4.752h-4.752v4.752H23.76v4.752h-4.752v4.752h-4.752v4.752h4.752v-2.378zm19.007 0v-2.375h4.753v-4.752h4.752v-4.752h4.752v-4.752h4.752v-4.752h4.752V118.8h4.752v-4.752h4.752v-4.752h4.752v-4.752h4.752v-4.752h4.752V95.04h4.752v-4.752h4.752v-4.752h4.752v-4.752h4.752v-4.752h4.752V71.28h4.752v-4.752h4.752v-4.752h4.752v-4.752h4.752v-4.752h4.752V47.52h4.752v-4.752h4.752v-4.752h4.752v-4.752h-4.752v4.752h-4.752v4.752h-4.752v4.752h-4.752v4.752h-4.752v4.752H118.8v4.752h-4.752v4.752h-4.752v4.752h-4.752v4.752h-4.752v4.752H95.04v4.752h-4.752v4.752h-4.752v4.752h-4.752v4.752h-4.752v4.752H71.28v4.752h-4.752v4.752h-4.752v4.752h-4.752v4.754h-4.752v4.752H47.52v4.752h-4.752v4.752h-4.753v4.752h-4.752v4.752h4.752v-2.378zm19.009 0v-2.375h4.752v-4.752h4.752v-4.752h4.752v-4.752h4.752v-4.752h4.752V118.8h4.752v-4.752h4.752v-4.752h4.752v-4.752h4.752v-4.752h4.752V95.04h4.752v-4.752h4.752v-4.752h4.752v-4.752h4.752v-4.752h4.752V71.28h4.752v-4.752h4.752v-4.752h4.752v-4.752h4.752v-4.752h-4.752v4.752h-4.752v4.752h-4.752v4.752h-4.752v4.752h-4.752v4.752H118.8v4.752h-4.752v4.752h-4.752v4.752h-4.752v4.752h-4.752v4.752H95.04v4.752h-4.752v4.752h-4.752v4.752h-4.752v4.752h-4.752v4.754H71.28v4.752h-4.752v4.752h-4.752v4.752h-4.752v4.752h-4.752v4.752h4.752v-2.378zm19.008 0v-2.375h4.752v-4.752h4.752v-4.752h4.752v-4.752h4.752v-4.752h4.752V118.8h4.752v-4.752h4.752v-4.752h4.752v-4.752h4.752v-4.752h4.752V95.04h4.752v-4.752h4.752v-4.752h4.752v-4.752h4.752v-4.752h4.752V71.28h-4.752v4.752h-4.752v4.752h-4.752v4.752h-4.752v4.752h-4.752v4.752H118.8v4.752h-4.752v4.752h-4.752v4.752h-4.752v4.752h-4.752v4.752H95.04v4.754h-4.752v4.752h-4.752v4.752h-4.752v4.752h-4.752v4.752H71.28v4.752h4.752v-2.378zm19.008 0v-2.375h4.752v-4.752h4.752v-4.752h4.752v-4.752h4.752v-4.752h4.752V118.8h4.752v-4.752h4.752v-4.752h4.752v-4.752h4.752v-4.752h4.752V95.04h4.752v-4.752h-4.752v4.752h-4.752v4.752h-4.752v4.752h-4.752v4.752h-4.752v4.752H118.8v4.752h-4.752v4.754h-4.752v4.752h-4.752v4.752h-4.752v4.752H95.04v4.752h-4.752v4.752h4.752v-2.378zm19.008 0v-2.375h4.752v-4.752h4.752v-4.752h4.752v-4.752h4.752v-4.752h4.752V118.8h4.752v-4.752h4.752v-4.752h-4.752v4.752h-4.752v4.752h-4.752v4.754h-4.752v4.752h-4.752v4.752H118.8v4.752h-4.752v4.752h-4.752v4.752h4.752v-2.378zm19.007 0v-2.375h4.752v-4.752h4.752v-4.752h4.752v-4.752h-4.752v4.752h-4.752v4.752h-4.752v4.752h-4.752v4.752h4.752v-2.377zM9.504 135.432v-2.375h4.752v-4.752h4.752v-4.752h4.752V118.8h4.752v-4.752h4.752v-4.752h4.752v-4.752h4.753v-4.752h4.752V95.04h4.752v-4.752h4.752v-4.752h4.751v-4.752h4.752v-4.752h4.752V71.28h4.752v-4.752h4.752v-4.752h4.752v-4.752h4.752v-4.752h4.752V47.52h4.752v-4.752h4.752v-4.752h4.752v-4.752h4.752v-4.752h4.752V23.76h4.752v-4.752h4.752v-4.752h4.752V9.504h4.752V4.752h-4.752v4.752h-4.752v4.752h-4.752v4.752H118.8v4.752h-4.752v4.752h-4.752v4.752h-4.752v4.752h-4.752v4.752H95.04v4.752h-4.752v4.752h-4.752v4.752h-4.752v4.752h-4.752v4.752H71.28v4.752h-4.752v4.752h-4.752v4.752h-4.752v4.752h-4.752v4.752H47.52v4.752h-4.752v4.752h-4.753v4.752h-4.752v4.752h-4.752v4.752H23.76v4.752h-4.752v4.754h-4.752v4.752H9.504v4.752H4.752v4.752h4.752v-2.378zm0-19.007v-2.377h4.752v-4.752h4.752v-4.752h4.752v-4.752h4.752V95.04h4.752v-4.752h4.752v-4.752h4.753v-4.752h4.752v-4.752h4.752V71.28h4.752v-4.752h4.751v-4.752h4.752v-4.752h4.752v-4.752h4.752V47.52h4.752v-4.752h4.752v-4.752h4.752v-4.752h4.752v-4.752h4.752V23.76h4.752v-4.752h4.752v-4.752h4.752V9.504h4.752V4.752h-4.752v4.752h-4.752v4.752h-4.752v4.752h-4.752v4.752H95.04v4.752h-4.752v4.752h-4.752v4.752h-4.752v4.752h-4.752v4.752H71.28v4.752h-4.752v4.752h-4.752v4.752h-4.752v4.752h-4.752v4.752H47.52v4.752h-4.752v4.752h-4.753v4.752h-4.752v4.752h-4.752v4.752H23.76v4.752h-4.752v4.752h-4.752v4.752H9.504v4.752H4.752v4.752h4.752v-2.375zm0-19.008V95.04h4.752v-4.752h4.752v-4.752h4.752v-4.752h4.752v-4.752h4.752V71.28h4.752v-4.752h4.753v-4.752h4.752v-4.752h4.752v-4.752h4.752V47.52h4.751v-4.752h4.752v-4.752h4.752v-4.752h4.752v-4.752h4.752V23.76h4.752v-4.752h4.752v-4.752h4.752V9.504h4.752V4.752H95.04v4.752h-4.752v4.752h-4.752v4.752h-4.752v4.752h-4.752v4.752H71.28v4.752h-4.752v4.752h-4.752v4.752h-4.752v4.752h-4.752v4.752H47.52v4.752h-4.752v4.752h-4.753v4.752h-4.752v4.752h-4.752v4.752H23.76v4.752h-4.752v4.752h-4.752v4.752H9.504v4.752H4.752v4.752h4.752v-2.375zm0-19.009v-2.376h4.752V71.28h4.752v-4.752h4.752v-4.752h4.752v-4.752h4.752v-4.752h4.752V47.52h4.753v-4.752h4.752v-4.752h4.752v-4.752h4.752v-4.752h4.751V23.76h4.752v-4.752h4.752v-4.752h4.752V9.504h4.752V4.752h-4.752v4.752H71.28v4.752h-4.752v4.752h-4.752v4.752h-4.752v4.752h-4.752v4.752H47.52v4.752h-4.752v4.752h-4.753v4.752h-4.752v4.752h-4.752v4.752H23.76v4.752h-4.752v4.752h-4.752v4.752H9.504v4.752H4.752v4.752h4.752v-2.376zm0-19.008v-2.376h4.752v-4.752h4.752V47.52h4.752v-4.752h4.752v-4.752h4.752v-4.752h4.752v-4.752h4.753V23.76h4.752v-4.752h4.752v-4.752h4.752V9.504h4.751V4.752h-4.752v4.752h-4.752v4.752H47.52v4.752h-4.752v4.752h-4.753v4.752h-4.752v4.752h-4.752v4.752H23.76v4.752h-4.752v4.752h-4.752v4.752H9.504v4.752H4.752v4.752h4.752V59.4zm0-19.008v-2.376h4.752v-4.752h4.752v-4.752h4.752V23.76h4.752v-4.752h4.752v-4.752h4.752V9.504h4.753V4.752h-4.753v4.752h-4.752v4.752h-4.752v4.752H23.76v4.752h-4.752v4.752h-4.752v4.752H9.504v4.752H4.752v4.752h4.752v-2.376zm0-19.008v-2.376h4.752v-4.752h4.752V9.504h4.752V4.752h-4.752v4.752h-4.752v4.752H9.504v4.752H4.752v4.752h4.752v-2.376z"/></svg>