<svg xmlns="http://www.w3.org/2000/svg" width="152.064" height="152.064" viewBox="0 0 152.064 152.064"><path d="M9.207 147.608v-4.455H0v-9.504h13.958v18.414H9.207v-4.455zm9.504-4.752v-9.207h33.265v18.414h-4.752v-8.91H28.215v8.91h-9.504v-9.207zm38.016 0v-9.207h33.265v18.414h-4.753v-8.91H66.231v8.91h-9.504v-9.207zm38.017 0v-9.207h33.264v18.414h-4.752v-8.91h-19.008v8.91h-9.504v-9.207zm38.016 0v-9.207h19.304v9.504h-9.8v8.91h-9.504v-9.207zM0 126.522v-2.377h9.208v-19.008H0v-9.504h13.958v33.264H0v-2.375zm18.711-14.257V95.634h33.265v33.264H18.711v-16.633zm28.512 2.376v-9.504H28.214v19.008h19.009v-9.504zm9.504-2.376V95.634h33.265v33.264H56.727v-16.633zm28.512 2.376v-9.504H66.231v19.008h19.008v-9.504zm9.505-2.376V95.634h33.264v33.264H94.744v-16.633zm28.512 2.376v-9.504h-19.008v19.008h19.008v-9.504zm9.504-2.376V95.634h19.304v9.504h-9.8v19.008h9.8v4.752H132.76v-16.633zM0 88.506V86.13h9.208V67.122H0v-9.504h13.958v33.264H0v-2.376zM18.711 74.25V57.618h33.265v33.264H18.711V74.25zm28.512 2.376v-9.504H28.214V86.13h19.009v-9.504zm9.504-2.376V57.618h33.265v33.264H56.727V74.25zm28.512 2.376v-9.504H66.231V86.13h19.008v-9.504zm9.505-2.376V57.618h33.264v33.264H94.744V74.25zm28.512 2.376v-9.504h-19.008V86.13h19.008v-9.504zm9.504-2.376V57.618h19.304v9.504h-9.8V86.13h9.8v4.752H132.76V74.25zM0 50.49v-2.377h9.208V29.105H0v-9.504h13.958v33.265H0V50.49zm18.711-14.257V19.601h33.265v33.265H18.711V36.233zm28.512 2.376v-9.504H28.214v19.008h19.009v-9.504zm9.504-2.376V19.601h33.265v33.265H56.727V36.233zm28.512 2.376v-9.504H66.231v19.008h19.008v-9.504zm9.505-2.376V19.601h33.264v33.265H94.744V36.233zm28.512 2.376v-9.504h-19.008v19.008h19.008v-9.504zm9.504-2.376V19.601h19.304v9.504h-9.8v19.008h9.8v4.753H132.76V36.233zM0 12.473v-2.376h9.208V0h4.752v14.85H0v-2.377zm18.711-5.048V0h9.504v10.098h19.009V0h4.752v14.85H18.711V7.425zm38.016 0V0h9.504v10.098h19.008V0h4.753v14.85H56.727V7.425zm38.017 0V0h9.504v10.098h19.008V0h4.752v14.85H94.744V7.425zm38.016 0V0h9.504v10.098h9.8v4.752H132.76V7.425z"/></svg>