<svg xmlns="http://www.w3.org/2000/svg" width="152.064" height="152.064" viewBox="0 0 152.064 152.064"><path d="M11.88 147.313v-2.375h4.753v4.752H11.88v-2.377zm19.008 0v-2.375h4.752v4.752h-4.752v-2.377zm19.008 0v-2.375h4.752v4.752h-4.752v-2.377zm19.008 0v-2.375h4.753v4.752h-4.753v-2.377zm19.009 0v-2.375h4.752v4.752h-4.752v-2.377zm19.008 0v-2.375h4.752v4.752h-4.752v-2.377zm19.007 0v-2.375h4.754v4.752h-4.754v-2.377zm19.01 0v-2.375h4.752v4.752h-4.752v-2.377zM11.881 137.81v-2.375h4.752v4.752H11.88v-2.377zm38.015 0v-2.375h4.752v4.752h-4.752v-2.377zm38.017 0v-2.375h4.752v4.752h-4.752v-2.377zm38.015 0v-2.375h4.754v4.752h-4.754v-2.377zM2.376 128.305v-2.377h4.753v4.754H2.376v-2.377zm9.505 0v-2.377h4.752v4.754H11.88v-2.377zm9.503 0v-2.377h4.752v4.754h-4.752v-2.377zm9.504 0v-2.377h4.752v4.754h-4.752v-2.377zm9.504 0v-2.377h4.752v4.754h-4.752v-2.377zm9.504 0v-2.377h4.752v4.754h-4.752v-2.377zm9.504 0v-2.377h4.752v4.754H59.4v-2.377zm9.504 0v-2.377h4.753v4.754h-4.753v-2.377zm9.505 0v-2.377h4.752v4.754h-4.752v-2.377zm9.504 0v-2.377h4.752v4.754h-4.752v-2.377zm9.504 0v-2.377h4.752v4.754h-4.752v-2.377zm9.504 0v-2.377h4.752v4.754h-4.752v-2.377zm9.503 0v-2.377h4.752v4.754h-4.752v-2.377zm9.504 0v-2.377h4.754v4.754h-4.754v-2.377zm9.506 0v-2.377h4.752v4.754h-4.752v-2.377zm9.504 0v-2.377h4.752v4.754h-4.752v-2.377zm-133.057-9.503v-2.377h4.752v4.752H11.88v-2.375zm38.015 0v-2.377h4.752v4.752h-4.752v-2.375zm38.017 0v-2.377h4.752v4.752h-4.752v-2.375zm38.015 0v-2.377h4.754v4.752h-4.754v-2.375zm-114.047-9.504v-2.377h4.752v4.752H11.88v-2.375zm19.007 0v-2.377h4.752v4.752h-4.752v-2.375zm19.008 0v-2.377h4.752v4.752h-4.752v-2.375zm19.008 0v-2.377h4.753v4.752h-4.753v-2.375zm19.009 0v-2.377h4.752v4.752h-4.752v-2.375zm19.008 0v-2.377h4.752v4.752h-4.752v-2.375zm19.007 0v-2.377h4.754v4.752h-4.754v-2.375zm19.01 0v-2.377h4.752v4.752h-4.752v-2.375zM11.881 99.794v-2.377h4.752v4.752H11.88v-2.375zm38.015 0v-2.377h4.752v4.752h-4.752v-2.375zm38.017 0v-2.377h4.752v4.752h-4.752v-2.375zm38.015 0v-2.377h4.754v4.752h-4.754v-2.375zM2.376 90.29v-2.377h4.753v4.752H2.376V90.29zm9.505 0v-2.377h4.752v4.752H11.88V90.29zm9.503 0v-2.377h4.752v4.752h-4.752V90.29zm9.504 0v-2.377h4.752v4.752h-4.752V90.29zm9.504 0v-2.377h4.752v4.752h-4.752V90.29zm9.504 0v-2.377h4.752v4.752h-4.752V90.29zm9.504 0v-2.377h4.752v4.752H59.4V90.29zm9.504 0v-2.377h4.753v4.752h-4.753V90.29zm9.505 0v-2.377h4.752v4.752h-4.752V90.29zm9.504 0v-2.377h4.752v4.752h-4.752V90.29zm9.504 0v-2.377h4.752v4.752h-4.752V90.29zm9.504 0v-2.377h4.752v4.752h-4.752V90.29zm9.503 0v-2.377h4.752v4.752h-4.752V90.29zm9.504 0v-2.377h4.754v4.752h-4.754V90.29zm9.506 0v-2.377h4.752v4.752h-4.752V90.29zm9.504 0v-2.377h4.752v4.752h-4.752V90.29zM11.881 80.785v-2.376h4.752v4.752H11.88v-2.376zm38.015 0v-2.376h4.752v4.752h-4.752v-2.376zm38.017 0v-2.376h4.752v4.752h-4.752v-2.376zm38.015 0v-2.376h4.754v4.752h-4.754v-2.376zM11.881 71.28v-2.376h4.752v4.752H11.88V71.28zm19.007 0v-2.376h4.752v4.752h-4.752V71.28zm19.008 0v-2.376h4.752v4.752h-4.752V71.28zm19.008 0v-2.376h4.753v4.752h-4.753V71.28zm19.009 0v-2.376h4.752v4.752h-4.752V71.28zm19.008 0v-2.376h4.752v4.752h-4.752V71.28zm19.007 0v-2.376h4.754v4.752h-4.754V71.28zm19.01 0v-2.376h4.752v4.752h-4.752V71.28zM11.881 61.776V59.4h4.752v4.752H11.88v-2.376zm38.015 0V59.4h4.752v4.752h-4.752v-2.376zm38.017 0V59.4h4.752v4.752h-4.752v-2.376zm38.015 0V59.4h4.754v4.752h-4.754v-2.376zM2.376 52.272v-2.376h4.753v4.752H2.376v-2.376zm9.505 0v-2.376h4.752v4.752H11.88v-2.376zm9.503 0v-2.376h4.752v4.752h-4.752v-2.376zm9.504 0v-2.376h4.752v4.752h-4.752v-2.376zm9.504 0v-2.376h4.752v4.752h-4.752v-2.376zm9.504 0v-2.376h4.752v4.752h-4.752v-2.376zm9.504 0v-2.376h4.752v4.752H59.4v-2.376zm9.504 0v-2.376h4.753v4.752h-4.753v-2.376zm9.505 0v-2.376h4.752v4.752h-4.752v-2.376zm9.504 0v-2.376h4.752v4.752h-4.752v-2.376zm9.504 0v-2.376h4.752v4.752h-4.752v-2.376zm9.504 0v-2.376h4.752v4.752h-4.752v-2.376zm9.503 0v-2.376h4.752v4.752h-4.752v-2.376zm9.504 0v-2.376h4.754v4.752h-4.754v-2.376zm9.506 0v-2.376h4.752v4.752h-4.752v-2.376zm9.504 0v-2.376h4.752v4.752h-4.752v-2.376zM11.881 42.768v-2.376h4.752v4.752H11.88v-2.376zm38.015 0v-2.376h4.752v4.752h-4.752v-2.376zm38.017 0v-2.376h4.752v4.752h-4.752v-2.376zm38.015 0v-2.376h4.754v4.752h-4.754v-2.376zM11.881 33.264v-2.376h4.752v4.752H11.88v-2.376zm19.007 0v-2.376h4.752v4.752h-4.752v-2.376zm19.008 0v-2.376h4.752v4.752h-4.752v-2.376zm19.008 0v-2.376h4.753v4.752h-4.753v-2.376zm19.009 0v-2.376h4.752v4.752h-4.752v-2.376zm19.008 0v-2.376h4.752v4.752h-4.752v-2.376zm19.007 0v-2.376h4.754v4.752h-4.754v-2.376zm19.01 0v-2.376h4.752v4.752h-4.752v-2.376zM11.881 23.76v-2.376h4.752v4.752H11.88V23.76zm38.015 0v-2.376h4.752v4.752h-4.752V23.76zm38.017 0v-2.376h4.752v4.752h-4.752V23.76zm38.015 0v-2.376h4.754v4.752h-4.754V23.76zM2.376 14.257V11.88h4.753v4.752H2.376v-2.376zm9.505 0V11.88h4.752v4.752H11.88v-2.376zm9.503 0V11.88h4.752v4.752h-4.752v-2.376zm9.504 0V11.88h4.752v4.752h-4.752v-2.376zm9.504 0V11.88h4.752v4.752h-4.752v-2.376zm9.504 0V11.88h4.752v4.752h-4.752v-2.376zm9.504 0V11.88h4.752v4.752H59.4v-2.376zm9.504 0V11.88h4.753v4.752h-4.753v-2.376zm9.505 0V11.88h4.752v4.752h-4.752v-2.376zm9.504 0V11.88h4.752v4.752h-4.752v-2.376zm9.504 0V11.88h4.752v4.752h-4.752v-2.376zm9.504 0V11.88h4.752v4.752h-4.752v-2.376zm9.503 0V11.88h4.752v4.752h-4.752v-2.376zm9.504 0V11.88h4.754v4.752h-4.754v-2.376zm9.506 0V11.88h4.752v4.752h-4.752v-2.376zm9.504 0V11.88h4.752v4.752h-4.752v-2.376zM11.881 4.753V2.376h4.752v4.753H11.88V4.753zm38.015 0V2.376h4.752v4.753h-4.752V4.753zm38.017 0V2.376h4.752v4.753h-4.752V4.753zm38.015 0V2.376h4.754v4.753h-4.754V4.753z"/><path fill="none" d="M0 0h152.065v152.065H0z"/></svg>