<svg xmlns="http://www.w3.org/2000/svg" width="152.064" height="152.064" viewBox="0 0 152.064 152.064"><path d="M-.001 146.125v-5.94h2.376v4.752h4.752v4.752h4.752v-4.752h4.752v-4.752h-4.752v-4.752H7.127v-4.752H2.375v-4.752H0v-23.761h2.376v4.753h4.752v4.752h4.752v-4.752h4.752v-4.753H11.88v-4.752H7.127v-4.752H2.375v-4.752H0v-23.76h2.376v4.752h4.752v4.752h4.752v-4.752h4.752v-4.752H11.88V59.4H7.127v-4.752H2.375v-4.752H0V26.135h2.376v4.752h4.752v4.753h4.752v-4.753h4.752v-4.752H11.88v-4.751H7.127v-4.752H2.375V11.88H0V0h11.879v2.376H7.127v4.752H2.375v4.752h4.752v4.752h4.752V11.88h4.752V7.128h4.752V2.376h4.752V0h23.761v2.376h-4.752v4.752h-4.752v4.752h4.752v4.752h4.752V11.88h4.752V7.128H59.4V2.376h4.752V0h23.761v2.376h-4.754v4.752h-4.752v4.752h4.752v4.752h4.754V11.88h4.752V7.128h4.752V2.376h4.752V0h23.76v2.376h-4.752v4.752h-4.752v4.752h4.752v4.752h4.752V11.88h4.752V7.128h4.752V2.376h4.752V0h11.88v11.879h-2.377V7.128h-4.752V2.376h-4.752v4.752h-4.752v4.752h4.752v4.752h4.752v4.752h4.752v4.752h2.377v23.761h-2.377v-4.753h-4.752v-4.752h-4.752v4.752h-4.752v4.752h4.752v4.752h4.752V59.4h4.752v4.752h2.377v23.76h-2.377V83.16h-4.752v-4.752h-4.752v4.752h-4.752v4.752h4.752v4.752h4.752v4.752h4.752v4.752h2.377v23.761h-2.377v-4.752h-4.752v-4.752h-4.752v4.752h-4.752v4.752h4.752v4.752h4.752v4.752h4.752v4.752h2.377v11.879h-11.88v-2.376h4.752v-4.752h4.752v-4.752h-4.752v-4.752h-4.752v4.752h-4.752v4.752h-4.752v4.752h-4.752v2.376h-23.76v-2.376h4.752v-4.752h4.752v-4.752h-4.752v-4.752h-4.752v4.752h-4.752v4.752h-4.752v4.752h-4.752v2.376H64.151v-2.376h4.752v-4.752h4.752v-4.752h-4.751v-4.752h-4.752v4.752H59.4v4.752h-4.752v4.752h-4.752v2.376H26.135v-2.376h4.753v-4.752h4.752v-4.752h-4.752v-4.752h-4.753v4.752h-4.752v4.752h-4.752v4.752h-4.752v2.376H0v-5.939zm49.897 1.187v-2.376h4.752v-4.752h-4.752v-4.752h-4.752v-4.752h4.752v-4.752h4.752v-4.752H59.4v4.752h4.752v4.752h4.752v4.752h4.752v4.752h4.751v4.752h4.752v4.752h4.754v-4.752h4.752v-4.752h-4.752v-4.752h-4.754v-4.752h4.754v-4.752h4.752v-4.752h4.752v4.752h4.752v4.752h4.752v4.752h4.752v4.752h4.752v4.752h4.752v4.752h4.752v-4.752h4.752v-4.752h-4.752v-4.752h-4.752v-4.752h4.752v-4.752h4.752v-4.752h4.752v-4.752h4.752v-4.752h4.752v-4.752h4.752v-4.753h-4.752v-4.752h-4.752v4.752h-4.752v4.753h-4.752v-4.753h-4.752v-4.752h-4.752v-4.751h4.752v-4.752h4.752V83.16h4.752v-4.752h4.752v-4.752h4.752v-4.752h4.752v-4.752h-4.752V59.4h-4.752v4.752h-4.752v4.752h-4.752v-4.752h-4.752V59.4h-4.752v-4.752h4.752v-4.752h4.752v-4.752h4.752v-4.752h4.752V35.64h4.752v-4.753h4.752v-4.752h-4.752v-4.751h-4.752v4.752h-4.752v4.752h-4.752v-4.752h-4.752v-4.752h-4.752v-4.752h-4.752V11.88h-4.752V7.128h-4.752V2.376h-4.752v4.752h-4.752v4.752h4.752v4.752h4.752v4.752h-4.752v4.752h-4.752v4.752h-4.752v-4.752h-4.752v-4.752h-4.754v-4.752h-4.752V11.88h-4.751V7.128h-4.752V2.376h-4.752v4.752H59.4v4.752h4.752v4.752h4.752v4.752h-4.752v4.752H59.4v4.752h-4.752v-4.752h-4.752v-4.752h-4.752v-4.752h-4.752V11.88H35.64V7.128h-4.752V2.376h-4.753v4.752h-4.752v4.752h4.752v4.752h4.753v4.752h-4.753v4.752h-4.752v4.752h-4.752v4.753h-4.752v4.752H7.127v4.752H2.375v4.752h4.752v4.752h4.752v-4.752h4.752v-4.753h4.752v4.752h4.752v4.752h4.753V59.4h-4.753v4.752h-4.752v4.752h-4.752v4.752h-4.752v4.752H7.127v4.752H2.375v4.752h4.752v4.752h4.752v-4.752h4.752V83.16h4.752v4.752h4.752v4.752h4.753v4.752h-4.753v4.752h-4.752v4.753h-4.752v4.752h-4.752v4.752H7.127v4.752H2.375v4.752h4.752v4.752h4.752v-4.752h4.752v-4.752h4.752v4.752h4.752v4.752h4.753v4.752h4.752v4.752h4.752v4.752h4.752v4.752h4.752v-2.377zm-9.504-19.008v-2.376H35.64v-4.752h-4.752v-4.752h-4.753v4.752h-4.752v-4.752h4.752v-4.752h4.753v-4.752h4.752v-4.753h-4.752v-4.752h4.752v4.752h4.752v4.753h4.752v4.752h4.752v-4.752h4.752v-4.753h-4.752v-4.752h-4.752v-4.751h-4.752v-4.752H35.64V83.16h-4.752v-4.752h-4.753v4.752h-4.752v-4.752h4.752v-4.752h4.753v-4.752h4.752v-4.752h-4.752V59.4h4.752v4.752h4.752v4.752h4.752v4.752h4.752v-4.752h4.752v-4.752h-4.752V59.4h-4.752v-4.752h-4.752v-4.752H35.64v-4.752h-4.752v-4.752h-4.753v4.752h-4.752v-4.752h4.752V35.64h4.753v-4.753h4.752v-4.752h-4.752v-4.751h4.752v4.752h4.752v4.752h4.752v4.753h4.752v-4.753h4.752v4.753h-4.752v4.752h-4.752v4.752h-4.752v4.752h4.752v4.752h4.752v-4.752h4.752v-4.753H59.4v-4.752h4.752V35.64h4.752v-4.753h4.752v-4.752h-4.752v-4.751h4.752v4.752h4.751v4.752h4.752v4.753h4.754v-4.753h4.752v4.753h-4.752v4.752h-4.754v4.752h-4.752v4.752h4.752v4.752h4.754v-4.752h4.752v-4.753h4.752v-4.752h4.752V35.64h4.752v-4.753h4.752v-4.752h-4.752v-4.751h4.752v4.752h4.752v4.752h4.752v4.753h4.752v-4.753h4.752v4.753h-4.752v4.752h-4.752v4.752h-4.752v4.752h4.752v4.752h-4.752v-4.752h-4.752v-4.753h-4.752v-4.752h-4.752v4.752h-4.752v4.752h4.752v4.752h4.752V59.4h4.752v4.752h4.752v4.752h4.752v4.752h4.752v-4.752h4.752v4.752h-4.752v4.752h-4.752v4.752h-4.752v4.752h4.752v4.752h-4.752v-4.752h-4.752V83.16h-4.752v-4.752h-4.752v4.752h-4.752v4.752h4.752v4.752h4.752v4.752h4.752v4.752h4.752v4.753h4.752v4.752h4.752v-4.752h4.752v4.752h-4.752v4.752h-4.752v4.752h-4.752v4.752h4.752v4.752h-4.752v-4.752h-4.752v-4.752h-4.752v-4.752h-4.752v4.752h-4.752v-4.752h4.752v-4.752h4.752v-4.752h4.752v-4.753h-4.752v-4.752h-4.752v4.752h-4.752v4.753h-4.752v4.752h-4.752v4.752h-4.754v4.752h-4.752v4.752h4.752v4.752h-4.752v-4.752h-4.751v-4.752h-4.752v-4.752h-4.752v4.752H59.4v-4.752h4.752v-4.752h4.752v-4.752h4.752v-4.753h-4.752v-4.752h-4.752v4.752H59.4v4.753h-4.752v4.752h-4.752v4.752h-4.752v4.752h-4.752v4.752h4.752v4.752h-4.752v-2.377zm47.521-19.007v-2.376h4.752v-4.753h-4.752v-4.752h-4.754v-4.752h4.754v-4.752h4.752V83.16h4.752v-4.752h4.752v-4.752h4.752v-4.752h4.752v-4.752h-4.752V59.4h-4.752v4.752h-4.752v4.752h-4.752v-4.752h-4.752V59.4h-4.754v-4.752h-4.752v-4.752h-4.751v-4.752h-4.752v-4.752h-4.752v4.752H59.4v4.752h4.752v4.752h4.752V59.4h-4.752v4.752H59.4v4.752h-4.752v4.752h-4.752v4.752h-4.752v4.752h-4.752v4.752h4.752v4.752h4.752v-4.752h4.752V83.16H59.4v4.752h4.752v4.752h4.752v4.752h4.752v4.752h4.751v4.753h4.752v4.752h4.754v-2.376zm-9.506-19.009v-2.376h-4.751V83.16h-4.752v-4.752h-4.752v4.752H59.4v-4.752h4.752v-4.752h4.752v-4.752h4.752v-4.752h-4.752V59.4h4.752v4.752h4.751v4.752h4.752v4.752h4.754v-4.752h4.752v4.752h-4.752v4.752h-4.754v4.752h-4.752v4.752h4.752v4.752h-4.752v-2.376z"/></svg>