<svg xmlns="http://www.w3.org/2000/svg" width="152.064" height="152.064" viewBox="0 0 152.064 152.064"><path d="M7.128 147.313v-2.377h4.752v4.752H7.128v-2.375zm19.007 0v-2.377h-4.752v-4.752h-4.752v-4.752H11.88v-4.752H7.127v4.752H2.375v4.752H0v-4.752h2.375v-4.752h4.752v-4.752h4.752v4.752h4.752v4.752h4.752v4.752h4.752v4.752h4.752v-4.752h4.753v-4.752h4.752v-4.752h4.752v-4.752h4.752v4.752h4.752v4.752H59.4v4.752h4.752v4.752h4.752v-4.752h4.752v-4.752h4.752v-4.752h4.752v-4.752h4.753v4.752h4.752v4.752h4.752v4.752h4.752v4.752h4.752v-4.752h4.752v-4.752h4.752v-4.752h4.752v-4.752h4.752v4.752h4.752v4.752h4.752v4.752h4.752v4.752h4.752v-4.752h4.752v-4.752h2.378v4.752h-2.378v4.752h-4.752v4.752h-4.752v-4.752h-4.752v-4.752h-4.752v-4.752h-4.752v-4.752h-4.752v4.752h-4.752v4.752h-4.752v4.752h-4.752v4.752h-4.752v-4.752h-4.752v-4.752h-4.752v-4.752h-4.752v-4.752H83.16v4.752h-4.752v4.752h-4.752v4.752h-4.752v4.752h-4.752v-4.752H59.4v-4.752h-4.752v-4.752h-4.752v-4.752h-4.752v4.752h-4.752v4.752H35.64v4.752h-4.753v4.752h-4.752v-2.375zm19.01 0v-2.377h4.75v4.752h-4.752v-2.375zm38.015 0v-2.377h4.753v4.752H83.16v-2.375zm38.016 0v-2.377h4.752v4.752h-4.752v-2.375zm-95.04-19.01v-2.374h4.75v4.752h-4.752v-2.377zm38.016 0v-2.374h4.752v4.752h-4.752v-2.377zm38.017 0v-2.374h4.752v4.752h-4.752v-2.377zm38.015 0v-2.374h4.752v4.752h-4.752v-2.377zM0 118.8v-2.375h2.376v4.752H0V118.8zm7.128 0v-2.375h4.752v4.752H7.128V118.8zm9.504 0v-2.375h4.752v4.752h-4.752V118.8zm9.503 0v-2.375h4.752v4.752h-4.752V118.8zm9.505 0v-2.375h4.752v4.752H35.64V118.8zm9.504 0v-2.375h4.752v4.752h-4.752V118.8zm9.504 0v-2.375H59.4v4.752h-4.752V118.8zm9.504 0v-2.375h4.752v4.752h-4.752V118.8zm9.504 0v-2.375h4.752v4.752h-4.752V118.8zm9.504 0v-2.375h4.753v4.752H83.16V118.8zm9.505 0v-2.375h4.752v4.752h-4.752V118.8zm9.504 0v-2.375h4.752v4.752h-4.752V118.8zm9.504 0v-2.375h4.752v4.752h-4.752V118.8zm9.503 0v-2.375h4.752v4.752h-4.752V118.8zm9.504 0v-2.375h4.752v4.752h-4.752V118.8zm9.504 0v-2.375h4.752v4.752h-4.752V118.8zm9.504 0v-2.375h2.378v4.752h-2.378V118.8zm-142.56-9.504v-2.375h4.752v4.752H7.128v-2.377zm19.007 0v-2.375h-4.752v-4.752h-4.752v-4.752H11.88v-4.752H7.127v4.752H2.375v4.752H0v-4.752h2.375v-4.752h4.752v-4.752h4.752v4.752h4.752v4.752h4.752v4.752h4.752v4.752h4.752v-4.752h4.753v-4.752h4.752v-4.752h4.752v-4.752h4.752v4.752h4.752v4.752H59.4v4.752h4.752v4.752h4.752v-4.752h4.752v-4.752h4.752v-4.752h4.752v-4.752h4.753v4.752h4.752v4.752h4.752v4.752h4.752v4.752h4.752v-4.752h4.752v-4.752h4.752v-4.752h4.752v-4.752h4.752v4.752h4.752v4.752h4.752v4.752h4.752v4.752h4.752v-4.752h4.752v-4.752h2.378v4.752h-2.378v4.752h-4.752v4.752h-4.752v-4.752h-4.752v-4.752h-4.752v-4.752h-4.752v-4.752h-4.752v4.752h-4.752v4.752h-4.752v4.752h-4.752v4.752h-4.752v-4.752h-4.752v-4.752h-4.752v-4.752h-4.752v-4.752H83.16v4.752h-4.752v4.752h-4.752v4.752h-4.752v4.752h-4.752v-4.752H59.4v-4.752h-4.752v-4.752h-4.752v-4.752h-4.752v4.752h-4.752v4.752H35.64v4.752h-4.753v4.752h-4.752v-2.377zm19.01 0v-2.375h4.75v4.752h-4.752v-2.377zm38.015 0v-2.375h4.753v4.752H83.16v-2.377zm38.016 0v-2.375h4.752v4.752h-4.752v-2.377zm-95.04-19.007v-2.376h4.75v4.752h-4.752v-2.376zm38.016 0v-2.376h4.752v4.752h-4.752v-2.376zm38.017 0v-2.376h4.752v4.752h-4.752v-2.376zm38.015 0v-2.376h4.752v4.752h-4.752v-2.376zM0 80.785v-2.376h2.376v4.752H0v-2.376zm7.128 0v-2.376h4.752v4.752H7.128v-2.376zm9.504 0v-2.376h4.752v4.752h-4.752v-2.376zm9.503 0v-2.376h4.752v4.752h-4.752v-2.376zm9.505 0v-2.376h4.752v4.752H35.64v-2.376zm9.504 0v-2.376h4.752v4.752h-4.752v-2.376zm9.504 0v-2.376H59.4v4.752h-4.752v-2.376zm9.504 0v-2.376h4.752v4.752h-4.752v-2.376zm9.504 0v-2.376h4.752v4.752h-4.752v-2.376zm9.504 0v-2.376h4.753v4.752H83.16v-2.376zm9.505 0v-2.376h4.752v4.752h-4.752v-2.376zm9.504 0v-2.376h4.752v4.752h-4.752v-2.376zm9.504 0v-2.376h4.752v4.752h-4.752v-2.376zm9.503 0v-2.376h4.752v4.752h-4.752v-2.376zm9.504 0v-2.376h4.752v4.752h-4.752v-2.376zm9.504 0v-2.376h4.752v4.752h-4.752v-2.376zm9.504 0v-2.376h2.378v4.752h-2.378v-2.376zM7.128 71.28v-2.376h4.752v4.752H7.128V71.28zm19.007 0v-2.376h-4.752v-4.752h-4.752V59.4H11.88v-4.752H7.127V59.4H2.375v4.752H0V59.4h2.375v-4.752h4.752v-4.752h4.752v4.752h4.752V59.4h4.752v4.752h4.752v4.752h4.752v-4.752h4.753V59.4h4.752v-4.752h4.752v-4.752h4.752v4.752h4.752V59.4H59.4v4.752h4.752v4.752h4.752v-4.752h4.752V59.4h4.752v-4.752h4.752v-4.752h4.753v4.752h4.752V59.4h4.752v4.752h4.752v4.752h4.752v-4.752h4.752V59.4h4.752v-4.752h4.752v-4.752h4.752v4.752h4.752V59.4h4.752v4.752h4.752v4.752h4.752v-4.752h4.752V59.4h2.378v4.752h-2.378v4.752h-4.752v4.752h-4.752v-4.752h-4.752v-4.752h-4.752V59.4h-4.752v-4.752h-4.752V59.4h-4.752v4.752h-4.752v4.752h-4.752v4.752h-4.752v-4.752h-4.752v-4.752h-4.752V59.4h-4.752v-4.752H83.16V59.4h-4.752v4.752h-4.752v4.752h-4.752v4.752h-4.752v-4.752H59.4v-4.752h-4.752V59.4h-4.752v-4.752h-4.752V59.4h-4.752v4.752H35.64v4.752h-4.753v4.752h-4.752V71.28zm19.01 0v-2.376h4.75v4.752h-4.752V71.28zm38.015 0v-2.376h4.753v4.752H83.16V71.28zm38.016 0v-2.376h4.752v4.752h-4.752V71.28zm-95.04-19.008v-2.376h4.75v4.752h-4.752v-2.376zm38.016 0v-2.376h4.752v4.752h-4.752v-2.376zm38.017 0v-2.376h4.752v4.752h-4.752v-2.376zm38.015 0v-2.376h4.752v4.752h-4.752v-2.376zM0 42.768v-2.376h2.376v4.752H0v-2.376zm7.128 0v-2.376h4.752v4.752H7.128v-2.376zm9.504 0v-2.376h4.752v4.752h-4.752v-2.376zm9.503 0v-2.376h4.752v4.752h-4.752v-2.376zm9.505 0v-2.376h4.752v4.752H35.64v-2.376zm9.504 0v-2.376h4.752v4.752h-4.752v-2.376zm9.504 0v-2.376H59.4v4.752h-4.752v-2.376zm9.504 0v-2.376h4.752v4.752h-4.752v-2.376zm9.504 0v-2.376h4.752v4.752h-4.752v-2.376zm9.504 0v-2.376h4.753v4.752H83.16v-2.376zm9.505 0v-2.376h4.752v4.752h-4.752v-2.376zm9.504 0v-2.376h4.752v4.752h-4.752v-2.376zm9.504 0v-2.376h4.752v4.752h-4.752v-2.376zm9.503 0v-2.376h4.752v4.752h-4.752v-2.376zm9.504 0v-2.376h4.752v4.752h-4.752v-2.376zm9.504 0v-2.376h4.752v4.752h-4.752v-2.376zm9.504 0v-2.376h2.378v4.752h-2.378v-2.376zM7.128 33.264v-2.376h4.752v4.752H7.128v-2.376zm19.007 0v-2.376h-4.752v-4.752h-4.752v-4.752H11.88v-4.752H7.127v4.752H2.375v4.752H0v-4.752h2.375v-4.752h4.752V11.88h4.752v4.752h4.752v4.752h4.752v4.752h4.752v4.752h4.752v-4.752h4.753v-4.752h4.752v-4.752h4.752V11.88h4.752v4.752h4.752v4.752H59.4v4.752h4.752v4.752h4.752v-4.752h4.752v-4.752h4.752v-4.752h4.752V11.88h4.753v4.752h4.752v4.752h4.752v4.752h4.752v4.752h4.752v-4.752h4.752v-4.752h4.752v-4.752h4.752V11.88h4.752v4.752h4.752v4.752h4.752v4.752h4.752v4.752h4.752v-4.752h4.752v-4.752h2.378v4.752h-2.378v4.752h-4.752v4.752h-4.752v-4.752h-4.752v-4.752h-4.752v-4.752h-4.752v-4.752h-4.752v4.752h-4.752v4.752h-4.752v4.752h-4.752v4.752h-4.752v-4.752h-4.752v-4.752h-4.752v-4.752h-4.752v-4.752H83.16v4.752h-4.752v4.752h-4.752v4.752h-4.752v4.752h-4.752v-4.752H59.4v-4.752h-4.752v-4.752h-4.752v-4.752h-4.752v4.752h-4.752v4.752H35.64v4.752h-4.753v4.752h-4.752v-2.376zm19.01 0v-2.376h4.75v4.752h-4.752v-2.376zm38.015 0v-2.376h4.753v4.752H83.16v-2.376zm38.016 0v-2.376h4.752v4.752h-4.752v-2.376zm-95.04-19.007V11.88h4.75v4.752h-4.752v-2.376zm38.016 0V11.88h4.752v4.752h-4.752v-2.376zm38.017 0V11.88h4.752v4.752h-4.752v-2.376zm38.015 0V11.88h4.752v4.752h-4.752v-2.376zM0 4.752V2.376h2.376v4.752H0V4.752zm7.128 0V2.376h4.752v4.752H7.128V4.752zm9.504 0V2.376h4.752v4.752h-4.752V4.752zm9.503 0V2.376h4.752v4.752h-4.752V4.752zm9.505 0V2.376h4.752v4.752H35.64V4.752zm9.504 0V2.376h4.752v4.752h-4.752V4.752zm9.504 0V2.376H59.4v4.752h-4.752V4.752zm9.504 0V2.376h4.752v4.752h-4.752V4.752zm9.504 0V2.376h4.752v4.752h-4.752V4.752zm9.504 0V2.376h4.753v4.752H83.16V4.752zm9.505 0V2.376h4.752v4.752h-4.752V4.752zm9.504 0V2.376h4.752v4.752h-4.752V4.752zm9.504 0V2.376h4.752v4.752h-4.752V4.752zm9.503 0V2.376h4.752v4.752h-4.752V4.752zm9.504 0V2.376h4.752v4.752h-4.752V4.752zm9.504 0V2.376h4.752v4.752h-4.752V4.752zm9.504 0V2.376h2.378v4.752h-2.378V4.752z"/><path fill="none" d="M0 0h152.065v152.065H0z"/></svg>