<svg xmlns="http://www.w3.org/2000/svg" width="152.064" height="152.064" viewBox="0 0 152.064 152.064"><path d="M4.752 147.313v-4.752h9.505v9.504H4.752v-4.752zm23.76 2.375v-2.375h-9.504v-9.504h9.504v9.504h9.504v4.752h-9.504v-2.377zm14.256-2.375v-4.752h9.504v9.504h-9.504v-4.752zm23.76 2.375v-2.375h-9.504v-9.504h9.504v9.504h9.505v4.752h-9.505v-2.377zm14.257-2.375v-4.752h9.504v9.504h-9.504v-4.752zm23.76 2.375v-2.375h-9.504v-9.504h9.504v9.504h9.504v4.752h-9.504v-2.377zm14.256-2.375v-4.752h9.504v9.504h-9.504v-4.752zm23.76 2.375v-2.375h-9.505v-9.504h9.505v9.504h9.504v4.752h-9.504v-2.377zM0 133.055v-4.752h9.504V118.8h9.505v9.504H9.504v9.506H0v-4.755zm38.016 0v-4.752h9.504V118.8h9.504v9.504H47.52v9.506h-9.504v-4.755zm38.017 0v-4.752h9.504V118.8h9.504v9.504h-9.504v9.506h-9.504v-4.755zm38.016 0v-4.752h9.504V118.8h9.504v9.504h-9.504v9.506h-9.504v-4.755zm-90.289-4.752v-4.752h9.504v9.504H23.76v-4.752zm38.016 0v-4.752h9.505v9.504h-9.505v-4.752zm38.017 0v-4.752h9.504v9.504h-9.504v-4.752zm38.016 0v-4.752h9.504v9.504h-9.504v-4.752zM28.512 114.048v-4.752h-9.504v-9.503h9.504v9.503h9.504v9.504h-9.504v-4.752zm38.016 0v-4.752h-9.504v-9.503h9.504v9.503h9.505v9.504h-9.505v-4.752zm38.017 0v-4.752h-9.504v-9.503h9.504v9.503h9.504v9.504h-9.504v-4.752zm38.016 0v-4.752h-9.505v-9.503h9.505v9.503h9.504v9.504h-9.504v-4.752zM4.752 109.296v-4.752h9.505v9.504H4.752v-4.752zm38.016 0v-4.752h9.504v9.504h-9.504v-4.752zm38.017 0v-4.752h9.504v9.504h-9.504v-4.752zm38.016 0v-4.752h9.504v9.504h-9.504v-4.752zM0 95.041v-4.752h9.504v-9.504h9.505v9.504H9.504v9.504H0v-4.752zm38.016 0v-4.752h9.504v-9.504h9.504v9.504H47.52v9.504h-9.504v-4.752zm38.017 0v-4.752h9.504v-9.504h9.504v9.504h-9.504v9.504h-9.504v-4.752zm38.016 0v-4.752h9.504v-9.504h9.504v9.504h-9.504v9.504h-9.504v-4.752zM23.76 90.289v-4.752h9.504v9.504H23.76v-4.752zm38.016 0v-4.752h9.505v9.504h-9.505v-4.752zm38.017 0v-4.752h9.504v9.504h-9.504v-4.752zm38.016 0v-4.752h9.504v9.504h-9.504v-4.752zM28.512 76.033v-4.752h-9.504v-9.505h9.504v9.505h9.504v9.504h-9.504v-4.752zm38.016 0v-4.752h-9.504v-9.505h9.504v9.505h9.505v9.504h-9.505v-4.752zm38.017 0v-4.752h-9.504v-9.505h9.504v9.505h9.504v9.504h-9.504v-4.752zm38.016 0v-4.752h-9.505v-9.505h9.505v9.505h9.504v9.504h-9.504v-4.752zM4.752 71.281v-4.753h9.505v9.505H4.752v-4.752zm38.016 0v-4.753h9.504v9.505h-9.504v-4.752zm38.017 0v-4.753h9.504v9.505h-9.504v-4.752zm38.016 0v-4.753h9.504v9.505h-9.504v-4.752zM0 57.024v-4.752h9.504v-9.504h9.505v9.504H9.504v9.504H0v-4.752zm38.016 0v-4.752h9.504v-9.504h9.504v9.504H47.52v9.504h-9.504v-4.752zm38.017 0v-4.752h9.504v-9.504h9.504v9.504h-9.504v9.504h-9.504v-4.752zm38.016 0v-4.752h9.504v-9.504h9.504v9.504h-9.504v9.504h-9.504v-4.752zM23.76 52.272V47.52h9.504v9.504H23.76v-4.752zm38.016 0V47.52h9.505v9.504h-9.505v-4.752zm38.017 0V47.52h9.504v9.504h-9.504v-4.752zm38.016 0V47.52h9.504v9.504h-9.504v-4.752zM28.512 38.016v-4.752h-9.504V23.76h9.504v9.504h9.504v9.504h-9.504v-4.752zm38.016 0v-4.752h-9.504V23.76h9.504v9.504h9.505v9.504h-9.505v-4.752zm38.017 0v-4.752h-9.504V23.76h9.504v9.504h9.504v9.504h-9.504v-4.752zm38.016 0v-4.752h-9.505V23.76h9.505v9.504h9.504v9.504h-9.504v-4.752zM4.752 33.264v-4.752h9.505v9.504H4.752v-4.752zm38.016 0v-4.752h9.504v9.504h-9.504v-4.752zm38.017 0v-4.752h9.504v9.504h-9.504v-4.752zm38.016 0v-4.752h9.504v9.504h-9.504v-4.752zM0 19.009v-4.753h9.504V4.752h9.505v9.504H9.504v9.505H0v-4.752zm38.016 0v-4.753h9.504V4.752h9.504v9.504H47.52v9.505h-9.504v-4.752zm38.017 0v-4.753h9.504V4.752h9.504v9.504h-9.504v9.505h-9.504v-4.752zm38.016 0v-4.753h9.504V4.752h9.504v9.504h-9.504v9.505h-9.504v-4.752zM23.76 14.256V9.504h9.504v9.505H23.76v-4.753zm38.016 0V9.504h9.505v9.505h-9.505v-4.753zm38.017 0V9.504h9.504v9.505h-9.504v-4.753zm38.016 0V9.504h9.504v9.505h-9.504v-4.753zM28.512 2.376V0h9.504v4.752h-9.504V2.376zm38.016 0V0h9.505v4.752h-9.505V2.376zm38.017 0V0h9.504v4.752h-9.504V2.376zm38.016 0V0h9.504v4.752h-9.504V2.376z"/></svg>