<svg xmlns="http://www.w3.org/2000/svg" width="152.064" height="152.064" viewBox="0 0 152.064 152.064"><path d="M2.375 150.877c0-1.188 0-1.188-1.188-1.188H-.001v-4.752h2.376v-4.752H-.001v-4.752h2.376v4.752h4.752v4.752h4.752v4.752h4.752v2.376H11.88v-2.376H7.127v2.376H2.375v-1.188zm4.752-3.565v-2.376H2.375v4.752h4.752v-2.376zm14.257 3.565v-1.188h4.752v-4.752h4.752v-4.752h4.752v-4.752h4.752v4.752h4.752v4.752h4.752v4.752h4.752v2.376h-4.752v-2.376h-4.752v2.376h-4.752v-2.376H35.64v2.376h-4.752v-2.376h-4.752v2.376h-4.752v-1.188zm14.255-3.565v-2.376h4.752v4.752h4.752v-4.752h-4.752v-4.752h-4.752v4.752h-4.752v4.752h4.752v-2.376zm23.761 3.565v-1.188h4.752v-4.752h4.752v-4.752h4.752v-4.752h4.751v4.752h4.752v4.752h4.752v4.752h4.752v2.376h-4.752v-2.376h-4.752v2.376h-4.752v-2.376h-4.751v2.376h-4.752v-2.376h-4.752v2.376H59.4v-1.188zm14.256-3.565v-2.376h4.751v4.752h4.752v-4.752h-4.752v-4.752h-4.751v4.752h-4.752v4.752h4.752v-2.376zm23.759 3.565v-1.188h4.754v-4.752h4.752v-4.752h4.752v-4.752h4.752v4.752h4.752v4.752h4.752v4.752h4.752v2.376h-4.752v-2.376h-4.752v2.376h-4.752v-2.376h-4.752v2.376h-4.752v-2.376h-4.752v2.376h-4.754v-1.188zm14.258-3.565v-2.376h4.752v4.752h4.752v-4.752h-4.752v-4.752h-4.752v4.752h-4.752v4.752h4.752v-2.376zm23.759 3.565v-1.188h4.752v-4.752h4.752v-4.752h4.752v-4.752h2.377v4.752h-2.377v4.752h2.377v4.752h-1.189c-1.188 0-1.188 0-1.188 1.188v1.188h-4.752v-2.376h-4.752v2.376h-4.752v-1.188zm14.256-3.565v-2.376h-4.752v4.752h4.752v-2.376zM-.001 128.304v-2.376h2.376v-4.752H-.001v-4.752h2.376v-4.752H-.001v-4.752h2.376v-4.753H-.001v-4.752h2.376v4.752h4.752v4.753h4.752v4.752h4.752v4.752H11.88v4.752H7.127v4.752H2.375v4.752H-.001v-2.376zm7.128-9.503v-2.376h4.752v-4.752H7.127v-4.752H2.375v4.752h4.752v4.752H2.375v4.752h4.752v-2.376zm28.512 9.503v-2.376h-4.752v-4.752h-4.752v-4.752h-4.751v-4.752h4.752v-4.752h4.752v-4.753h4.752v-4.752h4.752v4.752h4.752v4.753h4.752v4.752h4.752v4.752h-4.752v4.752h-4.752v4.752h-4.752v4.752H35.64v-2.376zm4.753-4.752v-2.376h4.752v-4.752h4.752v-4.752h-4.752v-4.752h-4.752v-4.753H35.64v4.753h-4.752v4.752h-4.752v4.752h4.752v4.752h4.752v4.752h4.752v-2.376zm-4.753-4.751v-2.376h-4.752v-4.752h4.752v-4.752h4.752v4.752h4.752v4.752h-4.752v4.752h-4.752v-2.376zm4.753-4.752v-2.376H35.64v4.752h4.752v-2.376zm33.264 14.255v-2.376h-4.752v-4.752h-4.752v-4.752H59.4v-4.752h4.752v-4.752h4.752v-4.753h4.752v-4.752h4.751v4.752h4.752v4.753h4.752v4.752h4.752v4.752h-4.752v4.752h-4.752v4.752h-4.752v4.752h-4.751v-2.376zm4.751-4.752v-2.376h4.752v-4.752h4.752v-4.752h-4.752v-4.752h-4.752v-4.753h-4.751v4.753h-4.752v4.752h-4.752v4.752h4.752v4.752h4.752v4.752h4.751v-2.376zm-4.751-4.751v-2.376h-4.752v-4.752h4.752v-4.752h4.751v4.752h4.752v4.752h-4.752v4.752h-4.751v-2.376zm4.751-4.752v-2.376h-4.751v4.752h4.751v-2.376zm33.266 14.255v-2.376h-4.752v-4.752h-4.752v-4.752h-4.754v-4.752h4.754v-4.752h4.752v-4.753h4.752v-4.752h4.752v4.752h4.752v4.753h4.752v4.752h4.752v4.752h-4.752v4.752h-4.752v4.752h-4.752v4.752h-4.752v-2.376zm4.752-4.752v-2.376h4.752v-4.752h4.752v-4.752h-4.752v-4.752h-4.752v-4.753h-4.752v4.753h-4.752v4.752h-4.752v4.752h4.752v4.752h4.752v4.752h4.752v-2.376zm-4.752-4.751v-2.376h-4.752v-4.752h4.752v-4.752h4.752v4.752h4.752v4.752h-4.752v4.752h-4.752v-2.376zm4.752-4.752v-2.376h-4.752v4.752h4.752v-2.376zm33.263 14.255v-2.376h-4.752v-4.752h-4.752v-4.752h-4.752v-4.752h4.752v-4.752h4.752v-4.753h4.752v-4.752h2.377v4.752h-2.377v4.753h2.377v4.752h-2.377v4.752h2.377v4.752h-2.377v4.752h2.377v4.752h-2.377v-2.376zm0-9.503v-2.376h-4.752v-4.752h4.752v-4.752h-4.752v4.752h-4.752v4.752h4.752v4.752h4.752v-2.376zM-.001 90.288v-2.376h2.376V83.16H-.001v-4.752h2.376v-4.752H-.001v-4.752h2.376v-4.752H-.001V59.4h2.376v4.752h4.752v4.752h4.752v4.752h4.752v4.752H11.88v4.752H7.127v4.752H2.375v4.752H-.001v-2.376zm7.128-9.504v-2.376h4.752v-4.752H7.127v-4.752H2.375v4.752h4.752v4.752H2.375v4.752h4.752v-2.376zm28.512 9.504v-2.376h-4.752V83.16h-4.752v-4.752h-4.751v-4.752h4.752v-4.752h4.752v-4.752h4.752V59.4h4.752v4.752h4.752v4.752h4.752v4.752h4.752v4.752h-4.752v4.752h-4.752v4.752h-4.752v4.752H35.64v-2.376zm4.753-4.752V83.16h4.752v-4.752h4.752v-4.752h-4.752v-4.752h-4.752v-4.752H35.64v4.752h-4.752v4.752h-4.752v4.752h4.752v4.752h4.752v4.752h4.752v-2.376zm-4.753-4.752v-2.376h-4.752v-4.752h4.752v-4.752h4.752v4.752h4.752v4.752h-4.752v4.752h-4.752v-2.376zm4.753-4.752v-2.376H35.64v4.752h4.752v-2.376zm33.264 14.256v-2.376h-4.752V83.16h-4.752v-4.752H59.4v-4.752h4.752v-4.752h4.752v-4.752h4.752V59.4h4.751v4.752h4.752v4.752h4.752v4.752h4.752v4.752h-4.752v4.752h-4.752v4.752h-4.752v4.752h-4.751v-2.376zm4.751-4.752V83.16h4.752v-4.752h4.752v-4.752h-4.752v-4.752h-4.752v-4.752h-4.751v4.752h-4.752v4.752h-4.752v4.752h4.752v4.752h4.752v4.752h4.751v-2.376zm-4.751-4.752v-2.376h-4.752v-4.752h4.752v-4.752h4.751v4.752h4.752v4.752h-4.752v4.752h-4.751v-2.376zm4.751-4.752v-2.376h-4.751v4.752h4.751v-2.376zm33.266 14.256v-2.376h-4.752V83.16h-4.752v-4.752h-4.754v-4.752h4.754v-4.752h4.752v-4.752h4.752V59.4h4.752v4.752h4.752v4.752h4.752v4.752h4.752v4.752h-4.752v4.752h-4.752v4.752h-4.752v4.752h-4.752v-2.376zm4.752-4.752V83.16h4.752v-4.752h4.752v-4.752h-4.752v-4.752h-4.752v-4.752h-4.752v4.752h-4.752v4.752h-4.752v4.752h4.752v4.752h4.752v4.752h4.752v-2.376zm-4.752-4.752v-2.376h-4.752v-4.752h4.752v-4.752h4.752v4.752h4.752v4.752h-4.752v4.752h-4.752v-2.376zm4.752-4.752v-2.376h-4.752v4.752h4.752v-2.376zm33.263 14.256v-2.376h-4.752V83.16h-4.752v-4.752h-4.752v-4.752h4.752v-4.752h4.752v-4.752h4.752V59.4h2.377v4.752h-2.377v4.752h2.377v4.752h-2.377v4.752h2.377v4.752h-2.377v4.752h2.377v4.752h-2.377v-2.376zm0-9.504v-2.376h-4.752v-4.752h4.752v-4.752h-4.752v4.752h-4.752v4.752h4.752v4.752h4.752v-2.376zM-.001 52.272v-2.376h2.376v-4.752H-.001v-4.752h2.376V35.64H-.001v-4.753h2.376v-4.752H-.001v-4.751h2.376v4.752h4.752v4.752h4.752v4.753h4.752v4.752H11.88v4.752H7.127v4.752H2.375v4.752H-.001v-2.377zm7.128-9.504v-2.376h4.752V35.64H7.127v-4.753H2.375v4.753h4.752v4.752H2.375v4.752h4.752v-2.376zm28.512 9.504v-2.376h-4.752v-4.752h-4.752v-4.752h-4.751V35.64h4.752v-4.753h4.752v-4.752h4.752v-4.751h4.752v4.752h4.752v4.752h4.752v4.753h4.752v4.752h-4.752v4.752h-4.752v4.752h-4.752v4.752H35.64v-2.377zm4.753-4.752v-2.376h4.752v-4.752h4.752V35.64h-4.752v-4.753h-4.752v-4.752H35.64v4.752h-4.752v4.753h-4.752v4.752h4.752v4.752h4.752v4.752h4.752V47.52zm-4.753-4.752v-2.376h-4.752V35.64h4.752v-4.753h4.752v4.753h4.752v4.752h-4.752v4.752h-4.752v-2.376zm4.753-4.753V35.64H35.64v4.752h4.752v-2.377zm33.264 14.257v-2.376h-4.752v-4.752h-4.752v-4.752H59.4V35.64h4.752v-4.753h4.752v-4.752h4.752v-4.751h4.751v4.752h4.752v4.752h4.752v4.753h4.752v4.752h-4.752v4.752h-4.752v4.752h-4.752v4.752h-4.751v-2.377zm4.751-4.752v-2.376h4.752v-4.752h4.752V35.64h-4.752v-4.753h-4.752v-4.752h-4.751v4.752h-4.752v4.753h-4.752v4.752h4.752v4.752h4.752v4.752h4.751V47.52zm-4.751-4.752v-2.376h-4.752V35.64h4.752v-4.753h4.751v4.753h4.752v4.752h-4.752v4.752h-4.751v-2.376zm4.751-4.753V35.64h-4.751v4.752h4.751v-2.377zm33.266 14.257v-2.376h-4.752v-4.752h-4.752v-4.752h-4.754V35.64h4.754v-4.753h4.752v-4.752h4.752v-4.751h4.752v4.752h4.752v4.752h4.752v4.753h4.752v4.752h-4.752v4.752h-4.752v4.752h-4.752v4.752h-4.752v-2.377zm4.752-4.752v-2.376h4.752v-4.752h4.752V35.64h-4.752v-4.753h-4.752v-4.752h-4.752v4.752h-4.752v4.753h-4.752v4.752h4.752v4.752h4.752v4.752h4.752V47.52zm-4.752-4.752v-2.376h-4.752V35.64h4.752v-4.753h4.752v4.753h4.752v4.752h-4.752v4.752h-4.752v-2.376zm4.752-4.753V35.64h-4.752v4.752h4.752v-2.377zm33.263 14.257v-2.376h-4.752v-4.752h-4.752v-4.752h-4.752V35.64h4.752v-4.753h4.752v-4.752h4.752v-4.751h2.377v4.752h-2.377v4.752h2.377v4.753h-2.377v4.752h2.377v4.752h-2.377v4.752h2.377v4.752h-2.377v-2.377zm0-9.504v-2.376h-4.752V35.64h4.752v-4.753h-4.752v4.753h-4.752v4.752h4.752v4.752h4.752v-2.376zM-.001 14.256V11.88h2.376V7.128H-.001V2.376h1.188c1.188 0 1.188 0 1.188-1.188V0h4.752v2.376h4.752V0h4.752v2.376H11.88v4.752H7.127v4.752H2.375v4.752H-.001v-2.376zm7.128-9.504V2.376H2.375v4.752h4.752V4.752zm28.512 9.504V11.88h-4.752V7.128h-4.752V2.376h-4.751V0h4.752v2.376h4.752V0h4.752v2.376h4.752V0h4.752v2.376h4.752V0h4.752v2.376h-4.752v4.752h-4.752v4.752h-4.752v4.752H35.64v-2.376zm4.753-4.752V7.128h4.752V2.376h-4.752v4.752H35.64V2.376h-4.752v4.752h4.752v4.752h4.752V9.504zm33.264 4.752V11.88h-4.752V7.128h-4.752V2.376H59.4V0h4.752v2.376h4.752V0h4.752v2.376h4.751V0h4.752v2.376h4.752V0h4.752v2.376h-4.752v4.752h-4.752v4.752h-4.752v4.752h-4.751v-2.376zm4.751-4.752V7.128h4.752V2.376h-4.752v4.752h-4.751V2.376h-4.752v4.752h4.752v4.752h4.751V9.504zm33.266 4.752V11.88h-4.752V7.128h-4.752V2.376h-4.754V0h4.754v2.376h4.752V0h4.752v2.376h4.752V0h4.752v2.376h4.752V0h4.752v2.376h-4.752v4.752h-4.752v4.752h-4.752v4.752h-4.752v-2.376zm4.752-4.752V7.128h4.752V2.376h-4.752v4.752h-4.752V2.376h-4.752v4.752h4.752v4.752h4.752V9.504zm33.263 4.752V11.88h-4.752V7.128h-4.752V2.376h-4.752V0h4.752v2.376h4.752V0h4.752v1.188c0 1.188 0 1.188 1.188 1.188h1.189v4.752h-2.377v4.752h2.377v4.752h-2.377v-2.376zm0-9.504V2.376h-4.752v4.752h4.752V4.752z"/></svg>