<svg xmlns="http://www.w3.org/2000/svg" width="152.064" height="152.064" viewBox="0 0 152.064 152.064"><path d="M11.88 147.313v-4.752h4.752v-4.752h4.752v-4.752h4.752v4.752h4.752v4.752h4.752v9.504h-4.752v-9.504h-4.752v-4.752h-4.752v4.752h-4.752v9.504H11.88v-4.752zm38.015 0v-4.752h4.753v-4.752H59.4v-4.752h4.752v4.752h4.752v4.752h4.752v9.504h-4.752v-9.504h-4.752v-4.752H59.4v4.752h-4.752v9.504h-4.753v-4.752zm38.017 0v-4.752h4.752v-4.752h4.752v-4.752h4.752v4.752h4.753v4.752h4.752v9.504h-4.752v-9.504h-4.753v-4.752h-4.752v4.752h-4.752v9.504h-4.752v-4.752zm38.016 0v-4.752h4.752v-4.752h4.752v-4.752h4.752v4.752h4.752v4.752h4.752v9.504h-4.752v-9.504h-4.752v-4.752h-4.752v4.752h-4.752v9.504h-4.752v-4.752zM2.376 130.681v-2.376H0v-4.753h2.376v4.753h4.752v-4.753h4.752v-19.008h4.752v-4.752h4.752V95.04h4.752v4.752h4.752v4.752h4.752v19.008h4.752v4.753h4.752v-4.753h4.752v-19.008h4.753v-4.752H59.4V95.04h4.752v4.752h4.752v4.752h4.752v19.008h4.752v4.753h4.752v-4.753h4.752v-19.008h4.752v-4.752h4.752V95.04h4.752v4.752h4.753v4.752h4.752v19.008h4.752v4.753h4.752v-4.753h4.752v-19.008h4.752v-4.752h4.752V95.04h4.752v4.752h4.752v4.752h4.752v19.008h2.376v4.753h-2.376v-4.753h-4.752v-19.008h-4.752v-4.752h-4.752v4.752h-4.752v19.008h-4.752v4.753h-4.752v4.752h-4.752v-4.752h-4.752v-4.753h-4.752v-19.008h-4.753v-4.752h-4.752v4.752h-4.752v19.008h-4.752v4.753H83.16v4.752h-4.752v-4.752h-4.752v-4.753h-4.752v-19.008h-4.752v-4.752H59.4v4.752h-4.752v19.008h-4.753v4.753h-4.752v4.752h-4.752v-4.752h-4.752v-4.753h-4.752v-19.008h-4.752v-4.752h-4.751v4.752h-4.752v19.008H11.88v4.753H7.128v4.752H2.376v-2.376zm0-38.016v-2.376H0v-4.752h2.376v4.752h4.752v-4.752h4.752V66.529h4.752v-4.752h4.752v-4.753h4.752v4.753h4.752v4.752h4.752v19.008h4.752v4.752h4.752v-4.752h4.752V66.529h4.753v-4.752H59.4v-4.753h4.752v4.753h4.752v4.752h4.752v19.008h4.752v4.752h4.752v-4.752h4.752V66.529h4.752v-4.752h4.752v-4.753h4.752v4.753h4.753v4.752h4.752v19.008h4.752v4.752h4.752v-4.752h4.752V66.529h4.752v-4.752h4.752v-4.753h4.752v4.753h4.752v4.752h4.752v19.008h2.376v4.752h-2.376v-4.752h-4.752V66.529h-4.752v-4.752h-4.752v4.752h-4.752v19.008h-4.752v4.752h-4.752v4.752h-4.752v-4.752h-4.752v-4.752h-4.752V66.529h-4.753v-4.752h-4.752v4.752h-4.752v19.008h-4.752v4.752H83.16v4.752h-4.752v-4.752h-4.752v-4.752h-4.752V66.529h-4.752v-4.752H59.4v4.752h-4.752v19.008h-4.753v4.752h-4.752v4.752h-4.752v-4.752h-4.752v-4.752h-4.752V66.529h-4.752v-4.752h-4.751v4.752h-4.752v19.008H11.88v4.752H7.128v4.752H2.376v-2.376zm0-38.017v-2.376H0V47.52h2.376v4.752h4.752V47.52h4.752V28.512h4.752V23.76h4.752v-4.752h4.752v4.752h4.752v4.752h4.752V47.52h4.752v4.752h4.752V47.52h4.752V28.512h4.753V23.76H59.4v-4.752h4.752v4.752h4.752v4.752h4.752V47.52h4.752v4.752h4.752V47.52h4.752V28.512h4.752V23.76h4.752v-4.752h4.752v4.752h4.753v4.752h4.752V47.52h4.752v4.752h4.752V47.52h4.752V28.512h4.752V23.76h4.752v-4.752h4.752v4.752h4.752v4.752h4.752V47.52h2.376v4.752h-2.376V47.52h-4.752V28.512h-4.752V23.76h-4.752v4.752h-4.752V47.52h-4.752v4.752h-4.752v4.752h-4.752v-4.752h-4.752V47.52h-4.752V28.512h-4.753V23.76h-4.752v4.752h-4.752V47.52h-4.752v4.752H83.16v4.752h-4.752v-4.752h-4.752V47.52h-4.752V28.512h-4.752V23.76H59.4v4.752h-4.752V47.52h-4.753v4.752h-4.752v4.752h-4.752v-4.752h-4.752V47.52h-4.752V28.512h-4.752V23.76h-4.751v4.752h-4.752V47.52H11.88v4.752H7.128v4.752H2.376v-2.376zm0-38.015v-2.377H0V9.504h2.376v4.752h4.752V9.504h4.752V0h4.752v9.504H11.88v4.752H7.128v4.753H2.376v-2.376zm38.015 0v-2.377h-4.752V9.504h-4.752V0h4.752v9.504h4.752v4.752h4.752V9.504h4.752V0h4.753v9.504h-4.753v4.752h-4.752v4.753h-4.752v-2.376zm38.017 0v-2.377h-4.752V9.504h-4.752V0h4.752v9.504h4.752v4.752h4.752V9.504h4.752V0h4.752v9.504h-4.752v4.752H83.16v4.753h-4.752v-2.376zm38.017 0v-2.377h-4.752V9.504h-4.752V0h4.752v9.504h4.752v4.752h4.752V9.504h4.752V0h4.752v9.504h-4.752v4.752h-4.752v4.753h-4.752v-2.376zm33.263-4.752V9.504h-4.752V0h4.752v9.504h2.376v4.752h-2.376v-2.375z"/></svg>