<svg xmlns="http://www.w3.org/2000/svg" width="152.064" height="152.064" viewBox="0 0 152.064 152.064"><path d="M2.376 76.032V0h4.752v152.064H2.376V76.032zm9.504 0V0h4.752v152.064H11.88V76.032zm9.504 0V0h4.752v152.064h-4.752V76.032zm9.504 0V0h4.752v152.064h-4.752V76.032zm9.504 0V0h4.752v152.064h-4.752V76.032zm9.504 0V0h4.752v152.064h-4.752V76.032zm9.504 0V0h4.752v152.064H59.4V76.032zm9.504 0V0h4.752v152.064h-4.752V76.032zm9.504 0V0h4.752v152.064h-4.752V76.032zm9.504 0V0h4.753v152.064h-4.753V76.032zm9.505 0V0h4.752v152.064h-4.752V76.032zm9.503 0V0h4.752v152.064h-4.752V76.032zm9.504 0V0h4.753v152.064h-4.753V76.032zm9.504 0V0h4.752v152.064h-4.752V76.032zm9.504 0V0h4.752v152.064h-4.752V76.032zm9.504 0V0h4.752v152.064h-4.752V76.032z"/><path fill="none" d="M0 0h152.064v152.064H0z"/></svg>