<svg xmlns="http://www.w3.org/2000/svg" width="152.064" height="152.064" viewBox="0 0 152.064 152.064"><path d="M4.752 149.688v-2.375h4.752v4.752H4.752v-2.377zm38.016 0v-2.375h4.752v4.752h-4.752v-2.377zm38.016 0v-2.375h4.752v4.752h-4.752v-2.377zm38.016 0v-2.375h4.752v4.752H118.8v-2.377zm-99.792-4.752v-2.375h4.752v4.752h-4.752v-2.377zm38.016 0v-2.375h4.752v4.752h-4.752v-2.377zm38.016 0v-2.375h4.752v4.752H95.04v-2.377zm38.015 0v-2.375h4.752v4.752h-4.752v-2.377zM0 140.184v-2.375h4.752v4.752H0v-2.377zm38.016 0v-2.375h4.752v4.752h-4.752v-2.377zm38.016 0v-2.375h4.751v4.752h-4.751v-2.377zm38.016 0v-2.375h4.752v4.752h-4.752v-2.377zm-90.288-4.752v-2.377h4.752v4.754H23.76v-2.377zm38.016 0v-2.377h4.752v4.754h-4.752v-2.377zm38.016 0v-2.377h4.752v4.754h-4.752v-2.377zm38.015 0v-2.377h4.752v4.754h-4.752v-2.377zM9.504 130.68v-2.377h4.752v4.752H9.504v-2.375zm38.016 0v-2.377h4.752v4.752H47.52v-2.375zm38.016 0v-2.377h4.752v4.752h-4.752v-2.375zm38.016 0v-2.377h4.752v4.752h-4.752v-2.375zm-90.288-4.752v-2.377h4.752v4.752h-4.752v-2.375zm38.016 0v-2.377h4.752v4.752H71.28v-2.375zm38.016 0v-2.377h4.752v4.752h-4.752v-2.375zm38.017 0v-2.377h4.752v4.752h-4.752v-2.375zm-133.057-4.751V118.8h4.752v4.752h-4.752v-2.375zm38.016 0V118.8h4.752v4.752h-4.752v-2.375zm38.016 0V118.8h4.752v4.752h-4.752v-2.375zm38.015 0V118.8h4.752v4.752h-4.752v-2.375zm-99.791-4.752v-2.377h4.752v4.752h-4.752v-2.375zm38.016 0v-2.377h4.752v4.752h-4.752v-2.375zm38.016 0v-2.377h4.752v4.752h-4.752v-2.375zm38.015 0v-2.377h4.754v4.752h-4.754v-2.375zM4.752 111.673v-2.377h4.752v4.752H4.752v-2.375zm38.016 0v-2.377h4.752v4.752h-4.752v-2.375zm38.016 0v-2.377h4.752v4.752h-4.752v-2.375zm38.016 0v-2.377h4.752v4.752H118.8v-2.375zm-99.792-4.752v-2.377h4.752v4.752h-4.752v-2.375zm38.016 0v-2.377h4.752v4.752h-4.752v-2.375zm38.016 0v-2.377h4.752v4.752H95.04v-2.375zm38.015 0v-2.377h4.752v4.752h-4.752v-2.375zM0 102.169v-2.377h4.752v4.752H0v-2.375zm38.016 0v-2.377h4.752v4.752h-4.752v-2.375zm38.016 0v-2.377h4.751v4.752h-4.751v-2.375zm38.016 0v-2.377h4.752v4.752h-4.752v-2.375zM23.76 97.417V95.04h4.752v4.752H23.76v-2.375zm38.016 0V95.04h4.752v4.752h-4.752v-2.375zm38.016 0V95.04h4.752v4.752h-4.752v-2.375zm38.015 0V95.04h4.752v4.752h-4.752v-2.375zM9.504 92.665v-2.377h4.752v4.752H9.504v-2.375zm38.016 0v-2.377h4.752v4.752H47.52v-2.375zm38.016 0v-2.377h4.752v4.752h-4.752v-2.375zm38.016 0v-2.377h4.752v4.752h-4.752v-2.375zm-90.288-4.752v-2.377h4.752v4.752h-4.752v-2.375zm38.016 0v-2.377h4.752v4.752H71.28v-2.375zm38.016 0v-2.377h4.752v4.752h-4.752v-2.375zm38.017 0v-2.377h4.752v4.752h-4.752v-2.375zM14.256 83.161v-2.377h4.752v4.752h-4.752v-2.375zm38.016 0v-2.377h4.752v4.752h-4.752v-2.375zm38.016 0v-2.377h4.752v4.752h-4.752v-2.375zm38.015 0v-2.377h4.752v4.752h-4.752v-2.375zm-99.791-4.752v-2.376h4.752v4.751h-4.752v-2.375zm38.016 0v-2.376h4.752v4.751h-4.752v-2.375zm38.016 0v-2.376h4.752v4.751h-4.752v-2.375zm38.015 0v-2.376h4.754v4.751h-4.754v-2.375zM4.752 73.656v-2.375h4.752v4.752H4.752v-2.377zm38.016 0v-2.375h4.752v4.752h-4.752v-2.377zm38.016 0v-2.375h4.752v4.752h-4.752v-2.377zm38.016 0v-2.375h4.752v4.752H118.8v-2.377zm-99.792-4.752v-2.376h4.752v4.753h-4.752v-2.377zm38.016 0v-2.376h4.752v4.753h-4.752v-2.377zm38.016 0v-2.376h4.752v4.753H95.04v-2.377zm38.015 0v-2.376h4.752v4.753h-4.752v-2.377zM0 64.152v-2.376h4.752v4.752H0v-2.376zm38.016 0v-2.376h4.752v4.752h-4.752v-2.376zm38.016 0v-2.376h4.751v4.752h-4.751v-2.376zm38.016 0v-2.376h4.752v4.752h-4.752v-2.376zM23.76 59.4v-2.376h4.752v4.752H23.76V59.4zm38.016 0v-2.376h4.752v4.752h-4.752V59.4zm38.016 0v-2.376h4.752v4.752h-4.752V59.4zm38.015 0v-2.376h4.752v4.752h-4.752V59.4zM9.504 54.648v-2.376h4.752v4.752H9.504v-2.376zm38.016 0v-2.376h4.752v4.752H47.52v-2.376zm38.016 0v-2.376h4.752v4.752h-4.752v-2.376zm38.016 0v-2.376h4.752v4.752h-4.752v-2.376zm-90.288-4.752V47.52h4.752v4.752h-4.752v-2.376zm38.016 0V47.52h4.752v4.752H71.28v-2.376zm38.016 0V47.52h4.752v4.752h-4.752v-2.376zm38.017 0V47.52h4.752v4.752h-4.752v-2.376zM14.256 45.144v-2.376h4.752v4.752h-4.752v-2.376zm38.016 0v-2.376h4.752v4.752h-4.752v-2.376zm38.016 0v-2.376h4.752v4.752h-4.752v-2.376zm38.015 0v-2.376h4.752v4.752h-4.752v-2.376zm-99.791-4.752v-2.376h4.752v4.752h-4.752v-2.376zm38.016 0v-2.376h4.752v4.752h-4.752v-2.376zm38.016 0v-2.376h4.752v4.752h-4.752v-2.376zm38.015 0v-2.376h4.754v4.752h-4.754v-2.376zM4.752 35.64v-2.376h4.752v4.752H4.752V35.64zm38.016 0v-2.376h4.752v4.752h-4.752V35.64zm38.016 0v-2.376h4.752v4.752h-4.752V35.64zm38.016 0v-2.376h4.752v4.752H118.8V35.64zm-99.792-4.752v-2.376h4.752v4.752h-4.752v-2.376zm38.016 0v-2.376h4.752v4.752h-4.752v-2.376zm38.016 0v-2.376h4.752v4.752H95.04v-2.376zm38.015 0v-2.376h4.752v4.752h-4.752v-2.376zM0 26.136V23.76h4.752v4.752H0v-2.376zm38.016 0V23.76h4.752v4.752h-4.752v-2.376zm38.016 0V23.76h4.751v4.752h-4.751v-2.376zm38.016 0V23.76h4.752v4.752h-4.752v-2.376zM23.76 21.385v-2.376h4.752v4.752H23.76v-2.376zm38.016 0v-2.376h4.752v4.752h-4.752v-2.376zm38.016 0v-2.376h4.752v4.752h-4.752v-2.376zm38.015 0v-2.376h4.752v4.752h-4.752v-2.376zM9.504 16.633v-2.377h4.752v4.753H9.504v-2.376zm38.016 0v-2.377h4.752v4.753H47.52v-2.376zm38.016 0v-2.377h4.752v4.753h-4.752v-2.376zm38.016 0v-2.377h4.752v4.753h-4.752v-2.376zm-90.288-4.752V9.504h4.752v4.752h-4.752v-2.375zm38.016 0V9.504h4.752v4.752H71.28v-2.375zm38.016 0V9.504h4.752v4.752h-4.752v-2.375zm38.017 0V9.504h4.752v4.752h-4.752v-2.375zM14.256 7.128V4.752h4.752v4.752h-4.752V7.128zm38.016 0V4.752h4.752v4.752h-4.752V7.128zm38.016 0V4.752h4.752v4.752h-4.752V7.128zm38.015 0V4.752h4.752v4.752h-4.752V7.128zM28.512 2.376V0h4.752v4.752h-4.752V2.376zm38.016 0V0h4.752v4.752h-4.752V2.376zm38.016 0V0h4.752v4.752h-4.752V2.376zm38.015 0V0h4.754v4.752h-4.754V2.376z"/></svg>