<svg xmlns="http://www.w3.org/2000/svg" width="152.064" height="152.064" viewBox="0 0 152.064 152.064"><path d="M76.032 2.376h76.033v4.752H0V2.376h76.032zm0 9.504h76.033v4.752H0V11.88h76.032zm0 9.504h76.033v4.752H0v-4.752h76.032zm0 9.503h76.033v4.753H0v-4.753h76.032zm0 9.505h76.033v4.752H0v-4.752h76.032zm0 9.504h76.033v4.752H0v-4.752h76.032zm0 9.504h76.033v4.752H0V59.4h76.032zm0 9.504h76.033v4.752H0v-4.752h76.032zm0 9.504h76.033v4.752H0v-4.752h76.032zm0 9.504h76.033v4.752H0v-4.752h76.032zm0 9.505h76.033v4.752H0v-4.752h76.032zm0 9.504h76.033v4.752H0v-4.752h76.032zm0 9.504h76.033v4.752H0v-4.752h76.032zm0 9.504h76.033v4.752H0v-4.752h76.032zm0 9.503h76.033v4.752H0v-4.752h76.032zm0 9.504h76.033v4.752H0v-4.752h76.032z"/><path fill="none" d="M152.065 152.063H0V0h152.065z"/></svg>