<svg xmlns="http://www.w3.org/2000/svg" width="152.064" height="152.064" viewBox="0 0 152.064 152.064"><path d="M4.752 149.688v-2.375h4.752v-4.752h4.752v-4.752h4.752v-4.752h4.752v-4.752h4.752v-4.752h4.752v-4.752h4.752v-4.752h4.752v-4.752h4.753v-4.752h4.752v-4.752h4.752v-4.752h4.751v-4.754h4.752v-4.752h4.752v-4.752h4.751v-4.752h4.752V71.28h4.752v-4.752h4.752v-4.752h4.752v-4.752h4.752v-4.752h4.752V47.52h4.752v-4.752h4.752v-4.752h4.752v-4.752h4.752v-4.752h4.752V23.76h4.752v-4.752h4.752v-4.752h4.752V9.504h4.752V4.752h4.752v4.752h-4.752v4.752h-4.752v4.752h-4.752v4.752h-4.752v4.752h-4.752v4.752h-4.752v4.752H118.8v4.752h-4.752v4.752h-4.752v4.752h-4.752v4.752h-4.752v4.752H95.04v4.752h-4.752v4.752h-4.752v4.751h-4.752v4.752h-4.752v4.752H71.28v4.752h-4.752v4.754h-4.752v4.752h-4.752v4.752h-4.752v4.752H47.52v4.752h-4.753v4.752h-4.752v4.752h-4.752v4.752h-4.752v4.752H23.76v4.752h-4.752v4.752h-4.752v4.752H9.504v4.752H4.752v-2.377zm38.015 0v-2.375h4.753v-4.752h4.752v-4.752h4.752v-4.752h4.752v-4.752h4.752v-4.752h4.752v-4.752h4.751v-4.752h4.752v-4.752h4.752v-4.752h4.752v-4.752h4.752v-4.752h4.752v-4.754h4.752v-4.752h4.752v-4.752h4.752v-4.752h4.752V71.28h4.752v-4.752h4.752v-4.752h4.752v-4.752h4.752v-4.752h4.752V47.52h4.752v-4.752h4.752v4.752h-4.752v4.752h-4.752v4.752h-4.752v4.752h-4.752v4.752h-4.752v4.752h-4.752v4.751H118.8v4.752h-4.752v4.752h-4.752v4.752h-4.752v4.754h-4.752v4.752H95.04v4.752h-4.752v4.752h-4.752v4.752h-4.752v4.752h-4.752v4.752H71.28v4.752h-4.752v4.752h-4.752v4.752h-4.752v4.752h-4.752v4.752H47.52v4.752h-4.753v-2.377zm38.017 0v-2.375h4.752v-4.752h4.752v-4.752h4.752v-4.752h4.752v-4.752h4.752v-4.752h4.752v-4.752h4.752v-4.752h4.752v-4.752h4.752v-4.752h4.752v-4.752h4.752v-4.752h4.752v-4.754h4.752v-4.752h4.752v-4.752h4.752v4.752h-4.752v4.752h-4.752v4.754h-4.752v4.752h-4.752v4.752h-4.752v4.752h-4.752v4.752H118.8v4.752h-4.752v4.752h-4.752v4.752h-4.752v4.752h-4.752v4.752H95.04v4.752h-4.752v4.752h-4.752v4.752h-4.752v-2.377zm38.016 0v-2.375h4.752v-4.752h4.752v-4.752h4.752v-4.752h4.752v-4.752h4.752v-4.752h4.752v-4.752h4.752v4.752h-4.752v4.752h-4.752v4.752h-4.752v4.752h-4.752v4.752h-4.752v4.752h-4.752v4.752H118.8v-2.377zM0 116.425v-2.375h4.752v-4.752h4.752v-4.752h4.752v-4.752h4.752v-4.752h4.752v-4.754h4.752v-4.752h4.752v-4.752h4.752v-4.752h4.752V71.28h4.753v-4.752h4.752v-4.752h4.752v-4.752h4.751v-4.752h4.752V47.52h4.752v-4.752h4.751v-4.752h4.752v-4.752h4.752v-4.752h4.752V23.76h4.752v-4.752h4.752v-4.752h4.752V9.504h4.752V4.752h4.752V0h4.752v4.752h-4.752v4.752h-4.752v4.752h-4.752v4.752h-4.752v4.752H95.04v4.752h-4.752v4.752h-4.752v4.752h-4.752v4.752h-4.752v4.752H71.28v4.752h-4.752v4.752h-4.752v4.752h-4.752v4.752h-4.752v4.752H47.52v4.751h-4.753v4.752h-4.752v4.752h-4.752v4.752h-4.752v4.754H23.76v4.752h-4.752v4.752h-4.752v4.752H9.504v4.752H4.752v4.752H0v-2.376zm0-38.016v-2.377h4.752V71.28h4.752v-4.752h4.752v-4.752h4.752v-4.752h4.752v-4.752h4.752V47.52h4.752v-4.752h4.752v-4.752h4.752v-4.752h4.753v-4.752h4.752V23.76h4.752v-4.752h4.751v-4.752h4.752V9.504h4.752V4.752h4.751V0h4.752v4.752h-4.752v4.752H71.28v4.752h-4.752v4.752h-4.752v4.752h-4.752v4.752h-4.752v4.752H47.52v4.752h-4.753v4.752h-4.752v4.752h-4.752v4.752h-4.752v4.752H23.76v4.752h-4.752v4.752h-4.752v4.752H9.504v4.751H4.752v4.752H0v-2.374zm0-38.017v-2.376h4.752v-4.752h4.752v-4.752h4.752V23.76h4.752v-4.752h4.752v-4.752h4.752V9.504h4.752V4.752h4.752V0h4.752v4.752h-4.752v4.752h-4.752v4.752h-4.752v4.752H23.76v4.752h-4.752v4.752h-4.752v4.752H9.504v4.752H4.752v4.752H0v-2.376zM0 2.376V0h4.752v4.752H0V2.376z"/></svg>