<?xml version="1.0" encoding="utf-8"?>
<!-- Generator: Adobe Illustrator 16.0.0, SVG Export Plug-In . SVG Version: 6.00 Build 0)  -->
<!DOCTYPE svg PUBLIC "-//W3C//DTD SVG 1.1//EN" "http://www.w3.org/Graphics/SVG/1.1/DTD/svg11.dtd">
<svg version="1.1" id="Layer_1" xmlns="http://www.w3.org/2000/svg" xmlns:xlink="http://www.w3.org/1999/xlink" x="0px" y="0px"
	 width="152.064px" height="152.064px" viewBox="0 0 152.064 152.064" enable-background="new 0 0 152.064 152.064"
	 xml:space="preserve">
<path id="path3436" d="M4.752,149.688v-2.375h2.376h2.376v-2.377v-2.375h2.376h2.376v-2.377v-2.375h2.376h2.376v-2.377v-2.375h2.376
	h2.376v-2.377v-2.375h2.376h2.376v-2.377v-2.375h2.376h2.376v-2.377v-2.375h2.376h2.376v-2.377v-2.375h2.376h2.376v-2.377v-2.375
	h2.376h2.377v-2.377v-2.375h2.375h2.377v-2.377v-2.375h2.376h2.376v-2.377v-2.375H59.4h2.376v-2.377v-2.377h2.376h2.376v-2.375
	v-2.377h2.376h2.376v-2.375v-2.377h2.376h2.375v-2.375v-2.377h2.377h2.375v-2.375V71.28h2.377h2.375v-2.376v-2.376h2.377h2.375
	v-2.376v-2.376h2.377h2.375V59.4v-2.376h2.377h2.375v-2.376v-2.376h2.377h2.375v-2.376V47.52h2.377h2.375v-2.376v-2.376h2.377h2.375
	v-2.376v-2.376h2.377h2.375V35.64v-2.376h2.377h2.375v-2.376v-2.376h2.377h2.375v-2.376V23.76h2.377h2.375v-2.376v-2.376h2.377
	h2.375v-2.376v-2.376h2.377h2.375V11.88V9.504h2.377h2.375V7.128V4.752h2.377h2.375v2.376v2.376h-2.375h-2.377v2.376v2.376h-2.375
	h-2.377v2.376v2.376h-2.375h-2.377v2.376v2.376h-2.375h-2.377v2.376v2.376h-2.375h-2.377v2.376v2.376h-2.375h-2.377v2.376v2.376
	h-2.375H118.8v2.376v2.376h-2.375h-2.377v2.376v2.376h-2.375h-2.377v2.376v2.376h-2.375h-2.377v2.376v2.376h-2.375h-2.377V59.4
	v2.376h-2.375H95.04v2.376v2.376h-2.375h-2.377v2.376v2.376h-2.375h-2.377v2.376v2.375h-2.375h-2.377v2.377v2.375h-2.375h-2.377
	v2.377v2.375h-2.375H71.28v2.377v2.375h-2.376h-2.376v2.377v2.377h-2.376h-2.376v2.375v2.377H59.4h-2.376v2.375v2.377h-2.376h-2.376
	v2.375v2.377h-2.377H47.52v2.375v2.377h-2.377h-2.376v2.375v2.377h-2.376h-2.376v2.375v2.377h-2.376h-2.376v2.375v2.377h-2.376
	h-2.376v2.375v2.377h-2.376H23.76v2.375v2.377h-2.376h-2.376v2.375v2.377h-2.376h-2.376v2.375v2.377H11.88H9.504v2.375v2.377H7.128
	H4.752V149.688z M42.767,149.688v-2.375h2.376h2.377v-2.377v-2.375h2.375h2.377v-2.377v-2.375h2.376h2.376v-2.377v-2.375H59.4h2.376
	v-2.377v-2.375h2.376h2.376v-2.377v-2.375h2.376h2.376v-2.377v-2.375h2.376h2.375v-2.377v-2.375h2.377h2.375v-2.377v-2.375h2.377
	h2.375v-2.377v-2.375h2.377h2.375v-2.377v-2.375h2.377h2.375v-2.377v-2.375h2.377h2.375v-2.377v-2.377h2.377h2.375v-2.375v-2.377
	h2.377h2.375v-2.375v-2.377h2.377h2.375v-2.375v-2.377h2.377h2.375v-2.375V71.28h2.377h2.375v-2.376v-2.376h2.377h2.375v-2.376
	v-2.376h2.377h2.375V59.4v-2.376h2.377h2.375v-2.376v-2.376h2.377h2.375v-2.376V47.52h2.377h2.375v-2.376v-2.376h2.377h2.375v2.376
	v2.376h-2.375h-2.377v2.376v2.376h-2.375h-2.377v2.376v2.376h-2.375h-2.377V59.4v2.376h-2.375h-2.377v2.376v2.376h-2.375h-2.377
	v2.376v2.376h-2.375h-2.377v2.376v2.375h-2.375H118.8v2.377v2.375h-2.375h-2.377v2.377v2.375h-2.375h-2.377v2.377v2.375h-2.375
	h-2.377v2.377v2.377h-2.375h-2.377v2.375v2.377h-2.375H95.04v2.375v2.377h-2.375h-2.377v2.375v2.377h-2.375h-2.377v2.375v2.377
	h-2.375h-2.377v2.375v2.377h-2.375h-2.377v2.375v2.377h-2.375H71.28v2.375v2.377h-2.376h-2.376v2.375v2.377h-2.376h-2.376v2.375
	v2.377H59.4h-2.376v2.375v2.377h-2.376h-2.376v2.375v2.377h-2.377H47.52v2.375v2.377h-2.377h-2.376V149.688z M80.784,149.688v-2.375
	h2.377h2.375v-2.377v-2.375h2.377h2.375v-2.377v-2.375h2.377h2.375v-2.377v-2.375h2.377h2.375v-2.377v-2.375h2.377h2.375v-2.377
	v-2.375h2.377h2.375v-2.377v-2.375h2.377h2.375v-2.377v-2.375h2.377h2.375v-2.377v-2.375h2.377h2.375v-2.377v-2.375h2.377h2.375
	v-2.377v-2.375h2.377h2.375v-2.377v-2.375h2.377h2.375v-2.377v-2.377h2.377h2.375v-2.375v-2.377h2.377h2.375v-2.375v-2.377h2.377
	h2.375v2.377v2.375h-2.375h-2.377v2.377v2.375h-2.375h-2.377v2.377v2.377h-2.375h-2.377v2.375v2.377h-2.375h-2.377v2.375v2.377
	h-2.375h-2.377v2.375v2.377h-2.375h-2.377v2.375v2.377h-2.375H118.8v2.375v2.377h-2.375h-2.377v2.375v2.377h-2.375h-2.377v2.375
	v2.377h-2.375h-2.377v2.375v2.377h-2.375h-2.377v2.375v2.377h-2.375H95.04v2.375v2.377h-2.375h-2.377v2.375v2.377h-2.375h-2.377
	v2.375v2.377h-2.375h-2.377V149.688z M118.8,149.688v-2.375h2.377h2.375v-2.377v-2.375h2.377h2.375v-2.377v-2.375h2.377h2.375
	v-2.377v-2.375h2.377h2.375v-2.377v-2.375h2.377h2.375v-2.377v-2.375h2.377h2.375v-2.377v-2.375h2.377h2.375v2.375v2.377h-2.375
	h-2.377v2.375v2.377h-2.375h-2.377v2.375v2.377h-2.375h-2.377v2.375v2.377h-2.375h-2.377v2.375v2.377h-2.375h-2.377v2.375v2.377
	h-2.375h-2.377v2.375v2.377h-2.375H118.8V149.688z M0,116.425v-2.375h2.376h2.376v-2.377v-2.375h2.376h2.376v-2.377v-2.375h2.376
	h2.376v-2.377v-2.375h2.376h2.376v-2.377v-2.375h2.376h2.376v-2.377v-2.377h2.376h2.376v-2.375v-2.377h2.376h2.376v-2.375v-2.377
	h2.376h2.376v-2.375v-2.377h2.376h2.376v-2.375V71.28h2.376h2.377v-2.376v-2.376h2.375h2.377v-2.376v-2.376h2.376h2.376V59.4v-2.376
	H59.4h2.376v-2.376v-2.376h2.376h2.376v-2.376V47.52h2.376h2.376v-2.376v-2.376h2.376h2.375v-2.376v-2.376h2.377h2.375V35.64v-2.376
	h2.377h2.375v-2.376v-2.376h2.377h2.375v-2.376V23.76h2.377h2.375v-2.376v-2.376h2.377h2.375v-2.376v-2.376h2.377h2.375V11.88V9.504
	h2.377h2.375V7.128V4.752h2.377h2.375V2.376V0h2.377h2.375v2.376v2.376h-2.375h-2.377v2.376v2.376h-2.375h-2.377v2.376v2.376h-2.375
	h-2.377v2.376v2.376h-2.375h-2.377v2.376v2.376h-2.375H95.04v2.376v2.376h-2.375h-2.377v2.376v2.376h-2.375h-2.377v2.376v2.376
	h-2.375h-2.377v2.376v2.376h-2.375h-2.377v2.376v2.376h-2.375H71.28v2.376v2.376h-2.376h-2.376v2.376v2.376h-2.376h-2.376V59.4
	v2.376H59.4h-2.376v2.376v2.376h-2.376h-2.376v2.376v2.376h-2.377H47.52v2.376v2.375h-2.377h-2.376v2.377v2.375h-2.376h-2.376v2.377
	v2.375h-2.376h-2.376v2.377v2.375h-2.376h-2.376v2.377v2.377h-2.376H23.76v2.375v2.377h-2.376h-2.376v2.375v2.377h-2.376h-2.376
	v2.375v2.377H11.88H9.504v2.375v2.377H7.128H4.752v2.375v2.377H2.376H0V116.425z M0,78.409v-2.377h2.376h2.376v-2.375V71.28h2.376
	h2.376v-2.376v-2.376h2.376h2.376v-2.376v-2.376h2.376h2.376V59.4v-2.376h2.376h2.376v-2.376v-2.376h2.376h2.376v-2.376V47.52h2.376
	h2.376v-2.376v-2.376h2.376h2.376v-2.376v-2.376h2.376h2.376V35.64v-2.376h2.376h2.377v-2.376v-2.376h2.375h2.377v-2.376V23.76
	h2.376h2.376v-2.376v-2.376H59.4h2.376v-2.376v-2.376h2.376h2.376V11.88V9.504h2.376h2.376V7.128V4.752h2.376h2.375V2.376V0h2.377
	h2.375v2.376v2.376h-2.375h-2.377v2.376v2.376h-2.375H71.28v2.376v2.376h-2.376h-2.376v2.376v2.376h-2.376h-2.376v2.376v2.376H59.4
	h-2.376v2.376v2.376h-2.376h-2.376v2.376v2.376h-2.377H47.52v2.376v2.376h-2.377h-2.376v2.376v2.376h-2.376h-2.376v2.376v2.376
	h-2.376h-2.376v2.376v2.376h-2.376h-2.376v2.376v2.376h-2.376H23.76V59.4v2.376h-2.376h-2.376v2.376v2.376h-2.376h-2.376v2.376
	v2.376H11.88H9.504v2.376v2.375H7.128H4.752v2.377v2.375H2.376H0V78.409z M0,40.392v-2.376h2.376h2.376V35.64v-2.376h2.376h2.376
	v-2.376v-2.376h2.376h2.376v-2.376V23.76h2.376h2.376v-2.376v-2.376h2.376h2.376v-2.376v-2.376h2.376h2.376V11.88V9.504h2.376h2.376
	V7.128V4.752h2.376h2.376V2.376V0h2.376h2.376v2.376v2.376h-2.376h-2.376v2.376v2.376h-2.376h-2.376v2.376v2.376h-2.376h-2.376
	v2.376v2.376h-2.376H23.76v2.376v2.376h-2.376h-2.376v2.376v2.376h-2.376h-2.376v2.376v2.376H11.88H9.504v2.376v2.376H7.128H4.752
	v2.376v2.376H2.376H0V40.392z M0,2.376V0h2.376h2.376v2.376v2.376H2.376H0V2.376z"/>
</svg>
