<?xml version="1.0" encoding="utf-8"?>
<!-- Generator: Adobe Illustrator 16.0.0, SVG Export Plug-In . SVG Version: 6.00 Build 0)  -->
<!DOCTYPE svg PUBLIC "-//W3C//DTD SVG 1.1//EN" "http://www.w3.org/Graphics/SVG/1.1/DTD/svg11.dtd">
<svg version="1.1" id="Layer_1" xmlns="http://www.w3.org/2000/svg" xmlns:xlink="http://www.w3.org/1999/xlink" x="0px" y="0px"
	 width="152.064px" height="152.064px" viewBox="0 0 152.064 152.064" enable-background="new 0 0 152.064 152.064"
	 xml:space="preserve">
<path id="path3564" d="M19.008,142.561v-9.504H9.504H0v-2.377v-2.376h9.504h9.504v-16.632V95.041H9.504H0v-2.376v-2.376h9.504h9.504
	V73.657V57.024H9.504H0v-2.376v-2.376h9.504h9.504V35.64V19.009H9.504H0v-2.376v-2.376h9.504h9.504V7.128V0h2.376h2.376v7.128v7.129
	h16.632h16.632V7.128V0H59.4h2.376v7.128v7.129h16.633H95.04V7.128V0h2.377h2.375v7.128v7.129h16.633h16.631V7.128V0h2.377h2.375
	v7.128v7.129h7.129h7.129v2.376v2.376h-7.129h-7.129V35.64v16.632h7.129h7.129v2.376v2.376h-7.129h-7.129v16.633v16.632h7.129h7.129
	v2.376v2.376h-7.129h-7.129v16.632v16.632h7.129h7.129v2.376v2.377h-7.129h-7.129v9.504v9.504h-2.375h-2.377v-9.504v-9.504h-16.631
	H99.792v9.504v9.504h-2.375H95.04v-9.504v-9.504H78.409H61.776v9.504v9.504H59.4h-2.376v-9.504v-9.504H40.392H23.76v9.504v9.504
	h-2.376h-2.376V142.561z M57.024,111.673V95.041H40.392H23.76v16.632v16.632h16.632h16.632V111.673z M95.04,111.673V95.041H78.409
	H61.776v16.632v16.632h16.633H95.04V111.673z M133.055,111.673V95.041h-16.631H99.792v16.632v16.632h16.633h16.631V111.673z
	 M57.024,73.657V57.024H40.392H23.76v16.633v16.632h16.632h16.632V73.657z M95.04,73.657V57.024H78.409H61.776v16.633v16.632h16.633
	H95.04V73.657z M133.055,73.657V57.024h-16.631H99.792v16.633v16.632h16.633h16.631V73.657z M57.024,35.64V19.009H40.392H23.76
	V35.64v16.632h16.632h16.632V35.64z M95.04,35.64V19.009H78.409H61.776V35.64v16.632h16.633H95.04V35.64z M133.055,35.64V19.009
	h-16.631H99.792V35.64v16.632h16.633h16.631V35.64z"/>
</svg>
