<?xml version="1.0" encoding="utf-8"?>
<!-- Generator: Adobe Illustrator 16.0.0, SVG Export Plug-In . SVG Version: 6.00 Build 0)  -->
<!DOCTYPE svg PUBLIC "-//W3C//DTD SVG 1.1//EN" "http://www.w3.org/Graphics/SVG/1.1/DTD/svg11.dtd">
<svg version="1.1" id="Layer_1" xmlns="http://www.w3.org/2000/svg" xmlns:xlink="http://www.w3.org/1999/xlink" x="0px" y="0px"
	 width="152.064px" height="152.064px" viewBox="0 0 152.064 152.064" enable-background="new 0 0 152.064 152.064"
	 xml:space="preserve">
<path id="path5356" d="M28.511,149.688v-2.376h-2.376H23.76v-2.376v-2.376h-4.752h-4.752v-2.376v-2.376H9.504H4.752v-2.376v-2.376
	H2.376H0v-2.376v-2.376h2.376h2.376v2.376v2.376h4.752h4.752v-2.376v-2.376h2.376h2.376v-2.376v-2.376h2.376h2.376v-2.376v-2.376
	h2.376h2.376v-4.752v-4.752h-2.376H23.76v-2.376v-2.376h-4.752h-4.752v-2.377v-2.375H9.504H4.752v-2.377V95.04H2.376H0v-2.376
	v-2.376h2.376h2.376v2.376v2.376h4.752h4.752v-2.376v-2.376h2.376h2.376v-2.376v-2.376h2.376h2.376V83.16v-2.376h2.376h2.376v-4.752
	V71.28h-2.376H23.76v-2.376v-2.376h-4.752h-4.752v-2.376v-2.376H9.504H4.752V59.4v-2.376H2.376H0v-2.376v-2.376h2.376h2.376v2.376
	v2.376h4.752h4.752v-2.376v-2.376h2.376h2.376v-2.376V47.52h2.376h2.376v-2.376v-2.376h2.376h2.376v-4.753v-4.752h-2.376H23.76
	v-2.376v-2.376h-4.752h-4.752v-2.376V23.76H9.504H4.752v-2.376v-2.376H2.376H0v-2.376v-2.376h2.376h2.376v2.376v2.376h4.752h4.752
	v-2.376v-2.376h2.376h2.376V11.88V9.504h2.376h2.376V7.128V4.752h2.376h2.376V2.376V0h2.376h2.376v4.752v4.752h2.376h2.376v2.376
	v2.376h2.376h2.377v2.376v2.376h4.752h4.752v-2.376v-2.376h2.376h2.376V11.88V9.504H59.4h2.376V7.128V4.752h2.376h2.376V2.376V0
	h2.376h2.376v4.752v4.752h2.376h2.376v2.376v2.376h2.376h2.376v2.376v2.376h4.752h4.752v-2.376v-2.376h2.376h2.376V11.88V9.504
	h2.376h2.376V7.128V4.752h2.376h2.376V2.376V0h2.377h2.375v4.752v4.752h2.377h2.376v2.376v2.376h2.376h2.376v2.376v2.376h4.752
	h4.752v-2.376v-2.376h2.376h2.376V11.88V9.504h2.376h2.376V7.128V4.752h2.376h2.376V2.376V0h2.376h2.376v4.752v4.752h2.376h2.376
	v2.376v2.376h-2.376h-2.376V11.88V9.504h-4.752h-4.752v2.376v2.376h-2.376h-2.376v2.376v2.376h-2.376h-2.376v2.376v2.376h4.752
	h4.752v2.376v2.376h2.376h2.376v2.376v2.376h2.376h2.376v7.129v7.128h2.376h2.376v2.376v2.376h-2.376h-2.376v-2.376V47.52h-4.752
	h-4.752v2.376v2.376h-2.376h-2.376v2.376v2.376h-2.376h-2.376V59.4v2.376h4.752h4.752v2.376v2.376h2.376h2.376v2.376v2.376h2.376
	h2.376v7.128v7.128h2.376h2.376v2.376v2.376h-2.376h-2.376v-2.376v-2.376h-4.752h-4.752v2.376v2.376h-2.376h-2.376v2.376v2.376
	h-2.376h-2.376v2.376v2.377h4.752h4.752v2.375v2.377h2.376h2.376v2.376v2.376h2.376h2.376v7.128v7.128h2.376h2.376v2.376v2.376
	h-2.376h-2.376v-2.376v-2.376h-4.752h-4.752v2.376v2.376h-2.376h-2.376v2.376v2.376h-2.376h-2.376v2.376v2.376h4.752h4.752v2.376
	v2.376h2.376h2.376v2.376v2.376h2.376h2.376v2.376v2.376h-2.376h-2.376v-2.376v-2.376h-2.376h-2.376v-2.376v-2.376h-4.752h-4.752
	v-2.376v-2.376h-4.752h-4.752v-2.376v-2.376h-2.376h-2.376v-2.376v-2.376h-2.376h-2.377v-2.376v-2.376h-4.752h-4.752v2.376v2.376
	h-2.376H95.04v2.376v2.376h-2.376h-2.376v2.376v2.376h4.752h4.752v2.376v2.376h2.376h2.376v2.376v2.376h2.377h2.375v2.376v2.376
	h-2.375h-2.377v-2.376v-2.376h-2.376h-2.376v-2.376v-2.376H95.04h-4.752v-2.376v-2.376h-4.752h-4.752v-2.376v-2.376h-2.376h-2.376
	v-2.376v-2.376h-2.376H71.28v-2.376v-2.376h-4.752h-4.752v2.376v2.376H59.4h-2.376v2.376v2.376h-2.376h-2.376v2.376v2.376h4.752
	h4.752v2.376v2.376h2.376h2.376v2.376v2.376h2.376h2.376v2.376v2.376h-2.376h-2.376v-2.376v-2.376h-2.376h-2.376v-2.376v-2.376
	h-4.752h-4.752v-2.376v-2.376H47.52h-4.752v-2.376v-2.376h-2.377h-2.376v-2.376v-2.376h-2.376h-2.376v-2.376v-2.376h-4.752H23.76
	v2.376v2.376h-2.376h-2.376v2.376v2.376h-2.376h-2.376v2.376v2.376h4.752h4.752v2.376v2.376h2.376h2.376v2.376v2.376h2.376h2.376
	v2.376v2.376h-2.376h-2.376V149.688z M52.272,130.68v-2.376h2.376h2.376v-2.376v-2.376H59.4h2.376v-2.376v-2.376h2.376h2.376v-4.752
	v-4.752h2.376h2.376v7.128v7.128h2.376h2.376v2.376v2.376h2.376h2.376v2.376v2.376h4.752h4.752v-2.376v-2.376h2.376h2.376v-2.376
	v-2.376h2.376h2.376v-2.376v-2.376h2.376h2.376v-4.752v-4.752h2.377h2.375v7.128v7.128h2.377h2.376v2.376v2.376h2.376h2.376v2.376
	v2.376h4.752h4.752v-2.376v-2.376h2.376h2.376v-2.376v-2.376h2.376h2.376v-2.376v-2.376h2.376h2.376v-4.752v-4.752h-2.376h-2.376
	v-2.376v-2.376h-4.752h-4.752v-2.377v-2.375h-4.752h-4.752v-2.377V95.04h4.752h4.752v-2.376v-2.376h2.376h2.376v-2.376v-2.376h2.376
	h2.376V83.16v-2.376h2.376h2.376v-4.752V71.28h-2.376h-2.376v-2.376v-2.376h-4.752h-4.752v-2.376v-2.376h-4.752h-4.752V59.4v-2.376
	h4.752h4.752v-2.376v-2.376h2.376h2.376v-2.376V47.52h2.376h2.376v-2.376v-2.376h2.376h2.376v-4.753v-4.752h-2.376h-2.376v-2.376
	v-2.376h-4.752h-4.752v-2.376V23.76h-4.752h-4.752v-2.376v-2.376h-2.376h-2.376v-2.376v-2.376h-2.376h-2.377V11.88V9.504h-4.752
	h-4.752v2.376v2.376h-2.376H95.04v2.376v2.376h-2.376h-2.376v2.376v2.376h-4.752h-4.752v-2.376v-2.376h-2.376h-2.376v-2.376v-2.376
	h-2.376H71.28V11.88V9.504h-4.752h-4.752v2.376v2.376H59.4h-2.376v2.376v2.376h-2.376h-2.376v2.376v2.376H47.52h-4.752v-2.376
	v-2.376h-2.377h-2.376v-2.376v-2.376h-2.376h-2.376V11.88V9.504h-4.752H23.76v2.376v2.376h-2.376h-2.376v2.376v2.376h-2.376h-2.376
	v2.376v2.376h4.752h4.752v2.376v2.376h2.376h2.376v2.376v2.376h2.376h2.376v7.129v7.128h-4.752H23.76v2.376v2.376h-2.376h-2.376
	v2.376v2.376h-2.376h-2.376V59.4v2.376h4.752h4.752v2.376v2.376h2.376h2.376v2.376v2.376h2.376h2.376v7.128v7.128h-4.752H23.76
	v2.376v2.376h-2.376h-2.376v2.376v2.376h-2.376h-2.376v2.376v2.377h4.752h4.752v2.375v2.377h2.376h2.376v2.376v2.376h2.376h2.376
	v7.128v7.128h2.376h2.376v2.376v2.376h2.376h2.377v2.376v2.376h4.752h4.752V130.68z M61.776,106.921v-2.376h-4.752h-4.752v-2.377
	v-2.375H47.52h-4.752v-2.377V95.04h-2.377h-2.376v-2.376v-2.376h-2.376h-2.376v-2.376v-2.376h2.376h2.376v2.376v2.376h2.376h2.377
	v2.376v2.376h4.752h4.752v-2.376v-2.376h2.376h2.376v-2.376v-2.376H59.4h2.376V83.16v-2.376h2.376h2.376v-4.752V71.28h-2.376h-2.376
	v-2.376v-2.376h-4.752h-4.752v-2.376v-2.376H47.52h-4.752V59.4v-2.376h-2.377h-2.376v-2.376v-2.376h-2.376h-2.376v-2.376V47.52
	h2.376h2.376v2.376v2.376h2.376h2.377v2.376v2.376h4.752h4.752v-2.376v-2.376h2.376h2.376v-2.376V47.52H59.4h2.376v-2.376v-2.376
	h2.376h2.376v-4.753v-4.752h-2.376h-2.376v-2.376v-2.376h-4.752h-4.752v-2.376V23.76h4.752h4.752v2.376v2.376h2.376h2.376v2.376
	v2.376h2.376h2.376v7.129v7.128h2.376h2.376v2.376v2.376h2.376h2.376v2.376v2.376h4.752h4.752v-2.376v-2.376h2.376h2.376v-2.376
	V47.52h2.376h2.376v-2.376v-2.376h2.376h2.376v-4.753v-4.752h-2.376h-2.376v-2.376v-2.376H95.04h-4.752v-2.376V23.76h4.752h4.752
	v2.376v2.376h2.376h2.376v2.376v2.376h2.377h2.375v7.129v7.128h2.377h2.376v2.376v2.376h2.376h2.376v2.376v2.376h-2.376h-2.376
	v-2.376v-2.376h-2.376h-2.377v-2.376V47.52h-4.752h-4.752v2.376v2.376h-2.376H95.04v2.376v2.376h-2.376h-2.376V59.4v2.376h4.752
	h4.752v2.376v2.376h2.376h2.376v2.376v2.376h2.377h2.375v7.128v7.128h2.377h2.376v2.376v2.376h2.376h2.376v2.376v2.376h-2.376
	h-2.376v-2.376v-2.376h-2.376h-2.377v-2.376v-2.376h-4.752h-4.752v2.376v2.376h-2.376H95.04v2.376v2.376h-2.376h-2.376v2.376v2.377
	h4.752h4.752v2.375v2.377h2.376h2.376v2.376v2.376h-2.376h-2.376v-2.376v-2.376H95.04h-4.752v-2.377v-2.375h-4.752h-4.752v-2.377
	V95.04h-2.376h-2.376v-2.376v-2.376h-2.376H71.28v-2.376v-2.376h-4.752h-4.752v2.376v2.376H59.4h-2.376v2.376v2.376h-2.376h-2.376
	v2.376v2.377h4.752h4.752v2.375v2.377h2.376h2.376v2.376v2.376h-2.376h-2.376V106.921z M90.288,92.664v-2.376h2.376h2.376v-2.376
	v-2.376h2.376h2.376V83.16v-2.376h2.376h2.376v-4.752V71.28h-2.376h-2.376v-2.376v-2.376H95.04h-4.752v-2.376v-2.376h-4.752h-4.752
	V59.4v-2.376h-2.376h-2.376v-2.376v-2.376h-2.376H71.28v-2.376V47.52h-4.752h-4.752v2.376v2.376H59.4h-2.376v2.376v2.376h-2.376
	h-2.376V59.4v2.376h4.752h4.752v2.376v2.376h2.376h2.376v2.376v2.376h2.376h2.376v7.128v7.128h2.376h2.376v2.376v2.376h2.376h2.376
	v2.376v2.376h4.752h4.752V92.664z"/>
</svg>
