<?xml version="1.0" encoding="utf-8"?>
<!-- Generator: Adobe Illustrator 16.0.0, SVG Export Plug-In . SVG Version: 6.00 Build 0)  -->
<!DOCTYPE svg PUBLIC "-//W3C//DTD SVG 1.1//EN" "http://www.w3.org/Graphics/SVG/1.1/DTD/svg11.dtd">
<svg version="1.1" id="Layer_1" xmlns="http://www.w3.org/2000/svg" xmlns:xlink="http://www.w3.org/1999/xlink" x="0px" y="0px"
	 width="152.064px" height="152.064px" viewBox="0 0 152.064 152.064" enable-background="new 0 0 152.064 152.064"
	 xml:space="preserve">
<path id="path5382" d="M0,147.313v-4.752h2.376h2.376v-2.376v-2.376h2.376h2.376v-2.376v-2.377h2.376h2.376v-2.375v-2.377h2.376
	h2.376v-2.376v-2.376h2.376h2.376v-2.376v-2.376h2.376h2.376v-2.376v-2.376H14.256H0v-4.752v-4.752h2.376h2.376v-2.376v-2.376h2.376
	h2.376v-2.376v-2.376h2.376h2.376v-2.376v-2.376h2.376h2.376v-2.376v-2.376h2.376h2.376v-2.376v-2.376h2.376h2.376v-2.376v-2.376
	H14.256H0v-4.752v-4.753h2.376h2.376v-2.376v-2.376h2.376h2.376V59.4v-2.376h2.376h2.376v-2.376v-2.376h2.376h2.376v-2.376V47.52
	h2.376h2.376v-2.376v-2.376h2.376h2.376v-2.376v-2.376H14.256H0v-4.752v-4.752h2.376h2.376v-2.376V23.76h2.376h2.376v-2.376v-2.376
	h2.376h2.376v-2.376v-2.377h2.376h2.376v-2.375V9.504h2.376h2.376V7.128V4.752h2.376h2.376V2.376V0h2.376h2.376v2.376v2.376h-2.376
	h-2.376v2.376v2.376h-2.376H23.76v2.377v2.375h-2.376h-2.376v2.377v2.376h-2.376h-2.376v2.376v2.376h2.376h2.376v2.376v2.376h2.376
	h2.376v-2.376V23.76h2.376h2.376v2.376v2.376h2.376h2.376v2.376v2.376h2.376h2.376v-2.376v-2.376h2.376h2.377v-2.376V23.76h2.375
	h2.377v-2.376v-2.376h2.376h2.376v-2.376v-2.377h2.376h2.376v-2.375V9.504H59.4h2.376V7.128V4.752h2.376h2.376V2.376V0h2.376h2.376
	v2.376v2.376h-2.376h-2.376v2.376v2.376h-2.376h-2.376v2.377v2.375H59.4h-2.376v2.377v2.376h-2.376h-2.376v2.376v2.376h2.376h2.376
	v2.376v2.376H59.4h2.376v-2.376V23.76h2.376h2.376v2.376v2.376h2.376h2.376v2.376v2.376h2.376h2.376v-2.376v-2.376h2.376h2.376
	v-2.376V23.76h2.376h2.376v-2.376v-2.376h2.376h2.376v-2.376v-2.377h2.376h2.376v-2.375V9.504h2.376h2.376V7.128V4.752h2.376h2.376
	V2.376V0h2.377h2.375v2.376v2.376h-2.375h-2.377v2.376v2.376h-2.376h-2.376v2.377v2.375h-2.376H95.04v2.377v2.376h-2.376h-2.376
	v2.376v2.376h2.376h2.376v2.376v2.376h2.376h2.376v-2.376V23.76h2.376h2.376v2.376v2.376h2.377h2.375v2.376v2.376h2.377h2.376
	v-2.376v-2.376h2.376h2.376v-2.376V23.76h2.376h2.376v-2.376v-2.376h2.376h2.376v-2.376v-2.377h2.376h2.376v-2.375V9.504h2.376
	h2.376V7.128V4.752h2.376h2.376V2.376V0h2.376h2.376v2.376v2.376h-2.376h-2.376v2.376v2.376h-2.376h-2.376v2.377v2.375h-2.376
	h-2.376v2.377v2.376h-2.376h-2.376v2.376v2.376h2.376h2.376v2.376v2.376h2.376h2.376v-2.376V23.76h2.376h2.376v2.376v2.376h2.376
	h2.376v2.376v2.376h2.376h2.376v2.376v2.376h-2.376h-2.376v2.376v2.376h-2.376h-2.376v2.376v2.376h-2.376h-2.376v2.376v2.376h-2.376
	h-2.376v2.376v2.376h-2.376h-2.376V59.4v2.376h2.376h2.376v2.376v2.376h2.376h2.376v-2.376v-2.376h2.376h2.376v2.376v2.376h2.376
	h2.376v2.376v2.377h2.376h2.376v2.375v2.377h-2.376h-2.376v2.376v2.376h-2.376h-2.376v2.376v2.376h-2.376h-2.376v2.376v2.376h-2.376
	h-2.376v2.376v2.376h-2.376h-2.376v2.376v2.376h2.376h2.376v2.376v2.376h2.376h2.376v-2.376v-2.376h2.376h2.376v2.376v2.376h2.376
	h2.376v2.376v2.376h2.376h2.376v2.376v2.376h-2.376h-2.376v2.376v2.376h-2.376h-2.376v2.376v2.376h-2.376h-2.376v2.376v2.376h-2.376
	h-2.376v2.377v2.375h-2.376h-2.376v2.377v2.376h2.376h2.376v2.376v2.376h2.376h2.376v-2.376v-2.376h2.376h2.376v2.376v2.376h2.376
	h2.376v2.376v2.376h2.376h2.376v2.376v2.376H76.032H0V147.313z M9.504,144.937v-2.376h2.376h2.376v2.376v2.376h2.376h2.376v-2.376
	v-2.376h2.376h2.376v2.376v2.376h2.376h2.376v-2.376v-2.376h2.376h2.376v2.376v2.376h2.376h2.376v-2.376v-2.376h2.376h2.377v2.376
	v2.376h2.375h2.377v-2.376v-2.376h2.376h2.376v2.376v2.376h2.376h2.376v-2.376v-2.376H59.4h2.376v2.376v2.376h2.376h2.376v-2.376
	v-2.376h2.376h2.376v2.376v2.376h2.376h2.376v-2.376v-2.376h2.376h2.376v2.376v2.376h2.376h2.376v-2.376v-2.376h2.376h2.376v2.376
	v2.376h2.376h2.376v-2.376v-2.376h2.376h2.376v2.376v2.376h2.376h2.376v-2.376v-2.376h2.377h2.375v2.376v2.376h2.377h2.376v-2.376
	v-2.376h2.376h2.376v2.376v2.376h2.376h2.376v-2.376v-2.376h2.376h2.376v2.376v2.376h2.376h2.376v-2.376v-2.376h-2.376h-2.376
	v-2.376v-2.376h-2.376h-2.376v-2.376v-2.377h2.376h2.376v-2.375v-2.377h2.376h2.376v-2.376v-2.376h2.376h2.376v-2.376v-2.376h2.376
	h2.376v-2.376v-2.376h-16.632h-16.633v2.376v2.376h-2.375h-2.377v-2.376v-2.376H87.912H71.28v2.376v2.376h-2.376h-2.376v-2.376
	v-2.376H49.896H33.263v2.376v2.376h-2.376h-2.376v2.376v2.376h-2.376H23.76v2.376v2.376h-2.376h-2.376v2.377v2.375h-2.376h-2.376
	v2.377v2.376H11.88H9.504v2.376v2.376H7.128H4.752v2.376v2.376h2.376h2.376V144.937z M14.256,140.185v-2.376h2.376h2.376v2.376
	v2.376h-2.376h-2.376V140.185z M23.76,140.185v-2.376h2.376h2.376v2.376v2.376h-2.376H23.76V140.185z M42.768,140.185v-2.376h2.375
	h2.377v-2.376v-2.377h2.376h2.376v-2.375v-2.377h2.376h2.376v-2.376v-2.376H59.4h2.376v-2.376v-2.376h2.376h2.376v2.376v2.376
	h-2.376h-2.376v2.376v2.376H59.4h-2.376v2.377v2.375h-2.376h-2.376v2.377v2.376h2.376h2.376v2.376v2.376h-2.376h-2.376v-2.376
	v-2.376h-2.376H47.52v2.376v2.376h-2.377h-2.375V140.185z M61.776,140.185v-2.376h2.376h2.376v2.376v2.376h-2.376h-2.376V140.185z
	 M80.784,140.185v-2.376h2.376h2.376v-2.376v-2.377h2.376h2.376v-2.375v-2.377h2.376h2.376v-2.376v-2.376h2.376h2.376v-2.376v-2.376
	h2.376h2.376v2.376v2.376h-2.376h-2.376v2.376v2.376h-2.376H95.04v2.377v2.375h-2.376h-2.376v2.377v2.376h2.376h2.376v2.376v2.376
	h-2.376h-2.376v-2.376v-2.376h-2.376h-2.376v2.376v2.376H83.16h-2.376V140.185z M99.792,140.185v-2.376h2.376h2.376v2.376v2.376
	h-2.376h-2.376V140.185z M118.801,140.185v-2.376h2.376h2.376v2.376v2.376h-2.376h-2.376V140.185z M142.56,144.937v-2.376h-2.376
	h-2.376v2.376v2.376h2.376h2.376V144.937z M9.504,106.921v-2.376h2.376h2.376v2.376v2.376h2.376h2.376v-2.376v-2.376h2.376h2.376
	v2.376v2.376h2.376h2.376v-2.376v-2.376h2.376h2.376v2.376v2.376h2.376h2.376v-2.376v-2.376h2.376h2.377v2.376v2.376h2.375h2.377
	v-2.376v-2.376h2.376h2.376v2.376v2.376h2.376h2.376v-2.376v-2.376H59.4h2.376v2.376v2.376h2.376h2.376v-2.376v-2.376h2.376h2.376
	v2.376v2.376h2.376h2.376v-2.376v-2.376h2.376h2.376v2.376v2.376h2.376h2.376v-2.376v-2.376h2.376h2.376v2.376v2.376h2.376h2.376
	v-2.376v-2.376h2.376h2.376v2.376v2.376h2.376h2.376v-2.376v-2.376h2.377h2.375v2.376v2.376h2.377h2.376v-2.376v-2.376h2.376h2.376
	v2.376v2.376h2.376h2.376v-2.376v-2.376h2.376h2.376v2.376v2.376h2.376h2.376v-2.376v-2.376h-2.376h-2.376v-2.376v-2.376h-2.376
	h-2.376v-2.376v-2.376h2.376h2.376v-2.376v-2.376h2.376h2.376v-2.376v-2.376h2.376h2.376v-2.376v-2.376h2.376h2.376v-2.376v-2.376
	h-16.632h-16.633v2.376v2.376h-2.375h-2.377v-2.376v-2.376H87.912H71.28v2.376v2.376h-2.376h-2.376v-2.376v-2.376H49.896H33.263
	v2.376v2.376h-2.376h-2.376v2.376v2.376h-2.376H23.76v2.376v2.376h-2.376h-2.376v2.376v2.376h-2.376h-2.376v2.376v2.376H11.88H9.504
	v2.376v2.376H7.128H4.752v2.376v2.376h2.376h2.376V106.921z M14.256,102.169v-2.376h2.376h2.376v2.376v2.376h-2.376h-2.376V102.169z
	 M23.76,102.169v-2.376h2.376h2.376v2.376v2.376h-2.376H23.76V102.169z M42.768,102.169v-2.376h2.375h2.377v-2.376v-2.376h2.376
	h2.376v-2.376v-2.376h2.376h2.376v-2.376v-2.376H59.4h2.376v-2.376v-2.376h2.376h2.376v2.376v2.376h-2.376h-2.376v2.376v2.376H59.4
	h-2.376v2.376v2.376h-2.376h-2.376v2.376v2.376h2.376h2.376v2.376v2.376h-2.376h-2.376v-2.376v-2.376h-2.376H47.52v2.376v2.376
	h-2.377h-2.375V102.169z M61.776,102.169v-2.376h2.376h2.376v2.376v2.376h-2.376h-2.376V102.169z M80.784,102.169v-2.376h2.376
	h2.376v-2.376v-2.376h2.376h2.376v-2.376v-2.376h2.376h2.376v-2.376v-2.376h2.376h2.376v-2.376v-2.376h2.376h2.376v2.376v2.376
	h-2.376h-2.376v2.376v2.376h-2.376H95.04v2.376v2.376h-2.376h-2.376v2.376v2.376h2.376h2.376v2.376v2.376h-2.376h-2.376v-2.376
	v-2.376h-2.376h-2.376v2.376v2.376H83.16h-2.376V102.169z M99.792,102.169v-2.376h2.376h2.376v2.376v2.376h-2.376h-2.376V102.169z
	 M118.801,102.169v-2.376h2.376h2.376v2.376v2.376h-2.376h-2.376V102.169z M142.56,106.921v-2.376h-2.376h-2.376v2.376v2.376h2.376
	h2.376V106.921z M9.504,68.904v-2.376h2.376h2.376v2.376v2.377h2.376h2.376v-2.377v-2.376h2.376h2.376v2.376v2.377h2.376h2.376
	v-2.377v-2.376h2.376h2.376v2.376v2.377h2.376h2.376v-2.377v-2.376h2.376h2.377v2.376v2.377h2.375h2.377v-2.377v-2.376h2.376h2.376
	v2.376v2.377h2.376h2.376v-2.377v-2.376H59.4h2.376v2.376v2.377h2.376h2.376v-2.377v-2.376h2.376h2.376v2.376v2.377h2.376h2.376
	v-2.377v-2.376h2.376h2.376v2.376v2.377h2.376h2.376v-2.377v-2.376h2.376h2.376v2.376v2.377h2.376h2.376v-2.377v-2.376h2.376h2.376
	v2.376v2.377h2.376h2.376v-2.377v-2.376h2.377h2.375v2.376v2.377h2.377h2.376v-2.377v-2.376h2.376h2.376v2.376v2.377h2.376h2.376
	v-2.377v-2.376h2.376h2.376v2.376v2.377h2.376h2.376v-2.377v-2.376h-2.376h-2.376v-2.376v-2.376h-2.376h-2.376V59.4v-2.376h2.376
	h2.376v-2.376v-2.376h2.376h2.376v-2.376V47.52h2.376h2.376v-2.376v-2.376h2.376h2.376v-2.376v-2.376h-16.632h-16.633v2.376v2.376
	h-2.375h-2.377v-2.376v-2.376H87.912H71.28v2.376v2.376h-2.376h-2.376v-2.376v-2.376H49.896H33.263v2.376v2.376h-2.376h-2.376v2.376
	v2.376h-2.376H23.76v2.376v2.376h-2.376h-2.376v2.376v2.376h-2.376h-2.376V59.4v2.376H11.88H9.504v2.376v2.376H7.128H4.752v2.376
	v2.377h2.376h2.376V68.904z M14.256,64.152v-2.376h2.376h2.376v2.376v2.376h-2.376h-2.376V64.152z M23.76,64.152v-2.376h2.376h2.376
	v2.376v2.376h-2.376H23.76V64.152z M42.768,64.152v-2.376h2.375h2.377V59.4v-2.376h2.376h2.376v-2.376v-2.376h2.376h2.376v-2.376
	V47.52H59.4h2.376v-2.376v-2.376h2.376h2.376v2.376v2.376h-2.376h-2.376v2.376v2.376H59.4h-2.376v2.376v2.376h-2.376h-2.376V59.4
	v2.376h2.376h2.376v2.376v2.376h-2.376h-2.376v-2.376v-2.376h-2.376H47.52v2.376v2.376h-2.377h-2.375V64.152z M61.776,64.152v-2.376
	h2.376h2.376v2.376v2.376h-2.376h-2.376V64.152z M80.784,64.152v-2.376h2.376h2.376V59.4v-2.376h2.376h2.376v-2.376v-2.376h2.376
	h2.376v-2.376V47.52h2.376h2.376v-2.376v-2.376h2.376h2.376v2.376v2.376h-2.376h-2.376v2.376v2.376h-2.376H95.04v2.376v2.376h-2.376
	h-2.376V59.4v2.376h2.376h2.376v2.376v2.376h-2.376h-2.376v-2.376v-2.376h-2.376h-2.376v2.376v2.376H83.16h-2.376V64.152z
	 M99.792,64.152v-2.376h2.376h2.376v2.376v2.376h-2.376h-2.376V64.152z M118.801,64.152v-2.376h2.376h2.376v2.376v2.376h-2.376
	h-2.376V64.152z M142.56,68.904v-2.376h-2.376h-2.376v2.376v2.377h2.376h2.376V68.904z M9.504,30.888v-2.376h2.376h2.376v2.376
	v2.376h2.376h2.376v-2.376v-2.376h-2.376h-2.376v-2.376V23.76H11.88H9.504v2.376v2.376H7.128H4.752v2.376v2.376h2.376h2.376V30.888z
	 M28.511,30.888v-2.376h-2.376H23.76v2.376v2.376h2.376h2.376V30.888z M47.52,30.888v-2.376h2.376h2.376v2.376v2.376h2.376h2.376
	v-2.376v-2.376h-2.376h-2.376v-2.376V23.76h-2.376H47.52v2.376v2.376h-2.377h-2.375v2.376v2.376h2.375h2.377V30.888z M66.528,30.888
	v-2.376h-2.376h-2.376v2.376v2.376h2.376h2.376V30.888z M85.536,30.888v-2.376h2.376h2.376v2.376v2.376h2.376h2.376v-2.376v-2.376
	h-2.376h-2.376v-2.376V23.76h-2.376h-2.376v2.376v2.376H83.16h-2.376v2.376v2.376h2.376h2.376V30.888z M104.544,30.888v-2.376
	h-2.376h-2.376v2.376v2.376h2.376h2.376V30.888z M123.552,30.888v-2.376h2.376h2.376v2.376v2.376h2.376h2.376v-2.376v-2.376h-2.376
	h-2.376v-2.376V23.76h-2.376h-2.376v2.376v2.376h-2.376h-2.376v2.376v2.376h2.376h2.376V30.888z M142.56,30.888v-2.376h-2.376
	h-2.376v2.376v2.376h2.376h2.376V30.888z"/>
</svg>
