<?xml version="1.0" encoding="utf-8"?>
<!-- Generator: Adobe Illustrator 16.0.0, SVG Export Plug-In . SVG Version: 6.00 Build 0)  -->
<!DOCTYPE svg PUBLIC "-//W3C//DTD SVG 1.1//EN" "http://www.w3.org/Graphics/SVG/1.1/DTD/svg11.dtd">
<svg version="1.1" id="Layer_1" xmlns="http://www.w3.org/2000/svg" xmlns:xlink="http://www.w3.org/1999/xlink" x="0px" y="0px"
	 width="152.064px" height="152.064px" viewBox="0 0 152.064 152.064" enable-background="new 0 0 152.064 152.064"
	 xml:space="preserve">
<g id="g3536" transform="matrix(0.125,0,0,0.125,213.54162,422.30944)">
	<path id="path3532" d="M-1613.288-2199.97v-19h19.008h19.008v19v19.016h-19.008h-19.008V-2199.97z M-1461.226-2199.97v-19h19.008
		h19.008v19v19.016h-19.008h-19.008V-2199.97z M-1309.163-2199.97v-19h19.008h19.008v19v19.016h-19.008h-19.008V-2199.97z
		 M-1157.101-2199.97v-19h19.016h19.008v19v19.016h-19.008h-19.016V-2199.97z M-1005.03-2199.97v-19h19.008h19.008v19v19.016
		h-19.008h-19.008V-2199.97z M-852.968-2199.97v-19h19.016h19v19v19.016h-19h-19.016V-2199.97z M-700.905-2199.97v-19h19.016h19.016
		v19v19.016h-19.016h-19.016V-2199.97z M-548.827-2199.97v-19h19h19.016v19v19.016h-19.016h-19V-2199.97z M-1613.288-2276.001v-19
		h19.008h19.008v19v19.016h-19.008h-19.008V-2276.001z M-1309.163-2276.001v-19h19.008h19.008v19v19.016h-19.008h-19.008V-2276.001z
		 M-1005.03-2276.001v-19h19.008h19.008v19v19.016h-19.008h-19.008V-2276.001z M-700.905-2276.001v-19h19.016h19.016v19v19.016
		h-19.016h-19.016V-2276.001z M-1689.327-2352.032v-19.016h19.008h19.016v19.016v19.016h-19.016h-19.008V-2352.032z
		 M-1613.288-2352.032v-19.016h19.008h19.008v19.016v19.016h-19.008h-19.008V-2352.032z M-1537.257-2352.032v-19.016h19.008h19.008
		v19.016v19.016h-19.008h-19.008V-2352.032z M-1461.226-2352.032v-19.016h19.008h19.008v19.016v19.016h-19.008h-19.008V-2352.032z
		 M-1385.194-2352.032v-19.016h19.008h19.008v19.016v19.016h-19.008h-19.008V-2352.032z M-1309.163-2352.032v-19.016h19.008h19.008
		v19.016v19.016h-19.008h-19.008V-2352.032z M-1233.132-2352.032v-19.016h19.008h19.008v19.016v19.016h-19.008h-19.008V-2352.032z
		 M-1157.101-2352.032v-19.016h19.016h19.008v19.016v19.016h-19.008h-19.016V-2352.032z M-1081.062-2352.032v-19.016h19.008h19.008
		v19.016v19.016h-19.008h-19.008V-2352.032z M-1005.03-2352.032v-19.016h19.008h19.008v19.016v19.016h-19.008h-19.008V-2352.032z
		 M-928.999-2352.032v-19.016h19.008h19.008v19.016v19.016h-19.008h-19.008V-2352.032z M-852.968-2352.032v-19.016h19.016h19v19.016
		v19.016h-19h-19.016V-2352.032z M-776.937-2352.032v-19.016h19.016h19v19.016v19.016h-19h-19.016V-2352.032z M-700.905-2352.032
		v-19.016h19.016h19.016v19.016v19.016h-19.016h-19.016V-2352.032z M-624.858-2352.032v-19.016h19h19.016v19.016v19.016h-19.016h-19
		V-2352.032z M-548.827-2352.032v-19.016h19h19.016v19.016v19.016h-19.016h-19V-2352.032z M-1613.288-2428.063v-19.016h19.008
		h19.008v19.016v19h-19.008h-19.008V-2428.063z M-1309.163-2428.063v-19.016h19.008h19.008v19.016v19h-19.008h-19.008V-2428.063z
		 M-1005.03-2428.063v-19.016h19.008h19.008v19.016v19h-19.008h-19.008V-2428.063z M-700.905-2428.063v-19.016h19.016h19.016v19.016
		v19h-19.016h-19.016V-2428.063z M-1613.288-2504.095v-19.016h19.008h19.008v19.016v19h-19.008h-19.008V-2504.095z
		 M-1461.226-2504.095v-19.016h19.008h19.008v19.016v19h-19.008h-19.008V-2504.095z M-1309.163-2504.095v-19.016h19.008h19.008
		v19.016v19h-19.008h-19.008V-2504.095z M-1157.101-2504.095v-19.016h19.016h19.008v19.016v19h-19.008h-19.016V-2504.095z
		 M-1005.03-2504.095v-19.016h19.008h19.008v19.016v19h-19.008h-19.008V-2504.095z M-852.968-2504.095v-19.016h19.016h19v19.016v19
		h-19h-19.016V-2504.095z M-700.905-2504.095v-19.016h19.016h19.016v19.016v19h-19.016h-19.016V-2504.095z M-548.827-2504.095
		v-19.016h19h19.016v19.016v19h-19.016h-19V-2504.095z M-1613.288-2580.126v-19.016h19.008h19.008v19.016v19h-19.008h-19.008
		V-2580.126z M-1309.163-2580.126v-19.016h19.008h19.008v19.016v19h-19.008h-19.008V-2580.126z M-1005.03-2580.126v-19.016h19.008
		h19.008v19.016v19h-19.008h-19.008V-2580.126z M-700.905-2580.126v-19.016h19.016h19.016v19.016v19h-19.016h-19.016V-2580.126z
		 M-1689.327-2656.157v-19.016h19.008h19.016v19.016v19h-19.016h-19.008V-2656.157z M-1613.288-2656.157v-19.016h19.008h19.008
		v19.016v19h-19.008h-19.008V-2656.157z M-1537.257-2656.157v-19.016h19.008h19.008v19.016v19h-19.008h-19.008V-2656.157z
		 M-1461.226-2656.157v-19.016h19.008h19.008v19.016v19h-19.008h-19.008V-2656.157z M-1385.194-2656.157v-19.016h19.008h19.008
		v19.016v19h-19.008h-19.008V-2656.157z M-1309.163-2656.157v-19.016h19.008h19.008v19.016v19h-19.008h-19.008V-2656.157z
		 M-1233.132-2656.157v-19.016h19.008h19.008v19.016v19h-19.008h-19.008V-2656.157z M-1157.101-2656.157v-19.016h19.016h19.008
		v19.016v19h-19.008h-19.016V-2656.157z M-1081.062-2656.157v-19.016h19.008h19.008v19.016v19h-19.008h-19.008V-2656.157z
		 M-1005.03-2656.157v-19.016h19.008h19.008v19.016v19h-19.008h-19.008V-2656.157z M-928.999-2656.157v-19.016h19.008h19.008v19.016
		v19h-19.008h-19.008V-2656.157z M-852.968-2656.157v-19.016h19.016h19v19.016v19h-19h-19.016V-2656.157z M-776.937-2656.157
		v-19.016h19.016h19v19.016v19h-19h-19.016V-2656.157z M-700.905-2656.157v-19.016h19.016h19.016v19.016v19h-19.016h-19.016
		V-2656.157z M-624.858-2656.157v-19.016h19h19.016v19.016v19h-19.016h-19V-2656.157z M-548.827-2656.157v-19.016h19h19.016v19.016
		v19h-19.016h-19V-2656.157z M-1613.288-2732.196v-19.008h19.008h19.008v19.008v19.008h-19.008h-19.008V-2732.196z
		 M-1309.163-2732.196v-19.008h19.008h19.008v19.008v19.008h-19.008h-19.008V-2732.196z M-1005.03-2732.196v-19.008h19.008h19.008
		v19.008v19.008h-19.008h-19.008V-2732.196z M-700.905-2732.196v-19.008h19.016h19.016v19.008v19.008h-19.016h-19.016V-2732.196z
		 M-1613.288-2808.228v-19.008h19.008h19.008v19.008v19.008h-19.008h-19.008V-2808.228z M-1461.226-2808.228v-19.008h19.008h19.008
		v19.008v19.008h-19.008h-19.008V-2808.228z M-1309.163-2808.228v-19.008h19.008h19.008v19.008v19.008h-19.008h-19.008V-2808.228z
		 M-1157.101-2808.228v-19.008h19.016h19.008v19.008v19.008h-19.008h-19.016V-2808.228z M-1005.03-2808.228v-19.008h19.008h19.008
		v19.008v19.008h-19.008h-19.008V-2808.228z M-852.968-2808.228v-19.008h19.016h19v19.008v19.008h-19h-19.016V-2808.228z
		 M-700.905-2808.228v-19.008h19.016h19.016v19.008v19.008h-19.016h-19.016V-2808.228z M-548.827-2808.228v-19.008h19h19.016v19.008
		v19.008h-19.016h-19V-2808.228z M-1613.288-2884.267v-19.008h19.008h19.008v19.008v19.008h-19.008h-19.008V-2884.267z
		 M-1309.163-2884.267v-19.008h19.008h19.008v19.008v19.008h-19.008h-19.008V-2884.267z M-1005.03-2884.267v-19.008h19.008h19.008
		v19.008v19.008h-19.008h-19.008V-2884.267z M-700.905-2884.267v-19.008h19.016h19.016v19.008v19.008h-19.016h-19.016V-2884.267z
		 M-1689.327-2960.298v-19.008h19.008h19.016v19.008v19.008h-19.016h-19.008V-2960.298z M-1613.288-2960.298v-19.008h19.008h19.008
		v19.008v19.008h-19.008h-19.008V-2960.298z M-1537.257-2960.298v-19.008h19.008h19.008v19.008v19.008h-19.008h-19.008V-2960.298z
		 M-1461.226-2960.298v-19.008h19.008h19.008v19.008v19.008h-19.008h-19.008V-2960.298z M-1385.194-2960.298v-19.008h19.008h19.008
		v19.008v19.008h-19.008h-19.008V-2960.298z M-1309.163-2960.298v-19.008h19.008h19.008v19.008v19.008h-19.008h-19.008V-2960.298z
		 M-1233.132-2960.298v-19.008h19.008h19.008v19.008v19.008h-19.008h-19.008V-2960.298z M-1157.101-2960.298v-19.008h19.016h19.008
		v19.008v19.008h-19.008h-19.016V-2960.298z M-1081.062-2960.298v-19.008h19.008h19.008v19.008v19.008h-19.008h-19.008V-2960.298z
		 M-1005.03-2960.298v-19.008h19.008h19.008v19.008v19.008h-19.008h-19.008V-2960.298z M-928.999-2960.298v-19.008h19.008h19.008
		v19.008v19.008h-19.008h-19.008V-2960.298z M-852.968-2960.298v-19.008h19.016h19v19.008v19.008h-19h-19.016V-2960.298z
		 M-776.937-2960.298v-19.008h19.016h19v19.008v19.008h-19h-19.016V-2960.298z M-700.905-2960.298v-19.008h19.016h19.016v19.008
		v19.008h-19.016h-19.016V-2960.298z M-624.858-2960.298v-19.008h19h19.016v19.008v19.008h-19.016h-19V-2960.298z
		 M-548.827-2960.298v-19.008h19h19.016v19.008v19.008h-19.016h-19V-2960.298z M-1613.288-3036.329v-19.008h19.008h19.008v19.008
		v19.008h-19.008h-19.008V-3036.329z M-1309.163-3036.329v-19.008h19.008h19.008v19.008v19.008h-19.008h-19.008V-3036.329z
		 M-1005.03-3036.329v-19.008h19.008h19.008v19.008v19.008h-19.008h-19.008V-3036.329z M-700.905-3036.329v-19.008h19.016h19.016
		v19.008v19.008h-19.016h-19.016V-3036.329z M-1613.288-3112.36v-19.008h19.008h19.008v19.008v19.008h-19.008h-19.008V-3112.36z
		 M-1461.226-3112.36v-19.008h19.008h19.008v19.008v19.008h-19.008h-19.008V-3112.36z M-1309.163-3112.36v-19.008h19.008h19.008
		v19.008v19.008h-19.008h-19.008V-3112.36z M-1157.101-3112.36v-19.008h19.016h19.008v19.008v19.008h-19.008h-19.016V-3112.36z
		 M-1005.03-3112.36v-19.008h19.008h19.008v19.008v19.008h-19.008h-19.008V-3112.36z M-852.968-3112.36v-19.008h19.016h19v19.008
		v19.008h-19h-19.016V-3112.36z M-700.905-3112.36v-19.008h19.016h19.016v19.008v19.008h-19.016h-19.016V-3112.36z
		 M-548.827-3112.36v-19.008h19h19.016v19.008v19.008h-19.016h-19V-3112.36z M-1613.288-3188.392v-19.008h19.008h19.008v19.008
		v19.008h-19.008h-19.008V-3188.392z M-1309.163-3188.392v-19.008h19.008h19.008v19.008v19.008h-19.008h-19.008V-3188.392z
		 M-1005.03-3188.392v-19.008h19.008h19.008v19.008v19.008h-19.008h-19.008V-3188.392z M-700.905-3188.392v-19.008h19.016h19.016
		v19.008v19.008h-19.016h-19.016V-3188.392z M-1689.327-3264.423v-19.008h19.008h19.016v19.008v19.008h-19.016h-19.008V-3264.423z
		 M-1613.288-3264.423v-19.008h19.008h19.008v19.008v19.008h-19.008h-19.008V-3264.423z M-1537.257-3264.423v-19.008h19.008h19.008
		v19.008v19.008h-19.008h-19.008V-3264.423z M-1461.226-3264.423v-19.008h19.008h19.008v19.008v19.008h-19.008h-19.008V-3264.423z
		 M-1385.194-3264.423v-19.008h19.008h19.008v19.008v19.008h-19.008h-19.008V-3264.423z M-1309.163-3264.423v-19.008h19.008h19.008
		v19.008v19.008h-19.008h-19.008V-3264.423z M-1233.132-3264.423v-19.008h19.008h19.008v19.008v19.008h-19.008h-19.008V-3264.423z
		 M-1157.101-3264.423v-19.008h19.016h19.008v19.008v19.008h-19.008h-19.016V-3264.423z M-1081.062-3264.423v-19.008h19.008h19.008
		v19.008v19.008h-19.008h-19.008V-3264.423z M-1005.03-3264.423v-19.008h19.008h19.008v19.008v19.008h-19.008h-19.008V-3264.423z
		 M-928.999-3264.423v-19.008h19.008h19.008v19.008v19.008h-19.008h-19.008V-3264.423z M-852.968-3264.423v-19.008h19.016h19v19.008
		v19.008h-19h-19.016V-3264.423z M-776.937-3264.423v-19.008h19.016h19v19.008v19.008h-19h-19.016V-3264.423z M-700.905-3264.423
		v-19.008h19.016h19.016v19.008v19.008h-19.016h-19.016V-3264.423z M-624.858-3264.423v-19.008h19h19.016v19.008v19.008h-19.016h-19
		V-3264.423z M-548.827-3264.423v-19.008h19h19.016v19.008v19.008h-19.016h-19V-3264.423z M-1613.288-3340.454v-19.016h19.008
		h19.008v19.016v19.008h-19.008h-19.008V-3340.454z M-1309.163-3340.454v-19.016h19.008h19.008v19.016v19.008h-19.008h-19.008
		V-3340.454z M-1005.03-3340.454v-19.016h19.008h19.008v19.016v19.008h-19.008h-19.008V-3340.454z M-700.905-3340.454v-19.016
		h19.016h19.016v19.016v19.008h-19.016h-19.016V-3340.454z"/>
	<rect id="rect3534" x="-1708.335" y="-3378.478" fill="none" width="1216.523" height="1216.523"/>
</g>
</svg>
