<?xml version="1.0" encoding="utf-8"?>
<!-- Generator: Adobe Illustrator 16.0.0, SVG Export Plug-In . SVG Version: 6.00 Build 0)  -->
<!DOCTYPE svg PUBLIC "-//W3C//DTD SVG 1.1//EN" "http://www.w3.org/Graphics/SVG/1.1/DTD/svg11.dtd">
<svg version="1.1" id="Layer_1" xmlns="http://www.w3.org/2000/svg" xmlns:xlink="http://www.w3.org/1999/xlink" x="0px" y="0px"
	 width="152.064px" height="152.064px" viewBox="0 0 152.064 152.064" enable-background="new 0 0 152.064 152.064"
	 xml:space="preserve">
<path id="path5330" d="M-0.001,146.125v-5.94h1.188h1.188v2.376v2.376h2.376h2.376v2.376v2.376h2.376h2.376v-2.376v-2.376h2.376
	h2.376v-2.376v-2.376h-2.376h-2.376v-2.376v-2.376H9.503H7.127v-2.376v-2.376H4.751H2.375v-2.376v-2.376H1.188h-1.188v-11.88
	v-11.881h1.188h1.188v2.377v2.376h2.376h2.376v2.376v2.376h2.376h2.376v-2.376v-2.376h2.376h2.376v-2.376v-2.377h-2.376h-2.376
	v-2.375v-2.377H9.503H7.127V95.04v-2.376H4.751H2.375v-2.376v-2.376H1.188h-1.188v-11.88v-11.88h1.188h1.188v2.376v2.376h2.376
	h2.376v2.376v2.376h2.376h2.376V71.28v-2.376h2.376h2.376v-2.376v-2.376h-2.376h-2.376v-2.376V59.4H9.503H7.127v-2.376v-2.376H4.751
	H2.375v-2.376v-2.376H1.188h-1.188V38.015v-11.88h1.188h1.188v2.376v2.376h2.376h2.376v2.376v2.377h2.376h2.376v-2.377v-2.376h2.376
	h2.376v-2.376v-2.376h-2.376h-2.376V23.76v-2.376H9.503H7.127v-2.376v-2.376H4.751H2.375v-2.376V11.88H1.188h-1.188v-5.94V0h5.94
	h5.939v1.188v1.188H9.503H7.127v2.376v2.376H4.751H2.375v2.376v2.376h2.376h2.376v2.376v2.376h2.376h2.376v-2.376V11.88h2.376h2.376
	V9.504V7.128h2.376h2.376V4.752V2.376h2.377h2.375V1.187V0h11.881h11.88v1.188v1.188H47.52h-2.376v2.376v2.376h-2.376h-2.376v2.376
	v2.376h2.376h2.376v2.376v2.376h2.376h2.376v-2.376V11.88h2.376h2.376V9.504V7.128h2.376H59.4V4.752V2.376h2.376h2.376V1.187V0
	h11.88h11.881v1.188v1.188h-2.377h-2.377v2.376v2.376h-2.375h-2.377v2.376v2.376h2.377h2.375v2.376v2.376h2.377h2.377v-2.376V11.88
	h2.375h2.377V9.504V7.128h2.375h2.377V4.752V2.376h2.375h2.377V1.187V0h11.879h11.881v1.188v1.188h-2.377h-2.375v2.376v2.376H118.8
	h-2.375v2.376v2.376h2.375h2.377v2.376v2.376h2.375h2.377v-2.376V11.88h2.375h2.377V9.504V7.128h2.375h2.377V4.752V2.376h2.375
	h2.377V1.187V0h5.939h5.941v5.939v5.94h-1.189h-1.188V9.504V7.128h-2.375h-2.377V4.752V2.376h-2.377h-2.375v2.376v2.376h-2.377
	h-2.375v2.376v2.376h2.375h2.377v2.376v2.376h2.375h2.377v2.376v2.376h2.377h2.375v2.376v2.376h1.188h1.189v11.88v11.881h-1.189
	h-1.188V47.52v-2.376h-2.375h-2.377v-2.376v-2.376h-2.377h-2.375v2.376v2.376h-2.377h-2.375v2.376v2.376h2.375h2.377v2.376v2.376
	h2.375h2.377v2.376V59.4h2.377h2.375v2.376v2.376h1.188h1.189v11.88v11.88h-1.189h-1.188v-2.376V83.16h-2.375h-2.377v-2.376v-2.376
	h-2.377h-2.375v2.376v2.376h-2.377h-2.375v2.376v2.376h2.375h2.377v2.376v2.376h2.375h2.377v2.376v2.376h2.377h2.375v2.377v2.375
	h1.188h1.189v11.881v11.88h-1.189h-1.188v-2.376v-2.376h-2.375h-2.377v-2.376v-2.376h-2.377h-2.375v2.376v2.376h-2.377h-2.375v2.376
	v2.376h2.375h2.377v2.376v2.376h2.375h2.377v2.376v2.376h2.377h2.375v2.376v2.376h1.188h1.189v5.94v5.939h-5.941h-5.939v-1.188
	v-1.188h2.375h2.377v-2.376v-2.376h2.377h2.375v-2.376v-2.376h-2.375h-2.377v-2.376v-2.376h-2.377h-2.375v2.376v2.376h-2.377h-2.375
	v2.376v2.376h-2.377h-2.375v2.376v2.376h-2.377h-2.375v1.188v1.188h-11.881h-11.879v-1.188v-1.188h2.375h2.377v-2.376v-2.376h2.375
	h2.377v-2.376v-2.376h-2.377h-2.375v-2.376v-2.376h-2.377h-2.375v2.376v2.376h-2.377h-2.375v2.376v2.376H95.04h-2.375v2.376v2.376
	h-2.377h-2.375v1.188v1.188H76.031h-11.88v-1.188v-1.188h2.376h2.376v-2.376v-2.376h2.376h2.376v-2.376v-2.376H71.28h-2.376v-2.376
	v-2.376h-2.376h-2.376v2.376v2.376h-2.376H59.4v2.376v2.376h-2.376h-2.376v2.376v2.376h-2.376h-2.376v1.188v1.188h-11.88H26.135
	v-1.188v-1.188h2.377h2.376v-2.376v-2.376h2.376h2.376v-2.376v-2.376h-2.376h-2.376v-2.376v-2.376h-2.376h-2.377v2.376v2.376H23.76
	h-2.377v2.376v2.376h-2.376h-2.376v2.376v2.376h-2.376h-2.376v1.188v1.188H5.94h-5.94V146.125z M49.896,147.312v-2.376h2.376h2.376
	v-2.376v-2.376h-2.376h-2.376v-2.376v-2.376H47.52h-2.376v-2.376v-2.376h2.376h2.376v-2.376v-2.376h2.376h2.376v-2.376v-2.376h2.376
	H59.4v2.376v2.376h2.376h2.376v2.376v2.376h2.376h2.376v2.376v2.376h2.376h2.376v2.376v2.376h2.376h2.375v2.376v2.376h2.377h2.375
	v2.376v2.376h2.377h2.377v-2.376v-2.376h2.375h2.377v-2.376v-2.376h-2.377h-2.375v-2.376v-2.376h-2.377h-2.377v-2.376v-2.376h2.377
	h2.377v-2.376v-2.376h2.375h2.377v-2.376v-2.376h2.375h2.377v2.376v2.376h2.375h2.377v2.376v2.376h2.375h2.377v2.376v2.376h2.375
	h2.377v2.376v2.376h2.375h2.377v2.376v2.376h2.375h2.377v2.376v2.376h2.375h2.377v-2.376v-2.376h2.375h2.377v-2.376v-2.376h-2.377
	h-2.375v-2.376v-2.376h-2.377h-2.375v-2.376v-2.376h2.375h2.377v-2.376v-2.376h2.375h2.377v-2.376v-2.376h2.375h2.377v-2.376v-2.376
	h2.375h2.377v-2.376v-2.376h2.375h2.377v-2.376v-2.376h2.377h2.375v-2.376v-2.377h-2.375h-2.377v-2.375v-2.377h-2.377h-2.375v2.377
	v2.375h-2.377h-2.375v2.377v2.376h-2.377h-2.375v-2.376v-2.377h-2.377h-2.375v-2.375v-2.377h-2.377h-2.375V95.04v-2.376h2.375h2.377
	v-2.376v-2.376h2.375h2.377v-2.376V83.16h2.375h2.377v-2.376v-2.376h2.375h2.377v-2.376v-2.376h2.375h2.377V71.28v-2.376h2.377
	h2.375v-2.376v-2.376h-2.375h-2.377v-2.376V59.4h-2.377h-2.375v2.376v2.376h-2.377h-2.375v2.376v2.376h-2.377h-2.375v-2.376v-2.376
	h-2.377h-2.375v-2.376V59.4h-2.377h-2.375v-2.376v-2.376h2.375h2.377v-2.376v-2.376h2.375h2.377V47.52v-2.376h2.375h2.377v-2.376
	v-2.376h2.375h2.377v-2.377V35.64h2.375h2.377v-2.377v-2.376h2.377h2.375v-2.376v-2.376h-2.375h-2.377V23.76v-2.376h-2.377h-2.375
	v2.376v2.376h-2.377h-2.375v2.376v2.376h-2.377h-2.375v-2.376v-2.376h-2.377h-2.375V23.76v-2.376h-2.377h-2.375v-2.376v-2.376H118.8
	h-2.375v-2.376V11.88h-2.377h-2.375V9.504V7.128h-2.377h-2.375V4.752V2.376h-2.377h-2.375v2.376v2.376h-2.377h-2.375v2.376v2.376
	h2.375h2.377v2.376v2.376h2.375h2.377v2.376v2.376h-2.377h-2.375v2.376v2.376h-2.377h-2.375v2.376v2.376H95.04h-2.375v-2.376v-2.376
	h-2.377h-2.375V23.76v-2.376h-2.377h-2.377v-2.376v-2.376h-2.375h-2.377v-2.376V11.88h-2.375h-2.376V9.504V7.128H71.28h-2.376V4.752
	V2.376h-2.376h-2.376v2.376v2.376h-2.376H59.4v2.376v2.376h2.376h2.376v2.376v2.376h2.376h2.376v2.376v2.376h-2.376h-2.376v2.376
	v2.376h-2.376H59.4v2.376v2.376h-2.376h-2.376v-2.376v-2.376h-2.376h-2.376V23.76v-2.376H47.52h-2.376v-2.376v-2.376h-2.376h-2.376
	v-2.376V11.88h-2.376H35.64V9.504V7.128h-2.376h-2.376V4.752V2.376h-2.376h-2.377v2.376v2.376H23.76h-2.377v2.376v2.376h2.377h2.375
	v2.376v2.376h2.377h2.376v2.376v2.376h-2.376h-2.377v2.376v2.376H23.76h-2.377v2.376v2.376h-2.376h-2.376v2.376v2.377h-2.376h-2.376
	v2.375v2.377H9.503H7.127v2.376v2.376H4.751H2.375v2.376v2.376h2.376h2.376v2.376v2.376h2.376h2.376v-2.376v-2.376h2.376h2.376
	V47.52v-2.376h2.376h2.376v2.376v2.376h2.377h2.375v2.376v2.376h2.377h2.376v2.376V59.4h-2.376h-2.377v2.376v2.376H23.76h-2.377
	v2.376v2.376h-2.376h-2.376v2.376v2.376h-2.376h-2.376v2.376v2.376H9.503H7.127v2.376v2.376H4.751H2.375v2.376v2.376h2.376h2.376
	v2.376v2.376h2.376h2.376v-2.376v-2.376h2.376h2.376v-2.376V83.16h2.376h2.376v2.376v2.376h2.377h2.375v2.376v2.376h2.377h2.376
	v2.376v2.376h-2.376h-2.377v2.377v2.375H23.76h-2.377v2.377v2.376h-2.376h-2.376v2.376v2.376h-2.376h-2.376v2.376v2.376H9.503H7.127
	v2.376v2.376H4.751H2.375v2.376v2.376h2.376h2.376v2.376v2.376h2.376h2.376v-2.376v-2.376h2.376h2.376v-2.376v-2.376h2.376h2.376
	v2.376v2.376h2.377h2.375v2.376v2.376h2.377h2.376v2.376v2.376h2.376h2.376v2.376v2.376h2.376h2.376v2.376v2.376h2.376h2.376v2.376
	v2.376h2.376h2.376V147.312z M40.392,128.304v-2.376h-2.376H35.64v-2.376v-2.376h-2.376h-2.376v-2.376v-2.376h-2.376h-2.377v2.376
	v2.376H23.76h-2.377v-2.376v-2.376h2.377h2.375v-2.376v-2.376h2.377h2.376v-2.376v-2.376h2.376h2.376v-2.376v-2.377h-2.376h-2.376
	v-2.375v-2.377h2.376h2.376v2.377v2.375h2.376h2.376v2.377v2.376h2.376h2.376v2.376v2.376h2.376h2.376v-2.376v-2.376h2.376h2.376
	v-2.376v-2.377h-2.376h-2.376v-2.375v-2.377H47.52h-2.376V95.04v-2.376h-2.376h-2.376v-2.376v-2.376h-2.376H35.64v-2.376V83.16
	h-2.376h-2.376v-2.376v-2.376h-2.376h-2.377v2.376v2.376H23.76h-2.377v-2.376v-2.376h2.377h2.375v-2.376v-2.376h2.377h2.376V71.28
	v-2.376h2.376h2.376v-2.376v-2.376h-2.376h-2.376v-2.376V59.4h2.376h2.376v2.376v2.376h2.376h2.376v2.376v2.376h2.376h2.376v2.376
	v2.376h2.376h2.376V71.28v-2.376h2.376h2.376v-2.376v-2.376h-2.376h-2.376v-2.376V59.4H47.52h-2.376v-2.376v-2.376h-2.376h-2.376
	v-2.376v-2.376h-2.376H35.64V47.52v-2.376h-2.376h-2.376v-2.376v-2.376h-2.376h-2.377v2.376v2.376H23.76h-2.377v-2.376v-2.376h2.377
	h2.375v-2.377V35.64h2.377h2.376v-2.377v-2.376h2.376h2.376v-2.376v-2.376h-2.376h-2.376V23.76v-2.376h2.376h2.376v2.376v2.376
	h2.376h2.376v2.376v2.376h2.376h2.376v2.376v2.377h2.376h2.376v-2.377v-2.376h2.376h2.376v2.376v2.377h-2.376h-2.376v2.375v2.377
	H47.52h-2.376v2.376v2.376h-2.376h-2.376v2.376v2.376h2.376h2.376v2.376v2.376h2.376h2.376v-2.376v-2.376h2.376h2.376V47.52v-2.376
	h2.376H59.4v-2.376v-2.376h2.376h2.376v-2.377V35.64h2.376h2.376v-2.377v-2.376h2.376h2.376v-2.376v-2.376H71.28h-2.376V23.76
	v-2.376h2.376h2.376v2.376v2.376h2.376h2.375v2.376v2.376h2.377h2.375v2.376v2.377h2.377h2.377v-2.377v-2.376h2.375h2.377v2.376
	v2.377h-2.377h-2.375v2.375v2.377h-2.377h-2.377v2.376v2.376h-2.375h-2.377v2.376v2.376h2.377h2.375v2.376v2.376h2.377h2.377v-2.376
	v-2.376h2.375h2.377V47.52v-2.376h2.375h2.377v-2.376v-2.376h2.375h2.377v-2.377V35.64h2.375h2.377v-2.377v-2.376h2.375h2.377
	v-2.376v-2.376h-2.377h-2.375V23.76v-2.376h2.375h2.377v2.376v2.376h2.375h2.377v2.376v2.376h2.375h2.377v2.376v2.377h2.375h2.377
	v-2.377v-2.376h2.375h2.377v2.376v2.377h-2.377h-2.375v2.375v2.377h-2.377h-2.375v2.376v2.376H118.8h-2.375v2.376v2.376h2.375h2.377
	v2.376v2.376H118.8h-2.375v-2.376v-2.376h-2.377h-2.375V47.52v-2.376h-2.377h-2.375v-2.376v-2.376h-2.377h-2.375v2.376v2.376h-2.377
	h-2.375v2.376v2.376h2.375h2.377v2.376v2.376h2.375h2.377v2.376V59.4h2.375h2.377v2.376v2.376h2.375h2.377v2.376v2.376h2.375h2.377
	v2.376v2.376h2.375h2.377V71.28v-2.376h2.375h2.377v2.376v2.376h-2.377h-2.375v2.376v2.376h-2.377h-2.375v2.376v2.376H118.8h-2.375
	v2.376v2.376h2.375h2.377v2.376v2.376H118.8h-2.375v-2.376v-2.376h-2.377h-2.375v-2.376V83.16h-2.377h-2.375v-2.376v-2.376h-2.377
	h-2.375v2.376v2.376h-2.377h-2.375v2.376v2.376h2.375h2.377v2.376v2.376h2.375h2.377v2.376v2.376h2.375h2.377v2.377v2.375h2.375
	h2.377v2.377v2.376h2.375h2.377v2.376v2.376h2.375h2.377v-2.376v-2.376h2.375h2.377v2.376v2.376h-2.377h-2.375v2.376v2.376h-2.377
	h-2.375v2.376v2.376H118.8h-2.375v2.376v2.376h2.375h2.377v2.376v2.376H118.8h-2.375v-2.376v-2.376h-2.377h-2.375v-2.376v-2.376
	h-2.377h-2.375v-2.376v-2.376h-2.377h-2.375v2.376v2.376h-2.377h-2.375v-2.376v-2.376h2.375h2.377v-2.376v-2.376h2.375h2.377v-2.376
	v-2.376h2.375h2.377v-2.376v-2.377h-2.377h-2.375v-2.375v-2.377h-2.377h-2.375v2.377v2.375h-2.377h-2.375v2.377v2.376H95.04h-2.375
	v2.376v2.376h-2.377h-2.375v2.376v2.376h-2.377h-2.377v2.376v2.376h-2.375h-2.377v2.376v2.376h2.377h2.375v2.376v2.376h-2.375
	h-2.377v-2.376v-2.376h-2.375h-2.376v-2.376v-2.376H71.28h-2.376v-2.376v-2.376h-2.376h-2.376v2.376v2.376h-2.376H59.4v-2.376
	v-2.376h2.376h2.376v-2.376v-2.376h2.376h2.376v-2.376v-2.376h2.376h2.376v-2.376v-2.377H71.28h-2.376v-2.375v-2.377h-2.376h-2.376
	v2.377v2.375h-2.376H59.4v2.377v2.376h-2.376h-2.376v2.376v2.376h-2.376h-2.376v2.376v2.376H47.52h-2.376v2.376v2.376h-2.376h-2.376
	v2.376v2.376h2.376h2.376v2.376v2.376h-2.376h-2.376V128.304z M87.913,109.297v-2.376h2.375h2.377v-2.376v-2.377h-2.377h-2.375
	v-2.375v-2.377h-2.377h-2.377V95.04v-2.376h2.377h2.377v-2.376v-2.376h2.375h2.377v-2.376V83.16h2.375h2.377v-2.376v-2.376h2.375
	h2.377v-2.376v-2.376h2.375h2.377V71.28v-2.376h2.375h2.377v-2.376v-2.376h-2.377h-2.375v-2.376V59.4h-2.377h-2.375v2.376v2.376
	h-2.377h-2.375v2.376v2.376H95.04h-2.375v-2.376v-2.376h-2.377h-2.375v-2.376V59.4h-2.377h-2.377v-2.376v-2.376h-2.375h-2.377
	v-2.376v-2.376h-2.375h-2.376V47.52v-2.376H71.28h-2.376v-2.376v-2.376h-2.376h-2.376v2.376v2.376h-2.376H59.4v2.376v2.376h2.376
	h2.376v2.376v2.376h2.376h2.376v2.376V59.4h-2.376h-2.376v2.376v2.376h-2.376H59.4v2.376v2.376h-2.376h-2.376v2.376v2.376h-2.376
	h-2.376v2.376v2.376H47.52h-2.376v2.376v2.376h-2.376h-2.376v2.376v2.376h2.376h2.376v2.376v2.376h2.376h2.376v-2.376v-2.376h2.376
	h2.376v-2.376V83.16h2.376H59.4v2.376v2.376h2.376h2.376v2.376v2.376h2.376h2.376v2.376v2.376h2.376h2.376v2.377v2.375h2.376h2.375
	v2.377v2.376h2.377h2.375v2.376v2.376h2.377h2.377V109.297z M78.407,90.288v-2.376h-2.375h-2.376v-2.376V83.16H71.28h-2.376v-2.376
	v-2.376h-2.376h-2.376v2.376v2.376h-2.376H59.4v-2.376v-2.376h2.376h2.376v-2.376v-2.376h2.376h2.376V71.28v-2.376h2.376h2.376
	v-2.376v-2.376H71.28h-2.376v-2.376V59.4h2.376h2.376v2.376v2.376h2.376h2.375v2.376v2.376h2.377h2.375v2.376v2.376h2.377h2.377
	V71.28v-2.376h2.375h2.377v2.376v2.376h-2.377h-2.375v2.376v2.376h-2.377h-2.377v2.376v2.376h-2.375h-2.377v2.376v2.376h2.377h2.375
	v2.376v2.376h-2.375h-2.377V90.288z"/>
</svg>
