<?xml version="1.0" encoding="utf-8"?>
<!-- Generator: Adobe Illustrator 16.0.0, SVG Export Plug-In . SVG Version: 6.00 Build 0)  -->
<!DOCTYPE svg PUBLIC "-//W3C//DTD SVG 1.1//EN" "http://www.w3.org/Graphics/SVG/1.1/DTD/svg11.dtd">
<svg version="1.1" id="Layer_1" xmlns="http://www.w3.org/2000/svg" xmlns:xlink="http://www.w3.org/1999/xlink" x="0px" y="0px"
	 width="152.064px" height="152.064px" viewBox="0 0 152.064 152.064" enable-background="new 0 0 152.064 152.064"
	 xml:space="preserve">
<path id="path3377" d="M0,147.313v-4.752h2.376h2.376v-2.377v-2.375H2.376H0v-7.129v-7.127h2.376h2.376v-2.377V118.8H2.376H0v-7.127
	v-7.129h2.376h2.376v-2.375v-2.377H2.376H0v-7.127v-7.129h2.376h2.376v-2.375v-2.377H2.376H0v-7.128v-7.128h2.376h2.376v-2.376
	v-2.376H2.376H0v-7.128V47.52h2.376h2.376v-2.376v-2.376H2.376H0V35.64v-7.128h2.376h2.376v-2.376V23.76H2.376H0v-7.128V9.504h2.376
	h2.376V7.128V4.752H2.376H0V2.376V0h2.376h2.376v2.376v2.376h2.376h2.376V2.376V0h7.128h7.128v2.376v2.376h2.376h2.376V2.376V0
	h7.128h7.129v2.376v2.376h2.375h2.377V2.376V0h7.128h7.128v2.376v2.376h2.376h2.376V2.376V0h7.128h7.128v2.376v2.376h2.376h2.376
	V2.376V0h7.128h7.128v2.376v2.376h2.375h2.377V2.376V0h7.129h7.127v2.376v2.376h2.377h2.375V2.376V0h7.129h7.127v2.376v2.376h2.377
	h2.375V2.376V0h4.752h4.752v4.752v4.752h-2.375h-2.377v2.376v2.376h2.377h2.375v7.128v7.128h-2.375h-2.377v2.376v2.376h2.377h2.375
	v7.128v7.128h-2.375h-2.377v2.376v2.376h2.377h2.375V59.4v7.128h-2.375h-2.377v2.376v2.376h2.377h2.375v7.128v7.128h-2.375h-2.377
	v2.377v2.375h2.377h2.375v7.129v7.127h-2.375h-2.377v2.377v2.375h2.377h2.375v7.129v7.129h-2.375h-2.377v2.375v2.377h2.377h2.375
	v7.127v7.129h-2.375h-2.377v2.375v2.377h2.377h2.375v2.375v2.377h-2.375h-2.377v-2.377v-2.375h-2.375h-2.377v2.375v2.377h-7.127
	h-7.129v-2.377v-2.375h-2.375h-2.377v2.375v2.377h-7.127h-7.129v-2.377v-2.375h-2.375h-2.377v2.375v2.377h-7.129h-7.127v-2.377
	v-2.375h-2.376h-2.376v2.375v2.377h-7.128H71.28v-2.377v-2.375h-2.376h-2.376v2.375v2.377H59.4h-7.128v-2.377v-2.375h-2.376H47.52
	v2.375v2.377h-7.129h-7.128v-2.377v-2.375h-2.376h-2.376v2.375v2.377h-7.128h-7.128v-2.377v-2.375H11.88H9.504v2.375v2.377H4.752H0
	V147.313z M19.008,144.936v-2.375h2.376h2.376v-2.377v-2.375h2.376h2.376v-2.377v-2.375h2.376h2.376v-2.377v-2.375h2.376h2.376
	v-2.377v-2.375h2.376h2.377v-2.377V118.8h2.375h2.377v-2.375v-2.377h2.376h2.376v-2.375v-2.377h2.376h2.376v-2.375v-2.377H59.4
	h2.376v-2.375v-2.377h2.376h2.376v-2.375V95.04h2.376h2.376v-2.375v-2.377h2.376h2.376v-2.375v-2.377h2.376h2.376v-2.375v-2.377
	h2.376h2.376v-2.376v-2.376h2.376h2.376v-2.376V71.28h2.376h2.376v-2.376v-2.376h2.375h2.377v-2.376v-2.376h2.375h2.377V59.4v-2.376
	h2.377h2.375v-2.376v-2.376h2.377h2.375v-2.376V47.52h2.377h2.375v-2.376v-2.376h2.377h2.375v-2.376v-2.376h2.377h2.375V35.64
	v-2.376h2.377h2.375v-2.376v-2.376h2.377h2.375v-2.376V23.76h2.377h2.375v-2.376v-2.376h2.377h2.375v-2.376v-2.376h-2.375h-2.377
	v2.376v2.376h-2.375h-2.377v2.376v2.376h-2.375h-2.377v2.376v2.376h-2.375h-2.377v2.376v2.376h-2.375h-2.377v2.376v2.376h-2.375
	H118.8v2.376v2.376h-2.375h-2.377v2.376v2.376h-2.375h-2.377v2.376v2.376h-2.375h-2.377v2.376v2.376h-2.377h-2.375V59.4v2.376
	h-2.377H95.04v2.376v2.376h-2.376h-2.376v2.376v2.376h-2.376h-2.376v2.376v2.376H83.16h-2.376v2.376v2.376h-2.376h-2.376v2.377
	v2.375h-2.376H71.28v2.377v2.375h-2.376h-2.376v2.377v2.375h-2.376h-2.376v2.377v2.375H59.4h-2.376v2.377v2.375h-2.376h-2.376v2.377
	v2.375h-2.376H47.52v2.377v2.375h-2.377h-2.375v2.377v2.375h-2.377h-2.376v2.377v2.377h-2.376h-2.376v2.375v2.377h-2.376h-2.376
	v2.375v2.377h-2.376H23.76v2.375v2.377h-2.376h-2.376v2.375v2.377h-2.376h-2.376v2.375v2.377h2.376h2.376V144.936z M38.015,144.936
	v-2.375h2.376h2.377v-2.377v-2.375h2.375h2.377v-2.377v-2.375h2.376h2.376v-2.377v-2.375h2.376h2.376v-2.377v-2.375H59.4h2.376
	v-2.377V118.8h2.376h2.376v-2.375v-2.377h2.376h2.376v-2.375v-2.377h2.376h2.376v-2.375v-2.377h2.376h2.376v-2.375v-2.377h2.376
	h2.376v-2.375V95.04h2.376h2.376v-2.375v-2.377h2.376h2.376v-2.375v-2.377h2.375h2.377v-2.375v-2.377h2.375h2.377v-2.376v-2.376
	h2.377h2.375v-2.376V71.28h2.377h2.375v-2.376v-2.376h2.377h2.375v-2.376v-2.376h2.377h2.375V59.4v-2.376h2.377h2.375v-2.376v-2.376
	h2.377h2.375v-2.376V47.52h2.377h2.375v-2.376v-2.376h2.377h2.375v-2.376v-2.376h2.377h2.375V35.64v-2.376h-2.375h-2.377v2.376
	v2.376h-2.375h-2.377v2.376v2.376h-2.375h-2.377v2.376v2.376h-2.375h-2.377v2.376v2.376h-2.375h-2.377v2.376v2.376h-2.375H118.8
	V59.4v2.376h-2.375h-2.377v2.376v2.376h-2.375h-2.377v2.376v2.376h-2.375h-2.377v2.376v2.376h-2.377h-2.375v2.376v2.376h-2.377
	H95.04v2.377v2.375h-2.376h-2.376v2.377v2.375h-2.376h-2.376v2.377v2.375H83.16h-2.376v2.377v2.375h-2.376h-2.376v2.377v2.375
	h-2.376H71.28v2.377v2.375h-2.376h-2.376v2.377v2.375h-2.376h-2.376v2.377v2.375H59.4h-2.376v2.377v2.377h-2.376h-2.376v2.375v2.377
	h-2.376H47.52v2.375v2.377h-2.377h-2.375v2.375v2.377h-2.377h-2.376v2.375v2.377h-2.376h-2.376v2.375v2.377h2.376h2.376V144.936z
	 M57.024,144.936v-2.375H59.4h2.376v-2.377v-2.375h2.376h2.376v-2.377v-2.375h2.376h2.376v-2.377v-2.375h2.376h2.376v-2.377v-2.375
	h2.376h2.376v-2.377V118.8h2.376h2.376v-2.375v-2.377h2.376h2.376v-2.375v-2.377h2.376h2.376v-2.375v-2.377h2.375h2.377v-2.375
	v-2.377h2.375h2.377v-2.375V95.04h2.377h2.375v-2.375v-2.377h2.377h2.375v-2.375v-2.377h2.377h2.375v-2.375v-2.377h2.377h2.375
	v-2.376v-2.376h2.377h2.375v-2.376V71.28h2.377h2.375v-2.376v-2.376h2.377h2.375v-2.376v-2.376h2.377h2.375V59.4v-2.376h2.377h2.375
	v-2.376v-2.376h-2.375h-2.377v2.376v2.376h-2.375h-2.377V59.4v2.376h-2.375h-2.377v2.376v2.376h-2.375h-2.377v2.376v2.376h-2.375
	h-2.377v2.376v2.376h-2.375H118.8v2.376v2.376h-2.375h-2.377v2.377v2.375h-2.375h-2.377v2.377v2.375h-2.375h-2.377v2.377v2.375
	h-2.377h-2.375v2.377v2.375h-2.377H95.04v2.377v2.375h-2.376h-2.376v2.377v2.375h-2.376h-2.376v2.377v2.375H83.16h-2.376v2.377
	v2.375h-2.376h-2.376v2.377v2.377h-2.376H71.28v2.375v2.377h-2.376h-2.376v2.375v2.377h-2.376h-2.376v2.375v2.377H59.4h-2.376v2.375
	v2.377h-2.376h-2.376v2.375v2.377h2.376h2.376V144.936z M76.032,144.936v-2.375h2.376h2.376v-2.377v-2.375h2.376h2.376v-2.377
	v-2.375h2.376h2.376v-2.377v-2.375h2.376h2.376v-2.377v-2.375h2.375h2.377v-2.377V118.8h2.375h2.377v-2.375v-2.377h2.377h2.375
	v-2.375v-2.377h2.377h2.375v-2.375v-2.377h2.377h2.375v-2.375v-2.377h2.377h2.375v-2.375V95.04h2.377h2.375v-2.375v-2.377h2.377
	h2.375v-2.375v-2.377h2.377h2.375v-2.375v-2.377h2.377h2.375v-2.376v-2.376h2.377h2.375v-2.376V71.28h-2.375h-2.377v2.376v2.376
	h-2.375h-2.377v2.376v2.376h-2.375h-2.377v2.377v2.375h-2.375h-2.377v2.377v2.375h-2.375h-2.377v2.377v2.375h-2.375H118.8v2.377
	v2.375h-2.375h-2.377v2.377v2.375h-2.375h-2.377v2.377v2.375h-2.375h-2.377v2.377v2.375h-2.377h-2.375v2.377v2.375h-2.377H95.04
	v2.377v2.377h-2.376h-2.376v2.375v2.377h-2.376h-2.376v2.375v2.377H83.16h-2.376v2.375v2.377h-2.376h-2.376v2.375v2.377h-2.376
	H71.28v2.375v2.377h2.376h2.376V144.936z M95.04,144.936v-2.375h2.375h2.377v-2.377v-2.375h2.375h2.377v-2.377v-2.375h2.377h2.375
	v-2.377v-2.375h2.377h2.375v-2.377v-2.375h2.377h2.375v-2.377V118.8h2.377h2.375v-2.375v-2.377h2.377h2.375v-2.375v-2.377h2.377
	h2.375v-2.375v-2.377h2.377h2.375v-2.375v-2.377h2.377h2.375v-2.375V95.04h2.377h2.375v-2.375v-2.377h-2.375h-2.377v2.377v2.375
	h-2.375h-2.377v2.377v2.375h-2.375h-2.377v2.377v2.375h-2.375h-2.377v2.377v2.375h-2.375h-2.377v2.377v2.375h-2.375H118.8v2.377
	v2.375h-2.375h-2.377v2.377v2.377h-2.375h-2.377v2.375v2.377h-2.375h-2.377v2.375v2.377h-2.377h-2.375v2.375v2.377h-2.377H95.04
	v2.375v2.377h-2.376h-2.376v2.375v2.377h2.376h2.376V144.936z M114.048,144.936v-2.375h2.377h2.375v-2.377v-2.375h2.377h2.375
	v-2.377v-2.375h2.377h2.375v-2.377v-2.375h2.377h2.375v-2.377v-2.375h2.377h2.375v-2.377V118.8h2.377h2.375v-2.375v-2.377h2.377
	h2.375v-2.375v-2.377h-2.375h-2.377v2.377v2.375h-2.375h-2.377v2.377v2.375h-2.375h-2.377v2.377v2.377h-2.375h-2.377v2.375v2.377
	h-2.375h-2.377v2.375v2.377h-2.375H118.8v2.375v2.377h-2.375h-2.377v2.375v2.377h-2.375h-2.377v2.375v2.377h2.377h2.375V144.936z
	 M133.055,144.936v-2.375h2.377h2.375v-2.377v-2.375h2.377h2.375v-2.377v-2.375h2.377h2.375v-2.377v-2.375h-2.375h-2.377v2.375
	v2.377h-2.375h-2.377v2.375v2.377h-2.375h-2.377v2.375v2.377h-2.375h-2.377v2.375v2.377h2.377h2.375V144.936z M9.504,135.432v-2.375
	h2.376h2.376v-2.377v-2.375h2.376h2.376v-2.377v-2.375h2.376h2.376v-2.377V118.8h2.376h2.376v-2.375v-2.377h2.376h2.376v-2.375
	v-2.377h2.376h2.376v-2.375v-2.377h2.376h2.377v-2.375v-2.377h2.375h2.377v-2.375V95.04h2.376h2.376v-2.375v-2.377h2.376h2.376
	v-2.375v-2.377H59.4h2.376v-2.375v-2.377h2.376h2.376v-2.376v-2.376h2.376h2.376v-2.376V71.28h2.376h2.376v-2.376v-2.376h2.376
	h2.376v-2.376v-2.376h2.376h2.376V59.4v-2.376h2.376h2.376v-2.376v-2.376h2.376h2.376v-2.376V47.52h2.375h2.377v-2.376v-2.376h2.375
	h2.377v-2.376v-2.376h2.377h2.375V35.64v-2.376h2.377h2.375v-2.376v-2.376h2.377h2.375v-2.376V23.76h2.377h2.375v-2.376v-2.376
	h2.377h2.375v-2.376v-2.376h2.377h2.375V11.88V9.504h2.377h2.375V7.128V4.752h-2.375h-2.377v2.376v2.376h-2.375h-2.377v2.376v2.376
	h-2.375h-2.377v2.376v2.376h-2.375H118.8v2.376v2.376h-2.375h-2.377v2.376v2.376h-2.375h-2.377v2.376v2.376h-2.375h-2.377v2.376
	v2.376h-2.377h-2.375v2.376v2.376h-2.377H95.04v2.376v2.376h-2.376h-2.376v2.376v2.376h-2.376h-2.376v2.376v2.376H83.16h-2.376V59.4
	v2.376h-2.376h-2.376v2.376v2.376h-2.376H71.28v2.376v2.376h-2.376h-2.376v2.376v2.376h-2.376h-2.376v2.376v2.376H59.4h-2.376v2.377
	v2.375h-2.376h-2.376v2.377v2.375h-2.376H47.52v2.377v2.375h-2.377h-2.375v2.377v2.375h-2.377h-2.376v2.377v2.375h-2.376h-2.376
	v2.377v2.375h-2.376h-2.376v2.377v2.375h-2.376H23.76v2.377v2.375h-2.376h-2.376v2.377v2.377h-2.376h-2.376v2.375v2.377H11.88H9.504
	v2.375v2.377H7.128H4.752v2.375v2.377h2.376h2.376V135.432z M9.504,116.425v-2.377h2.376h2.376v-2.375v-2.377h2.376h2.376v-2.375
	v-2.377h2.376h2.376v-2.375v-2.377h2.376h2.376v-2.375V95.04h2.376h2.376v-2.375v-2.377h2.376h2.376v-2.375v-2.377h2.376h2.377
	v-2.375v-2.377h2.375h2.377v-2.376v-2.376h2.376h2.376v-2.376V71.28h2.376h2.376v-2.376v-2.376H59.4h2.376v-2.376v-2.376h2.376
	h2.376V59.4v-2.376h2.376h2.376v-2.376v-2.376h2.376h2.376v-2.376V47.52h2.376h2.376v-2.376v-2.376h2.376h2.376v-2.376v-2.376h2.376
	h2.376V35.64v-2.376h2.376h2.376v-2.376v-2.376h2.375h2.377v-2.376V23.76h2.375h2.377v-2.376v-2.376h2.377h2.375v-2.376v-2.376
	h2.377h2.375V11.88V9.504h2.377h2.375V7.128V4.752h-2.375h-2.377v2.376v2.376h-2.375h-2.377v2.376v2.376h-2.375h-2.377v2.376v2.376
	h-2.377h-2.375v2.376v2.376h-2.377H95.04v2.376v2.376h-2.376h-2.376v2.376v2.376h-2.376h-2.376v2.376v2.376H83.16h-2.376v2.376
	v2.376h-2.376h-2.376v2.376v2.376h-2.376H71.28v2.376v2.376h-2.376h-2.376v2.376v2.376h-2.376h-2.376V59.4v2.376H59.4h-2.376v2.376
	v2.376h-2.376h-2.376v2.376v2.376h-2.376H47.52v2.376v2.376h-2.377h-2.375v2.376v2.376h-2.377h-2.376v2.377v2.375h-2.376h-2.376
	v2.377v2.375h-2.376h-2.376v2.377v2.375h-2.376H23.76v2.377v2.375h-2.376h-2.376v2.377v2.375h-2.376h-2.376v2.377v2.375H11.88H9.504
	v2.377v2.375H7.128H4.752v2.377v2.375h2.376h2.376V116.425z M9.504,97.417V95.04h2.376h2.376v-2.375v-2.377h2.376h2.376v-2.375
	v-2.377h2.376h2.376v-2.375v-2.377h2.376h2.376v-2.376v-2.376h2.376h2.376v-2.376V71.28h2.376h2.376v-2.376v-2.376h2.376h2.377
	v-2.376v-2.376h2.375h2.377V59.4v-2.376h2.376h2.376v-2.376v-2.376h2.376h2.376v-2.376V47.52H59.4h2.376v-2.376v-2.376h2.376h2.376
	v-2.376v-2.376h2.376h2.376V35.64v-2.376h2.376h2.376v-2.376v-2.376h2.376h2.376v-2.376V23.76h2.376h2.376v-2.376v-2.376h2.376
	h2.376v-2.376v-2.376h2.376h2.376V11.88V9.504h2.375h2.377V7.128V4.752h-2.377H95.04v2.376v2.376h-2.376h-2.376v2.376v2.376h-2.376
	h-2.376v2.376v2.376H83.16h-2.376v2.376v2.376h-2.376h-2.376v2.376v2.376h-2.376H71.28v2.376v2.376h-2.376h-2.376v2.376v2.376
	h-2.376h-2.376v2.376v2.376H59.4h-2.376v2.376v2.376h-2.376h-2.376v2.376v2.376h-2.376H47.52v2.376v2.376h-2.377h-2.375V59.4v2.376
	h-2.377h-2.376v2.376v2.376h-2.376h-2.376v2.376v2.376h-2.376h-2.376v2.376v2.376h-2.376H23.76v2.376v2.376h-2.376h-2.376v2.377
	v2.375h-2.376h-2.376v2.377v2.375H11.88H9.504v2.377v2.375H7.128H4.752v2.377v2.375h2.376h2.376V97.417z M9.504,78.408v-2.376h2.376
	h2.376v-2.376V71.28h2.376h2.376v-2.376v-2.376h2.376h2.376v-2.376v-2.376h2.376h2.376V59.4v-2.376h2.376h2.376v-2.376v-2.376h2.376
	h2.376v-2.376V47.52h2.376h2.377v-2.376v-2.376h2.375h2.377v-2.376v-2.376h2.376h2.376V35.64v-2.376h2.376h2.376v-2.376v-2.376H59.4
	h2.376v-2.376V23.76h2.376h2.376v-2.376v-2.376h2.376h2.376v-2.376v-2.376h2.376h2.376V11.88V9.504h2.376h2.376V7.128V4.752h-2.376
	h-2.376v2.376v2.376h-2.376H71.28v2.376v2.376h-2.376h-2.376v2.376v2.376h-2.376h-2.376v2.376v2.376H59.4h-2.376v2.376v2.376h-2.376
	h-2.376v2.376v2.376h-2.376H47.52v2.376v2.376h-2.377h-2.375v2.376v2.376h-2.377h-2.376v2.376v2.376h-2.376h-2.376v2.376v2.376
	h-2.376h-2.376v2.376v2.376h-2.376H23.76V59.4v2.376h-2.376h-2.376v2.376v2.376h-2.376h-2.376v2.376v2.376H11.88H9.504v2.376v2.376
	H7.128H4.752v2.376v2.376h2.376h2.376V78.408z M9.504,59.4v-2.376h2.376h2.376v-2.376v-2.376h2.376h2.376v-2.376V47.52h2.376h2.376
	v-2.376v-2.376h2.376h2.376v-2.376v-2.376h2.376h2.376V35.64v-2.376h2.376h2.376v-2.376v-2.376h2.376h2.377v-2.376V23.76h2.375
	h2.377v-2.376v-2.376h2.376h2.376v-2.376v-2.376h2.376h2.376V11.88V9.504H59.4h2.376V7.128V4.752H59.4h-2.376v2.376v2.376h-2.376
	h-2.376v2.376v2.376h-2.376H47.52v2.376v2.376h-2.377h-2.375v2.376v2.376h-2.377h-2.376v2.376v2.376h-2.376h-2.376v2.376v2.376
	h-2.376h-2.376v2.376v2.376h-2.376H23.76v2.376v2.376h-2.376h-2.376v2.376v2.376h-2.376h-2.376v2.376v2.376H11.88H9.504v2.376v2.376
	H7.128H4.752V59.4v2.376h2.376h2.376V59.4z M9.504,40.392v-2.376h2.376h2.376V35.64v-2.376h2.376h2.376v-2.376v-2.376h2.376h2.376
	v-2.376V23.76h2.376h2.376v-2.376v-2.376h2.376h2.376v-2.376v-2.376h2.376h2.376V11.88V9.504h2.376h2.377V7.128V4.752h-2.377h-2.376
	v2.376v2.376h-2.376h-2.376v2.376v2.376h-2.376h-2.376v2.376v2.376h-2.376H23.76v2.376v2.376h-2.376h-2.376v2.376v2.376h-2.376
	h-2.376v2.376v2.376H11.88H9.504v2.376v2.376H7.128H4.752v2.376v2.376h2.376h2.376V40.392z M9.504,21.384v-2.376h2.376h2.376v-2.376
	v-2.376h2.376h2.376V11.88V9.504h2.376h2.376V7.128V4.752h-2.376h-2.376v2.376v2.376h-2.376h-2.376v2.376v2.376H11.88H9.504v2.376
	v2.376H7.128H4.752v2.376v2.376h2.376h2.376V21.384z"/>
</svg>
