<?xml version="1.0" encoding="utf-8"?>
<!-- Generator: Adobe Illustrator 16.0.0, SVG Export Plug-In . SVG Version: 6.00 Build 0)  -->
<!DOCTYPE svg PUBLIC "-//W3C//DTD SVG 1.1//EN" "http://www.w3.org/Graphics/SVG/1.1/DTD/svg11.dtd">
<svg version="1.1" id="Layer_1" xmlns="http://www.w3.org/2000/svg" xmlns:xlink="http://www.w3.org/1999/xlink" x="0px" y="0px"
	 width="152.064px" height="152.064px" viewBox="0 0 152.064 152.064" enable-background="new 0 0 152.064 152.064"
	 xml:space="preserve">
<path id="path3590" d="M0,149.688v-2.377h7.128h7.128v-7.127v-7.129H7.128H0v-2.375v-2.377h16.632h16.632v-7.129v-7.127H16.632H0
	v-2.377v-2.375h7.128h7.128v-7.129V95.04H7.128H0v-2.377v-2.375h16.632h16.632v-7.129v-7.127H16.632H0v-2.376V71.28h7.128h7.128
	v-7.128v-7.129H7.128H0v-2.376v-2.376h16.632h16.632v-7.128v-7.128H16.632H0v-2.376v-2.376h7.128h7.128v-7.128v-7.128H7.128H0
	v-2.376v-2.376h16.632h16.632V7.128V0h2.376h2.376v7.128v7.128h16.633H71.28V7.128V0h2.376h2.376v7.128v7.128h16.632h16.632V7.128V0
	h2.377h2.375v7.128v7.128h16.633h16.631V7.128V0h2.377h2.375v9.504v9.504h-9.504h-9.504v7.128v7.128h9.504h9.504v11.88v11.88h-9.504
	h-9.504v7.129v7.128h9.504h9.504v11.879V95.04h-9.504h-9.504v7.127v7.129h9.504h9.504v11.879v11.881h-9.504h-9.504v7.129v7.127
	h9.504h9.504v2.377v2.375H76.032H0V149.688z M52.272,140.184v-7.129H35.639H19.008v7.129v7.127h16.632h16.633V140.184z
	 M90.288,140.184v-7.129H73.656H57.024v7.129v7.127h16.632h16.632V140.184z M128.303,140.184v-7.129h-16.631H95.04v7.129v7.127
	h16.633h16.631V140.184z M71.28,121.175v-7.127H54.648H38.015v7.127v7.129h16.633H71.28V121.175z M109.296,121.175v-7.127H92.664
	H76.032v7.127v7.129h16.632h16.632V121.175z M147.311,121.175v-7.127H130.68h-16.633v7.127v7.129h16.633h16.631V121.175z
	 M52.272,102.167V95.04H35.639H19.008v7.127v7.129h16.632h16.633V102.167z M90.288,102.167V95.04H73.656H57.024v7.127v7.129h16.632
	h16.632V102.167z M128.303,102.167V95.04h-16.631H95.04v7.127v7.129h16.633h16.631V102.167z M71.28,83.159v-7.127H54.648H38.015
	v7.127v7.129h16.633H71.28V83.159z M109.296,83.159v-7.127H92.664H76.032v7.127v7.129h16.632h16.632V83.159z M147.311,83.159v-7.127
	H130.68h-16.633v7.127v7.129h16.633h16.631V83.159z M52.272,64.152v-7.129H35.639H19.008v7.129v7.128h16.632h16.633V64.152z
	 M90.288,64.152v-7.129H73.656H57.024v7.129v7.128h16.632h16.632V64.152z M128.303,64.152v-7.129h-16.631H95.04v7.129v7.128h16.633
	h16.631V64.152z M71.28,45.143v-7.128H54.648H38.015v7.128v7.128h16.633H71.28V45.143z M109.296,45.143v-7.128H92.664H76.032v7.128
	v7.128h16.632h16.632V45.143z M147.311,45.143v-7.128H130.68h-16.633v7.128v7.128h16.633h16.631V45.143z M52.272,26.135v-7.128
	H35.639H19.008v7.128v7.128h16.632h16.633V26.135z M90.288,26.135v-7.128H73.656H57.024v7.128v7.128h16.632h16.632V26.135z
	 M128.303,26.135v-7.128h-16.631H95.04v7.128v7.128h16.633h16.631V26.135z"/>
</svg>
