<?xml version="1.0" encoding="utf-8"?>
<!-- Generator: Adobe Illustrator 16.0.0, SVG Export Plug-In . SVG Version: 6.00 Build 0)  -->
<!DOCTYPE svg PUBLIC "-//W3C//DTD SVG 1.1//EN" "http://www.w3.org/Graphics/SVG/1.1/DTD/svg11.dtd">
<svg version="1.1" id="Layer_1" xmlns="http://www.w3.org/2000/svg" xmlns:xlink="http://www.w3.org/1999/xlink" x="0px" y="0px"
	 width="152.064px" height="152.064px" viewBox="0 0 152.064 152.064" enable-background="new 0 0 152.064 152.064"
	 xml:space="preserve">
<g id="g3665" transform="matrix(0.125,0,0,0.125,492.79797,425.99271)">
	<path id="path3661" d="M-3771.315-2248.444v-19.008h19.016h19v-19.008v-19.008h19.016h19.008v19.008v19.008h19.008h19.008v19.008
		v19.008h-19.008h-19.008v-19.008v-19.008h-19.008h-19.016v19.008v19.008h-19h-19.016V-2248.444z M-3467.183-2248.444v-19.008
		h19.008h19.008v-19.008v-19.008h19.008h19.008v19.008v19.008h19.008h19.008v19.008v19.008h-19.008h-19.008v-19.008v-19.008h-19.008
		h-19.008v19.008v19.008h-19.008h-19.008V-2248.444z M-3163.05-2248.444v-19.008h19.008h19.008v-19.008v-19.008h19.008h19.008
		v19.008v19.008h19.008h19.008v19.008v19.008h-19.008h-19.008v-19.008v-19.008h-19.008h-19.008v19.008v19.008h-19.008h-19.008
		V-2248.444z M-2858.925-2248.444v-19.008h19.008h19.008v-19.008v-19.008h19.008h19.008v19.008v19.008h19.016h19v19.008v19.008h-19
		h-19.016v-19.008v-19.008h-19.008h-19.008v19.008v19.008h-19.008h-19.008V-2248.444z M-3923.378-2400.514v-19.008h19.008h19.008
		v-19.008v-19.008h19.008h19.008v19.008v19.008h19.008h19.008v19.008v19.016h-19.008h-19.008v-19.016v-19.008h-19.008h-19.008
		v19.008v19.016h-19.008h-19.008V-2400.514z M-3619.245-2400.514v-19.008h19.008h19.008v-19.008v-19.008h19.008h19.008v19.008
		v19.008h19.008h19.008v19.008v19.016h-19.008h-19.008v-19.016v-19.008h-19.008h-19.008v19.008v19.016h-19.008h-19.008V-2400.514z
		 M-3315.12-2400.514v-19.008h19.008h19.008v-19.008v-19.008h19.008h19.016v19.008v19.008h19h19.016v19.008v19.016h-19.016h-19
		v-19.016v-19.008h-19.016h-19.008v19.008v19.016h-19.008h-19.008V-2400.514z M-3010.987-2400.514v-19.008h19.008h19.008v-19.008
		v-19.008h19.008h19.008v19.008v19.008h19.008h19.008v19.008v19.016h-19.008h-19.008v-19.016v-19.008h-19.008h-19.008v19.008v19.016
		h-19.008h-19.008V-2400.514z M-3771.315-2552.576v-19.008h19.016h19v-19.008v-19.008h19.016h19.008v19.008v19.008h19.008h19.008
		v19.008v19.008h-19.008h-19.008v-19.008v-19.008h-19.008h-19.016v19.008v19.008h-19h-19.016V-2552.576z M-3467.183-2552.576
		v-19.008h19.008h19.008v-19.008v-19.008h19.008h19.008v19.008v19.008h19.008h19.008v19.008v19.008h-19.008h-19.008v-19.008v-19.008
		h-19.008h-19.008v19.008v19.008h-19.008h-19.008V-2552.576z M-3163.05-2552.576v-19.008h19.008h19.008v-19.008v-19.008h19.008
		h19.008v19.008v19.008h19.008h19.008v19.008v19.008h-19.008h-19.008v-19.008v-19.008h-19.008h-19.008v19.008v19.008h-19.008
		h-19.008V-2552.576z M-2858.925-2552.576v-19.008h19.008h19.008v-19.008v-19.008h19.008h19.008v19.008v19.008h19.016h19v19.008
		v19.008h-19h-19.016v-19.008v-19.008h-19.008h-19.008v19.008v19.008h-19.008h-19.008V-2552.576z M-3923.378-2704.639v-19.008
		h19.008h19.008v-19.008v-19.008h19.008h19.008v19.008v19.008h19.008h19.008v19.008v19.008h-19.008h-19.008v-19.008v-19.008h-19.008
		h-19.008v19.008v19.008h-19.008h-19.008V-2704.639z M-3619.245-2704.639v-19.008h19.008h19.008v-19.008v-19.008h19.008h19.008
		v19.008v19.008h19.008h19.008v19.008v19.008h-19.008h-19.008v-19.008v-19.008h-19.008h-19.008v19.008v19.008h-19.008h-19.008
		V-2704.639z M-3315.12-2704.639v-19.008h19.008h19.008v-19.008v-19.008h19.008h19.016v19.008v19.008h19h19.016v19.008v19.008
		h-19.016h-19v-19.008v-19.008h-19.016h-19.008v19.008v19.008h-19.008h-19.008V-2704.639z M-3010.987-2704.639v-19.008h19.008
		h19.008v-19.008v-19.008h19.008h19.008v19.008v19.008h19.008h19.008v19.008v19.008h-19.008h-19.008v-19.008v-19.008h-19.008
		h-19.008v19.008v19.008h-19.008h-19.008V-2704.639z M-3771.315-2856.701v-19.008h19.016h19v-19.008v-19.016h19.016h19.008v19.016
		v19.008h19.008h19.008v19.008v19.008h-19.008h-19.008v-19.008v-19.008h-19.008h-19.016v19.008v19.008h-19h-19.016V-2856.701z
		 M-3467.183-2856.701v-19.008h19.008h19.008v-19.008v-19.016h19.008h19.008v19.016v19.008h19.008h19.008v19.008v19.008h-19.008
		h-19.008v-19.008v-19.008h-19.008h-19.008v19.008v19.008h-19.008h-19.008V-2856.701z M-3163.05-2856.701v-19.008h19.008h19.008
		v-19.008v-19.016h19.008h19.008v19.016v19.008h19.008h19.008v19.008v19.008h-19.008h-19.008v-19.008v-19.008h-19.008h-19.008
		v19.008v19.008h-19.008h-19.008V-2856.701z M-2858.925-2856.701v-19.008h19.008h19.008v-19.008v-19.016h19.008h19.008v19.016
		v19.008h19.016h19v19.008v19.008h-19h-19.016v-19.008v-19.008h-19.008h-19.008v19.008v19.008h-19.008h-19.008V-2856.701z
		 M-3923.378-3008.772v-19.008h19.008h19.008v-19.008v-19.008h19.008h19.008v19.008v19.008h19.008h19.008v19.008v19.008h-19.008
		h-19.008v-19.008v-19.008h-19.008h-19.008v19.008v19.008h-19.008h-19.008V-3008.772z M-3619.245-3008.772v-19.008h19.008h19.008
		v-19.008v-19.008h19.008h19.008v19.008v19.008h19.008h19.008v19.008v19.008h-19.008h-19.008v-19.008v-19.008h-19.008h-19.008
		v19.008v19.008h-19.008h-19.008V-3008.772z M-3315.12-3008.772v-19.008h19.008h19.008v-19.008v-19.008h19.008h19.016v19.008v19.008
		h19h19.016v19.008v19.008h-19.016h-19v-19.008v-19.008h-19.016h-19.008v19.008v19.008h-19.008h-19.008V-3008.772z
		 M-3010.987-3008.772v-19.008h19.008h19.008v-19.008v-19.008h19.008h19.008v19.008v19.008h19.008h19.008v19.008v19.008h-19.008
		h-19.008v-19.008v-19.008h-19.008h-19.008v19.008v19.008h-19.008h-19.008V-3008.772z M-3771.315-3160.834v-19.008h19.016h19
		v-19.008v-19.008h19.016h19.008v19.008v19.008h19.008h19.008v19.008v19.008h-19.008h-19.008v-19.008v-19.008h-19.008h-19.016
		v19.008v19.008h-19h-19.016V-3160.834z M-3467.183-3160.834v-19.008h19.008h19.008v-19.008v-19.008h19.008h19.008v19.008v19.008
		h19.008h19.008v19.008v19.008h-19.008h-19.008v-19.008v-19.008h-19.008h-19.008v19.008v19.008h-19.008h-19.008V-3160.834z
		 M-3163.05-3160.834v-19.008h19.008h19.008v-19.008v-19.008h19.008h19.008v19.008v19.008h19.008h19.008v19.008v19.008h-19.008
		h-19.008v-19.008v-19.008h-19.008h-19.008v19.008v19.008h-19.008h-19.008V-3160.834z M-2858.925-3160.834v-19.008h19.008h19.008
		v-19.008v-19.008h19.008h19.008v19.008v19.008h19.016h19v19.008v19.008h-19h-19.016v-19.008v-19.008h-19.008h-19.008v19.008v19.008
		h-19.008h-19.008V-3160.834z M-3923.378-3312.897v-19.008h19.008h19.008v-19.008v-19.008h19.008h19.008v19.008v19.008h19.008
		h19.008v19.008v19.008h-19.008h-19.008v-19.008v-19.008h-19.008h-19.008v19.008v19.008h-19.008h-19.008V-3312.897z
		 M-3619.245-3312.897v-19.008h19.008h19.008v-19.008v-19.008h19.008h19.008v19.008v19.008h19.008h19.008v19.008v19.008h-19.008
		h-19.008v-19.008v-19.008h-19.008h-19.008v19.008v19.008h-19.008h-19.008V-3312.897z M-3315.12-3312.897v-19.008h19.008h19.008
		v-19.008v-19.008h19.008h19.016v19.008v19.008h19h19.016v19.008v19.008h-19.016h-19v-19.008v-19.008h-19.016h-19.008v19.008v19.008
		h-19.008h-19.008V-3312.897z M-3010.987-3312.897v-19.008h19.008h19.008v-19.008v-19.008h19.008h19.008v19.008v19.008h19.008
		h19.008v19.008v19.008h-19.008h-19.008v-19.008v-19.008h-19.008h-19.008v19.008v19.008h-19.008h-19.008V-3312.897z"/>
	<rect id="rect3663" x="-3942.386" y="-3407.944" fill="none" width="1216.523" height="1216.523"/>
</g>
</svg>
