<?xml version="1.0" encoding="utf-8"?>
<!-- Generator: Adobe Illustrator 16.0.0, SVG Export Plug-In . SVG Version: 6.00 Build 0)  -->
<!DOCTYPE svg PUBLIC "-//W3C//DTD SVG 1.1//EN" "http://www.w3.org/Graphics/SVG/1.1/DTD/svg11.dtd">
<svg version="1.1" id="Layer_1" xmlns="http://www.w3.org/2000/svg" xmlns:xlink="http://www.w3.org/1999/xlink" x="0px" y="0px"
	 width="152.064px" height="152.064px" viewBox="0 0 152.064 152.064" enable-background="new 0 0 152.064 152.064"
	 xml:space="preserve">
<path id="path3500" d="M4.752,149.688v-2.375h2.376h2.376v2.375v2.377H7.128H4.752V149.688z M42.768,149.688v-2.375h2.376h2.376
	v2.375v2.377h-2.376h-2.376V149.688z M80.784,149.688v-2.375h2.377h2.375v2.375v2.377h-2.375h-2.377V149.688z M118.8,149.688v-2.375
	h2.377h2.375v2.375v2.377h-2.375H118.8V149.688z M19.008,144.936v-2.375h2.376h2.376v2.375v2.377h-2.376h-2.376V144.936z
	 M57.024,144.936v-2.375H59.4h2.376v2.375v2.377H59.4h-2.376V144.936z M95.04,144.936v-2.375h2.375h2.377v2.375v2.377h-2.377H95.04
	V144.936z M133.055,144.936v-2.375h2.377h2.375v2.375v2.377h-2.375h-2.377V144.936z M0,140.184v-2.375h2.376h2.376v2.375v2.377
	H2.376H0V140.184z M38.016,140.184v-2.375h2.376h2.376v2.375v2.377h-2.376h-2.376V140.184z M76.032,140.184v-2.375h2.376h2.375
	v2.375v2.377h-2.375h-2.376V140.184z M114.048,140.184v-2.375h2.377h2.375v2.375v2.377h-2.375h-2.377V140.184z M23.76,135.432
	v-2.377h2.376h2.376v2.377v2.377h-2.376H23.76V135.432z M61.776,135.432v-2.377h2.376h2.376v2.377v2.377h-2.376h-2.376V135.432z
	 M99.792,135.432v-2.377h2.377h2.375v2.377v2.377h-2.375h-2.377V135.432z M137.807,135.432v-2.377h2.377h2.375v2.377v2.377h-2.375
	h-2.377V135.432z M9.504,130.68v-2.377h2.376h2.376v2.377v2.375H11.88H9.504V130.68z M47.52,130.68v-2.377h2.376h2.376v2.377v2.375
	h-2.376H47.52V130.68z M85.536,130.68v-2.377h2.377h2.375v2.377v2.375h-2.375h-2.377V130.68z M123.552,130.68v-2.377h2.377h2.375
	v2.377v2.375h-2.375h-2.377V130.68z M33.264,125.928v-2.377h2.376h2.376v2.377v2.375H35.64h-2.376V125.928z M71.28,125.928v-2.377
	h2.376h2.376v2.377v2.375h-2.376H71.28V125.928z M109.296,125.928v-2.377h2.377h2.375v2.377v2.375h-2.375h-2.377V125.928z
	 M147.313,125.928v-2.377h2.375h2.377v2.377v2.375h-2.377h-2.375V125.928z M14.256,121.177V118.8h2.376h2.376v2.377v2.375h-2.376
	h-2.376V121.177z M52.272,121.177V118.8h2.376h2.376v2.377v2.375h-2.376h-2.376V121.177z M90.288,121.177V118.8h2.377h2.375v2.377
	v2.375h-2.375h-2.377V121.177z M128.303,121.177V118.8h2.377h2.375v2.377v2.375h-2.375h-2.377V121.177z M28.512,116.425v-2.377
	h2.376h2.376v2.377v2.375h-2.376h-2.376V116.425z M66.528,116.425v-2.377h2.376h2.376v2.377v2.375h-2.376h-2.376V116.425z
	 M104.544,116.425v-2.377h2.377h2.375v2.377v2.375h-2.375h-2.377V116.425z M142.559,116.425v-2.377h2.377h2.377v2.377v2.375h-2.377
	h-2.377V116.425z M4.752,111.673v-2.377h2.376h2.376v2.377v2.375H7.128H4.752V111.673z M42.768,111.673v-2.377h2.376h2.376v2.377
	v2.375h-2.376h-2.376V111.673z M80.784,111.673v-2.377h2.377h2.375v2.377v2.375h-2.375h-2.377V111.673z M118.8,111.673v-2.377h2.377
	h2.375v2.377v2.375h-2.375H118.8V111.673z M19.008,106.921v-2.377h2.376h2.376v2.377v2.375h-2.376h-2.376V106.921z M57.024,106.921
	v-2.377H59.4h2.376v2.377v2.375H59.4h-2.376V106.921z M95.04,106.921v-2.377h2.375h2.377v2.377v2.375h-2.377H95.04V106.921z
	 M133.055,106.921v-2.377h2.377h2.375v2.377v2.375h-2.375h-2.377V106.921z M0,102.169v-2.377h2.376h2.376v2.377v2.375H2.376H0
	V102.169z M38.016,102.169v-2.377h2.376h2.376v2.377v2.375h-2.376h-2.376V102.169z M76.032,102.169v-2.377h2.376h2.375v2.377v2.375
	h-2.375h-2.376V102.169z M114.048,102.169v-2.377h2.377h2.375v2.377v2.375h-2.375h-2.377V102.169z M23.76,97.417V95.04h2.376h2.376
	v2.377v2.375h-2.376H23.76V97.417z M61.776,97.417V95.04h2.376h2.376v2.377v2.375h-2.376h-2.376V97.417z M99.792,97.417V95.04h2.377
	h2.375v2.377v2.375h-2.375h-2.377V97.417z M137.807,97.417V95.04h2.377h2.375v2.377v2.375h-2.375h-2.377V97.417z M9.504,92.665
	v-2.377h2.376h2.376v2.377v2.375H11.88H9.504V92.665z M47.52,92.665v-2.377h2.376h2.376v2.377v2.375h-2.376H47.52V92.665z
	 M85.536,92.665v-2.377h2.377h2.375v2.377v2.375h-2.375h-2.377V92.665z M123.552,92.665v-2.377h2.377h2.375v2.377v2.375h-2.375
	h-2.377V92.665z M33.264,87.913v-2.377h2.376h2.376v2.377v2.375H35.64h-2.376V87.913z M71.28,87.913v-2.377h2.376h2.376v2.377v2.375
	h-2.376H71.28V87.913z M109.296,87.913v-2.377h2.377h2.375v2.377v2.375h-2.375h-2.377V87.913z M147.313,87.913v-2.377h2.375h2.377
	v2.377v2.375h-2.377h-2.375V87.913z M14.256,83.161v-2.377h2.376h2.376v2.377v2.375h-2.376h-2.376V83.161z M52.272,83.161v-2.377
	h2.376h2.376v2.377v2.375h-2.376h-2.376V83.161z M90.288,83.161v-2.377h2.377h2.375v2.377v2.375h-2.375h-2.377V83.161z
	 M128.303,83.161v-2.377h2.377h2.375v2.377v2.375h-2.375h-2.377V83.161z M28.512,78.409v-2.376h2.376h2.376v2.376v2.375h-2.376
	h-2.376V78.409z M66.528,78.409v-2.376h2.376h2.376v2.376v2.375h-2.376h-2.376V78.409z M104.544,78.409v-2.376h2.377h2.375v2.376
	v2.375h-2.375h-2.377V78.409z M142.559,78.409v-2.376h2.377h2.377v2.376v2.375h-2.377h-2.377V78.409z M4.752,73.656v-2.375h2.376
	h2.376v2.375v2.377H7.128H4.752V73.656z M42.768,73.656v-2.375h2.376h2.376v2.375v2.377h-2.376h-2.376V73.656z M80.784,73.656
	v-2.375h2.377h2.375v2.375v2.377h-2.375h-2.377V73.656z M118.8,73.656v-2.375h2.377h2.375v2.375v2.377h-2.375H118.8V73.656z
	 M19.008,68.904v-2.376h2.376h2.376v2.376v2.377h-2.376h-2.376V68.904z M57.024,68.904v-2.376H59.4h2.376v2.376v2.377H59.4h-2.376
	V68.904z M95.04,68.904v-2.376h2.375h2.377v2.376v2.377h-2.377H95.04V68.904z M133.055,68.904v-2.376h2.377h2.375v2.376v2.377
	h-2.375h-2.377V68.904z M0,64.152v-2.376h2.376h2.376v2.376v2.376H2.376H0V64.152z M38.016,64.152v-2.376h2.376h2.376v2.376v2.376
	h-2.376h-2.376V64.152z M76.032,64.152v-2.376h2.376h2.375v2.376v2.376h-2.375h-2.376V64.152z M114.048,64.152v-2.376h2.377h2.375
	v2.376v2.376h-2.375h-2.377V64.152z M23.76,59.4v-2.376h2.376h2.376V59.4v2.376h-2.376H23.76V59.4z M61.776,59.4v-2.376h2.376h2.376
	V59.4v2.376h-2.376h-2.376V59.4z M99.792,59.4v-2.376h2.377h2.375V59.4v2.376h-2.375h-2.377V59.4z M137.807,59.4v-2.376h2.377h2.375
	V59.4v2.376h-2.375h-2.377V59.4z M9.504,54.648v-2.376h2.376h2.376v2.376v2.376H11.88H9.504V54.648z M47.52,54.648v-2.376h2.376
	h2.376v2.376v2.376h-2.376H47.52V54.648z M85.536,54.648v-2.376h2.377h2.375v2.376v2.376h-2.375h-2.377V54.648z M123.552,54.648
	v-2.376h2.377h2.375v2.376v2.376h-2.375h-2.377V54.648z M33.264,49.896V47.52h2.376h2.376v2.376v2.376H35.64h-2.376V49.896z
	 M71.28,49.896V47.52h2.376h2.376v2.376v2.376h-2.376H71.28V49.896z M109.296,49.896V47.52h2.377h2.375v2.376v2.376h-2.375h-2.377
	V49.896z M147.313,49.896V47.52h2.375h2.377v2.376v2.376h-2.377h-2.375V49.896z M14.256,45.144v-2.376h2.376h2.376v2.376v2.376
	h-2.376h-2.376V45.144z M52.272,45.144v-2.376h2.376h2.376v2.376v2.376h-2.376h-2.376V45.144z M90.288,45.144v-2.376h2.377h2.375
	v2.376v2.376h-2.375h-2.377V45.144z M128.303,45.144v-2.376h2.377h2.375v2.376v2.376h-2.375h-2.377V45.144z M28.512,40.392v-2.376
	h2.376h2.376v2.376v2.376h-2.376h-2.376V40.392z M66.528,40.392v-2.376h2.376h2.376v2.376v2.376h-2.376h-2.376V40.392z
	 M104.544,40.392v-2.376h2.377h2.375v2.376v2.376h-2.375h-2.377V40.392z M142.559,40.392v-2.376h2.377h2.377v2.376v2.376h-2.377
	h-2.377V40.392z M4.752,35.64v-2.376h2.376h2.376v2.376v2.376H7.128H4.752V35.64z M42.768,35.64v-2.376h2.376h2.376v2.376v2.376
	h-2.376h-2.376V35.64z M80.784,35.64v-2.376h2.377h2.375v2.376v2.376h-2.375h-2.377V35.64z M118.8,35.64v-2.376h2.377h2.375v2.376
	v2.376h-2.375H118.8V35.64z M19.008,30.888v-2.376h2.376h2.376v2.376v2.376h-2.376h-2.376V30.888z M57.024,30.888v-2.376H59.4h2.376
	v2.376v2.376H59.4h-2.376V30.888z M95.04,30.888v-2.376h2.375h2.377v2.376v2.376h-2.377H95.04V30.888z M133.055,30.888v-2.376h2.377
	h2.375v2.376v2.376h-2.375h-2.377V30.888z M0,26.136V23.76h2.376h2.376v2.376v2.376H2.376H0V26.136z M38.016,26.136V23.76h2.376
	h2.376v2.376v2.376h-2.376h-2.376V26.136z M76.032,26.136V23.76h2.376h2.375v2.376v2.376h-2.375h-2.376V26.136z M114.048,26.136
	V23.76h2.377h2.375v2.376v2.376h-2.375h-2.377V26.136z M23.76,21.385v-2.376h2.376h2.376v2.376v2.376h-2.376H23.76V21.385z
	 M61.776,21.385v-2.376h2.376h2.376v2.376v2.376h-2.376h-2.376V21.385z M99.792,21.385v-2.376h2.377h2.375v2.376v2.376h-2.375
	h-2.377V21.385z M137.807,21.385v-2.376h2.377h2.375v2.376v2.376h-2.375h-2.377V21.385z M9.504,16.633v-2.377h2.376h2.376v2.377
	v2.376H11.88H9.504V16.633z M47.52,16.633v-2.377h2.376h2.376v2.377v2.376h-2.376H47.52V16.633z M85.536,16.633v-2.377h2.377h2.375
	v2.377v2.376h-2.375h-2.377V16.633z M123.552,16.633v-2.377h2.377h2.375v2.377v2.376h-2.375h-2.377V16.633z M33.264,11.881V9.504
	h2.376h2.376v2.377v2.375H35.64h-2.376V11.881z M71.28,11.881V9.504h2.376h2.376v2.377v2.375h-2.376H71.28V11.881z M109.296,11.881
	V9.504h2.377h2.375v2.377v2.375h-2.375h-2.377V11.881z M147.313,11.881V9.504h2.375h2.377v2.377v2.375h-2.377h-2.375V11.881z
	 M14.256,7.128V4.752h2.376h2.376v2.376v2.376h-2.376h-2.376V7.128z M52.272,7.128V4.752h2.376h2.376v2.376v2.376h-2.376h-2.376
	V7.128z M90.288,7.128V4.752h2.377h2.375v2.376v2.376h-2.375h-2.377V7.128z M128.303,7.128V4.752h2.377h2.375v2.376v2.376h-2.375
	h-2.377V7.128z M28.512,2.376V0h2.376h2.376v2.376v2.376h-2.376h-2.376V2.376z M66.528,2.376V0h2.376h2.376v2.376v2.376h-2.376
	h-2.376V2.376z M104.544,2.376V0h2.377h2.375v2.376v2.376h-2.375h-2.377V2.376z M142.559,2.376V0h2.377h2.377v2.376v2.376h-2.377
	h-2.377V2.376z"/>
</svg>
