<?xml version="1.0" encoding="utf-8"?>
<!-- Generator: Adobe Illustrator 16.0.0, SVG Export Plug-In . SVG Version: 6.00 Build 0)  -->
<!DOCTYPE svg PUBLIC "-//W3C//DTD SVG 1.1//EN" "http://www.w3.org/Graphics/SVG/1.1/DTD/svg11.dtd">
<svg version="1.1" id="Layer_1" xmlns="http://www.w3.org/2000/svg" xmlns:xlink="http://www.w3.org/1999/xlink" x="0px" y="0px"
	 width="152.064px" height="152.064px" viewBox="0 0 152.064 152.064" enable-background="new 0 0 152.064 152.064"
	 xml:space="preserve">
<g id="g3631" transform="matrix(0.125,0,0,0.125,598.57269,429.1498)">
	<path id="path3627" d="M-4693.545-2254.693v-19.016h-19.008h-19.008v-19v-19.016h-19.008h-19.008v-19v-19.016h19.008h19.008v19.016
		v19h19.008h19.008v19.016v19h19.008h19.008v19.016v19h-19.008h-19.008V-2254.693z M-4389.412-2254.693v-19.016h-19.008h-19.016v-19
		v-19.016h-19h-19.016v-19v-19.016h19.016h19v19.016v19h19.016h19.008v19.016v19h19.008h19.008v19.016v19h-19.008h-19.008V-2254.693
		z M-4085.287-2254.693v-19.016h-19.008h-19.008v-19v-19.016h-19.008h-19.008v-19v-19.016h19.008h19.008v19.016v19h19.008h19.008
		v19.016v19h19.008h19.008v19.016v19h-19.008h-19.008V-2254.693z M-3781.154-2254.693v-19.016h-19.016h-19v-19v-19.016h-19.016h-19
		v-19v-19.016h19h19.016v19.016v19h19h19.016v19.016v19h19h19.016v19.016v19h-19.016h-19V-2254.693z M-4617.514-2406.755v-19.016
		h19.008h19.008v-19.016v-19h19.008h19.008v-19.016v-19h19.008h19.008v19v19.016h-19.008h-19.008v19v19.016h-19.008h-19.008v19.016
		v19h-19.008h-19.008V-2406.755z M-4313.381-2406.755v-19.016h19.008h19.008v-19.016v-19h19.008h19.008v-19.016v-19h19.008h19.008
		v19v19.016h-19.008h-19.008v19v19.016h-19.008h-19.008v19.016v19h-19.008h-19.008V-2406.755z M-4009.256-2406.755v-19.016h19.008
		h19.016v-19.016v-19h19h19.016v-19.016v-19h19h19.016v19v19.016h-19.016h-19v19v19.016h-19.016h-19v19.016v19h-19.016h-19.008
		V-2406.755z M-3705.123-2406.755v-19.016h19h19.016v-19.016v-19h19h19.016v-19.016v-19h19h19.016v19v19.016h-19.016h-19v19v19.016
		h-19.016h-19v19.016v19h-19.016h-19V-2406.755z M-4693.545-2558.833v-19h-19.008h-19.008v-19.016v-19h-19.008h-19.008v-19.016v-19
		h19.008h19.008v19v19.016h19.008h19.008v19v19.016h19.008h19.008v19v19.016h-19.008h-19.008V-2558.833z M-4389.412-2558.833v-19
		h-19.008h-19.016v-19.016v-19h-19h-19.016v-19.016v-19h19.016h19v19v19.016h19.016h19.008v19v19.016h19.008h19.008v19v19.016
		h-19.008h-19.008V-2558.833z M-4085.287-2558.833v-19h-19.008h-19.008v-19.016v-19h-19.008h-19.008v-19.016v-19h19.008h19.008v19
		v19.016h19.008h19.008v19v19.016h19.008h19.008v19v19.016h-19.008h-19.008V-2558.833z M-3781.154-2558.833v-19h-19.016h-19v-19.016
		v-19h-19.016h-19v-19.016v-19h19h19.016v19v19.016h19h19.016v19v19.016h19h19.016v19v19.016h-19.016h-19V-2558.833z
		 M-4617.514-2710.896v-19h19.008h19.008v-19.008v-19.008h19.008h19.008v-19.008v-19.008h19.008h19.008v19.008v19.008h-19.008
		h-19.008v19.008v19.008h-19.008h-19.008v19v19.016h-19.008h-19.008V-2710.896z M-4313.381-2710.896v-19h19.008h19.008v-19.008
		v-19.008h19.008h19.008v-19.008v-19.008h19.008h19.008v19.008v19.008h-19.008h-19.008v19.008v19.008h-19.008h-19.008v19v19.016
		h-19.008h-19.008V-2710.896z M-4009.256-2710.896v-19h19.008h19.016v-19.008v-19.008h19h19.016v-19.008v-19.008h19h19.016v19.008
		v19.008h-19.016h-19v19.008v19.008h-19.016h-19v19v19.016h-19.016h-19.008V-2710.896z M-3705.123-2710.896v-19h19h19.016v-19.008
		v-19.008h19h19.016v-19.008v-19.008h19h19.016v19.008v19.008h-19.016h-19v19.008v19.008h-19.016h-19v19v19.016h-19.016h-19
		V-2710.896z M-4693.545-2862.95v-19.008h-19.008h-19.008v-19.016v-19.008h-19.008h-19.008v-19.008v-19.008h19.008h19.008v19.008
		v19.008h19.008h19.008v19.008v19.016h19.008h19.008v19.008v19.008h-19.008h-19.008V-2862.95z M-4389.412-2862.95v-19.008h-19.008
		h-19.016v-19.016v-19.008h-19h-19.016v-19.008v-19.008h19.016h19v19.008v19.008h19.016h19.008v19.008v19.016h19.008h19.008v19.008
		v19.008h-19.008h-19.008V-2862.95z M-4085.287-2862.95v-19.008h-19.008h-19.008v-19.016v-19.008h-19.008h-19.008v-19.008v-19.008
		h19.008h19.008v19.008v19.008h19.008h19.008v19.008v19.016h19.008h19.008v19.008v19.008h-19.008h-19.008V-2862.95z
		 M-3781.154-2862.95v-19.008h-19.016h-19v-19.016v-19.008h-19.016h-19v-19.008v-19.008h19h19.016v19.008v19.008h19h19.016v19.008
		v19.016h19h19.016v19.008v19.008h-19.016h-19V-2862.95z M-4617.514-3015.021v-19.008h19.008h19.008v-19.008v-19.008h19.008h19.008
		v-19.008v-19.008h19.008h19.008v19.008v19.008h-19.008h-19.008v19.008v19.008h-19.008h-19.008v19.008v19.008h-19.008h-19.008
		V-3015.021z M-4313.381-3015.021v-19.008h19.008h19.008v-19.008v-19.008h19.008h19.008v-19.008v-19.008h19.008h19.008v19.008
		v19.008h-19.008h-19.008v19.008v19.008h-19.008h-19.008v19.008v19.008h-19.008h-19.008V-3015.021z M-4009.256-3015.021v-19.008
		h19.008h19.016v-19.008v-19.008h19h19.016v-19.008v-19.008h19h19.016v19.008v19.008h-19.016h-19v19.008v19.008h-19.016h-19v19.008
		v19.008h-19.016h-19.008V-3015.021z M-3705.123-3015.021v-19.008h19h19.016v-19.008v-19.008h19h19.016v-19.008v-19.008h19h19.016
		v19.008v19.008h-19.016h-19v19.008v19.008h-19.016h-19v19.008v19.008h-19.016h-19V-3015.021z M-4693.545-3167.083v-19.008h-19.008
		h-19.008v-19.008v-19.008h-19.008h-19.008v-19.008v-19.008h19.008h19.008v19.008v19.008h19.008h19.008v19.008v19.008h19.008h19.008
		v19.008v19.008h-19.008h-19.008V-3167.083z M-4389.412-3167.083v-19.008h-19.008h-19.016v-19.008v-19.008h-19h-19.016v-19.008
		v-19.008h19.016h19v19.008v19.008h19.016h19.008v19.008v19.008h19.008h19.008v19.008v19.008h-19.008h-19.008V-3167.083z
		 M-4085.287-3167.083v-19.008h-19.008h-19.008v-19.008v-19.008h-19.008h-19.008v-19.008v-19.008h19.008h19.008v19.008v19.008
		h19.008h19.008v19.008v19.008h19.008h19.008v19.008v19.008h-19.008h-19.008V-3167.083z M-3781.154-3167.083v-19.008h-19.016h-19
		v-19.008v-19.008h-19.016h-19v-19.008v-19.008h19h19.016v19.008v19.008h19h19.016v19.008v19.008h19h19.016v19.008v19.008h-19.016
		h-19V-3167.083z M-4617.514-3319.146v-19.008h19.008h19.008v-19.008v-19.008h19.008h19.008v-19.008v-19.016h19.008h19.008v19.016
		v19.008h-19.008h-19.008v19.008v19.008h-19.008h-19.008v19.008v19.008h-19.008h-19.008V-3319.146z M-4313.381-3319.146v-19.008
		h19.008h19.008v-19.008v-19.008h19.008h19.008v-19.008v-19.016h19.008h19.008v19.016v19.008h-19.008h-19.008v19.008v19.008h-19.008
		h-19.008v19.008v19.008h-19.008h-19.008V-3319.146z M-4009.256-3319.146v-19.008h19.008h19.016v-19.008v-19.008h19h19.016v-19.008
		v-19.016h19h19.016v19.016v19.008h-19.016h-19v19.008v19.008h-19.016h-19v19.008v19.008h-19.016h-19.008V-3319.146z
		 M-3705.123-3319.146v-19.008h19h19.016v-19.008v-19.008h19h19.016v-19.008v-19.016h19h19.016v19.016v19.008h-19.016h-19v19.008
		v19.008h-19.016h-19v19.008v19.008h-19.016h-19V-3319.146z"/>
	<rect id="rect3629" x="-4788.584" y="-3433.2" fill="none" width="1216.508" height="1216.523"/>
</g>
</svg>
