<?xml version="1.0" encoding="utf-8"?>
<!-- Generator: Adobe Illustrator 16.0.0, SVG Export Plug-In . SVG Version: 6.00 Build 0)  -->
<!DOCTYPE svg PUBLIC "-//W3C//DTD SVG 1.1//EN" "http://www.w3.org/Graphics/SVG/1.1/DTD/svg11.dtd">
<svg version="1.1" id="Layer_1" xmlns="http://www.w3.org/2000/svg" xmlns:xlink="http://www.w3.org/1999/xlink" x="0px" y="0px"
	 width="152.064px" height="152.064px" viewBox="0 0 152.064 152.064" enable-background="new 0 0 152.064 152.064"
	 xml:space="preserve">
<g id="g3419" transform="matrix(0,0.125,-0.125,0,469.59078,366.36016)">
	<path id="path3421" d="M-2873.86,3148.471v-608.266h19.008h19.008v608.266v608.258h-19.008h-19.008V3148.471z M-2721.797,3148.471
		v-608.266h19.008h19.008v608.266v608.258h-19.008h-19.008V3148.471z M-2569.731,3148.471v-608.266h19.008h19.008v608.266v608.258
		h-19.008h-19.008V3148.471z M-2417.665,3148.471v-608.266h19.008h19.008v608.266v608.258h-19.008h-19.008V3148.471z
		 M-2265.594,3148.471v-608.266h19h19.016v608.266v608.258h-19.016h-19V3148.471z M-2113.532,3148.471v-608.266h19h19.016v608.266
		v608.258h-19.016h-19V3148.471z M-1961.469,3148.471v-608.266h19.016h19v608.266v608.258h-19h-19.016V3148.471z
		 M-1809.407,3148.471v-608.266h19.016h19v608.266v608.258h-19h-19.016V3148.471z"/>
	
		<rect id="rect3423" x="-2930.883" y="2540.205" transform="matrix(2.578893e-06 1 -1 2.578893e-06 825.8513 5471.0801)" fill="none" width="1216.523" height="1216.523"/>
</g>
</svg>
