<?xml version="1.0" encoding="utf-8"?>
<!-- Generator: Adobe Illustrator 16.0.0, SVG Export Plug-In . SVG Version: 6.00 Build 0)  -->
<!DOCTYPE svg PUBLIC "-//W3C//DTD SVG 1.1//EN" "http://www.w3.org/Graphics/SVG/1.1/DTD/svg11.dtd">
<svg version="1.1" id="Layer_1" xmlns="http://www.w3.org/2000/svg" xmlns:xlink="http://www.w3.org/1999/xlink" x="0px" y="0px"
	 width="152.064px" height="152.064px" viewBox="0 0 152.064 152.064" enable-background="new 0 0 152.064 152.064"
	 xml:space="preserve">
<path id="path3603" d="M9.504,149.688v-2.377h2.377h2.376v-2.375v-2.377h-2.376H9.504v-2.375v-2.377H7.128H4.752v-2.375v-2.377
	H2.376H0v-2.375v-2.377h2.376h2.376v2.377v2.375h2.376h2.376v2.377v2.375h7.129h7.128v-2.375v-2.377h2.376h2.376v-2.375v-2.377
	h2.376h2.376v-2.375v-2.377h2.376h2.376v-2.375V118.8h2.376h2.376v-2.375v-2.377h2.376h2.376v-2.375v-2.377h2.376h2.376v-2.375
	v-2.377h-2.376H47.52v-2.377v-2.375h-2.376h-2.376v-2.377V95.04H35.64h-7.128v2.375v2.377h-2.376H23.76v2.375v2.377h-2.376h-2.376
	v2.377v2.375h-2.376h-2.376v2.377v2.375h-2.376H9.504v2.377v2.375H7.129H4.752v2.377v2.375H2.376H0v-2.375V118.8h2.376h2.376v-2.375
	v-2.377h2.377h2.375v-2.375v-2.377h2.377h2.376v-2.375v-2.377h-2.376H9.504v-2.377v-2.375H7.129H4.752v-2.377V95.04H2.376H0v-2.377
	v-2.375h2.376h2.376v2.375v2.377h2.377h2.375v2.375v2.377h7.129h7.128v-2.377V95.04h2.376h2.376v-2.377v-2.375h2.376h2.376v-2.377
	v-2.375h2.376h2.376v-2.377v-2.375h2.376h2.376v-2.377v-2.375h2.376h2.376v-2.376V71.28h2.376h2.376v-2.376v-2.376h-2.376H47.52
	v-2.376v-2.376h-2.376h-2.376V59.4v-2.376H35.64h-7.128V59.4v2.376h-2.376H23.76v2.376v2.376h-2.376h-2.376v2.376v2.376h-2.376
	h-2.376v2.376v2.376h-2.376H9.504v2.375v2.377H7.129H4.752v2.375v2.377H2.376H0v-2.377v-2.375h2.376h2.376v-2.377v-2.375h2.377
	h2.375v-2.376V71.28h2.377h2.376v-2.376v-2.376h-2.376H9.504v-2.376v-2.376H7.129H4.752V59.4v-2.376H2.376H0v-2.376v-2.376h2.376
	h2.376v2.376v2.376h2.377h2.375V59.4v2.376h7.129h7.128V59.4v-2.376h2.376h2.376v-2.376v-2.376h2.376h2.376v-2.376V47.52h2.376
	h2.376v-2.376v-2.376h2.376h2.376v-2.376v-2.377h2.376h2.376V35.64v-2.377h2.376h2.376v-2.376v-2.376h-2.376H47.52v-2.376V23.76
	h-2.376h-2.376v-2.376v-2.376H35.64h-7.128v2.376v2.376h-2.376H23.76v2.376v2.376h-2.376h-2.376v2.376v2.376h-2.376h-2.376v2.377
	v2.375h-2.376H9.504v2.377v2.376H7.129H4.752v2.376v2.376H2.376H0v-2.376v-2.376h2.376h2.376v-2.376v-2.377h2.377h2.375V35.64
	v-2.377h2.377h2.376v-2.376v-2.376h-2.376H9.504v-2.376V23.76H7.129H4.752v-2.376v-2.376H2.376H0v-2.376v-2.376h2.376h2.376v2.376
	v2.376h2.377h2.375v2.376v2.376h7.129h7.128v-2.376v-2.376h2.376h2.376v-2.376v-2.376h2.376h2.376V11.88V9.504h2.376h2.376V7.128
	V4.752h2.376h2.376V2.376V0h2.376h2.376v2.376v2.376h-2.376h-2.376v2.376v2.376h-2.376h-2.376v2.376v2.376h2.376h2.376v2.376v2.376
	h2.376h2.376v2.376v2.376h7.128h7.128v-2.376v-2.376h2.376h2.376v-2.376v-2.376h2.376h2.377V11.88V9.504h2.376h2.376V7.128V4.752
	h2.376h2.376V2.376V0h2.376h2.376v2.376v2.376h-2.376h-2.376v2.376v2.376h-2.376h-2.376v2.376v2.376h2.376h2.376v2.376v2.376h2.376
	h2.376v2.376v2.376h7.128h7.128v-2.376v-2.376h2.376h2.376v-2.376v-2.376h2.376h2.376V11.88V9.504h2.376h2.376V7.128V4.752h2.376
	h2.376V2.376V0h2.376h2.376v2.376v2.376h-2.376h-2.376v2.376v2.376h-2.376h-2.376v2.376v2.376h2.376h2.376v2.376v2.376h2.376h2.376
	v2.376v2.376h7.129h7.128v-2.376v-2.376h2.376h2.376v-2.376v-2.376h2.376h2.376V11.88V9.504h2.376h2.376v4.752v4.752h-4.752h-4.752
	v2.376v2.376h-2.376h-2.376v2.376v2.376h-2.376h-2.377v2.376v2.376h-2.375h-2.377v2.377v2.375h-2.376h-2.376v2.377v2.376h-2.376
	h-2.376v2.376v2.376h-2.376h-2.376v2.376v2.376h2.376h2.376v2.376v2.376h2.376h2.376V59.4v2.376h7.129h7.128V59.4v-2.376h2.376
	h2.376v-2.376v-2.376h2.376h2.376v-2.376V47.52h2.376h2.376v4.752v4.752h-4.752h-4.752V59.4v2.376h-2.376h-2.376v2.376v2.376h-2.376
	h-2.377v2.376v2.376h-2.375h-2.377v2.376v2.376h-2.376h-2.376v2.375v2.377h-2.376h-2.376v2.375v2.377h-2.376h-2.376v2.375v2.377
	h2.376h2.376v2.375v2.377h2.376h2.376v2.375v2.377h7.129h7.128v-2.377V95.04h2.376h2.376v-2.377v-2.375h2.376h2.376v-2.377v-2.375
	h2.376h2.376v4.752v4.752h-4.752h-4.752v2.375v2.377h-2.376h-2.376v2.375v2.377h-2.376h-2.377v2.377v2.375h-2.375h-2.377v2.377
	v2.375h-2.376h-2.376v2.377v2.375h-2.376h-2.376v2.377v2.375h-2.376h-2.376v2.377v2.375h2.376h2.376v2.377v2.375h2.376h2.376v2.377
	v2.375h7.129h7.128v-2.375v-2.377h2.376h2.376v-2.375v-2.377h2.376h2.376v-2.375v-2.377h2.376h2.376v4.752v4.752h-4.752h-4.752
	v2.377v2.375h-2.376h-2.376v2.377v2.375h-2.376h-2.377v2.377v2.375h-2.375h-2.377v2.377v2.375h-2.376h-2.376v-2.375v-2.377h2.376
	h2.376v-2.375v-2.377h-2.376h-2.376v-2.375v-2.377h-2.376h-2.376v-2.375v-2.377h-7.128h-7.128v2.377v2.375h-2.376h-2.376v2.377
	v2.375h-2.376h-2.376v2.377v2.375h-2.376h-2.376v2.377v2.375h-2.376h-2.376v-2.375v-2.377h2.376h2.376v-2.375v-2.377h-2.376h-2.376
	v-2.375v-2.377h-2.376h-2.376v-2.375v-2.377h-7.128h-7.129v2.377v2.375h-2.376h-2.376v2.377v2.375H59.4h-2.376v2.377v2.375h-2.376
	h-2.376v2.377v2.375h-2.376H47.52v-2.375v-2.377h2.376h2.376v-2.375v-2.377h-2.376H47.52v-2.375v-2.377h-2.376h-2.376v-2.375v-2.377
	H35.64h-7.128v2.377v2.375h-2.376H23.76v2.377v2.375h-2.376h-2.376v2.377v2.375h-2.376h-2.376v2.377v2.375h-2.376H9.504V149.688z
	 M61.776,135.432v-2.377h2.376h2.376v-2.375v-2.377h2.376h2.377v-2.375v-2.377h2.376h2.376v2.377v2.375h2.376h2.376v2.377v2.375
	h2.376h2.376v2.377v2.375h7.128h7.128v-2.375v-2.377h2.376h2.376v-2.375v-2.377h2.376h2.376v-2.375v-2.377h2.376h2.376v-2.375V118.8
	h2.376h2.376v-2.375v-2.377h2.376h2.376v-2.375v-2.377h2.376h2.376v-2.375v-2.377h-2.376h-2.376v-2.377v-2.375h-2.376h-2.376v-2.377
	V95.04h-7.128h-7.128v-2.377v-2.375h2.376h2.376v-2.377v-2.375h2.376h2.376v-2.377v-2.375h2.376h2.376v-2.377v-2.375h2.376h2.376
	v-2.376V71.28h2.376h2.376v-2.376v-2.376h-2.376h-2.376v-2.376v-2.376h-2.376h-2.376V59.4v-2.376h-7.128h-7.128v-2.376v-2.376h2.376
	h2.376v-2.376V47.52h2.376h2.376v-2.376v-2.376h2.376h2.376v-2.376v-2.377h2.376h2.376V35.64v-2.377h2.376h2.376v-2.376v-2.376
	h-2.376h-2.376v-2.376V23.76h-2.376h-2.376v-2.376v-2.376h-7.128h-7.128v2.376v2.376h-2.376h-2.376v2.376v2.376h-2.376h-2.376v2.376
	v2.376h-2.376h-2.376v-2.376v-2.376h-2.376h-2.376v-2.376V23.76h-2.376h-2.376v-2.376v-2.376h-7.128h-7.129v2.376v2.376h-2.376
	h-2.376v2.376v2.376H59.4h-2.376v2.376v2.376h-2.376h-2.376v2.377v2.375h-2.376H47.52v2.377v2.376h-2.376h-2.376v2.376v2.376h-2.376
	h-2.376v2.376v2.376h2.376h2.376v2.376v2.376h2.376h2.376V59.4v2.376h7.128h7.128v2.376v2.376H59.4h-2.376v2.376v2.376h-2.376
	h-2.376v2.376v2.376h-2.376H47.52v2.375v2.377h-2.376h-2.376v2.375v2.377h-2.376h-2.376v2.375v2.377h2.376h2.376v2.375v2.377h2.376
	h2.376v2.375v2.377h7.128h7.128v2.375v2.377H59.4h-2.376v2.377v2.375h-2.376h-2.376v2.377v2.375h-2.376H47.52v2.377v2.375h-2.376
	h-2.376v2.377v2.375h-2.376h-2.376v2.377v2.375h2.376h2.376v2.377v2.375h2.376h2.376v2.377v2.375h7.128h7.128V135.432z
	 M76.033,121.177V118.8h2.376h2.376v-2.375v-2.377h2.376h2.376v-2.375v-2.377h2.376h2.376v-2.375v-2.377h-2.376h-2.376v-2.377
	v-2.375h-2.376h-2.376v-2.377V95.04h-7.128h-7.129v2.375v2.377h-2.376h-2.376v-2.377V95.04h2.376h2.376v-2.377v-2.375h2.376h2.377
	v-2.377v-2.375h2.376h2.376v-2.377v-2.375h2.376h2.376v-2.377v-2.375h2.376h2.376v-2.376V71.28h2.376h2.376v-2.376v-2.376h-2.376
	h-2.376v-2.376v-2.376h-2.376h-2.376V59.4v-2.376h-7.128h-7.129V59.4v2.376h-2.376h-2.376V59.4v-2.376h2.376h2.376v-2.376v-2.376
	h2.376h2.377v-2.376V47.52h2.376h2.376v-2.376v-2.376h2.376h2.376v-2.376v-2.377h2.376h2.376V35.64v-2.377h2.376h2.376v2.377v2.375
	h-2.376h-2.376v2.377v2.376h-2.376h-2.376v2.376v2.376h-2.376h-2.376v2.376v2.376h2.376h2.376v2.376v2.376h2.376h2.376V59.4v2.376
	h7.128h7.128V59.4v-2.376h2.376h2.376V59.4v2.376h-2.376h-2.376v2.376v2.376h-2.376h-2.376v2.376v2.376h-2.376h-2.376v2.376v2.376
	h-2.376h-2.376v2.375v2.377h-2.376h-2.376v2.375v2.377h-2.376h-2.376v2.375v2.377h2.376h2.376v2.375v2.377h2.376h2.376v2.375v2.377
	h7.128h7.128v-2.377V95.04h2.376h2.376v2.375v2.377h-2.376h-2.376v2.375v2.377h-2.376h-2.376v2.377v2.375h-2.376h-2.376v2.377v2.375
	h-2.376h-2.376v2.377v2.375h-2.376h-2.376v2.377v2.375h-2.376h-2.376V121.177z M0,7.128V4.752h2.376h2.376V2.376V0h2.377h2.375
	v2.376v2.376H7.129H4.752v2.376v2.376H2.376H0V7.128z"/>
</svg>
