<?xml version="1.0" encoding="utf-8"?>
<!-- Generator: Adobe Illustrator 16.0.0, SVG Export Plug-In . SVG Version: 6.00 Build 0)  -->
<!DOCTYPE svg PUBLIC "-//W3C//DTD SVG 1.1//EN" "http://www.w3.org/Graphics/SVG/1.1/DTD/svg11.dtd">
<svg version="1.1" id="Layer_1" xmlns="http://www.w3.org/2000/svg" xmlns:xlink="http://www.w3.org/1999/xlink" x="0px" y="0px"
	 width="152.064px" height="152.064px" viewBox="0 0 152.064 152.064" enable-background="new 0 0 152.064 152.064"
	 xml:space="preserve">
<path id="path3431" d="M9.504,148.501v-3.564H4.752H0v-7.128v-7.128h2.376h2.376v-2.376v-2.376H2.376H0v-2.376v-2.376h4.752h4.752
	v-7.128v-7.128H4.752H0v-7.128v-7.129h2.376h2.376v-2.376v-2.376H2.376H0v-2.376V83.16h4.752h4.752v-7.128v-7.128H4.752H0v-7.128
	v-7.128h2.376h2.376v-2.376v-2.376H2.376H0V47.52v-2.376h4.752h4.752v-7.129v-7.128H4.752H0V23.76v-7.128h2.376h2.376v-2.376V11.88
	H2.376H0V9.504V7.128h4.752h4.752V3.563V0h11.88h11.88v3.563v3.564h7.128h7.129V3.563V0H59.4h11.88v3.563v3.564h7.128h7.128V3.563V0
	h11.88h11.88v3.563v3.564h7.129h7.128V3.563V0h11.88h11.88v3.563v3.564h2.376h2.376v2.376v2.376h-2.376h-2.376v2.376v2.376h2.376
	h2.376v7.128v7.128h-2.376h-2.376v7.128v7.129h2.376h2.376v2.376v2.376h-2.376h-2.376v2.376v2.376h2.376h2.376v7.128v7.128h-2.376
	h-2.376v7.128v7.128h2.376h2.376v2.376v2.376h-2.376h-2.376v2.376v2.376h2.376h2.376v7.129v7.128h-2.376h-2.376v7.128v7.128h2.376
	h2.376v2.376v2.376h-2.376h-2.376v2.376v2.376h2.376h2.376v7.128v7.128h-2.376h-2.376v3.564v3.563h-11.88h-11.88v-3.563v-3.564
	h-7.128h-7.129v3.564v3.563h-11.88h-11.88v-3.563v-3.564h-7.128H71.28v3.564v3.563H59.4H47.52v-3.563v-3.564h-7.129h-7.128v3.564
	v3.563h-11.88H9.504V148.501z M23.76,147.312v-2.376h-4.752h-4.752v-2.376v-2.376h7.128h7.128v2.376v2.376h2.376h2.376v-2.376
	v-2.376h-2.376h-2.376v-7.128v-7.128h2.376h2.376v2.376v2.376h4.752h4.752v-2.376v-2.376h-4.752h-4.752v-2.376v-2.376h7.128h7.129
	v2.376v2.376h2.375h2.377v7.128v7.128h-2.377H47.52v2.376v2.376h2.375h2.377v2.376v2.376h4.752h4.752v-2.376v-2.376h-4.752h-4.752
	v-2.376v-2.376H59.4h7.128v2.376v2.376h2.376h2.376v-2.376v-2.376h-2.376h-2.376v-7.128v-7.128h2.376h2.376v2.376v2.376h4.752h4.752
	v-2.376v-2.376h-4.752H71.28v-2.376v-2.376h7.128h7.128v2.376v2.376h2.376h2.376v7.128v7.128h-2.376h-2.376v2.376v2.376h2.376h2.376
	v2.376v2.376h4.752h4.752v-2.376v-2.376H95.04h-4.752v-2.376v-2.376h7.128h7.128v2.376v2.376h2.377h2.375v-2.376v-2.376h-2.375
	h-2.377v-7.128v-7.128h2.377h2.375v2.376v2.376h4.753h4.752v-2.376v-2.376h-4.752h-4.753v-2.376v-2.376h7.129h7.128v2.376v2.376
	h2.376h2.376v7.128v7.128h-2.376h-2.376v2.376v2.376h2.376h2.376v2.376v2.376h4.752h4.752v-2.376v-2.376h-4.752h-4.752v-2.376
	v-2.376h7.128h7.128v2.376v2.376h2.376h2.376v-2.376v-2.376h-2.376h-2.376v-7.128v-7.128h2.376h2.376v-2.376v-2.376h-2.376h-2.376
	v2.376v2.376h-7.128h-7.128v-2.376v-2.376h-2.376h-2.376v-7.128v-7.128h2.376h2.376v2.376v2.376h4.752h4.752v-2.376v-2.376h-4.752
	h-4.752v-2.376v-2.377h7.128h7.128v2.377v2.376h2.376h2.376v-2.376v-2.377h-2.376h-2.376V95.04v-7.128h2.376h2.376v-2.376V83.16
	h-2.376h-2.376v2.376v2.376h-7.128h-7.128v-2.376V83.16h-2.376h-2.376v-7.128v-7.128h2.376h2.376v2.376v2.376h4.752h4.752V71.28
	v-2.376h-4.752h-4.752v-2.376v-2.376h7.128h7.128v2.376v2.376h2.376h2.376v-2.376v-2.376h-2.376h-2.376v-7.128v-7.128h2.376h2.376
	V47.52v-2.376h-2.376h-2.376v2.376v2.376h-7.128h-7.128V47.52v-2.376h-2.376h-2.376v-7.129v-7.128h2.376h2.376v2.376v2.377h4.752
	h4.752v-2.377v-2.376h-4.752h-4.752v-2.376v-2.376h7.128h7.128v2.376v2.376h2.376h2.376v-2.376v-2.376h-2.376h-2.376v-7.128V11.88
	h2.376h2.376V9.504V7.128h-2.376h-2.376v2.376v2.376h-7.128h-7.128V9.504V7.128h-2.376h-2.376v2.376v2.376h2.376h2.376v7.128v7.128
	h-2.376h-2.376v2.376v2.376h-7.128h-7.129v-2.376v-2.376h-2.375h-2.377v-7.128V11.88h2.377h2.375v2.376v2.376h4.753h4.752v-2.376
	V11.88h-4.752h-4.753V9.504V7.128h-2.375h-2.377v2.376v2.376h-7.128h-7.128V9.504V7.128h-2.376h-2.376v2.376v2.376h2.376h2.376
	v7.128v7.128h-2.376h-2.376v2.376v2.376h-7.128H71.28v-2.376v-2.376h-2.376h-2.376v-7.128V11.88h2.376h2.376v2.376v2.376h4.752
	h4.752v-2.376V11.88h-4.752H71.28V9.504V7.128h-2.376h-2.376v2.376v2.376H59.4h-7.128V9.504V7.128h-2.377H47.52v2.376v2.376h2.375
	h2.377v7.128v7.128h-2.377H47.52v2.376v2.376h-7.129h-7.128v-2.376v-2.376h-2.376h-2.376v-7.128V11.88h2.376h2.376v2.376v2.376
	h4.752h4.752v-2.376V11.88h-4.752h-4.752V9.504V7.128h-2.376h-2.376v2.376v2.376h-7.128h-7.128V9.504V7.128H11.88H9.504v2.376v2.376
	h2.376h2.376v7.128v7.128H11.88H9.504v2.376v2.376h2.376h2.376v2.376v2.377h4.752h4.752v-2.377v-2.376h-4.752h-4.752v-2.376v-2.376
	h7.128h7.128v2.376v2.376h2.376h2.376v7.128v7.129h-2.376h-2.376v2.376v2.376h-7.128h-7.128V47.52v-2.376H11.88H9.504v2.376v2.376
	h2.376h2.376v7.128v7.128H11.88H9.504v2.376v2.376h2.376h2.376v2.376v2.376h4.752h4.752V71.28v-2.376h-4.752h-4.752v-2.376v-2.376
	h7.128h7.128v2.376v2.376h2.376h2.376v7.128v7.128h-2.376h-2.376v2.376v2.376h-7.128h-7.128v-2.376V83.16H11.88H9.504v2.376v2.376
	h2.376h2.376v7.128v7.128H11.88H9.504v2.377v2.376h2.376h2.376v2.376v2.376h4.752h4.752v-2.376v-2.376h-4.752h-4.752v-2.376v-2.377
	h7.128h7.128v2.377v2.376h2.376h2.376v7.128v7.128h-2.376h-2.376v2.376v2.376h-7.128h-7.128v-2.376v-2.376H11.88H9.504v2.376v2.376
	h2.376h2.376v7.128v7.128H11.88H9.504v2.376v2.376h2.376h2.376v2.376v2.376h4.752h4.752V147.312z M52.272,123.552v-2.376h-2.377
	H47.52v-7.128v-7.128h-7.129h-7.128v-2.376v-2.377h-2.376h-2.376V95.04v-7.128h2.376h2.376v-2.376V83.16h7.128h7.129v-7.128v-7.128
	h-7.129h-7.128v-2.376v-2.376h-2.376h-2.376v-7.128v-7.128h2.376h2.376V47.52v-2.376h7.128h7.129v-7.129v-7.128h2.375h2.377v-2.376
	v-2.376H59.4h7.128v2.376v2.376h2.376h2.376v7.128v7.129h7.128h7.128v-7.129v-7.128h2.376h2.376v-2.376v-2.376h7.128h7.128v2.376
	v2.376h2.377h2.375v7.128v7.129h7.129h7.128v2.376v2.376h2.376h2.376v7.128v7.128h-2.376h-2.376v2.376v2.376h-7.128h-7.129v7.128
	v7.128h7.129h7.128v2.376v2.376h2.376h2.376v7.128v7.128h-2.376h-2.376v2.377v2.376h-7.128h-7.129v7.128v7.128h-2.375h-2.377v2.376
	v2.376h-7.128h-7.128v-2.376v-2.376h-2.376h-2.376v-7.128v-7.128h-7.128H71.28v7.128v7.128h-2.376h-2.376v2.376v2.376H59.4h-7.128
	V123.552z M61.776,109.297v-2.376h-4.752h-4.752v-2.376v-2.377H59.4h7.128v2.377v2.376h2.376h2.376v-2.376v-2.377h-2.376h-2.376
	V95.04v-7.128h2.376h2.376v2.376v2.376h4.752h4.752v-2.376v-2.376h-4.752H71.28v-2.376V83.16h7.128h7.128v2.376v2.376h2.376h2.376
	v7.128v7.128h-2.376h-2.376v2.377v2.376h2.376h2.376v2.376v2.376h4.752h4.752v-2.376v-2.376H95.04h-4.752v-2.376v-2.377h7.128h7.128
	v2.377v2.376h2.377h2.375v-2.376v-2.377h-2.375h-2.377V95.04v-7.128h2.377h2.375v2.376v2.376h4.753h4.752v-2.376v-2.376h-4.752
	h-4.753v-2.376V83.16h-2.375h-2.377v2.376v2.376h-7.128h-7.128v-2.376V83.16h-2.376h-2.376v-7.128v-7.128h2.376h2.376v2.376v2.376
	h4.752h4.752V71.28v-2.376H95.04h-4.752v-2.376v-2.376h7.128h7.128v2.376v2.376h2.377h2.375v-2.376v-2.376h-2.375h-2.377v-7.128
	v-7.128h2.377h2.375v2.376v2.376h4.753h4.752v-2.376v-2.376h-4.752h-4.753V47.52v-2.376h-2.375h-2.377v2.376v2.376h-7.128h-7.128
	V47.52v-2.376h-2.376h-2.376v2.376v2.376h2.376h2.376v7.128v7.128h-2.376h-2.376v2.376v2.376h-7.128H71.28v-2.376v-2.376h-2.376
	h-2.376v-7.128v-7.128h2.376h2.376v2.376v2.376h4.752h4.752v-2.376v-2.376h-4.752H71.28V47.52v-2.376h-2.376h-2.376v2.376v2.376
	H59.4h-7.128V47.52v-2.376h-2.377H47.52v2.376v2.376h2.375h2.377v7.128v7.128h-2.377H47.52v2.376v2.376h2.375h2.377v2.376v2.376
	h4.752h4.752V71.28v-2.376h-4.752h-4.752v-2.376v-2.376H59.4h7.128v2.376v2.376h2.376h2.376v7.128v7.128h-2.376h-2.376v2.376v2.376
	H59.4h-7.128v-2.376V83.16h-2.377H47.52v2.376v2.376h2.375h2.377v7.128v7.128h-2.377H47.52v2.377v2.376h2.375h2.377v2.376v2.376
	h4.752h4.752V109.297z M42.767,90.288v-2.376h-4.752h-4.752v2.376v2.376h4.752h4.752V90.288z M42.767,52.272v-2.376h-4.752h-4.752
	v2.376v2.376h4.752h4.752V52.272z M61.776,33.263v-2.376h-4.752h-4.752v2.376v2.377h4.752h4.752V33.263z M99.792,33.263v-2.376
	H95.04h-4.752v2.376v2.377h4.752h4.752V33.263z"/>
</svg>
