<?xml version="1.0" encoding="utf-8"?>
<!-- Generator: Adobe Illustrator 16.0.0, SVG Export Plug-In . SVG Version: 6.00 Build 0)  -->
<!DOCTYPE svg PUBLIC "-//W3C//DTD SVG 1.1//EN" "http://www.w3.org/Graphics/SVG/1.1/DTD/svg11.dtd">
<svg version="1.1" id="Layer_1" xmlns="http://www.w3.org/2000/svg" xmlns:xlink="http://www.w3.org/1999/xlink" x="0px" y="0px"
	 width="152.064px" height="152.064px" viewBox="0 0 152.064 152.064" enable-background="new 0 0 152.064 152.064"
	 xml:space="preserve">
<path id="path5369" d="M11.88,147.313v-4.752h2.376h2.376v-2.376v-2.376h2.376h2.376v-2.376v-2.376h2.376h2.376v2.376v2.376h2.376
	h2.376v2.376v2.376h2.376h2.376v4.752v4.752h-2.376h-2.376v-4.752v-4.752h-2.376h-2.376v-2.376v-2.376H23.76h-2.376v2.376v2.376
	h-2.376h-2.376v4.752v4.752h-2.376H11.88V147.313z M49.895,147.313v-4.752h2.377h2.376v-2.376v-2.376h2.376H59.4v-2.376v-2.376
	h2.376h2.376v2.376v2.376h2.376h2.376v2.376v2.376h2.376h2.376v4.752v4.752H71.28h-2.376v-4.752v-4.752h-2.376h-2.376v-2.376v-2.376
	h-2.376H59.4v2.376v2.376h-2.376h-2.376v4.752v4.752h-2.376h-2.377V147.313z M87.912,147.313v-4.752h2.376h2.376v-2.376v-2.376
	h2.376h2.376v-2.376v-2.376h2.376h2.376v2.376v2.376h2.376h2.377v2.376v2.376h2.375h2.377v4.752v4.752h-2.377h-2.375v-4.752v-4.752
	h-2.377h-2.376v-2.376v-2.376h-2.376h-2.376v2.376v2.376H95.04h-2.376v4.752v4.752h-2.376h-2.376V147.313z M125.928,147.313v-4.752
	h2.376h2.376v-2.376v-2.376h2.376h2.376v-2.376v-2.376h2.376h2.376v2.376v2.376h2.376h2.376v2.376v2.376h2.376h2.376v4.752v4.752
	h-2.376h-2.376v-4.752v-4.752h-2.376h-2.376v-2.376v-2.376h-2.376h-2.376v2.376v2.376h-2.376h-2.376v4.752v4.752h-2.376h-2.376
	V147.313z M2.376,130.681v-2.376H1.187H0v-2.376v-2.377h1.188h1.188v2.377v2.376h2.376h2.376v-2.376v-2.377h2.376h2.376v-9.504
	v-9.504h2.376h2.376v-2.376v-2.376h2.376h2.376v-2.376v-2.376h2.376h2.376v2.376v2.376h2.376h2.376v2.376v2.376h2.376h2.376v9.504
	v9.504h2.376h2.376v2.377v2.376h2.376h2.376v-2.376v-2.377h2.377h2.375v-9.504v-9.504h2.377h2.376v-2.376v-2.376h2.376H59.4v-2.376
	v-2.376h2.376h2.376v2.376v2.376h2.376h2.376v2.376v2.376h2.376h2.376v9.504v9.504h2.376h2.376v2.377v2.376h2.376h2.376v-2.376
	v-2.377h2.376h2.376v-9.504v-9.504h2.376h2.376v-2.376v-2.376h2.376h2.376v-2.376v-2.376h2.376h2.376v2.376v2.376h2.376h2.377v2.376
	v2.376h2.375h2.377v9.504v9.504h2.376h2.376v2.377v2.376h2.376h2.376v-2.376v-2.377h2.376h2.376v-9.504v-9.504h2.376h2.376v-2.376
	v-2.376h2.376h2.376v-2.376v-2.376h2.376h2.376v2.376v2.376h2.376h2.376v2.376v2.376h2.376h2.376v9.504v9.504h1.188h1.188v2.377
	v2.376h-1.188h-1.188v-2.376v-2.377h-2.376h-2.376v-9.504v-9.504h-2.376h-2.376v-2.376v-2.376h-2.376h-2.376v2.376v2.376h-2.376
	h-2.376v9.504v9.504h-2.376h-2.376v2.377v2.376h-2.376h-2.376v2.376v2.376h-2.376h-2.376v-2.376v-2.376h-2.376h-2.376v-2.376v-2.377
	h-2.377h-2.375v-9.504v-9.504h-2.377h-2.376v-2.376v-2.376h-2.376h-2.376v2.376v2.376H95.04h-2.376v9.504v9.504h-2.376h-2.376v2.377
	v2.376h-2.376H83.16v2.376v2.376h-2.376h-2.376v-2.376v-2.376h-2.376h-2.376v-2.376v-2.377H71.28h-2.376v-9.504v-9.504h-2.376
	h-2.376v-2.376v-2.376h-2.376H59.4v2.376v2.376h-2.376h-2.376v9.504v9.504h-2.376h-2.377v2.377v2.376H47.52h-2.377v2.376v2.376
	h-2.376h-2.376v-2.376v-2.376h-2.376h-2.376v-2.376v-2.377h-2.376h-2.376v-9.504v-9.504h-2.376h-2.376v-2.376v-2.376H23.76h-2.376
	v2.376v2.376h-2.376h-2.376v9.504v9.504h-2.376H11.88v2.377v2.376H9.504H7.128v2.376v2.376H4.752H2.376V130.681z M2.376,92.665
	v-2.376H1.187H0v-2.376v-2.376h1.188h1.188v2.376v2.376h2.376h2.376v-2.376v-2.376h2.376h2.376v-9.504v-9.504h2.376h2.376v-2.377
	v-2.375h2.376h2.376V59.4v-2.376h2.376h2.376V59.4v2.377h2.376h2.376v2.375v2.377h2.376h2.376v9.504v9.504h2.376h2.376v2.376v2.376
	h2.376h2.376v-2.376v-2.376h2.377h2.375v-9.504v-9.504h2.377h2.376v-2.377v-2.375h2.376H59.4V59.4v-2.376h2.376h2.376V59.4v2.377
	h2.376h2.376v2.375v2.377h2.376h2.376v9.504v9.504h2.376h2.376v2.376v2.376h2.376h2.376v-2.376v-2.376h2.376h2.376v-9.504v-9.504
	h2.376h2.376v-2.377v-2.375h2.376h2.376V59.4v-2.376h2.376h2.376V59.4v2.377h2.376h2.377v2.375v2.377h2.375h2.377v9.504v9.504h2.376
	h2.376v2.376v2.376h2.376h2.376v-2.376v-2.376h2.376h2.376v-9.504v-9.504h2.376h2.376v-2.377v-2.375h2.376h2.376V59.4v-2.376h2.376
	h2.376V59.4v2.377h2.376h2.376v2.375v2.377h2.376h2.376v9.504v9.504h1.188h1.188v2.376v2.376h-1.188h-1.188v-2.376v-2.376h-2.376
	h-2.376v-9.504v-9.504h-2.376h-2.376v-2.377v-2.375h-2.376h-2.376v2.375v2.377h-2.376h-2.376v9.504v9.504h-2.376h-2.376v2.376v2.376
	h-2.376h-2.376v2.376v2.376h-2.376h-2.376v-2.376v-2.376h-2.376h-2.376v-2.376v-2.376h-2.377h-2.375v-9.504v-9.504h-2.377h-2.376
	v-2.377v-2.375h-2.376h-2.376v2.375v2.377H95.04h-2.376v9.504v9.504h-2.376h-2.376v2.376v2.376h-2.376H83.16v2.376v2.376h-2.376
	h-2.376v-2.376v-2.376h-2.376h-2.376v-2.376v-2.376H71.28h-2.376v-9.504v-9.504h-2.376h-2.376v-2.377v-2.375h-2.376H59.4v2.375
	v2.377h-2.376h-2.376v9.504v9.504h-2.376h-2.377v2.376v2.376H47.52h-2.377v2.376v2.376h-2.376h-2.376v-2.376v-2.376h-2.376h-2.376
	v-2.376v-2.376h-2.376h-2.376v-9.504v-9.504h-2.376h-2.376v-2.377v-2.375H23.76h-2.376v2.375v2.377h-2.376h-2.376v9.504v9.504
	h-2.376H11.88v2.376v2.376H9.504H7.128v2.376v2.376H4.752H2.376V92.665z M2.376,54.648v-2.376H1.187H0v-2.376V47.52h1.188h1.188
	v2.376v2.376h2.376h2.376v-2.376V47.52h2.376h2.376v-9.504v-9.504h2.376h2.376v-2.376V23.76h2.376h2.376v-2.376v-2.376h2.376h2.376
	v2.376v2.376h2.376h2.376v2.376v2.376h2.376h2.376v9.504v9.504h2.376h2.376v2.376v2.376h2.376h2.376v-2.376V47.52h2.377h2.375
	v-9.504v-9.504h2.377h2.376v-2.376V23.76h2.376H59.4v-2.376v-2.376h2.376h2.376v2.376v2.376h2.376h2.376v2.376v2.376h2.376h2.376
	v9.504v9.504h2.376h2.376v2.376v2.376h2.376h2.376v-2.376V47.52h2.376h2.376v-9.504v-9.504h2.376h2.376v-2.376V23.76h2.376h2.376
	v-2.376v-2.376h2.376h2.376v2.376v2.376h2.376h2.377v2.376v2.376h2.375h2.377v9.504v9.504h2.376h2.376v2.376v2.376h2.376h2.376
	v-2.376V47.52h2.376h2.376v-9.504v-9.504h2.376h2.376v-2.376V23.76h2.376h2.376v-2.376v-2.376h2.376h2.376v2.376v2.376h2.376h2.376
	v2.376v2.376h2.376h2.376v9.504v9.504h1.188h1.188v2.376v2.376h-1.188h-1.188v-2.376V47.52h-2.376h-2.376v-9.504v-9.504h-2.376
	h-2.376v-2.376V23.76h-2.376h-2.376v2.376v2.376h-2.376h-2.376v9.504v9.504h-2.376h-2.376v2.376v2.376h-2.376h-2.376v2.376v2.376
	h-2.376h-2.376v-2.376v-2.376h-2.376h-2.376v-2.376V47.52h-2.377h-2.375v-9.504v-9.504h-2.377h-2.376v-2.376V23.76h-2.376h-2.376
	v2.376v2.376H95.04h-2.376v9.504v9.504h-2.376h-2.376v2.376v2.376h-2.376H83.16v2.376v2.376h-2.376h-2.376v-2.376v-2.376h-2.376
	h-2.376v-2.376V47.52H71.28h-2.376v-9.504v-9.504h-2.376h-2.376v-2.376V23.76h-2.376H59.4v2.376v2.376h-2.376h-2.376v9.504v9.504
	h-2.376h-2.377v2.376v2.376H47.52h-2.377v2.376v2.376h-2.376h-2.376v-2.376v-2.376h-2.376h-2.376v-2.376V47.52h-2.376h-2.376v-9.504
	v-9.504h-2.376h-2.376v-2.376V23.76H23.76h-2.376v2.376v2.376h-2.376h-2.376v9.504v9.504h-2.376H11.88v2.376v2.376H9.504H7.128
	v2.376v2.376H4.752H2.376V54.648z M2.376,16.633v-2.377H1.187H0v-2.375V9.504h1.188h1.188v2.377v2.375h2.376h2.376v-2.375V9.504
	h2.376h2.376V4.752V0h2.376h2.376v4.752v4.752h-2.376H11.88v2.377v2.375H9.504H7.128v2.377v2.376H4.752H2.376V16.633z
	 M40.391,16.633v-2.377h-2.376h-2.376v-2.375V9.504h-2.376h-2.376V4.752V0h2.376h2.376v4.752v4.752h2.376h2.376v2.377v2.375h2.376
	h2.376v-2.375V9.504h2.377h2.375V4.752V0h2.377h2.376v4.752v4.752h-2.376h-2.377v2.377v2.375H47.52h-2.377v2.377v2.376h-2.376
	h-2.376V16.633z M78.408,16.633v-2.377h-2.376h-2.376v-2.375V9.504H71.28h-2.376V4.752V0h2.376h2.376v4.752v4.752h2.376h2.376v2.377
	v2.375h2.376h2.376v-2.375V9.504h2.376h2.376V4.752V0h2.376h2.376v4.752v4.752h-2.376h-2.376v2.377v2.375h-2.376H83.16v2.377v2.376
	h-2.376h-2.376V16.633z M116.425,16.633v-2.377h-2.376h-2.376v-2.375V9.504h-2.377h-2.375V4.752V0h2.375h2.377v4.752v4.752h2.376
	h2.376v2.377v2.375h2.376h2.376v-2.375V9.504h2.376h2.376V4.752V0h2.376h2.376v4.752v4.752h-2.376h-2.376v2.377v2.375h-2.376h-2.376
	v2.377v2.376h-2.376h-2.376V16.633z M149.688,11.881V9.504h-2.376h-2.376V4.752V0h2.376h2.376v4.752v4.752h1.188h1.188v2.377v2.375
	h-1.188h-1.188V11.881z"/>
</svg>
