<?xml version="1.0" encoding="utf-8"?>
<!-- Generator: Adobe Illustrator 16.0.0, SVG Export Plug-In . SVG Version: 6.00 Build 0)  -->
<!DOCTYPE svg PUBLIC "-//W3C//DTD SVG 1.1//EN" "http://www.w3.org/Graphics/SVG/1.1/DTD/svg11.dtd">
<svg version="1.1" id="Layer_1" xmlns="http://www.w3.org/2000/svg" xmlns:xlink="http://www.w3.org/1999/xlink" x="0px" y="0px"
	 width="152.064px" height="152.064px" viewBox="0 0 152.064 152.064" enable-background="new 0 0 152.064 152.064"
	 xml:space="preserve">
<g id="g3415" transform="matrix(0.125,0,0,0.125,244.90176,309.72546)">
	<path id="path3411" d="M-1902.185-1869.548v-608.258h19h19.016v608.258v608.258h-19.016h-19V-1869.548z M-1750.122-1869.548
		v-608.258h19.008h19.008v608.258v608.258h-19.008h-19.008V-1869.548z M-1598.06-1869.548v-608.258h19.008h19.008v608.258v608.258
		h-19.008h-19.008V-1869.548z M-1445.997-1869.548v-608.258h19.016h19v608.258v608.258h-19h-19.016V-1869.548z M-1293.927-1869.548
		v-608.258h19.008h19.008v608.258v608.258h-19.008h-19.008V-1869.548z M-1141.864-1869.548v-608.258h19h19.016v608.258v608.258
		h-19.016h-19V-1869.548z M-989.802-1869.548v-608.258h19h19.016v608.258v608.258h-19.016h-19V-1869.548z M-837.739-1869.548
		v-608.258h19.016h19v608.258v608.258h-19h-19.016V-1869.548z"/>
	<rect id="rect3413" x="-1959.216" y="-2477.806" fill="none" width="1216.523" height="1216.516"/>
</g>
</svg>
