<?xml version="1.0" encoding="utf-8"?>
<!-- Generator: Adobe Illustrator 16.0.0, SVG Export Plug-In . SVG Version: 6.00 Build 0)  -->
<!DOCTYPE svg PUBLIC "-//W3C//DTD SVG 1.1//EN" "http://www.w3.org/Graphics/SVG/1.1/DTD/svg11.dtd">
<svg version="1.1" id="Layer_1" xmlns="http://www.w3.org/2000/svg" xmlns:xlink="http://www.w3.org/1999/xlink" x="0px" y="0px"
	 width="1584px" height="1080px" viewBox="0 0 1584 1080" enable-background="new 0 0 1584 1080" xml:space="preserve">
<g transform="matrix(1 0 0 -1 0 2000)">
	<path d="M1475.333,1161.041v512.5h-85.416v85.417h85.416v85.417H108.667v-85.417h85.417v-85.417h-85.417v-512.5h85.417v-85.416
		h1195.833v85.416H1475.333z M279.5,1161.041h-85.417v85.418H279.5V1161.041z M279.5,1246.459v85.416h85.417v-85.416H279.5z
		 M279.5,1588.125h170.833v-85.417H279.5V1588.125z M279.5,1673.542v-85.417h-85.417v85.417H279.5z M621.167,1417.291h341.667
		v-85.416H621.167V1417.291z M621.167,1502.708v-85.417H450.333v85.417H621.167z M1389.917,1161.041H1304.5v85.418h85.417V1161.041z
		 M1389.917,1588.125H1304.5v85.417h85.417V1588.125z M962.833,1417.291v85.417h170.834v-85.417H962.833z M1304.5,1331.875v-85.416
		h-85.417v85.416H1304.5z M1304.5,1588.125v-85.417h-170.833v85.417H1304.5z M450.333,1417.291v-85.416h-85.417v85.416H450.333z
		 M1219.083,1417.291v-85.416h-85.416v85.416H1219.083z M23.25,1929.792h1537.5V990.209H23.25V1929.792z"/>
</g>
</svg>
