<?xml version="1.0" encoding="utf-8"?>
<!-- Generator: Adobe Illustrator 16.0.0, SVG Export Plug-In . SVG Version: 6.00 Build 0)  -->
<!DOCTYPE svg PUBLIC "-//W3C//DTD SVG 1.1//EN" "http://www.w3.org/Graphics/SVG/1.1/DTD/svg11.dtd">
<svg version="1.1" id="Layer_1" xmlns="http://www.w3.org/2000/svg" xmlns:xlink="http://www.w3.org/1999/xlink" x="0px" y="0px"
	 width="152.064px" height="152.064px" viewBox="0 0 152.064 152.064" enable-background="new 0 0 152.064 152.064"
	 xml:space="preserve">
<path id="path3396" d="M4.752,149.688v-2.377h2.376h2.376v-2.375v-2.377h2.376h2.376v-2.375v-2.377h2.376h2.376v-2.375v-2.377h2.376
	h2.377v-2.375v-2.377h2.375h2.377v-2.375v-2.377h2.376h2.376v-2.375V118.8h2.376h2.376v-2.375v-2.377h2.376h2.376v-2.375v-2.377
	h2.376h2.376v-2.375v-2.377h2.376h2.376v-2.375v-2.377h2.376h2.376v-2.375V95.04H59.4h2.376v-2.376v-2.376h2.376h2.376v-2.376
	v-2.376h2.376h2.376V83.16v-2.376h2.376h2.376v-2.376v-2.376h2.376h2.376v-2.376V71.28h2.376h2.376v-2.376v-2.376h2.377h2.375
	v-2.376v-2.376h2.377h2.377V59.4v-2.376h2.375h2.377v-2.376v-2.376h2.375h2.377v-2.376V47.52h2.375h2.377v-2.376v-2.376h2.375h2.377
	v-2.376v-2.376h2.375h2.377V35.64v-2.376h2.375h2.377v-2.376v-2.376h2.375h2.377v-2.376V23.76h2.375h2.377v-2.376v-2.376h2.375
	h2.377v-2.376v-2.376h2.375h2.377V11.88V9.504h2.375h2.377V7.128V4.752h2.375h2.377v2.376v2.376h-2.377h-2.375v2.376v2.376h-2.377
	h-2.375v2.376v2.376h-2.377h-2.375v2.376v2.376h-2.377h-2.375v2.376v2.376h-2.377h-2.375v2.376v2.376h-2.377h-2.375v2.376v2.376
	h-2.377h-2.375v2.376v2.376h-2.377h-2.375v2.376v2.376h-2.377h-2.375v2.376v2.376h-2.377h-2.375v2.376v2.376h-2.377h-2.375V59.4
	v2.376h-2.377h-2.375v2.376v2.376h-2.377h-2.377v2.376v2.376h-2.375h-2.377v2.376v2.376H83.16h-2.376v2.376v2.376h-2.376h-2.376
	v2.376v2.376h-2.376H71.28v2.376v2.376h-2.376h-2.376v2.376v2.376h-2.376h-2.376v2.377v2.375H59.4h-2.376v2.377v2.375h-2.376h-2.376
	v2.377v2.375h-2.376H47.52v2.377v2.375h-2.376h-2.376v2.377v2.375h-2.376h-2.376v2.377v2.375H35.64h-2.376v2.377v2.375h-2.376
	h-2.376v2.377v2.375h-2.377H23.76v2.377v2.375h-2.377h-2.376v2.377v2.375h-2.376h-2.376v2.377v2.375H11.88H9.504v2.377v2.375H7.128
	H4.752V149.688z M23.76,149.688v-2.377h2.375h2.377v-2.375v-2.377h2.376h2.376v-2.375v-2.377h2.376h2.376v-2.375v-2.377h2.376h2.376
	v-2.375v-2.377h2.376h2.376v-2.375v-2.377h2.376h2.376v-2.375V118.8h2.376h2.376v-2.375v-2.377H59.4h2.376v-2.375v-2.377h2.376
	h2.376v-2.375v-2.377h2.376h2.376v-2.375v-2.377h2.376h2.376v-2.375V95.04h2.376h2.376v-2.376v-2.376h2.376h2.376v-2.376v-2.376
	h2.377h2.375V83.16v-2.376h2.377h2.377v-2.376v-2.376h2.375h2.377v-2.376V71.28h2.375h2.377v-2.376v-2.376h2.375h2.377v-2.376
	v-2.376h2.375h2.377V59.4v-2.376h2.375h2.377v-2.376v-2.376h2.375h2.377v-2.376V47.52h2.375h2.377v-2.376v-2.376h2.375h2.377v-2.376
	v-2.376h2.375h2.377V35.64v-2.376h2.375h2.377v-2.376v-2.376h2.375h2.377v-2.376V23.76h2.375h2.377v2.376v2.376h-2.377h-2.375v2.376
	v2.376h-2.377h-2.375v2.376v2.376h-2.377h-2.375v2.376v2.376h-2.377h-2.375v2.376v2.376h-2.377h-2.375v2.376v2.376h-2.377h-2.375
	v2.376v2.376h-2.377h-2.375V59.4v2.376h-2.377h-2.375v2.376v2.376h-2.377h-2.375v2.376v2.376h-2.377h-2.375v2.376v2.376h-2.377
	h-2.375v2.376v2.376h-2.377h-2.375v2.376v2.376h-2.377h-2.377v2.376v2.376h-2.375h-2.377v2.376v2.376H83.16h-2.376v2.377v2.375
	h-2.376h-2.376v2.377v2.375h-2.376H71.28v2.377v2.375h-2.376h-2.376v2.377v2.375h-2.376h-2.376v2.377v2.375H59.4h-2.376v2.377v2.375
	h-2.376h-2.376v2.377v2.375h-2.376H47.52v2.377v2.375h-2.376h-2.376v2.377v2.375h-2.376h-2.376v2.377v2.375H35.64h-2.376v2.377
	v2.375h-2.376h-2.376v2.377v2.375h-2.377H23.76V149.688z M42.768,149.688v-2.377h2.376h2.376v-2.375v-2.377h2.376h2.376v-2.375
	v-2.377h2.376h2.376v-2.375v-2.377H59.4h2.376v-2.375v-2.377h2.376h2.376v-2.375v-2.377h2.376h2.376v-2.375V118.8h2.376h2.376
	v-2.375v-2.377h2.376h2.376v-2.375v-2.377h2.376h2.376v-2.375v-2.377h2.377h2.375v-2.375v-2.377h2.377h2.377v-2.375V95.04h2.375
	h2.377v-2.376v-2.376h2.375h2.377v-2.376v-2.376h2.375h2.377V83.16v-2.376h2.375h2.377v-2.376v-2.376h2.375h2.377v-2.376V71.28
	h2.375h2.377v-2.376v-2.376h2.375h2.377v-2.376v-2.376h2.375h2.377V59.4v-2.376h2.375h2.377v-2.376v-2.376h2.375h2.377v-2.376V47.52
	h2.375h2.377v-2.376v-2.376h2.375h2.377v2.376v2.376h-2.377h-2.375v2.376v2.376h-2.377h-2.375v2.376v2.376h-2.377h-2.375V59.4v2.376
	h-2.377h-2.375v2.376v2.376h-2.377h-2.375v2.376v2.376h-2.377h-2.375v2.376v2.376h-2.377h-2.375v2.376v2.376h-2.377h-2.375v2.376
	v2.376h-2.377h-2.375v2.376v2.376h-2.377h-2.375v2.376v2.376h-2.377h-2.375v2.377v2.375h-2.377h-2.375v2.377v2.375h-2.377h-2.377
	v2.377v2.375h-2.375h-2.377v2.377v2.375H83.16h-2.376v2.377v2.375h-2.376h-2.376v2.377v2.375h-2.376H71.28v2.377v2.375h-2.376
	h-2.376v2.377v2.375h-2.376h-2.376v2.377v2.375H59.4h-2.376v2.377v2.375h-2.376h-2.376v2.377v2.375h-2.376H47.52v2.377v2.375h-2.376
	h-2.376V149.688z M61.776,149.688v-2.377h2.376h2.376v-2.375v-2.377h2.376h2.376v-2.375v-2.377h2.376h2.376v-2.375v-2.377h2.376
	h2.376v-2.375v-2.377h2.376h2.376v-2.375v-2.377h2.377h2.375v-2.375V118.8h2.377h2.377v-2.375v-2.377h2.375h2.377v-2.375v-2.377
	h2.375h2.377v-2.375v-2.377h2.375h2.377v-2.375v-2.377h2.375h2.377v-2.375V95.04h2.375h2.377v-2.376v-2.376h2.375h2.377v-2.376
	v-2.376h2.375h2.377V83.16v-2.376h2.375h2.377v-2.376v-2.376h2.375h2.377v-2.376V71.28h2.375h2.377v-2.376v-2.376h2.375h2.377
	v-2.376v-2.376h2.375h2.377v2.376v2.376h-2.377h-2.375v2.376v2.376h-2.377h-2.375v2.376v2.376h-2.377h-2.375v2.376v2.376h-2.377
	h-2.375v2.376v2.376h-2.377h-2.375v2.376v2.376h-2.377h-2.375v2.376v2.376h-2.377h-2.375v2.377v2.375h-2.377h-2.375v2.377v2.375
	h-2.377h-2.375v2.377v2.375h-2.377h-2.375v2.377v2.375h-2.377h-2.375v2.377v2.375h-2.377h-2.375v2.377v2.375h-2.377h-2.377v2.377
	v2.375h-2.375h-2.377v2.377v2.375H83.16h-2.376v2.377v2.375h-2.376h-2.376v2.377v2.375h-2.376H71.28v2.377v2.375h-2.376h-2.376
	v2.377v2.375h-2.376h-2.376V149.688z M80.784,149.688v-2.377h2.376h2.376v-2.375v-2.377h2.377h2.375v-2.375v-2.377h2.377h2.377
	v-2.375v-2.377h2.375h2.377v-2.375v-2.377h2.375h2.377v-2.375v-2.377h2.375h2.377v-2.375V118.8h2.375h2.377v-2.375v-2.377h2.375
	h2.377v-2.375v-2.377h2.375h2.377v-2.375v-2.377h2.375h2.377v-2.375v-2.377h2.375h2.377v-2.375V95.04h2.375h2.377v-2.376v-2.376
	h2.375h2.377v-2.376v-2.376h2.375h2.377V83.16v-2.376h2.375h2.377v2.376v2.376h-2.377h-2.375v2.376v2.376h-2.377h-2.375v2.376v2.376
	h-2.377h-2.375v2.377v2.375h-2.377h-2.375v2.377v2.375h-2.377h-2.375v2.377v2.375h-2.377h-2.375v2.377v2.375h-2.377h-2.375v2.377
	v2.375h-2.377h-2.375v2.377v2.375h-2.377h-2.375v2.377v2.375h-2.377h-2.375v2.377v2.375h-2.377h-2.375v2.377v2.375h-2.377h-2.375
	v2.377v2.375h-2.377h-2.377v2.377v2.375h-2.375h-2.377v2.377v2.375H83.16h-2.376V149.688z M99.794,149.688v-2.377h2.375h2.377
	v-2.375v-2.377h2.375h2.377v-2.375v-2.377h2.375h2.377v-2.375v-2.377h2.375h2.377v-2.375v-2.377h2.375h2.377v-2.375v-2.377h2.375
	h2.377v-2.375V118.8h2.375h2.377v-2.375v-2.377h2.375h2.377v-2.375v-2.377h2.375h2.377v-2.375v-2.377h2.375h2.377v-2.375v-2.377
	h2.375h2.377v2.377v2.375h-2.377h-2.375v2.377v2.375h-2.377h-2.375v2.377v2.375h-2.377h-2.375v2.377v2.375h-2.377h-2.375v2.377
	v2.375h-2.377h-2.375v2.377v2.375h-2.377h-2.375v2.377v2.375h-2.377h-2.375v2.377v2.375h-2.377h-2.375v2.377v2.375h-2.377h-2.375
	v2.377v2.375h-2.377h-2.375v2.377v2.375h-2.377h-2.375V149.688z M118.802,149.688v-2.377h2.375h2.377v-2.375v-2.377h2.375h2.377
	v-2.375v-2.377h2.375h2.377v-2.375v-2.377h2.375h2.377v-2.375v-2.377h2.375h2.377v-2.375v-2.377h2.375h2.377v-2.375V118.8h2.375
	h2.377v2.377v2.375h-2.377h-2.375v2.377v2.375h-2.377h-2.375v2.377v2.375h-2.377h-2.375v2.377v2.375h-2.377h-2.375v2.377v2.375
	h-2.377h-2.375v2.377v2.375h-2.377h-2.375v2.377v2.375h-2.377h-2.375V149.688z M137.809,149.688v-2.377h2.375h2.377v-2.375v-2.377
	h2.375h2.377v-2.375v-2.377h2.375h2.377v2.377v2.375h-2.377h-2.375v2.377v2.375h-2.377h-2.375v2.377v2.375h-2.377h-2.375V149.688z
	 M0,135.432v-2.377h2.376h2.376v-2.375v-2.377h2.376h2.376v-2.375v-2.377h2.376h2.376v-2.375V118.8h2.376h2.376v-2.375v-2.377h2.376
	h2.377v-2.375v-2.377h2.375h2.377v-2.375v-2.377h2.376h2.376v-2.375v-2.377h2.376h2.376v-2.375V95.04h2.376h2.376v-2.376v-2.376
	h2.376h2.376v-2.376v-2.376h2.376h2.376V83.16v-2.376h2.376h2.376v-2.376v-2.376H59.4h2.376v-2.376V71.28h2.376h2.376v-2.376v-2.376
	h2.376h2.376v-2.376v-2.376h2.376h2.376V59.4v-2.376h2.376h2.376v-2.376v-2.376h2.376h2.376v-2.376V47.52h2.377h2.375v-2.376v-2.376
	h2.377h2.377v-2.376v-2.376h2.375h2.377V35.64v-2.376h2.375h2.377v-2.376v-2.376h2.375h2.377v-2.376V23.76h2.375h2.377v-2.376
	v-2.376h2.375h2.377v-2.376v-2.376h2.375h2.377V11.88V9.504h2.375h2.377V7.128V4.752h2.375h2.377V2.376V0h2.375h2.377v2.376v2.376
	h-2.377h-2.375v2.376v2.376h-2.377h-2.375v2.376v2.376h-2.377h-2.375v2.376v2.376h-2.377h-2.375v2.376v2.376h-2.377h-2.375v2.376
	v2.376h-2.377h-2.375v2.376v2.376h-2.377h-2.375v2.376v2.376h-2.377h-2.375v2.376v2.376h-2.377h-2.375v2.376v2.376h-2.377h-2.377
	v2.376v2.376h-2.375h-2.377v2.376v2.376H83.16h-2.376V59.4v2.376h-2.376h-2.376v2.376v2.376h-2.376H71.28v2.376v2.376h-2.376h-2.376
	v2.376v2.376h-2.376h-2.376v2.376v2.376H59.4h-2.376v2.376v2.376h-2.376h-2.376v2.376v2.376h-2.376H47.52v2.376v2.376h-2.376h-2.376
	v2.377v2.375h-2.376h-2.376v2.377v2.375H35.64h-2.376v2.377v2.375h-2.376h-2.376v2.377v2.375h-2.377H23.76v2.377v2.375h-2.377
	h-2.376v2.377v2.375h-2.376h-2.376v2.377v2.375H11.88H9.504v2.377v2.375H7.128H4.752v2.377v2.375H2.376H0V135.432z M0,116.425
	v-2.377h2.376h2.376v-2.375v-2.377h2.376h2.376v-2.375v-2.377h2.376h2.376v-2.375v-2.377h2.376h2.376v-2.375V95.04h2.376h2.377
	v-2.376v-2.376h2.375h2.377v-2.376v-2.376h2.376h2.376V83.16v-2.376h2.376h2.376v-2.376v-2.376h2.376h2.376v-2.376V71.28h2.376
	h2.376v-2.376v-2.376h2.376h2.376v-2.376v-2.376h2.376h2.376V59.4v-2.376H59.4h2.376v-2.376v-2.376h2.376h2.376v-2.376V47.52h2.376
	h2.376v-2.376v-2.376h2.376h2.376v-2.376v-2.376h2.376h2.376V35.64v-2.376h2.376h2.376v-2.376v-2.376h2.377h2.375v-2.376V23.76
	h2.377h2.377v-2.376v-2.376h2.375h2.377v-2.376v-2.376h2.375h2.377V11.88V9.504h2.375h2.377V7.128V4.752h2.375h2.377V2.376V0h2.375
	h2.377v2.376v2.376h-2.377h-2.375v2.376v2.376h-2.377h-2.375v2.376v2.376h-2.377h-2.375v2.376v2.376h-2.377h-2.375v2.376v2.376
	h-2.377h-2.375v2.376v2.376h-2.377h-2.377v2.376v2.376h-2.375h-2.377v2.376v2.376H83.16h-2.376v2.376v2.376h-2.376h-2.376v2.376
	v2.376h-2.376H71.28v2.376v2.376h-2.376h-2.376v2.376v2.376h-2.376h-2.376V59.4v2.376H59.4h-2.376v2.376v2.376h-2.376h-2.376v2.376
	v2.376h-2.376H47.52v2.376v2.376h-2.376h-2.376v2.376v2.376h-2.376h-2.376v2.376v2.376H35.64h-2.376v2.376v2.376h-2.376h-2.376
	v2.376v2.376h-2.377H23.76v2.377v2.375h-2.377h-2.376v2.377v2.375h-2.376h-2.376v2.377v2.375H11.88H9.504v2.377v2.375H7.128H4.752
	v2.377v2.375H2.376H0V116.425z M0,97.417V95.04h2.376h2.376v-2.376v-2.376h2.376h2.376v-2.376v-2.376h2.376h2.376V83.16v-2.376
	h2.376h2.376v-2.376v-2.376h2.376h2.377v-2.376V71.28h2.375h2.377v-2.376v-2.376h2.376h2.376v-2.376v-2.376h2.376h2.376V59.4v-2.376
	h2.376h2.376v-2.376v-2.376h2.376h2.376v-2.376V47.52h2.376h2.376v-2.376v-2.376h2.376h2.376v-2.376v-2.376H59.4h2.376V35.64v-2.376
	h2.376h2.376v-2.376v-2.376h2.376h2.376v-2.376V23.76h2.376h2.376v-2.376v-2.376h2.376h2.376v-2.376v-2.376h2.376h2.376V11.88V9.504
	h2.377h2.375V7.128V4.752h2.377h2.377V2.376V0h2.375h2.377v2.376v2.376h-2.377h-2.375v2.376v2.376h-2.377h-2.377v2.376v2.376h-2.375
	h-2.377v2.376v2.376H83.16h-2.376v2.376v2.376h-2.376h-2.376v2.376v2.376h-2.376H71.28v2.376v2.376h-2.376h-2.376v2.376v2.376
	h-2.376h-2.376v2.376v2.376H59.4h-2.376v2.376v2.376h-2.376h-2.376v2.376v2.376h-2.376H47.52v2.376v2.376h-2.376h-2.376V59.4v2.376
	h-2.376h-2.376v2.376v2.376H35.64h-2.376v2.376v2.376h-2.376h-2.376v2.376v2.376h-2.377H23.76v2.376v2.376h-2.377h-2.376v2.376
	v2.376h-2.376h-2.376v2.376v2.376H11.88H9.504v2.376v2.376H7.128H4.752v2.377v2.375H2.376H0V97.417z M0,78.408v-2.376h2.376h2.376
	v-2.376V71.28h2.376h2.376v-2.376v-2.376h2.376h2.376v-2.376v-2.376h2.376h2.376V59.4v-2.376h2.376h2.377v-2.376v-2.376h2.375h2.377
	v-2.376V47.52h2.376h2.376v-2.376v-2.376h2.376h2.376v-2.376v-2.376h2.376h2.376V35.64v-2.376h2.376h2.376v-2.376v-2.376h2.376
	h2.376v-2.376V23.76h2.376h2.376v-2.376v-2.376H59.4h2.376v-2.376v-2.376h2.376h2.376V11.88V9.504h2.376h2.376V7.128V4.752h2.376
	h2.376V2.376V0h2.376h2.376v2.376v2.376h-2.376h-2.376v2.376v2.376h-2.376H71.28v2.376v2.376h-2.376h-2.376v2.376v2.376h-2.376
	h-2.376v2.376v2.376H59.4h-2.376v2.376v2.376h-2.376h-2.376v2.376v2.376h-2.376H47.52v2.376v2.376h-2.376h-2.376v2.376v2.376h-2.376
	h-2.376v2.376v2.376H35.64h-2.376v2.376v2.376h-2.376h-2.376v2.376v2.376h-2.377H23.76V59.4v2.376h-2.377h-2.376v2.376v2.376h-2.376
	h-2.376v2.376v2.376H11.88H9.504v2.376v2.376H7.128H4.752v2.376v2.376H2.376H0V78.408z M0,59.4v-2.376h2.376h2.376v-2.376v-2.376
	h2.376h2.376v-2.376V47.52h2.376h2.376v-2.376v-2.376h2.376h2.376v-2.376v-2.376h2.376h2.377V35.64v-2.376h2.375h2.377v-2.376
	v-2.376h2.376h2.376v-2.376V23.76h2.376h2.376v-2.376v-2.376h2.376h2.376v-2.376v-2.376h2.376h2.376V11.88V9.504h2.376h2.376V7.128
	V4.752h2.376h2.376V2.376V0H59.4h2.376v2.376v2.376H59.4h-2.376v2.376v2.376h-2.376h-2.376v2.376v2.376h-2.376H47.52v2.376v2.376
	h-2.376h-2.376v2.376v2.376h-2.376h-2.376v2.376v2.376H35.64h-2.376v2.376v2.376h-2.376h-2.376v2.376v2.376h-2.377H23.76v2.376
	v2.376h-2.377h-2.376v2.376v2.376h-2.376h-2.376v2.376v2.376H11.88H9.504v2.376v2.376H7.128H4.752V59.4v2.376H2.376H0V59.4z
	 M0,40.392v-2.376h2.376h2.376V35.64v-2.376h2.376h2.376v-2.376v-2.376h2.376h2.376v-2.376V23.76h2.376h2.376v-2.376v-2.376h2.376
	h2.377v-2.376v-2.376h2.375h2.377V11.88V9.504h2.376h2.376V7.128V4.752h2.376h2.376V2.376V0h2.376h2.376v2.376v2.376h-2.376h-2.376
	v2.376v2.376H35.64h-2.376v2.376v2.376h-2.376h-2.376v2.376v2.376h-2.377H23.76v2.376v2.376h-2.377h-2.376v2.376v2.376h-2.376
	h-2.376v2.376v2.376H11.88H9.504v2.376v2.376H7.128H4.752v2.376v2.376H2.376H0V40.392z M0,21.384v-2.376h2.376h2.376v-2.376v-2.376
	h2.376h2.376V11.88V9.504h2.376h2.376V7.128V4.752h2.376h2.376V2.376V0h2.376h2.377v2.376v2.376h-2.377h-2.376v2.376v2.376h-2.376
	h-2.376v2.376v2.376H11.88H9.504v2.376v2.376H7.128H4.752v2.376v2.376H2.376H0V21.384z M0,2.376V0h2.376h2.376v2.376v2.376H2.376H0
	V2.376z"/>
</svg>
