<?xml version="1.0" encoding="utf-8"?>
<!-- Generator: Adobe Illustrator 16.0.0, SVG Export Plug-In . SVG Version: 6.00 Build 0)  -->
<!DOCTYPE svg PUBLIC "-//W3C//DTD SVG 1.1//EN" "http://www.w3.org/Graphics/SVG/1.1/DTD/svg11.dtd">
<svg version="1.1" id="Layer_1" xmlns="http://www.w3.org/2000/svg" xmlns:xlink="http://www.w3.org/1999/xlink" x="0px" y="0px"
	 width="152.064px" height="152.064px" viewBox="0 0 152.064 152.064" enable-background="new 0 0 152.064 152.064"
	 xml:space="preserve">
<path id="path3487" d="M4.752,147.313v-4.752h4.752h4.753v4.752v4.752H9.504H4.752V147.313z M28.512,149.688v-2.375H23.76h-4.752
	v-4.752v-4.752h4.752h4.752v4.752v4.752h4.752h4.752v2.375v2.377h-4.752h-4.752V149.688z M42.768,147.313v-4.752h4.752h4.752v4.752
	v4.752H47.52h-4.752V147.313z M66.528,149.688v-2.375h-4.752h-4.752v-4.752v-4.752h4.752h4.752v4.752v4.752h4.753h4.752v2.375v2.377
	h-4.752h-4.753V149.688z M80.785,147.313v-4.752h4.752h4.752v4.752v4.752h-4.752h-4.752V147.313z M104.545,149.688v-2.375h-4.752
	h-4.752v-4.752v-4.752h4.752h4.752v4.752v4.752h4.752h4.752v2.375v2.377h-4.752h-4.752V149.688z M118.801,147.313v-4.752h4.752
	h4.752v4.752v4.752h-4.752h-4.752V147.313z M142.561,149.688v-2.375h-4.752h-4.753v-4.752v-4.752h4.753h4.752v4.752v4.752h4.752
	h4.752v2.375v2.377h-4.752h-4.752V149.688z M0,133.055v-4.752h4.752h4.752v-4.752V118.8h4.753h4.752v4.752v4.752h-4.752H9.504v4.752
	v4.754H4.752H0V133.055z M38.016,133.055v-4.752h4.752h4.752v-4.752V118.8h4.752h4.752v4.752v4.752h-4.752H47.52v4.752v4.754h-4.752
	h-4.752V133.055z M76.033,133.055v-4.752h4.752h4.752v-4.752V118.8h4.752h4.752v4.752v4.752h-4.752h-4.752v4.752v4.754h-4.752
	h-4.752V133.055z M114.049,133.055v-4.752h4.752h4.752v-4.752V118.8h4.752h4.752v4.752v4.752h-4.752h-4.752v4.752v4.754h-4.752
	h-4.752V133.055z M23.76,128.303v-4.752h4.752h4.752v4.752v4.752h-4.752H23.76V128.303z M61.776,128.303v-4.752h4.752h4.753v4.752
	v4.752h-4.753h-4.752V128.303z M99.793,128.303v-4.752h4.752h4.752v4.752v4.752h-4.752h-4.752V128.303z M137.809,128.303v-4.752
	h4.752h4.752v4.752v4.752h-4.752h-4.752V128.303z M28.512,114.048v-4.752H23.76h-4.752v-4.752v-4.751h4.752h4.752v4.751v4.752h4.752
	h4.752v4.752v4.752h-4.752h-4.752V114.048z M66.528,114.048v-4.752h-4.752h-4.752v-4.752v-4.751h4.752h4.752v4.751v4.752h4.753
	h4.752v4.752v4.752h-4.752h-4.753V114.048z M104.545,114.048v-4.752h-4.752h-4.752v-4.752v-4.751h4.752h4.752v4.751v4.752h4.752
	h4.752v4.752v4.752h-4.752h-4.752V114.048z M142.561,114.048v-4.752h-4.752h-4.753v-4.752v-4.751h4.753h4.752v4.751v4.752h4.752
	h4.752v4.752v4.752h-4.752h-4.752V114.048z M4.752,109.296v-4.752h4.752h4.753v4.752v4.752H9.504H4.752V109.296z M42.768,109.296
	v-4.752h4.752h4.752v4.752v4.752H47.52h-4.752V109.296z M80.785,109.296v-4.752h4.752h4.752v4.752v4.752h-4.752h-4.752V109.296z
	 M118.801,109.296v-4.752h4.752h4.752v4.752v4.752h-4.752h-4.752V109.296z M0,95.041v-4.752h4.752h4.752v-4.752v-4.752h4.753h4.752
	v4.752v4.752h-4.752H9.504v4.752v4.752H4.752H0V95.041z M38.016,95.041v-4.752h4.752h4.752v-4.752v-4.752h4.752h4.752v4.752v4.752
	h-4.752H47.52v4.752v4.752h-4.752h-4.752V95.041z M76.033,95.041v-4.752h4.752h4.752v-4.752v-4.752h4.752h4.752v4.752v4.752h-4.752
	h-4.752v4.752v4.752h-4.752h-4.752V95.041z M114.049,95.041v-4.752h4.752h4.752v-4.752v-4.752h4.752h4.752v4.752v4.752h-4.752
	h-4.752v4.752v4.752h-4.752h-4.752V95.041z M23.76,90.289v-4.752h4.752h4.752v4.752v4.752h-4.752H23.76V90.289z M61.776,90.289
	v-4.752h4.752h4.753v4.752v4.752h-4.753h-4.752V90.289z M99.793,90.289v-4.752h4.752h4.752v4.752v4.752h-4.752h-4.752V90.289z
	 M137.809,90.289v-4.752h4.752h4.752v4.752v4.752h-4.752h-4.752V90.289z M28.512,76.033v-4.752H23.76h-4.752v-4.753v-4.752h4.752
	h4.752v4.752v4.753h4.752h4.752v4.752v4.752h-4.752h-4.752V76.033z M66.528,76.033v-4.752h-4.752h-4.752v-4.753v-4.752h4.752h4.752
	v4.752v4.753h4.753h4.752v4.752v4.752h-4.752h-4.753V76.033z M104.545,76.033v-4.752h-4.752h-4.752v-4.753v-4.752h4.752h4.752v4.752
	v4.753h4.752h4.752v4.752v4.752h-4.752h-4.752V76.033z M142.561,76.033v-4.752h-4.752h-4.753v-4.753v-4.752h4.753h4.752v4.752v4.753
	h4.752h4.752v4.752v4.752h-4.752h-4.752V76.033z M4.752,71.281v-4.753h4.752h4.753v4.753v4.752H9.504H4.752V71.281z M42.768,71.281
	v-4.753h4.752h4.752v4.753v4.752H47.52h-4.752V71.281z M80.785,71.281v-4.753h4.752h4.752v4.753v4.752h-4.752h-4.752V71.281z
	 M118.801,71.281v-4.753h4.752h4.752v4.753v4.752h-4.752h-4.752V71.281z M0,57.024v-4.752h4.752h4.752V47.52v-4.752h4.753h4.752
	v4.752v4.752h-4.752H9.504v4.752v4.752H4.752H0V57.024z M38.016,57.024v-4.752h4.752h4.752V47.52v-4.752h4.752h4.752v4.752v4.752
	h-4.752H47.52v4.752v4.752h-4.752h-4.752V57.024z M76.033,57.024v-4.752h4.752h4.752V47.52v-4.752h4.752h4.752v4.752v4.752h-4.752
	h-4.752v4.752v4.752h-4.752h-4.752V57.024z M114.049,57.024v-4.752h4.752h4.752V47.52v-4.752h4.752h4.752v4.752v4.752h-4.752h-4.752
	v4.752v4.752h-4.752h-4.752V57.024z M23.76,52.272V47.52h4.752h4.752v4.752v4.752h-4.752H23.76V52.272z M61.776,52.272V47.52h4.752
	h4.753v4.752v4.752h-4.753h-4.752V52.272z M99.793,52.272V47.52h4.752h4.752v4.752v4.752h-4.752h-4.752V52.272z M137.809,52.272
	V47.52h4.752h4.752v4.752v4.752h-4.752h-4.752V52.272z M28.512,38.016v-4.752H23.76h-4.752v-4.752V23.76h4.752h4.752v4.752v4.752
	h4.752h4.752v4.752v4.752h-4.752h-4.752V38.016z M66.528,38.016v-4.752h-4.752h-4.752v-4.752V23.76h4.752h4.752v4.752v4.752h4.753
	h4.752v4.752v4.752h-4.752h-4.753V38.016z M104.545,38.016v-4.752h-4.752h-4.752v-4.752V23.76h4.752h4.752v4.752v4.752h4.752h4.752
	v4.752v4.752h-4.752h-4.752V38.016z M142.561,38.016v-4.752h-4.752h-4.753v-4.752V23.76h4.753h4.752v4.752v4.752h4.752h4.752v4.752
	v4.752h-4.752h-4.752V38.016z M4.752,33.264v-4.752h4.752h4.753v4.752v4.752H9.504H4.752V33.264z M42.768,33.264v-4.752h4.752h4.752
	v4.752v4.752H47.52h-4.752V33.264z M80.785,33.264v-4.752h4.752h4.752v4.752v4.752h-4.752h-4.752V33.264z M118.801,33.264v-4.752
	h4.752h4.752v4.752v4.752h-4.752h-4.752V33.264z M0,19.009v-4.753h4.752h4.752V9.504V4.752h4.753h4.752v4.752v4.752h-4.752H9.504
	v4.753v4.752H4.752H0V19.009z M38.016,19.009v-4.753h4.752h4.752V9.504V4.752h4.752h4.752v4.752v4.752h-4.752H47.52v4.753v4.752
	h-4.752h-4.752V19.009z M76.033,19.009v-4.753h4.752h4.752V9.504V4.752h4.752h4.752v4.752v4.752h-4.752h-4.752v4.753v4.752h-4.752
	h-4.752V19.009z M114.049,19.009v-4.753h4.752h4.752V9.504V4.752h4.752h4.752v4.752v4.752h-4.752h-4.752v4.753v4.752h-4.752h-4.752
	V19.009z M23.76,14.256V9.504h4.752h4.752v4.752v4.753h-4.752H23.76V14.256z M61.776,14.256V9.504h4.752h4.753v4.752v4.753h-4.753
	h-4.752V14.256z M99.793,14.256V9.504h4.752h4.752v4.752v4.753h-4.752h-4.752V14.256z M137.809,14.256V9.504h4.752h4.752v4.752
	v4.753h-4.752h-4.752V14.256z M28.512,2.376V0h4.752h4.752v2.376v2.376h-4.752h-4.752V2.376z M66.528,2.376V0h4.753h4.752v2.376
	v2.376h-4.752h-4.753V2.376z M104.545,2.376V0h4.752h4.752v2.376v2.376h-4.752h-4.752V2.376z M142.561,2.376V0h4.752h4.752v2.376
	v2.376h-4.752h-4.752V2.376z"/>
</svg>
