<?xml version="1.0" encoding="utf-8"?>
<!-- Generator: Adobe Illustrator 16.0.0, SVG Export Plug-In . SVG Version: 6.00 Build 0)  -->
<!DOCTYPE svg PUBLIC "-//W3C//DTD SVG 1.1//EN" "http://www.w3.org/Graphics/SVG/1.1/DTD/svg11.dtd">
<svg version="1.1" id="Layer_1" xmlns="http://www.w3.org/2000/svg" xmlns:xlink="http://www.w3.org/1999/xlink" x="0px" y="0px"
	 width="152.064px" height="152.064px" viewBox="0 0 152.064 152.064" enable-background="new 0 0 152.064 152.064"
	 xml:space="preserve">
<path id="path5317" d="M16.632,148.501v-3.564h-2.376H11.88v-2.376v-2.376H9.504H7.128v-2.376v-2.376H3.564H0v-2.376v-2.376h3.564
	h3.564v-2.376v-2.376h2.376h2.376v-2.376v-2.376h2.376h2.376v-7.128v-7.128h-2.376H11.88v-2.376v-2.377H9.504H7.128v-2.375v-2.377
	H3.564H0V95.04v-2.376h3.564h3.564v-2.376v-2.376h2.376h2.376v-2.376V83.16h2.376h2.376v-7.128v-7.128h-2.376H11.88v-2.376v-2.376
	H9.504H7.128v-2.376V59.4H3.564H0v-2.376v-2.376h3.564h3.564v-2.376v-2.376h2.376h2.376v-2.376v-2.376h2.376h2.376v-7.129v-7.128
	h-2.376H11.88v-2.376v-2.376H9.504H7.128V23.76v-2.376H3.564H0v-2.376v-2.376h3.564h3.564v-2.376V11.88h2.376h2.376V9.504V7.128
	h2.376h2.376V3.563V0h2.376h2.376v3.563v3.564h2.376h2.376v2.376v2.376h2.376h2.376v2.376v2.376h7.128h7.128v-2.376V11.88h2.376
	h2.376V9.504V7.128h2.376h2.376V3.563V0h2.376H59.4v3.563v3.564h2.376h2.376v2.376v2.376h2.376h2.376v2.376v2.376h7.128h7.128
	v-2.376V11.88h2.376h2.376V9.504V7.128h2.376h2.376V3.563V0h2.377h2.375v3.563v3.564h2.377h2.375v2.376v2.376h2.377h2.375v2.376
	v2.376h7.129h7.128v-2.376V11.88h2.376h2.376V9.504V7.128h2.376h2.376V3.563V0h2.376h2.376v3.563v3.564h2.376h2.376v2.376v2.376
	h2.376h2.376v2.376v2.376h3.564h3.563v2.376v2.376h-3.563h-3.564v2.376v2.376h-2.376h-2.376v2.376v2.376h-2.376h-2.376v7.128v7.129
	h2.376h2.376v2.376v2.376h2.376h2.376v2.376v2.376h3.564h3.563v2.376V59.4h-3.563h-3.564v2.376v2.376h-2.376h-2.376v2.376v2.376
	h-2.376h-2.376v7.128v7.128h2.376h2.376v2.376v2.376h2.376h2.376v2.376v2.376h3.564h3.563v2.376v2.376h-3.563h-3.564v2.377v2.375
	h-2.376h-2.376v2.377v2.376h-2.376h-2.376v7.128v7.128h2.376h2.376v2.376v2.376h2.376h2.376v2.376v2.376h3.564h3.563v2.376v2.376
	h-3.563h-3.564v2.376v2.376h-2.376h-2.376v2.376v2.376h-2.376h-2.376v3.564v3.563h-2.376h-2.376v-3.563v-3.564h-2.376h-2.376v-2.376
	v-2.376h-2.376h-2.376v-2.376v-2.376h-7.128h-7.129v2.376v2.376h-2.375h-2.377v2.376v2.376h-2.375h-2.377v3.564v3.563h-2.375h-2.377
	v-3.563v-3.564h-2.376h-2.376v-2.376v-2.376h-2.376H83.16v-2.376v-2.376h-7.128h-7.128v2.376v2.376h-2.376h-2.376v2.376v2.376
	h-2.376H59.4v3.564v3.563h-2.376h-2.376v-3.563v-3.564h-2.376h-2.376v-2.376v-2.376H47.52h-2.376v-2.376v-2.376h-7.128h-7.128v2.376
	v2.376h-2.376h-2.376v2.376v2.376H23.76h-2.376v3.564v3.563h-2.376h-2.376V148.501z M21.384,142.561v-2.376h2.376h2.376v-2.376
	v-2.376h2.376h2.376v-2.376v-2.376h7.128h7.128v2.376v2.376h2.376h2.376v2.376v2.376h2.376h2.376v2.376v2.376h2.376H59.4v-2.376
	v-2.376h2.376h2.376v-2.376v-2.376h2.376h2.376v-2.376v-2.376h7.128h7.128v2.376v2.376h2.376h2.376v2.376v2.376h2.376h2.376v2.376
	v2.376h2.377h2.375v-2.376v-2.376h2.377h2.375v-2.376v-2.376h2.377h2.375v-2.376v-2.376h7.129h7.128v2.376v2.376h2.376h2.376v2.376
	v2.376h2.376h2.376v2.376v2.376h2.376h2.376v-2.376v-2.376h2.376h2.376v-2.376v-2.376h2.376h2.376v-2.376v-2.376h-2.376h-2.376
	v-2.376v-2.376h-2.376h-2.376v-2.376v-2.376h-2.376h-2.376v-7.128v-7.128h2.376h2.376v-2.376v-2.377h2.376h2.376v-2.375v-2.377
	h2.376h2.376V95.04v-2.376h-2.376h-2.376v-2.376v-2.376h-2.376h-2.376v-2.376V83.16h-2.376h-2.376v-7.128v-7.128h2.376h2.376v-2.376
	v-2.376h2.376h2.376v-2.376V59.4h2.376h2.376v-2.376v-2.376h-2.376h-2.376v-2.376v-2.376h-2.376h-2.376v-2.376v-2.376h-2.376h-2.376
	v-7.129v-7.128h2.376h2.376v-2.376v-2.376h2.376h2.376V23.76v-2.376h2.376h2.376v-2.376v-2.376h-2.376h-2.376v-2.376V11.88h-2.376
	h-2.376V9.504V7.128h-2.376h-2.376v2.376v2.376h-2.376h-2.376v2.376v2.376h-2.376h-2.376v2.376v2.376h-7.128h-7.129v-2.376v-2.376
	h-2.375h-2.377v-2.376V11.88h-2.375h-2.377V9.504V7.128h-2.375h-2.377v2.376v2.376h-2.376h-2.376v2.376v2.376h-2.376H83.16v2.376
	v2.376h-7.128h-7.128v-2.376v-2.376h-2.376h-2.376v-2.376V11.88h-2.376H59.4V9.504V7.128h-2.376h-2.376v2.376v2.376h-2.376h-2.376
	v2.376v2.376H47.52h-2.376v2.376v2.376h-7.128h-7.128v-2.376v-2.376h-2.376h-2.376v-2.376V11.88H23.76h-2.376V9.504V7.128h-2.376
	h-2.376v2.376v2.376h-2.376H11.88v2.376v2.376H9.504H7.128v2.376v2.376h2.376h2.376v2.376v2.376h2.376h2.376v2.376v2.376h2.376
	h2.376v7.128v7.129h-2.376h-2.376v2.376v2.376h-2.376H11.88v2.376v2.376H9.504H7.128v2.376V59.4h2.376h2.376v2.376v2.376h2.376
	h2.376v2.376v2.376h2.376h2.376v7.128v7.128h-2.376h-2.376v2.376v2.376h-2.376H11.88v2.376v2.376H9.504H7.128v2.376v2.376h2.376
	h2.376v2.377v2.375h2.376h2.376v2.377v2.376h2.376h2.376v7.128v7.128h-2.376h-2.376v2.376v2.376h-2.376H11.88v2.376v2.376H9.504
	H7.128v2.376v2.376h2.376h2.376v2.376v2.376h2.376h2.376v2.376v2.376h2.376h2.376V142.561z M16.632,133.057v-2.376h2.376h2.376
	v2.376v2.376h-2.376h-2.376V133.057z M54.648,133.057v-2.376h2.376H59.4v2.376v2.376h-2.376h-2.376V133.057z M92.664,133.057v-2.376
	h2.377h2.375v2.376v2.376h-2.375h-2.377V133.057z M130.681,133.057v-2.376h2.376h2.376v2.376v2.376h-2.376h-2.376V133.057z
	 M26.136,128.305v-2.376H23.76h-2.376v-2.376v-2.376h2.376h2.376v2.376v2.376h2.376h2.376v2.376v2.376h-2.376h-2.376V128.305z
	 M45.144,128.305v-2.376h2.376h2.376v-2.376v-2.376h2.376h2.376v-7.128v-7.128h-2.376h-2.376v-2.376v-2.377H47.52h-2.376v-2.375
	v-2.377h-7.128h-7.128v2.377v2.375h-2.376h-2.376v2.377v2.376H23.76h-2.376v-2.376v-2.377h2.376h2.376v-2.375v-2.377h2.376h2.376
	V95.04v-2.376h-2.376h-2.376v-2.376v-2.376H23.76h-2.376v-2.376V83.16h2.376h2.376v2.376v2.376h2.376h2.376v2.376v2.376h7.128h7.128
	v-2.376v-2.376h2.376h2.376v-2.376V83.16h2.376h2.376v-7.128v-7.128h-2.376h-2.376v-2.376v-2.376H47.52h-2.376v-2.376V59.4h-7.128
	h-7.128v2.376v2.376h-2.376h-2.376v2.376v2.376H23.76h-2.376v-2.376v-2.376h2.376h2.376v-2.376V59.4h2.376h2.376v-2.376v-2.376
	h-2.376h-2.376v-2.376v-2.376H23.76h-2.376v-2.376v-2.376h2.376h2.376v2.376v2.376h2.376h2.376v2.376v2.376h7.128h7.128v-2.376
	v-2.376h2.376h2.376v-2.376v-2.376h2.376h2.376v-7.129v-7.128h-2.376h-2.376v-2.376v-2.376H47.52h-2.376V23.76v-2.376h2.376h2.376
	v2.376v2.376h2.376h2.376v2.376v2.376h2.376H59.4v-2.376v-2.376h2.376h2.376V23.76v-2.376h2.376h2.376v2.376v2.376h-2.376h-2.376
	v2.376v2.376h-2.376H59.4v7.128v7.129h2.376h2.376v2.376v2.376h2.376h2.376v2.376v2.376h7.128h7.128v-2.376v-2.376h2.376h2.376
	v-2.376v-2.376h2.376h2.376v-7.129v-7.128h-2.376h-2.376v-2.376v-2.376h-2.376H83.16V23.76v-2.376h2.376h2.376v2.376v2.376h2.376
	h2.376v2.376v2.376h2.377h2.375v-2.376v-2.376h2.377h2.375V23.76v-2.376h2.377h2.375v2.376v2.376h-2.375h-2.377v2.376v2.376h-2.375
	h-2.377v7.128v7.129h2.377h2.375v2.376v2.376h2.377h2.375v2.376v2.376h7.129h7.128v-2.376v-2.376h2.376h2.376v-2.376v-2.376h2.376
	h2.376v2.376v2.376h-2.376h-2.376v2.376v2.376h-2.376h-2.376v2.376V59.4h2.376h2.376v2.376v2.376h2.376h2.376v2.376v2.376h-2.376
	h-2.376v-2.376v-2.376h-2.376h-2.376v-2.376V59.4h-7.128h-7.129v2.376v2.376h-2.375h-2.377v2.376v2.376h-2.375h-2.377v7.128v7.128
	h2.377h2.375v2.376v2.376h2.377h2.375v2.376v2.376h7.129h7.128v-2.376v-2.376h2.376h2.376v-2.376V83.16h2.376h2.376v2.376v2.376
	h-2.376h-2.376v2.376v2.376h-2.376h-2.376v2.376v2.376h2.376h2.376v2.377v2.375h2.376h2.376v2.377v2.376h-2.376h-2.376v-2.376
	v-2.377h-2.376h-2.376v-2.375v-2.377h-7.128h-7.129v2.377v2.375h-2.375h-2.377v2.377v2.376h-2.375h-2.377v7.128v7.128h2.377h2.375
	v2.376v2.376h2.377h2.375v2.376v2.376h-2.375h-2.377v-2.376v-2.376h-2.375h-2.377v-2.376v-2.376h-2.375h-2.377v2.376v2.376h-2.376
	h-2.376v2.376v2.376h-2.376H83.16v-2.376v-2.376h2.376h2.376v-2.376v-2.376h2.376h2.376v-7.128v-7.128h-2.376h-2.376v-2.376v-2.377
	h-2.376H83.16v-2.375v-2.377h-7.128h-7.128v2.377v2.375h-2.376h-2.376v2.377v2.376h-2.376H59.4v7.128v7.128h2.376h2.376v2.376v2.376
	h2.376h2.376v2.376v2.376h-2.376h-2.376v-2.376v-2.376h-2.376H59.4v-2.376v-2.376h-2.376h-2.376v2.376v2.376h-2.376h-2.376v2.376
	v2.376H47.52h-2.376V128.305z M59.4,104.545v-2.377h2.376h2.376v-2.375v-2.377h2.376h2.376V95.04v-2.376h7.128h7.128v2.376v2.376
	h2.376h2.376v2.377v2.375h2.376h2.376v2.377v2.376h2.377h2.375v-2.376v-2.377h2.377h2.375v-2.375v-2.377h2.377h2.375V95.04v-2.376
	h-2.375h-2.377v-2.376v-2.376h-2.375h-2.377v-2.376V83.16h-2.375h-2.377v-7.128v-7.128h2.377h2.375v-2.376v-2.376h2.377h2.375
	v-2.376V59.4h2.377h2.375v-2.376v-2.376h-2.375h-2.377v-2.376v-2.376h-2.375h-2.377v-2.376v-2.376h-2.375h-2.377v2.376v2.376h-2.376
	h-2.376v2.376v2.376h-2.376H83.16v2.376V59.4h-7.128h-7.128v-2.376v-2.376h-2.376h-2.376v-2.376v-2.376h-2.376H59.4v-2.376v-2.376
	h-2.376h-2.376v2.376v2.376h-2.376h-2.376v2.376v2.376H47.52h-2.376v2.376V59.4h2.376h2.376v2.376v2.376h2.376h2.376v2.376v2.376
	h2.376H59.4v7.128v7.128h-2.376h-2.376v2.376v2.376h-2.376h-2.376v2.376v2.376H47.52h-2.376v2.376v2.376h2.376h2.376v2.377v2.375
	h2.376h2.376v2.377v2.376h2.376H59.4V104.545z M54.648,95.04v-2.376h2.376H59.4v2.376v2.376h-2.376h-2.376V95.04z M92.664,95.04
	v-2.376h2.377h2.375v2.376v2.376h-2.375h-2.377V95.04z M64.152,90.288v-2.376h-2.376H59.4v-2.376V83.16h2.376h2.376v2.376v2.376
	h2.376h2.376v2.376v2.376h-2.376h-2.376V90.288z M83.16,90.288v-2.376h2.376h2.376v-2.376V83.16h2.376h2.376v2.376v2.376h-2.376
	h-2.376v2.376v2.376h-2.376H83.16V90.288z M59.4,66.528v-2.376h2.376h2.376v-2.376V59.4h2.376h2.376v2.376v2.376h-2.376h-2.376
	v2.376v2.376h-2.376H59.4V66.528z M87.912,66.528v-2.376h-2.376H83.16v-2.376V59.4h2.376h2.376v2.376v2.376h2.376h2.376v2.376v2.376
	h-2.376h-2.376V66.528z M54.648,57.024v-2.376h2.376H59.4v2.376V59.4h-2.376h-2.376V57.024z M92.664,57.024v-2.376h2.377h2.375
	v2.376V59.4h-2.375h-2.377V57.024z M121.177,128.305v-2.376h2.376h2.376v-2.376v-2.376h2.376h2.376v2.376v2.376h-2.376h-2.376v2.376
	v2.376h-2.376h-2.376V128.305z M16.632,95.04v-2.376h2.376h2.376v2.376v2.376h-2.376h-2.376V95.04z M130.681,95.04v-2.376h2.376
	h2.376v2.376v2.376h-2.376h-2.376V95.04z M16.632,57.024v-2.376h2.376h2.376v2.376V59.4h-2.376h-2.376V57.024z M130.681,57.024
	v-2.376h2.376h2.376v2.376V59.4h-2.376h-2.376V57.024z M21.384,28.512v-2.376h2.376h2.376V23.76v-2.376h2.376h2.376v2.376v2.376
	h-2.376h-2.376v2.376v2.376H23.76h-2.376V28.512z M125.929,28.512v-2.376h-2.376h-2.376V23.76v-2.376h2.376h2.376v2.376v2.376h2.376
	h2.376v2.376v2.376h-2.376h-2.376V28.512z M16.632,19.008v-2.376h2.376h2.376v2.376v2.376h-2.376h-2.376V19.008z M54.648,19.008
	v-2.376h2.376H59.4v2.376v2.376h-2.376h-2.376V19.008z M92.664,19.008v-2.376h2.377h2.375v2.376v2.376h-2.375h-2.377V19.008z
	 M130.681,19.008v-2.376h2.376h2.376v2.376v2.376h-2.376h-2.376V19.008z"/>
</svg>
