<?xml version="1.0" encoding="utf-8"?>
<!-- Generator: Adobe Illustrator 16.0.0, SVG Export Plug-In . SVG Version: 6.00 Build 0)  -->
<!DOCTYPE svg PUBLIC "-//W3C//DTD SVG 1.1//EN" "http://www.w3.org/Graphics/SVG/1.1/DTD/svg11.dtd">
<svg version="1.1" id="Layer_1" xmlns="http://www.w3.org/2000/svg" xmlns:xlink="http://www.w3.org/1999/xlink" x="0px" y="0px"
	 width="152.064px" height="152.064px" viewBox="0 0 152.064 152.064" enable-background="new 0 0 152.064 152.064"
	 xml:space="preserve">
<g id="g3351" transform="matrix(0.125,0,0,0.125,46.851664,309.58285)">
	<path id="path3347" d="M-355.808-1868.407v-608.258h19.008h19.008v608.258v608.258H-336.8h-19.008V-1868.407z M-279.776-1868.407
		v-608.258h19.008h19.008v608.258v608.258h-19.008h-19.008V-1868.407z M-203.745-1868.407v-608.258h19.008h19.008v608.258v608.258
		h-19.008h-19.008V-1868.407z M-127.71-1868.407v-608.258h19.008h19.008v608.258v608.258h-19.008h-19.008V-1868.407z
		 M-51.679-1868.407v-608.258h19.008h19.008v608.258v608.258h-19.008h-19.008V-1868.407z M24.353-1868.407v-608.258H43.36h19.008
		v608.258v608.258H43.36H24.353V-1868.407z M100.388-1868.407v-608.258h19.008h19.008v608.258v608.258h-19.008h-19.008V-1868.407z
		 M176.419-1868.407v-608.258h19.008h19.008v608.258v608.258h-19.008h-19.008V-1868.407z M252.45-1868.407v-608.258h19.008h19.008
		v608.258v608.258h-19.008H252.45V-1868.407z M328.481-1868.407v-608.258h19.008h19.016v608.258v608.258h-19.016h-19.008V-1868.407z
		 M404.521-1868.407v-608.258h19h19.016v608.258v608.258h-19.016h-19V-1868.407z M480.544-1868.407v-608.258h19.016h19v608.258
		v608.258h-19h-19.016V-1868.407z M556.575-1868.407v-608.258h19.016h19.008v608.258v608.258h-19.008h-19.016V-1868.407z
		 M632.614-1868.407v-608.258h19.008h19.008v608.258v608.258h-19.008h-19.008V-1868.407z M708.646-1868.407v-608.258h19.008h19.008
		v608.258v608.258h-19.008h-19.008V-1868.407z M784.677-1868.407v-608.258h19.008h19.008v608.258v608.258h-19.008h-19.008V-1868.407
		z"/>
	<rect id="rect3349" x="-374.815" y="-2476.665" fill="none" width="1216.516" height="1216.516"/>
</g>
</svg>
