<?xml version="1.0" encoding="utf-8"?>
<!-- Generator: Adobe Illustrator 16.0.0, SVG Export Plug-In . SVG Version: 6.00 Build 0)  -->
<!DOCTYPE svg PUBLIC "-//W3C//DTD SVG 1.1//EN" "http://www.w3.org/Graphics/SVG/1.1/DTD/svg11.dtd">
<svg version="1.1" id="Layer_1" xmlns="http://www.w3.org/2000/svg" xmlns:xlink="http://www.w3.org/1999/xlink" x="0px" y="0px"
	 width="152.064px" height="152.064px" viewBox="0 0 152.064 152.064" enable-background="new 0 0 152.064 152.064"
	 xml:space="preserve">
<path id="path3513" d="M16.632,133.057v-2.377h2.376h2.376v2.377v2.375h-2.376h-2.376V133.057z M54.648,133.057v-2.377h2.376H59.4
	v2.377v2.375h-2.376h-2.376V133.057z M92.665,133.057v-2.377h2.375h2.377v2.377v2.375H95.04h-2.375V133.057z M130.68,133.057v-2.377
	h2.376h2.376v2.377v2.375h-2.376h-2.376V133.057z M16.632,95.04v-2.375h2.376h2.376v2.375v2.377h-2.376h-2.376V95.04z M54.648,95.04
	v-2.375h2.376H59.4v2.375v2.377h-2.376h-2.376V95.04z M92.665,95.04v-2.375h2.375h2.377v2.375v2.377H95.04h-2.375V95.04z
	 M130.68,95.04v-2.375h2.376h2.376v2.375v2.377h-2.376h-2.376V95.04z M16.632,57.024v-2.376h2.376h2.376v2.376V59.4h-2.376h-2.376
	V57.024z M54.648,57.024v-2.376h2.376H59.4v2.376V59.4h-2.376h-2.376V57.024z M92.665,57.024v-2.376h2.375h2.377v2.376V59.4H95.04
	h-2.375V57.024z M130.68,57.024v-2.376h2.376h2.376v2.376V59.4h-2.376h-2.376V57.024z M16.632,19.009v-2.376h2.376h2.376v2.376
	v2.376h-2.376h-2.376V19.009z M54.648,19.009v-2.376h2.376H59.4v2.376v2.376h-2.376h-2.376V19.009z M92.665,19.009v-2.376h2.375
	h2.377v2.376v2.376H95.04h-2.375V19.009z M130.68,19.009v-2.376h2.376h2.376v2.376v2.376h-2.376h-2.376V19.009z"/>
<polyline id="rect3515" fill="none" points="152.064,0 152.064,152.065 0,152.065 0,0 "/>
</svg>
