<?xml version="1.0" encoding="utf-8"?>
<!-- Generator: Adobe Illustrator 16.0.0, SVG Export Plug-In . SVG Version: 6.00 Build 0)  -->
<!DOCTYPE svg PUBLIC "-//W3C//DTD SVG 1.1//EN" "http://www.w3.org/Graphics/SVG/1.1/DTD/svg11.dtd">
<svg version="1.1" id="Layer_1" xmlns="http://www.w3.org/2000/svg" xmlns:xlink="http://www.w3.org/1999/xlink" x="0px" y="0px"
	 width="152.064px" height="152.064px" viewBox="0 0 152.064 152.064" enable-background="new 0 0 152.064 152.064"
	 xml:space="preserve">
<g id="g3686" transform="matrix(0.125,0,0,0.125,488.43261,499.34275)">
	<path id="path3680" d="M-3850.439-2816.236v-19.016h19.008h19.008v19.016v19h-19.008h-19.008V-2816.236z M-3698.377-2816.236
		v-19.016h-19.008h-19.008v-19v-19.016h-19.008h-19.008v-19v-19.016h-19.008h-19.008v-19.016v-19h-19.008h-19.008v19v19.016h-19.008
		h-19.008v19.016v19h-9.5h-9.508v-19v-19.016h9.508h9.5v-19.016v-19h19.008h19.008v-19.016v-19h19.008h19.008v19v19.016h19.008
		h19.008v19v19.016h19.008h19.008v19.016v19h19.008h19.008v19.016v19h19.016h19v-19v-19.016h19.016h19.008v-19v-19.016h19.008
		h19.008v-19.016v-19h19.008h19.008v-19.016v-19h19.008h19.008v19v19.016h19.008h19.008v19v19.016h19.008h19.008v19.016v19h19.008
		h19.008v19.016v19h19.008h19.008v-19v-19.016h19.008h19.008v-19v-19.016h19.008h19.008v-19.016v-19h19.008h19.008v-19.016v-19
		h19.008h19.016v19v19.016h19h19.016v19v19.016h19h19.016v19.016v19h19.008h19.008v19.016v19h19.008h19.008v-19v-19.016h19h19.016
		v-19v-19.016h19h19.016v-19.016v-19h19h19.016v-19.016v-19h19h19.016v19v19.016h19h19.016v19v19.016h19h19.016v19.016v19h19h19.016
		v19.016v19h19h19.016v-19v-19.016h19h19.016v-19v-19.016h9.5h9.516v19.016v19h-9.516h-9.5v19.016v19h-19.016h-19v19.016v19h-19.016
		h-19v-19v-19.016h-19.016h-19v-19v-19.016h-19.016h-19v-19v-19.016h-19.016h-19v-19.016v-19h-19.016h-19v19v19.016h-19.016h-19
		v19.016v19h-19.016h-19v19.016v19h-19.016h-19v19.016v19h-19.008h-19.008v-19v-19.016h-19.008h-19.008v-19v-19.016h-19.016h-19v-19
		v-19.016h-19.016h-19v-19.016v-19h-19.016h-19.008v19v19.016h-19.008h-19.008v19.016v19h-19.008h-19.008v19.016v19h-19.008h-19.008
		v19.016v19h-19.008h-19.008v-19v-19.016h-19.008h-19.008v-19v-19.016h-19.008h-19.008v-19v-19.016h-19.008h-19.008v-19.016v-19
		h-19.008h-19.008v19v19.016h-19.008h-19.008v19.016v19h-19.008h-19.008v19.016v19h-19.008h-19.016v19.016v19h-19h-19.016V-2816.236
		z M-3546.307-2816.236v-19.016h19.008h19.008v19.016v19h-19.008h-19.008V-2816.236z M-3242.182-2816.236v-19.016h19.008h19.016
		v19.016v19h-19.016h-19.008V-2816.236z M-2938.049-2816.236v-19.016h19h19.016v19.016v19h-19.016h-19V-2816.236z
		 M-3698.377-2968.314v-19h19.016h19v19v19.016h-19h-19.016V-2968.314z M-3394.244-2968.314v-19h19.008h19.008v19v19.016h-19.008
		h-19.008V-2968.314z M-3090.111-2968.314v-19h19.008h19.008v19v19.016h-19.008h-19.008V-2968.314z M-2785.986-2968.314v-19h19
		h19.016v19v19.016h-19.016h-19V-2968.314z M-3907.463-3044.345v-19h9.508h9.5v19v19.016h-9.5h-9.508V-3044.345z
		 M-3850.439-3044.345v-19h19.008h19.008v19v19.016h-19.008h-19.008V-3044.345z M-3774.408-3044.345v-19h19.008h19.008v19v19.016
		h-19.008h-19.008V-3044.345z M-3698.377-3044.345v-19h19.016h19v19v19.016h-19h-19.016V-3044.345z M-3622.338-3044.345v-19h19.008
		h19.008v19v19.016h-19.008h-19.008V-3044.345z M-3546.307-3044.345v-19h19.008h19.008v19v19.016h-19.008h-19.008V-3044.345z
		 M-3470.275-3044.345v-19h19.008h19.008v19v19.016h-19.008h-19.008V-3044.345z M-3394.244-3044.345v-19h19.008h19.008v19v19.016
		h-19.008h-19.008V-3044.345z M-3318.213-3044.345v-19h19.008h19.008v19v19.016h-19.008h-19.008V-3044.345z M-3242.182-3044.345v-19
		h19.008h19.016v19v19.016h-19.016h-19.008V-3044.345z M-3166.143-3044.345v-19h19h19.016v19v19.016h-19.016h-19V-3044.345z
		 M-3090.111-3044.345v-19h19.008h19.008v19v19.016h-19.008h-19.008V-3044.345z M-3014.08-3044.345v-19h19h19.016v19v19.016h-19.016
		h-19V-3044.345z M-2938.049-3044.345v-19h19h19.016v19v19.016h-19.016h-19V-3044.345z M-2862.018-3044.345v-19h19h19.016v19v19.016
		h-19.016h-19V-3044.345z M-2785.986-3044.345v-19h19h19.016v19v19.016h-19.016h-19V-3044.345z M-2709.955-3044.345v-19h9.5h9.516
		v19v19.016h-9.516h-9.5V-3044.345z M-3850.439-3120.377v-19h19.008h19.008v19v19.016h-19.008h-19.008V-3120.377z
		 M-3698.377-3120.377v-19h-19.008h-19.008v-19.016v-19h-19.008h-19.008v-19.016v-19h-19.008h-19.008v-19.008v-19.008h-19.008
		h-19.008v19.008v19.008h-19.008h-19.008v19v19.016h-9.5h-9.508v-19.016v-19h9.508h9.5v-19.008v-19.008h19.008h19.008v-19.008
		v-19.008h19.008h19.008v19.008v19.008h19.008h19.008v19.008v19.008h19.008h19.008v19v19.016h19.008h19.008v19v19.016h19.016h19
		v-19.016v-19h19.016h19.008v-19.016v-19h19.008h19.008v-19.008v-19.008h19.008h19.008v-19.008v-19.008h19.008h19.008v19.008v19.008
		h19.008h19.008v19.008v19.008h19.008h19.008v19v19.016h19.008h19.008v19v19.016h19.008h19.008v-19.016v-19h19.008h19.008v-19.016
		v-19h19.008h19.008v-19.008v-19.008h19.008h19.008v-19.008v-19.008h19.008h19.016v19.008v19.008h19h19.016v19.008v19.008h19h19.016
		v19v19.016h19.008h19.008v19v19.016h19.008h19.008v-19.016v-19h19h19.016v-19.016v-19h19h19.016v-19.008v-19.008h19h19.016v-19.008
		v-19.008h19h19.016v19.008v19.008h19h19.016v19.008v19.008h19h19.016v19v19.016h19h19.016v19v19.016h19h19.016v-19.016v-19h19
		h19.016v-19.016v-19h9.5h9.516v19v19.016h-9.516h-9.5v19v19.016h-19.016h-19v19v19.016h-19.016h-19v-19.016v-19h-19.016h-19
		v-19.016v-19h-19.016h-19v-19.016v-19h-19.016h-19v-19.008v-19.008h-19.016h-19v19.008v19.008h-19.016h-19v19v19.016h-19.016h-19
		v19v19.016h-19.016h-19v19v19.016h-19.008h-19.008v-19.016v-19h-19.008h-19.008v-19.016v-19h-19.016h-19v-19.016v-19h-19.016h-19
		v-19.008v-19.008h-19.016h-19.008v19.008v19.008h-19.008h-19.008v19v19.016h-19.008h-19.008v19v19.016h-19.008h-19.008v19v19.016
		h-19.008h-19.008v-19.016v-19h-19.008h-19.008v-19.016v-19h-19.008h-19.008v-19.016v-19h-19.008h-19.008v-19.008v-19.008h-19.008
		h-19.008v19.008v19.008h-19.008h-19.008v19v19.016h-19.008h-19.008v19v19.016h-19.008h-19.016v19v19.016h-19h-19.016V-3120.377z
		 M-3546.307-3120.377v-19h19.008h19.008v19v19.016h-19.008h-19.008V-3120.377z M-3242.182-3120.377v-19h19.008h19.016v19v19.016
		h-19.016h-19.008V-3120.377z M-2938.049-3120.377v-19h19h19.016v19v19.016h-19.016h-19V-3120.377z M-3698.377-3272.431v-19.008
		h19.016h19v19.008v19.008h-19h-19.016V-3272.431z M-3394.244-3272.431v-19.008h19.008h19.008v19.008v19.008h-19.008h-19.008
		V-3272.431z M-3090.111-3272.431v-19.008h19.008h19.008v19.008v19.008h-19.008h-19.008V-3272.431z M-2785.986-3272.431v-19.008h19
		h19.016v19.008v19.008h-19.016h-19V-3272.431z M-3907.463-3348.463v-19.008h9.508h9.5v19.008v19.008h-9.5h-9.508V-3348.463z
		 M-3850.439-3348.463v-19.008h19.008h19.008v19.008v19.008h-19.008h-19.008V-3348.463z M-3774.408-3348.463v-19.008h19.008h19.008
		v19.008v19.008h-19.008h-19.008V-3348.463z M-3698.377-3348.463v-19.008h19.016h19v19.008v19.008h-19h-19.016V-3348.463z
		 M-3622.338-3348.463v-19.008h19.008h19.008v19.008v19.008h-19.008h-19.008V-3348.463z M-3546.307-3348.463v-19.008h19.008h19.008
		v19.008v19.008h-19.008h-19.008V-3348.463z M-3470.275-3348.463v-19.008h19.008h19.008v19.008v19.008h-19.008h-19.008V-3348.463z
		 M-3394.244-3348.463v-19.008h19.008h19.008v19.008v19.008h-19.008h-19.008V-3348.463z M-3318.213-3348.463v-19.008h19.008h19.008
		v19.008v19.008h-19.008h-19.008V-3348.463z M-3242.182-3348.463v-19.008h19.008h19.016v19.008v19.008h-19.016h-19.008V-3348.463z
		 M-3166.143-3348.463v-19.008h19h19.016v19.008v19.008h-19.016h-19V-3348.463z M-3090.111-3348.463v-19.008h19.008h19.008v19.008
		v19.008h-19.008h-19.008V-3348.463z M-3014.08-3348.463v-19.008h19h19.016v19.008v19.008h-19.016h-19V-3348.463z
		 M-2938.049-3348.463v-19.008h19h19.016v19.008v19.008h-19.016h-19V-3348.463z M-2862.018-3348.463v-19.008h19h19.016v19.008
		v19.008h-19.016h-19V-3348.463z M-2785.986-3348.463v-19.008h19h19.016v19.008v19.008h-19.016h-19V-3348.463z M-2709.955-3348.463
		v-19.008h9.5h9.516v19.008v19.008h-9.516h-9.5V-3348.463z M-3850.439-3424.502v-19.008h19.008h19.008v19.008v19.008h-19.008
		h-19.008V-3424.502z M-3698.377-3424.502v-19.008h-19.008h-19.008v-19.008v-19.008h-19.008h-19.008v-19.008v-19.008h-19.008
		h-19.008v-19.008v-19.008h-19.008h-19.008v19.008v19.008h-19.008h-19.008v19.008v19.008h-9.5h-9.508v-19.008v-19.008h9.508h9.5
		v-19.008v-19.008h19.008h19.008v-19.008v-19.008h19.008h19.008v19.008v19.008h19.008h19.008v19.008v19.008h19.008h19.008v19.008
		v19.008h19.008h19.008v19.008v19.008h19.016h19v-19.008v-19.008h19.016h19.008v-19.008v-19.008h19.008h19.008v-19.008v-19.008
		h19.008h19.008v-19.008v-19.008h19.008h19.008v19.008v19.008h19.008h19.008v19.008v19.008h19.008h19.008v19.008v19.008h19.008
		h19.008v19.008v19.008h19.008h19.008v-19.008v-19.008h19.008h19.008v-19.008v-19.008h19.008h19.008v-19.008v-19.008h19.008h19.008
		v-19.008v-19.008h19.008h19.016v19.008v19.008h19h19.016v19.008v19.008h19h19.016v19.008v19.008h19.008h19.008v19.008v19.008
		h19.008h19.008v-19.008v-19.008h19h19.016v-19.008v-19.008h19h19.016v-19.008v-19.008h19h19.016v-19.008v-19.008h19h19.016v19.008
		v19.008h19h19.016v19.008v19.008h19h19.016v19.008v19.008h19h19.016v19.008v19.008h19h19.016v-19.008v-19.008h19h19.016v-19.008
		v-19.008h9.5h9.516v19.008v19.008h-9.516h-9.5v19.008v19.008h-19.016h-19v19.008v19.008h-19.016h-19v-19.008v-19.008h-19.016h-19
		v-19.008v-19.008h-19.016h-19v-19.008v-19.008h-19.016h-19v-19.008v-19.008h-19.016h-19v19.008v19.008h-19.016h-19v19.008v19.008
		h-19.016h-19v19.008v19.008h-19.016h-19v19.008v19.008h-19.008h-19.008v-19.008v-19.008h-19.008h-19.008v-19.008v-19.008h-19.016
		h-19v-19.008v-19.008h-19.016h-19v-19.008v-19.008h-19.016h-19.008v19.008v19.008h-19.008h-19.008v19.008v19.008h-19.008h-19.008
		v19.008v19.008h-19.008h-19.008v19.008v19.008h-19.008h-19.008v-19.008v-19.008h-19.008h-19.008v-19.008v-19.008h-19.008h-19.008
		v-19.008v-19.008h-19.008h-19.008v-19.008v-19.008h-19.008h-19.008v19.008v19.008h-19.008h-19.008v19.008v19.008h-19.008h-19.008
		v19.008v19.008h-19.008h-19.016v19.008v19.008h-19h-19.016V-3424.502z M-3546.307-3424.502v-19.008h19.008h19.008v19.008v19.008
		h-19.008h-19.008V-3424.502z M-3242.182-3424.502v-19.008h19.008h19.016v19.008v19.008h-19.016h-19.008V-3424.502z
		 M-2938.049-3424.502v-19.008h19h19.016v19.008v19.008h-19.016h-19V-3424.502z M-3698.377-3576.564v-19.008h19.016h19v19.008
		v19.008h-19h-19.016V-3576.564z M-3394.244-3576.564v-19.008h19.008h19.008v19.008v19.008h-19.008h-19.008V-3576.564z
		 M-3090.111-3576.564v-19.008h19.008h19.008v19.008v19.008h-19.008h-19.008V-3576.564z M-2785.986-3576.564v-19.008h19h19.016
		v19.008v19.008h-19.016h-19V-3576.564z M-3907.463-3652.595v-19.008h9.508h9.5v19.008v19.008h-9.5h-9.508V-3652.595z
		 M-3850.439-3652.595v-19.008h19.008h19.008v19.008v19.008h-19.008h-19.008V-3652.595z M-3774.408-3652.595v-19.008h19.008h19.008
		v19.008v19.008h-19.008h-19.008V-3652.595z M-3698.377-3652.595v-19.008h19.016h19v19.008v19.008h-19h-19.016V-3652.595z
		 M-3622.338-3652.595v-19.008h19.008h19.008v19.008v19.008h-19.008h-19.008V-3652.595z M-3546.307-3652.595v-19.008h19.008h19.008
		v19.008v19.008h-19.008h-19.008V-3652.595z M-3470.275-3652.595v-19.008h19.008h19.008v19.008v19.008h-19.008h-19.008V-3652.595z
		 M-3394.244-3652.595v-19.008h19.008h19.008v19.008v19.008h-19.008h-19.008V-3652.595z M-3318.213-3652.595v-19.008h19.008h19.008
		v19.008v19.008h-19.008h-19.008V-3652.595z M-3242.182-3652.595v-19.008h19.008h19.016v19.008v19.008h-19.016h-19.008V-3652.595z
		 M-3166.143-3652.595v-19.008h19h19.016v19.008v19.008h-19.016h-19V-3652.595z M-3090.111-3652.595v-19.008h19.008h19.008v19.008
		v19.008h-19.008h-19.008V-3652.595z M-3014.08-3652.595v-19.008h19h19.016v19.008v19.008h-19.016h-19V-3652.595z
		 M-2938.049-3652.595v-19.008h19h19.016v19.008v19.008h-19.016h-19V-3652.595z M-2862.018-3652.595v-19.008h19h19.016v19.008
		v19.008h-19.016h-19V-3652.595z M-2785.986-3652.595v-19.008h19h19.016v19.008v19.008h-19.016h-19V-3652.595z M-2709.955-3652.595
		v-19.008h9.5h9.516v19.008v19.008h-9.516h-9.5V-3652.595z M-3850.439-3728.627v-19.008h19.008h19.008v19.008v19.008h-19.008
		h-19.008V-3728.627z M-3698.377-3728.627v-19.008h-19.008h-19.008v-19.008v-19.008h-19.008h-19.008v-19.008v-19.008h-19.008
		h-19.008v-19.008v-19.008h-19.008h-19.008v19.008v19.008h-19.008h-19.008v19.008v19.008h-9.5h-9.508v-19.008v-19.008h9.508h9.5
		v-19.008v-19.008h19.008h19.008v-19.008v-19.008h19.008h19.008v19.008v19.008h19.008h19.008v19.008v19.008h19.008h19.008v19.008
		v19.008h19.008h19.008v19.008v19.008h19.016h19v-19.008v-19.008h19.016h19.008v-19.008v-19.008h19.008h19.008v-19.008v-19.008
		h19.008h19.008v-19.008v-19.008h19.008h19.008v19.008v19.008h19.008h19.008v19.008v19.008h19.008h19.008v19.008v19.008h19.008
		h19.008v19.008v19.008h19.008h19.008v-19.008v-19.008h19.008h19.008v-19.008v-19.008h19.008h19.008v-19.008v-19.008h19.008h19.008
		v-19.008v-19.008h19.008h19.016v19.008v19.008h19h19.016v19.008v19.008h19h19.016v19.008v19.008h19.008h19.008v19.008v19.008
		h19.008h19.008v-19.008v-19.008h19h19.016v-19.008v-19.008h19h19.016v-19.008v-19.008h19h19.016v-19.008v-19.008h19h19.016v19.008
		v19.008h19h19.016v19.008v19.008h19h19.016v19.008v19.008h19h19.016v19.008v19.008h19h19.016v-19.008v-19.008h19h19.016v-19.008
		v-19.008h9.5h9.516v19.008v19.008h-9.516h-9.5v19.008v19.008h-19.016h-19v19.008v19.008h-19.016h-19v-19.008v-19.008h-19.016h-19
		v-19.008v-19.008h-19.016h-19v-19.008v-19.008h-19.016h-19v-19.008v-19.008h-19.016h-19v19.008v19.008h-19.016h-19v19.008v19.008
		h-19.016h-19v19.008v19.008h-19.016h-19v19.008v19.008h-19.008h-19.008v-19.008v-19.008h-19.008h-19.008v-19.008v-19.008h-19.016
		h-19v-19.008v-19.008h-19.016h-19v-19.008v-19.008h-19.016h-19.008v19.008v19.008h-19.008h-19.008v19.008v19.008h-19.008h-19.008
		v19.008v19.008h-19.008h-19.008v19.008v19.008h-19.008h-19.008v-19.008v-19.008h-19.008h-19.008v-19.008v-19.008h-19.008h-19.008
		v-19.008v-19.008h-19.008h-19.008v-19.008v-19.008h-19.008h-19.008v19.008v19.008h-19.008h-19.008v19.008v19.008h-19.008h-19.008
		v19.008v19.008h-19.008h-19.016v19.008v19.008h-19h-19.016V-3728.627z M-3546.307-3728.627v-19.008h19.008h19.008v19.008v19.008
		h-19.008h-19.008V-3728.627z M-3242.182-3728.627v-19.008h19.008h19.016v19.008v19.008h-19.016h-19.008V-3728.627z
		 M-2938.049-3728.627v-19.008h19h19.016v19.008v19.008h-19.016h-19V-3728.627z M-3698.377-3880.689v-19.008h19.016h19v19.008
		v19.008h-19h-19.016V-3880.689z M-3394.244-3880.689v-19.008h19.008h19.008v19.008v19.008h-19.008h-19.008V-3880.689z
		 M-3090.111-3880.689v-19.008h19.008h19.008v19.008v19.008h-19.008h-19.008V-3880.689z M-2785.986-3880.689v-19.008h19h19.016
		v19.008v19.008h-19.016h-19V-3880.689z M-3907.463-3956.728v-19.008h9.508h9.5v19.008v19.008h-9.5h-9.508V-3956.728z
		 M-3850.439-3956.728v-19.008h19.008h19.008v19.008v19.008h-19.008h-19.008V-3956.728z M-3774.408-3956.728v-19.008h19.008h19.008
		v19.008v19.008h-19.008h-19.008V-3956.728z M-3698.377-3956.728v-19.008h19.016h19v19.008v19.008h-19h-19.016V-3956.728z
		 M-3622.338-3956.728v-19.008h19.008h19.008v19.008v19.008h-19.008h-19.008V-3956.728z M-3546.307-3956.728v-19.008h19.008h19.008
		v19.008v19.008h-19.008h-19.008V-3956.728z M-3470.275-3956.728v-19.008h19.008h19.008v19.008v19.008h-19.008h-19.008V-3956.728z
		 M-3394.244-3956.728v-19.008h19.008h19.008v19.008v19.008h-19.008h-19.008V-3956.728z M-3318.213-3956.728v-19.008h19.008h19.008
		v19.008v19.008h-19.008h-19.008V-3956.728z M-3242.182-3956.728v-19.008h19.008h19.016v19.008v19.008h-19.016h-19.008V-3956.728z
		 M-3166.143-3956.728v-19.008h19h19.016v19.008v19.008h-19.016h-19V-3956.728z M-3090.111-3956.728v-19.008h19.008h19.008v19.008
		v19.008h-19.008h-19.008V-3956.728z M-3014.08-3956.728v-19.008h19h19.016v19.008v19.008h-19.016h-19V-3956.728z
		 M-2938.049-3956.728v-19.008h19h19.016v19.008v19.008h-19.016h-19V-3956.728z M-2862.018-3956.728v-19.008h19h19.016v19.008
		v19.008h-19.016h-19V-3956.728z M-2785.986-3956.728v-19.008h19h19.016v19.008v19.008h-19.016h-19V-3956.728z M-2709.955-3956.728
		v-19.008h9.5h9.516v19.008v19.008h-9.516h-9.5V-3956.728z"/>
	<rect id="rect3684" x="-3907.463" y="-3994.744" fill="none" width="1216.523" height="1216.523"/>
</g>
</svg>
