<?xml version="1.0" encoding="utf-8"?>
<!-- Generator: Adobe Illustrator 16.0.0, SVG Export Plug-In . SVG Version: 6.00 Build 0)  -->
<!DOCTYPE svg PUBLIC "-//W3C//DTD SVG 1.1//EN" "http://www.w3.org/Graphics/SVG/1.1/DTD/svg11.dtd">
<svg version="1.1" id="Layer_1" xmlns="http://www.w3.org/2000/svg" xmlns:xlink="http://www.w3.org/1999/xlink" x="0px" y="0px"
	 width="152.064px" height="152.064px" viewBox="0 0 152.064 152.064" enable-background="new 0 0 152.064 152.064"
	 xml:space="preserve">
<g id="g3379" transform="matrix(0,0.125,-0.125,0,276.9716,356.8075)">
	<path id="path3381" d="M-2835.454,1607.513V999.251h19.008h19.008v608.262v608.262h-19.008h-19.008V1607.513z M-2759.423,1607.513
		V999.251h19.008h19.008v608.262v608.262h-19.008h-19.008V1607.513z M-2683.392,1607.513V999.251h19.008h19.008v608.262v608.262
		h-19.008h-19.008V1607.513z M-2607.36,1607.513V999.251h19.012h19.008v608.262v608.262h-19.008h-19.012V1607.513z
		 M-2531.325,1607.513V999.251h19.008h19.008v608.262v608.262h-19.008h-19.008V1607.513z M-2455.294,1607.513V999.251h19.008h19.008
		v608.262v608.262h-19.008h-19.008V1607.513z M-2379.263,1607.513V999.251h19.012h19.008v608.262v608.262h-19.008h-19.012V1607.513z
		 M-2303.228,1607.513V999.251h19.008h19.008v608.262v608.262h-19.008h-19.008V1607.513z M-2227.196,1607.513V999.251h19.008h19.008
		v608.262v608.262h-19.008h-19.008V1607.513z M-2151.165,1607.513V999.251h19.008h19.008v608.262v608.262h-19.008h-19.008V1607.513z
		 M-2075.126,1607.513V999.251h19h19.016v608.262v608.262h-19.016h-19V1607.513z M-1999.095,1607.513V999.251h19h19.016v608.262
		v608.262h-19.016h-19V1607.513z M-1923.063,1607.513V999.251h19h19.016v608.262v608.262h-19.016h-19V1607.513z M-1847.032,1607.513
		V999.251h19h19.016v608.262v608.262h-19.016h-19V1607.513z M-1771.001,1607.513V999.251h19h19.016v608.262v608.262h-19.016h-19
		V1607.513z M-1694.97,1607.513V999.251h19h19.016v608.262v608.262h-19.016h-19V1607.513z"/>
	
		<rect id="rect3383" x="-2854.47" y="999.259" transform="matrix(2.578893e-06 1 -1 2.578893e-06 -638.6896 3853.7166)" fill="none" width="1216.523" height="1216.508"/>
</g>
</svg>
