<?xml version="1.0" encoding="utf-8"?>
<!-- Generator: Adobe Illustrator 16.0.0, SVG Export Plug-In . SVG Version: 6.00 Build 0)  -->
<!DOCTYPE svg PUBLIC "-//W3C//DTD SVG 1.1//EN" "http://www.w3.org/Graphics/SVG/1.1/DTD/svg11.dtd">
<svg version="1.1" id="Layer_1" xmlns="http://www.w3.org/2000/svg" xmlns:xlink="http://www.w3.org/1999/xlink" x="0px" y="0px"
	 width="152.064px" height="152.064px" viewBox="0 0 152.064 152.064" enable-background="new 0 0 152.064 152.064"
	 xml:space="preserve">
<path id="path5343" d="M0,147.312v-4.752h5.94h5.939v-2.376v-2.376h2.376h2.376v-4.752v-4.752H11.88H7.128v-2.376v-2.376H4.752
	H2.376v-2.376v-2.376H1.188H0v-7.128v-7.128h5.94h5.939v-2.377v-2.375h2.376h2.376V95.04v-4.752H11.88H7.128v-2.376v-2.376H4.752
	H2.376V83.16v-2.376H1.188H0v-7.128v-7.128h5.94h5.939v-2.376v-2.376h2.376h2.376v-4.752v-4.752H11.88H7.128v-2.376V47.52H4.752
	H2.376v-2.376v-2.376H1.188H0V35.64v-7.129h5.94h5.939v-2.376V23.76h2.376h2.376v-4.752v-4.752H11.88H7.128V11.88V9.504H4.752H2.376
	V7.128V4.752H1.188H0V2.376V0h1.188h1.188v2.376v2.376h2.376h2.376v2.376v2.376h11.88h11.881V7.128V4.752h2.376h2.376V2.376V0h2.376
	h2.376v2.376v2.376h2.376h2.376v2.376v2.376h11.88h11.88V7.128V4.752h2.376h2.376V2.376V0h2.376h2.376v2.376v2.376h2.376h2.376
	v2.376v2.376h11.881h11.88V7.128V4.752h2.376h2.376V2.376V0h2.376h2.376v2.376v2.376h2.376h2.376v2.376v2.376h11.88h11.881V7.128
	V4.752h2.375h2.377V2.376V0h1.188h1.188v2.376v2.376h-1.188h-1.188v2.376v2.376h-2.377h-2.375v2.376v2.376h-4.753h-4.752v4.752
	v4.752h2.376h2.376v2.376v2.376h5.94h5.939v7.129v7.128h-1.188h-1.188v2.376v2.376h-2.377h-2.375v2.376v2.376h-4.753h-4.752v4.752
	v4.752h2.376h2.376v2.376v2.376h5.94h5.939v7.128v7.128h-1.188h-1.188v2.376v2.376h-2.377h-2.375v2.376v2.376h-4.753h-4.752v4.752
	v4.753h2.376h2.376v2.375v2.377h5.94h5.939v7.128v7.128h-1.188h-1.188v2.376v2.376h-2.377h-2.375v2.376v2.376h-4.753h-4.752v4.752
	v4.752h2.376h2.376v2.376v2.376h5.94h5.939v4.752v4.752h-1.188h-1.188v-2.376v-2.376h-4.752h-4.753v-2.376v-2.376h-2.376h-2.376
	v-2.376v-2.376h-2.376h-2.376v2.376v2.376h-2.376h-2.376v2.376v2.376h-4.752h-4.752v2.376v2.376h-2.376h-2.376v-2.376v-2.376h-4.752
	h-4.752v-2.376v-2.376h-2.376h-2.376v-2.376v-2.376h-2.376h-2.377v2.376v2.376h-2.375h-2.377v2.376v2.376H83.16h-4.752v2.376v2.376
	h-2.376h-2.376v-2.376v-2.376h-4.752h-4.752v-2.376v-2.376h-2.376H59.4v-2.376v-2.376h-2.376h-2.376v2.376v2.376h-2.376h-2.376
	v2.376v2.376h-4.752h-4.752v2.376v2.376h-2.376H35.64v-2.376v-2.376h-4.752h-4.752v-2.376v-2.376H23.76h-2.375v-2.376v-2.376h-2.377
	h-2.376v2.376v2.376h-2.376H11.88v2.376v2.376H7.128H2.376v2.376v2.376H1.188H0V147.312z M49.896,140.184v-2.376h2.376h2.376v-4.752
	v-4.752h-4.752h-4.752v-2.376v-2.376h11.88h11.88v2.376v2.376h-4.752H59.4v4.752v4.752h2.376h2.376v2.376v2.376h11.88h11.88v-2.376
	v-2.376h2.377h2.375v-4.752v-4.752h-4.752H83.16v-2.376v-2.376h11.881h11.88v2.376v2.376h-4.752h-4.752v4.752v4.752h2.376h2.376
	v2.376v2.376h11.88h11.88v-2.376v-2.376h2.376h2.376v-4.752v-4.752h-4.752h-4.752v-2.376v-2.376h11.88h11.881v-2.376v-2.376h2.375
	h2.377v-4.752v-4.752h-4.752h-4.753v-2.376v-2.376h-2.376h-2.376v-2.377v-2.375h-2.376h-2.376V95.04v-4.752h-4.752h-4.752v-2.376
	v-2.376h11.88h11.881V83.16v-2.376h2.375h2.377v-4.752V71.28h-4.752h-4.753v-2.376v-2.376h-2.376h-2.376v-2.376v-2.376h-2.376
	h-2.376v-4.752v-4.752h-4.752h-4.752v-2.376V47.52h11.88h11.881v-2.376v-2.376h2.375h2.377v-4.753v-4.752h-4.752h-4.753v-2.376
	v-2.376h-2.376h-2.376v-2.376V23.76h-2.376h-2.376v-4.752v-4.752h-4.752h-4.752V11.88V9.504h-2.376h-2.376V7.128V4.752h-2.376
	h-2.376v2.376v2.376h-2.376h-2.376v2.376v2.376h-4.752h-4.752v4.752v4.752h-2.376h-2.377v-4.752v-4.752h-4.752H83.16V11.88V9.504
	h-2.376h-2.376V7.128V4.752h-2.376h-2.376v2.376v2.376H71.28h-2.376v2.376v2.376h-4.752H59.4v4.752v4.752h-2.376h-2.376v-4.752
	v-4.752h-4.752h-4.752V11.88V9.504h-2.376h-2.376V7.128V4.752h-2.376H35.64v2.376v2.376h-2.376h-2.376v2.376v2.376h-4.752h-4.752
	v4.752v4.752h-2.377h-2.376v2.376v2.376h-2.376H11.88v2.376v2.376H7.128H2.376v4.752v4.753h2.376h2.376v2.376v2.376h11.88h11.881
	v2.376v2.376h-4.752h-4.752v4.752v4.752h-2.377h-2.376v2.376v2.376h-2.376H11.88v2.376v2.376H7.128H2.376v4.752v4.752h2.376h2.376
	v2.376v2.376h11.88h11.881v2.376v2.376h-4.752h-4.752v4.752v4.753h-2.377h-2.376v2.375v2.377h-2.376H11.88v2.376v2.376H7.128H2.376
	v4.752v4.752h2.376h2.376v2.376v2.376h11.88h11.881v2.376v2.376h-4.752h-4.752v4.752v4.752h2.375h2.377v2.376v2.376h11.88h11.88
	V140.184z M30.888,121.177v-2.376h2.376h2.376v-4.752v-4.752h-4.752h-4.752v-2.376v-2.376H23.76h-2.375v-2.377v-2.375h2.375h2.377
	v2.375v2.377h11.88h11.88v-2.377v-2.375h2.376h2.376V95.04v-4.752h-4.752h-4.752v-2.376v-2.376h-2.376h-2.376V83.16v-2.376h-2.376
	H35.64v2.376v2.376h-2.376h-2.376V83.16v-2.376h2.376h2.376v-4.752V71.28h-4.752h-4.752v-2.376v-2.376H23.76h-2.375v-2.376v-2.376
	h2.375h2.377v2.376v2.376h11.88h11.88v-2.376v-2.376h2.376h2.376v-4.752v-4.752h-4.752h-4.752v-2.376V47.52h-2.376h-2.376v-2.376
	v-2.376h-2.376H35.64v2.376v2.376h-2.376h-2.376v-2.376v-2.376h2.376h2.376v-4.753v-4.752h-4.752h-4.752v-2.376v-2.376H23.76h-2.375
	v-2.376V23.76h2.375h2.377v2.376v2.376h11.88h11.88v-2.376V23.76h2.376h2.376v2.376v2.376h-2.376h-2.376v2.376v2.376h-4.752h-4.752
	v4.752v4.753h2.376h2.376v2.376v2.376h11.88h11.88v-2.376v-2.376h2.376h2.376v-4.753v-4.752h-4.752h-4.752v-2.376v-2.376h-2.376
	H59.4v-2.376V23.76h2.376h2.376v2.376v2.376h11.88h11.88v-2.376V23.76h2.377h2.375v2.376v2.376h-2.375h-2.377v2.376v2.376H83.16
	h-4.752v4.752v4.753h2.376h2.376v2.376v2.376h11.881h11.88v-2.376v-2.376h2.376h2.376v-4.753v-4.752h-4.752h-4.752v-2.376v-2.376
	h-2.376h-2.376v-2.376V23.76h2.376h2.376v2.376v2.376h11.88h11.88v-2.376V23.76h2.376h2.376v2.376v2.376h-2.376h-2.376v2.376v2.376
	h-4.752h-4.752v4.752v4.753h2.376h2.376v2.376v2.376h-2.376h-2.376v-2.376v-2.376h-2.376h-2.376v2.376v2.376h-2.376h-2.376v2.376
	v2.376h-4.752h-4.752v4.752v4.752h2.376h2.376v2.376v2.376h11.88h11.88v-2.376v-2.376h2.376h2.376v2.376v2.376h-2.376h-2.376v2.376
	v2.376h-4.752h-4.752v4.752v4.752h2.376h2.376v2.376v2.376h-2.376h-2.376V83.16v-2.376h-2.376h-2.376v2.376v2.376h-2.376h-2.376
	v2.376v2.376h-4.752h-4.752v4.752v4.753h2.376h2.376v2.375v2.377h11.88h11.88v-2.377v-2.375h2.376h2.376v2.375v2.377h-2.376h-2.376
	v2.376v2.376h-4.752h-4.752v4.752v4.752h2.376h2.376v2.376v2.376h-2.376h-2.376v-2.376v-2.376h-2.376h-2.376v2.376v2.376h-2.376
	h-2.376v-2.376v-2.376h2.376h2.376v-4.752v-4.752h-4.752h-4.752v-2.376v-2.376h-2.376h-2.376v-2.377v-2.375h-2.376h-2.377v2.375
	v2.377h-2.375h-2.377v2.376v2.376H83.16h-4.752v4.752v4.752h2.376h2.376v2.376v2.376h-2.376h-2.376v-2.376v-2.376h-2.376h-2.376
	v2.376v2.376H71.28h-2.376v-2.376v-2.376h2.376h2.376v-4.752v-4.752h-4.752h-4.752v-2.376v-2.376h-2.376H59.4v-2.377v-2.375h-2.376
	h-2.376v2.375v2.377h-2.376h-2.376v2.376v2.376h-4.752h-4.752v4.752v4.752h2.376h2.376v2.376v2.376h-2.376h-2.376v-2.376v-2.376
	h-2.376H35.64v2.376v2.376h-2.376h-2.376V121.177z M87.912,102.168v-2.375h2.377h2.375V95.04v-4.752h-4.752H83.16v-2.376v-2.376
	h11.881h11.88V83.16v-2.376h2.376h2.376v-4.752V71.28h-4.752h-4.752v-2.376v-2.376h-2.376h-2.376v-2.376v-2.376h-2.376h-2.377
	v-4.752v-4.752h-4.752H83.16v-2.376V47.52h-2.376h-2.376v-2.376v-2.376h-2.376h-2.376v2.376v2.376H71.28h-2.376v2.376v2.376h-4.752
	H59.4v4.752v4.752h-2.376h-2.376v2.376v2.376h-2.376h-2.376v2.376v2.376h-4.752h-4.752v4.752v4.752h2.376h2.376v2.376v2.376h11.88
	h11.88v2.376v2.376h-4.752H59.4v4.752v4.753h2.376h2.376v2.375v2.377h11.88h11.88V102.168z M68.904,83.16v-2.376h2.376h2.376v-4.752
	V71.28h-4.752h-4.752v-2.376v-2.376h-2.376H59.4v-2.376v-2.376h2.376h2.376v2.376v2.376h11.88h11.88v-2.376v-2.376h2.377h2.375
	v2.376v2.376h-2.375h-2.377v2.376v2.376H83.16h-4.752v4.752v4.752h2.376h2.376v2.376v2.376h-2.376h-2.376V83.16v-2.376h-2.376
	h-2.376v2.376v2.376H71.28h-2.376V83.16z"/>
</svg>
