<?xml version="1.0" encoding="utf-8"?>
<!-- Generator: Adobe Illustrator 16.0.0, SVG Export Plug-In . SVG Version: 6.00 Build 0)  -->
<!DOCTYPE svg PUBLIC "-//W3C//DTD SVG 1.1//EN" "http://www.w3.org/Graphics/SVG/1.1/DTD/svg11.dtd">
<svg version="1.1" id="Layer_1" xmlns="http://www.w3.org/2000/svg" xmlns:xlink="http://www.w3.org/1999/xlink" x="0px" y="0px"
	 width="152.064px" height="152.064px" viewBox="0 0 152.064 152.064" enable-background="new 0 0 152.064 152.064"
	 xml:space="preserve">
<path id="path3577" d="M7.721,148.5v-3.563H3.861H0v-2.376v-2.376h3.861h3.861v-7.128v-7.129H3.861H0v-2.375v-2.377h3.861h3.861
	v-7.128v-7.128H3.861H0v-2.376v-2.376h3.861h3.861V95.04v-7.128H3.861H0v-2.376V83.16h3.861h3.861v-7.128v-7.128H3.861H0v-2.377
	v-2.375h3.861h3.861v-7.129v-7.128H3.861H0v-2.376v-2.376h3.861h3.861v-7.128v-7.128H3.861H0v-2.376v-2.376h3.861h3.861v-7.128
	V11.88H3.861H0V9.504V7.128h3.861h3.861V3.563V0h2.376h2.376v3.563v3.564h7.128h7.128V3.563V0h2.376h2.376v3.563v3.564h7.128h7.128
	V3.563V0h2.376h2.376v3.563v3.564h7.128h7.128V3.563V0h2.376h2.376v3.563v3.564h7.128h7.129V3.563V0h2.375h2.377v3.563v3.564h7.127
	h7.129V3.563V0h2.376h2.376v3.563v3.564h7.128h7.128V3.563V0h2.376h2.376v3.563v3.564h7.128h7.129V3.563V0h2.375h2.377v3.563v3.564
	h3.267h3.267v2.376v2.376h-3.267h-3.267v7.128v7.128h3.267h3.267v2.376v2.376h-3.267h-3.267v7.128v7.128h3.267h3.267v2.376v2.376
	h-3.267h-3.267v7.128v7.129h3.267h3.267v2.375v2.377h-3.267h-3.267v7.128v7.128h3.267h3.267v2.376v2.376h-3.267h-3.267v7.128v7.128
	h3.267h3.267v2.376v2.376h-3.267h-3.267v7.128v7.128h3.267h3.267v2.377v2.375h-3.267h-3.267v7.129v7.128h3.267h3.267v2.376v2.376
	h-3.267h-3.267v3.563v3.564h-2.377h-2.375V148.5v-3.563h-7.129h-7.128v3.563v3.564h-2.376h-2.376V148.5v-3.563h-7.128h-7.128v3.563
	v3.564h-2.376h-2.376V148.5v-3.563h-7.129h-7.127v3.563v3.564H86.13h-2.375V148.5v-3.563h-7.129h-7.128v3.563v3.564h-2.376h-2.376
	V148.5v-3.563h-7.128H50.49v3.563v3.564h-2.376h-2.376V148.5v-3.563H38.61h-7.128v3.563v3.564h-2.376H26.73V148.5v-3.563h-7.128
	h-7.128v3.563v3.564h-2.376H7.721V148.5L7.721,148.5z M26.73,133.056v-7.129h-7.128h-7.128v7.129v7.128h7.128h7.128V133.056z
	 M45.738,133.056v-7.129H38.61h-7.128v7.129v7.128h7.128h7.128V133.056z M64.746,133.056v-7.129h-7.128H50.49v7.129v7.128h7.128
	h7.128V133.056z M83.755,133.056v-7.129h-7.129h-7.128v7.129v7.128h7.128h7.129V133.056z M102.762,133.056v-7.129h-7.129h-7.127
	v7.129v7.128h7.127h7.129V133.056z M121.77,133.056v-7.129h-7.128h-7.128v7.129v7.128h7.128h7.128V133.056z M140.779,133.056v-7.129
	h-7.129h-7.128v7.129v7.128h7.128h7.129V133.056z M26.73,114.048v-7.128h-7.128h-7.128v7.128v7.128h7.128h7.128V114.048z
	 M45.738,114.048v-7.128H38.61h-7.128v7.128v7.128h7.128h7.128V114.048z M64.746,114.048v-7.128h-7.128H50.49v7.128v7.128h7.128
	h7.128V114.048z M83.755,114.048v-7.128h-7.129h-7.128v7.128v7.128h7.128h7.129V114.048z M102.762,114.048v-7.128h-7.129h-7.127
	v7.128v7.128h7.127h7.129V114.048z M121.77,114.048v-7.128h-7.128h-7.128v7.128v7.128h7.128h7.128V114.048z M140.779,114.048v-7.128
	h-7.129h-7.128v7.128v7.128h7.128h7.129V114.048z M26.73,95.04v-7.128h-7.128h-7.128v7.128v7.128h7.128h7.128V95.04z M45.738,95.04
	v-7.128H38.61h-7.128v7.128v7.128h7.128h7.128V95.04z M64.746,95.04v-7.128h-7.128H50.49v7.128v7.128h7.128h7.128V95.04z
	 M83.755,95.04v-7.128h-7.129h-7.128v7.128v7.128h7.128h7.129V95.04z M102.762,95.04v-7.128h-7.129h-7.127v7.128v7.128h7.127h7.129
	V95.04z M121.77,95.04v-7.128h-7.128h-7.128v7.128v7.128h7.128h7.128V95.04z M140.779,95.04v-7.128h-7.129h-7.128v7.128v7.128h7.128
	h7.129V95.04z M26.73,76.032v-7.128h-7.128h-7.128v7.128v7.128h7.128h7.128V76.032z M45.738,76.032v-7.128H38.61h-7.128v7.128v7.128
	h7.128h7.128V76.032z M64.746,76.032v-7.128h-7.128H50.49v7.128v7.128h7.128h7.128V76.032z M83.755,76.032v-7.128h-7.129h-7.128
	v7.128v7.128h7.128h7.129V76.032z M102.762,76.032v-7.128h-7.129h-7.127v7.128v7.128h7.127h7.129V76.032z M121.77,76.032v-7.128
	h-7.128h-7.128v7.128v7.128h7.128h7.128V76.032z M140.779,76.032v-7.128h-7.129h-7.128v7.128v7.128h7.128h7.129V76.032z
	 M26.73,57.023v-7.128h-7.128h-7.128v7.128v7.129h7.128h7.128V57.023z M45.738,57.023v-7.128H38.61h-7.128v7.128v7.129h7.128h7.128
	V57.023z M64.746,57.023v-7.128h-7.128H50.49v7.128v7.129h7.128h7.128V57.023z M83.755,57.023v-7.128h-7.129h-7.128v7.128v7.129
	h7.128h7.129V57.023z M102.762,57.023v-7.128h-7.129h-7.127v7.128v7.129h7.127h7.129V57.023z M121.77,57.023v-7.128h-7.128h-7.128
	v7.128v7.129h7.128h7.128V57.023z M140.779,57.023v-7.128h-7.129h-7.128v7.128v7.129h7.128h7.129V57.023z M26.73,38.015v-7.128
	h-7.128h-7.128v7.128v7.128h7.128h7.128V38.015z M45.738,38.015v-7.128H38.61h-7.128v7.128v7.128h7.128h7.128V38.015z
	 M64.746,38.015v-7.128h-7.128H50.49v7.128v7.128h7.128h7.128V38.015z M83.755,38.015v-7.128h-7.129h-7.128v7.128v7.128h7.128h7.129
	V38.015z M102.762,38.015v-7.128h-7.129h-7.127v7.128v7.128h7.127h7.129V38.015z M121.77,38.015v-7.128h-7.128h-7.128v7.128v7.128
	h7.128h7.128V38.015z M140.779,38.015v-7.128h-7.129h-7.128v7.128v7.128h7.128h7.129V38.015z M26.73,19.008V11.88h-7.128h-7.128
	v7.128v7.128h7.128h7.128V19.008z M45.738,19.008V11.88H38.61h-7.128v7.128v7.128h7.128h7.128V19.008z M64.746,19.008V11.88h-7.128
	H50.49v7.128v7.128h7.128h7.128V19.008z M83.755,19.008V11.88h-7.129h-7.128v7.128v7.128h7.128h7.129V19.008z M102.762,19.008V11.88
	h-7.129h-7.127v7.128v7.128h7.127h7.129V19.008z M121.77,19.008V11.88h-7.128h-7.128v7.128v7.128h7.128h7.128V19.008z
	 M140.779,19.008V11.88h-7.129h-7.128v7.128v7.128h7.128h7.129V19.008z"/>
</svg>
