<?xml version="1.0" encoding="utf-8"?>
<!-- Generator: Adobe Illustrator 16.0.0, SVG Export Plug-In . SVG Version: 6.00 Build 0)  -->
<!DOCTYPE svg PUBLIC "-//W3C//DTD SVG 1.1//EN" "http://www.w3.org/Graphics/SVG/1.1/DTD/svg11.dtd">
<svg version="1.1" id="Layer_1" xmlns="http://www.w3.org/2000/svg" xmlns:xlink="http://www.w3.org/1999/xlink" x="0px" y="0px"
	 width="152.064px" height="152.064px" viewBox="0 0 152.064 152.064" enable-background="new 0 0 152.064 152.064"
	 xml:space="preserve">
<path id="path3418" d="M9.207,147.608v-4.455H4.603H0v-4.752v-4.752h6.979h6.979v9.207v9.207h-2.376H9.207V147.608z M18.711,142.856
	v-9.207h16.633h16.632v9.207v9.207h-2.376h-2.376v-4.455v-4.455h-9.505h-9.504v4.455v4.455h-4.752h-4.752V142.856z M56.727,142.856
	v-9.207h16.632h16.633v9.207v9.207h-2.377h-2.376v-4.455v-4.455h-9.504h-9.504v4.455v4.455h-4.752h-4.752V142.856z M94.744,142.856
	v-9.207h16.632h16.632v9.207v9.207h-2.376h-2.376v-4.455v-4.455h-9.504h-9.504v4.455v4.455h-4.752h-4.752V142.856z M132.76,142.856
	v-9.207h9.652h9.652v4.752v4.752h-4.9h-4.9v4.455v4.455h-4.752h-4.752V142.856z M0,126.522v-2.377h4.604h4.604v-9.504v-9.504H4.603
	H0v-4.752v-4.752h6.979h6.979v16.632v16.632H6.979H0V126.522z M18.711,112.265V95.634h16.633h16.632v16.632v16.632H35.344H18.711
	V112.265z M47.223,114.641v-9.504h-9.505h-9.504v9.504v9.504h9.504h9.505V114.641z M56.727,112.265V95.634h16.632h16.633v16.632
	v16.632H73.359H56.727V112.265z M85.239,114.641v-9.504h-9.504h-9.504v9.504v9.504h9.504h9.504V114.641z M94.744,112.265V95.634
	h16.632h16.632v16.632v16.632h-16.632H94.744V112.265z M123.256,114.641v-9.504h-9.504h-9.504v9.504v9.504h9.504h9.504V114.641z
	 M132.76,112.265V95.634h9.652h9.652v4.752v4.752h-4.9h-4.9v9.504v9.504h4.9h4.9v2.377v2.375h-9.652h-9.652V112.265z M0,88.506
	V86.13h4.604h4.604v-9.504v-9.504H4.603H0V62.37v-4.752h6.979h6.979V74.25v16.632H6.979H0V88.506z M18.711,74.25V57.618h16.633
	h16.632V74.25v16.632H35.344H18.711V74.25z M47.223,76.626v-9.504h-9.505h-9.504v9.504v9.504h9.504h9.505V76.626z M56.727,74.25
	V57.618h16.632h16.633V74.25v16.632H73.359H56.727V74.25z M85.239,76.626v-9.504h-9.504h-9.504v9.504v9.504h9.504h9.504V76.626z
	 M94.744,74.25V57.618h16.632h16.632V74.25v16.632h-16.632H94.744V74.25z M123.256,76.626v-9.504h-9.504h-9.504v9.504v9.504h9.504
	h9.504V76.626z M132.76,74.25V57.618h9.652h9.652v4.752v4.752h-4.9h-4.9v9.504v9.504h4.9h4.9v2.376v2.376h-9.652h-9.652V74.25z
	 M0,50.49v-2.377h4.604h4.604v-9.504v-9.504H4.603H0v-4.752v-4.752h6.979h6.979v16.632v16.633H6.979H0V50.49z M18.711,36.233V19.601
	h16.633h16.632v16.632v16.633H35.344H18.711V36.233z M47.223,38.609v-9.504h-9.505h-9.504v9.504v9.504h9.504h9.505V38.609z
	 M56.727,36.233V19.601h16.632h16.633v16.632v16.633H73.359H56.727V36.233z M85.239,38.609v-9.504h-9.504h-9.504v9.504v9.504h9.504
	h9.504V38.609z M94.744,36.233V19.601h16.632h16.632v16.632v16.633h-16.632H94.744V36.233z M123.256,38.609v-9.504h-9.504h-9.504
	v9.504v9.504h9.504h9.504V38.609z M132.76,36.233V19.601h9.652h9.652v4.752v4.752h-4.9h-4.9v9.504v9.504h4.9h4.9v2.377v2.376h-9.652
	h-9.652V36.233z M0,12.473v-2.376h4.604h4.604V5.049V0h2.376h2.376v7.425v7.425H6.979H0V12.473z M18.711,7.425V0h4.752h4.752v5.049
	v5.049h9.504h9.505V5.049V0h2.376h2.376v7.425v7.425H35.344H18.711V7.425z M56.727,7.425V0h4.752h4.752v5.049v5.049h9.504h9.504
	V5.049V0h2.376h2.377v7.425v7.425H73.359H56.727V7.425z M94.744,7.425V0h4.752h4.752v5.049v5.049h9.504h9.504V5.049V0h2.376h2.376
	v7.425v7.425h-16.632H94.744V7.425z M132.76,7.425V0h4.752h4.752v5.049v5.049h4.9h4.9v2.376v2.376h-9.652h-9.652V7.425z"/>
</svg>
