<?xml version="1.0" encoding="utf-8"?>
<!-- Generator: Adobe Illustrator 16.0.0, SVG Export Plug-In . SVG Version: 6.00 Build 0)  -->
<!DOCTYPE svg PUBLIC "-//W3C//DTD SVG 1.1//EN" "http://www.w3.org/Graphics/SVG/1.1/DTD/svg11.dtd">
<svg version="1.1" id="Layer_1" xmlns="http://www.w3.org/2000/svg" xmlns:xlink="http://www.w3.org/1999/xlink" x="0px" y="0px"
	 width="152.064px" height="152.064px" viewBox="0 0 152.064 152.064" enable-background="new 0 0 152.064 152.064"
	 xml:space="preserve">
<path id="path3405" d="M2.375,150.877c0-1.188,0-1.188-1.188-1.188h-1.188v-2.376v-2.376h1.188h1.188v-2.376v-2.376H1.187h-1.188
	v-2.376v-2.376h1.188h1.188v2.376v2.376h2.376h2.376v2.376v2.376h2.376h2.376v2.376v2.376h2.376h2.376v1.188v1.188h-2.376H11.88
	v-1.188v-1.188H9.504H7.127v1.188v1.188H4.751H2.375V150.877z M7.127,147.312v-2.376H4.751H2.375v2.376v2.376h2.376h2.376V147.312z
	 M21.384,150.877v-1.188h2.376h2.376v-2.376v-2.376h2.376h2.376v-2.376v-2.376h2.376h2.376v-2.376v-2.376h2.376h2.376v2.376v2.376
	h2.376h2.376v2.376v2.376h2.376h2.376v2.376v2.376h2.376h2.376v1.188v1.188h-2.376h-2.376v-1.188v-1.188H47.52h-2.376v1.188v1.188
	h-2.376h-2.376v-1.188v-1.188h-2.376h-2.376v1.188v1.188h-2.376h-2.376v-1.188v-1.188h-2.376h-2.376v1.188v1.188H23.76h-2.376
	V150.877z M35.639,147.312v-2.376h2.376h2.376v2.376v2.376h2.376h2.376v-2.376v-2.376h-2.376h-2.376v-2.376v-2.376h-2.376h-2.376
	v2.376v2.376h-2.376h-2.376v2.376v2.376h2.376h2.376V147.312z M59.4,150.877v-1.188h2.376h2.376v-2.376v-2.376h2.376h2.376v-2.376
	v-2.376h2.376h2.376v-2.376v-2.376h2.376h2.375v2.376v2.376h2.377h2.375v2.376v2.376h2.377h2.375v2.376v2.376h2.377h2.375v1.188
	v1.188h-2.375h-2.377v-1.188v-1.188h-2.375h-2.377v1.188v1.188h-2.375h-2.377v-1.188v-1.188h-2.375h-2.376v1.188v1.188H71.28h-2.376
	v-1.188v-1.188h-2.376h-2.376v1.188v1.188h-2.376H59.4V150.877z M73.656,147.312v-2.376h2.376h2.375v2.376v2.376h2.377h2.375v-2.376
	v-2.376h-2.375h-2.377v-2.376v-2.376h-2.375h-2.376v2.376v2.376H71.28h-2.376v2.376v2.376h2.376h2.376V147.312z M97.415,150.877
	v-1.188h2.377h2.377v-2.376v-2.376h2.375h2.377v-2.376v-2.376h2.375h2.377v-2.376v-2.376h2.375h2.377v2.376v2.376h2.375h2.377v2.376
	v2.376h2.375h2.377v2.376v2.376h2.375h2.377v1.188v1.188h-2.377h-2.375v-1.188v-1.188h-2.377h-2.375v1.188v1.188H118.8h-2.375
	v-1.188v-1.188h-2.377h-2.375v1.188v1.188h-2.377h-2.375v-1.188v-1.188h-2.377h-2.375v1.188v1.188h-2.377h-2.377V150.877z
	 M111.673,147.312v-2.376h2.375h2.377v2.376v2.376h2.375h2.377v-2.376v-2.376H118.8h-2.375v-2.376v-2.376h-2.377h-2.375v2.376v2.376
	h-2.377h-2.375v2.376v2.376h2.375h2.377V147.312z M135.432,150.877v-1.188h2.375h2.377v-2.376v-2.376h2.375h2.377v-2.376v-2.376
	h2.377h2.375v-2.376v-2.376h1.188h1.189v2.376v2.376h-1.189h-1.188v2.376v2.376h1.188h1.189v2.376v2.376h-1.189
	c-1.188,0-1.188,0-1.188,1.188v1.188h-2.375h-2.377v-1.188v-1.188h-2.377h-2.375v1.188v1.188h-2.377h-2.375V150.877z
	 M149.688,147.312v-2.376h-2.375h-2.377v2.376v2.376h2.377h2.375V147.312z M-0.001,128.304v-2.376h1.188h1.188v-2.376v-2.376H1.187
	h-1.188v-2.376v-2.376h1.188h1.188v-2.376v-2.376H1.187h-1.188v-2.376v-2.376h1.188h1.188v-2.376v-2.377H1.187h-1.188v-2.375v-2.377
	h1.188h1.188v2.377v2.375h2.376h2.376v2.377v2.376h2.376h2.376v2.376v2.376h2.376h2.376v2.376v2.376h-2.376H11.88v2.376v2.376H9.504
	H7.127v2.376v2.376H4.751H2.375v2.376v2.376H1.187h-1.188V128.304z M7.127,118.801v-2.376h2.376h2.376v-2.376v-2.376H9.504H7.127
	v-2.376v-2.376H4.751H2.375v2.376v2.376h2.376h2.376v2.376v2.376H4.751H2.375v2.376v2.376h2.376h2.376V118.801z M35.639,128.304
	v-2.376h-2.376h-2.376v-2.376v-2.376h-2.376h-2.376v-2.376v-2.376H23.76h-2.376v-2.376v-2.376h2.376h2.376v-2.376v-2.376h2.376
	h2.376v-2.376v-2.377h2.376h2.376v-2.375v-2.377h2.376h2.376v2.377v2.375h2.376h2.376v2.377v2.376h2.376h2.376v2.376v2.376h2.376
	h2.376v2.376v2.376h-2.376h-2.376v2.376v2.376H47.52h-2.376v2.376v2.376h-2.376h-2.376v2.376v2.376h-2.376h-2.376V128.304z
	 M40.392,123.552v-2.376h2.376h2.376v-2.376v-2.376h2.376h2.376v-2.376v-2.376H47.52h-2.376v-2.376v-2.376h-2.376h-2.376v-2.376
	v-2.377h-2.376h-2.376v2.377v2.376h-2.376h-2.376v2.376v2.376h-2.376h-2.376v2.376v2.376h2.376h2.376v2.376v2.376h2.376h2.376v2.376
	v2.376h2.376h2.376V123.552z M35.639,118.801v-2.376h-2.376h-2.376v-2.376v-2.376h2.376h2.376v-2.376v-2.376h2.376h2.376v2.376
	v2.376h2.376h2.376v2.376v2.376h-2.376h-2.376v2.376v2.376h-2.376h-2.376V118.801z M40.392,114.049v-2.376h-2.376h-2.376v2.376
	v2.376h2.376h2.376V114.049z M73.656,128.304v-2.376H71.28h-2.376v-2.376v-2.376h-2.376h-2.376v-2.376v-2.376h-2.376H59.4v-2.376
	v-2.376h2.376h2.376v-2.376v-2.376h2.376h2.376v-2.376v-2.377h2.376h2.376v-2.375v-2.377h2.376h2.375v2.377v2.375h2.377h2.375v2.377
	v2.376h2.377h2.375v2.376v2.376h2.377h2.375v2.376v2.376h-2.375h-2.377v2.376v2.376h-2.375h-2.377v2.376v2.376h-2.375h-2.377v2.376
	v2.376h-2.375h-2.376V128.304z M78.407,123.552v-2.376h2.377h2.375v-2.376v-2.376h2.377h2.375v-2.376v-2.376h-2.375h-2.377v-2.376
	v-2.376h-2.375h-2.377v-2.376v-2.377h-2.375h-2.376v2.377v2.376H71.28h-2.376v2.376v2.376h-2.376h-2.376v2.376v2.376h2.376h2.376
	v2.376v2.376h2.376h2.376v2.376v2.376h2.376h2.375V123.552z M73.656,118.801v-2.376H71.28h-2.376v-2.376v-2.376h2.376h2.376v-2.376
	v-2.376h2.376h2.375v2.376v2.376h2.377h2.375v2.376v2.376h-2.375h-2.377v2.376v2.376h-2.375h-2.376V118.801z M78.407,114.049v-2.376
	h-2.375h-2.376v2.376v2.376h2.376h2.375V114.049z M111.673,128.304v-2.376h-2.377h-2.375v-2.376v-2.376h-2.377h-2.375v-2.376v-2.376
	h-2.377h-2.377v-2.376v-2.376h2.377h2.377v-2.376v-2.376h2.375h2.377v-2.376v-2.377h2.375h2.377v-2.375v-2.377h2.375h2.377v2.377
	v2.375h2.375h2.377v2.377v2.376h2.375h2.377v2.376v2.376h2.375h2.377v2.376v2.376h-2.377h-2.375v2.376v2.376h-2.377h-2.375v2.376
	v2.376H118.8h-2.375v2.376v2.376h-2.377h-2.375V128.304z M116.425,123.552v-2.376h2.375h2.377v-2.376v-2.376h2.375h2.377v-2.376
	v-2.376h-2.377h-2.375v-2.376v-2.376H118.8h-2.375v-2.376v-2.377h-2.377h-2.375v2.377v2.376h-2.377h-2.375v2.376v2.376h-2.377
	h-2.375v2.376v2.376h2.375h2.377v2.376v2.376h2.375h2.377v2.376v2.376h2.375h2.377V123.552z M111.673,118.801v-2.376h-2.377h-2.375
	v-2.376v-2.376h2.375h2.377v-2.376v-2.376h2.375h2.377v2.376v2.376h2.375h2.377v2.376v2.376H118.8h-2.375v2.376v2.376h-2.377h-2.375
	V118.801z M116.425,114.049v-2.376h-2.377h-2.375v2.376v2.376h2.375h2.377V114.049z M149.688,128.304v-2.376h-2.375h-2.377v-2.376
	v-2.376h-2.377h-2.375v-2.376v-2.376h-2.377h-2.375v-2.376v-2.376h2.375h2.377v-2.376v-2.376h2.375h2.377v-2.376v-2.377h2.377h2.375
	v-2.375v-2.377h1.188h1.189v2.377v2.375h-1.189h-1.188v2.377v2.376h1.188h1.189v2.376v2.376h-1.189h-1.188v2.376v2.376h1.188h1.189
	v2.376v2.376h-1.189h-1.188v2.376v2.376h1.188h1.189v2.376v2.376h-1.189h-1.188V128.304z M149.688,118.801v-2.376h-2.375h-2.377
	v-2.376v-2.376h2.377h2.375v-2.376v-2.376h-2.375h-2.377v2.376v2.376h-2.377h-2.375v2.376v2.376h2.375h2.377v2.376v2.376h2.377
	h2.375V118.801z M-0.001,90.288v-2.376h1.188h1.188v-2.376V83.16H1.187h-1.188v-2.376v-2.376h1.188h1.188v-2.376v-2.376H1.187
	h-1.188V71.28v-2.376h1.188h1.188v-2.376v-2.376H1.187h-1.188v-2.376V59.4h1.188h1.188v2.376v2.376h2.376h2.376v2.376v2.376h2.376
	h2.376v2.376v2.376h2.376h2.376v2.376v2.376h-2.376H11.88v2.376v2.376H9.504H7.127v2.376v2.376H4.751H2.375v2.376v2.376H1.187
	h-1.188V90.288z M7.127,80.784v-2.376h2.376h2.376v-2.376v-2.376H9.504H7.127V71.28v-2.376H4.751H2.375v2.376v2.376h2.376h2.376
	v2.376v2.376H4.751H2.375v2.376v2.376h2.376h2.376V80.784z M35.639,90.288v-2.376h-2.376h-2.376v-2.376V83.16h-2.376h-2.376v-2.376
	v-2.376H23.76h-2.376v-2.376v-2.376h2.376h2.376V71.28v-2.376h2.376h2.376v-2.376v-2.376h2.376h2.376v-2.376V59.4h2.376h2.376v2.376
	v2.376h2.376h2.376v2.376v2.376h2.376h2.376v2.376v2.376h2.376h2.376v2.376v2.376h-2.376h-2.376v2.376v2.376H47.52h-2.376v2.376
	v2.376h-2.376h-2.376v2.376v2.376h-2.376h-2.376V90.288z M40.392,85.536V83.16h2.376h2.376v-2.376v-2.376h2.376h2.376v-2.376v-2.376
	H47.52h-2.376V71.28v-2.376h-2.376h-2.376v-2.376v-2.376h-2.376h-2.376v2.376v2.376h-2.376h-2.376v2.376v2.376h-2.376h-2.376v2.376
	v2.376h2.376h2.376v2.376v2.376h2.376h2.376v2.376v2.376h2.376h2.376V85.536z M35.639,80.784v-2.376h-2.376h-2.376v-2.376v-2.376
	h2.376h2.376V71.28v-2.376h2.376h2.376v2.376v2.376h2.376h2.376v2.376v2.376h-2.376h-2.376v2.376v2.376h-2.376h-2.376V80.784z
	 M40.392,76.032v-2.376h-2.376h-2.376v2.376v2.376h2.376h2.376V76.032z M73.656,90.288v-2.376H71.28h-2.376v-2.376V83.16h-2.376
	h-2.376v-2.376v-2.376h-2.376H59.4v-2.376v-2.376h2.376h2.376V71.28v-2.376h2.376h2.376v-2.376v-2.376h2.376h2.376v-2.376V59.4
	h2.376h2.375v2.376v2.376h2.377h2.375v2.376v2.376h2.377h2.375v2.376v2.376h2.377h2.375v2.376v2.376h-2.375h-2.377v2.376v2.376
	h-2.375h-2.377v2.376v2.376h-2.375h-2.377v2.376v2.376h-2.375h-2.376V90.288z M78.407,85.536V83.16h2.377h2.375v-2.376v-2.376h2.377
	h2.375v-2.376v-2.376h-2.375h-2.377V71.28v-2.376h-2.375h-2.377v-2.376v-2.376h-2.375h-2.376v2.376v2.376H71.28h-2.376v2.376v2.376
	h-2.376h-2.376v2.376v2.376h2.376h2.376v2.376v2.376h2.376h2.376v2.376v2.376h2.376h2.375V85.536z M73.656,80.784v-2.376H71.28
	h-2.376v-2.376v-2.376h2.376h2.376V71.28v-2.376h2.376h2.375v2.376v2.376h2.377h2.375v2.376v2.376h-2.375h-2.377v2.376v2.376h-2.375
	h-2.376V80.784z M78.407,76.032v-2.376h-2.375h-2.376v2.376v2.376h2.376h2.375V76.032z M111.673,90.288v-2.376h-2.377h-2.375v-2.376
	V83.16h-2.377h-2.375v-2.376v-2.376h-2.377h-2.377v-2.376v-2.376h2.377h2.377V71.28v-2.376h2.375h2.377v-2.376v-2.376h2.375h2.377
	v-2.376V59.4h2.375h2.377v2.376v2.376h2.375h2.377v2.376v2.376h2.375h2.377v2.376v2.376h2.375h2.377v2.376v2.376h-2.377h-2.375
	v2.376v2.376h-2.377h-2.375v2.376v2.376H118.8h-2.375v2.376v2.376h-2.377h-2.375V90.288z M116.425,85.536V83.16h2.375h2.377v-2.376
	v-2.376h2.375h2.377v-2.376v-2.376h-2.377h-2.375V71.28v-2.376H118.8h-2.375v-2.376v-2.376h-2.377h-2.375v2.376v2.376h-2.377h-2.375
	v2.376v2.376h-2.377h-2.375v2.376v2.376h2.375h2.377v2.376v2.376h2.375h2.377v2.376v2.376h2.375h2.377V85.536z M111.673,80.784
	v-2.376h-2.377h-2.375v-2.376v-2.376h2.375h2.377V71.28v-2.376h2.375h2.377v2.376v2.376h2.375h2.377v2.376v2.376H118.8h-2.375v2.376
	v2.376h-2.377h-2.375V80.784z M116.425,76.032v-2.376h-2.377h-2.375v2.376v2.376h2.375h2.377V76.032z M149.688,90.288v-2.376h-2.375
	h-2.377v-2.376V83.16h-2.377h-2.375v-2.376v-2.376h-2.377h-2.375v-2.376v-2.376h2.375h2.377V71.28v-2.376h2.375h2.377v-2.376v-2.376
	h2.377h2.375v-2.376V59.4h1.188h1.189v2.376v2.376h-1.189h-1.188v2.376v2.376h1.188h1.189v2.376v2.376h-1.189h-1.188v2.376v2.376
	h1.188h1.189v2.376v2.376h-1.189h-1.188v2.376v2.376h1.188h1.189v2.376v2.376h-1.189h-1.188V90.288z M149.688,80.784v-2.376h-2.375
	h-2.377v-2.376v-2.376h2.377h2.375V71.28v-2.376h-2.375h-2.377v2.376v2.376h-2.377h-2.375v2.376v2.376h2.375h2.377v2.376v2.376
	h2.377h2.375V80.784z M-0.001,52.272v-2.376h1.188h1.188V47.52v-2.376H1.187h-1.188v-2.376v-2.376h1.188h1.188v-2.377V35.64H1.187
	h-1.188v-2.377v-2.376h1.188h1.188v-2.376v-2.376H1.187h-1.188V23.76v-2.376h1.188h1.188v2.376v2.376h2.376h2.376v2.376v2.376h2.376
	h2.376v2.376v2.377h2.376h2.376v2.375v2.377h-2.376H11.88v2.376v2.376H9.504H7.127v2.376v2.376H4.751H2.375v2.376v2.376H1.187
	h-1.188V52.272z M7.127,42.768v-2.376h2.376h2.376v-2.377V35.64H9.504H7.127v-2.377v-2.376H4.751H2.375v2.376v2.377h2.376h2.376
	v2.375v2.377H4.751H2.375v2.376v2.376h2.376h2.376V42.768z M35.639,52.272v-2.376h-2.376h-2.376V47.52v-2.376h-2.376h-2.376v-2.376
	v-2.376H23.76h-2.376v-2.377V35.64h2.376h2.376v-2.377v-2.376h2.376h2.376v-2.376v-2.376h2.376h2.376V23.76v-2.376h2.376h2.376
	v2.376v2.376h2.376h2.376v2.376v2.376h2.376h2.376v2.376v2.377h2.376h2.376v2.375v2.377h-2.376h-2.376v2.376v2.376H47.52h-2.376
	v2.376v2.376h-2.376h-2.376v2.376v2.376h-2.376h-2.376V52.272z M40.392,47.52v-2.376h2.376h2.376v-2.376v-2.376h2.376h2.376v-2.377
	V35.64H47.52h-2.376v-2.377v-2.376h-2.376h-2.376v-2.376v-2.376h-2.376h-2.376v2.376v2.376h-2.376h-2.376v2.376v2.377h-2.376h-2.376
	v2.375v2.377h2.376h2.376v2.376v2.376h2.376h2.376v2.376v2.376h2.376h2.376V47.52z M35.639,42.768v-2.376h-2.376h-2.376v-2.377
	V35.64h2.376h2.376v-2.377v-2.376h2.376h2.376v2.376v2.377h2.376h2.376v2.375v2.377h-2.376h-2.376v2.376v2.376h-2.376h-2.376V42.768
	z M40.392,38.015V35.64h-2.376h-2.376v2.375v2.377h2.376h2.376V38.015z M73.656,52.272v-2.376H71.28h-2.376V47.52v-2.376h-2.376
	h-2.376v-2.376v-2.376h-2.376H59.4v-2.377V35.64h2.376h2.376v-2.377v-2.376h2.376h2.376v-2.376v-2.376h2.376h2.376V23.76v-2.376
	h2.376h2.375v2.376v2.376h2.377h2.375v2.376v2.376h2.377h2.375v2.376v2.377h2.377h2.375v2.375v2.377h-2.375h-2.377v2.376v2.376
	h-2.375h-2.377v2.376v2.376h-2.375h-2.377v2.376v2.376h-2.375h-2.376V52.272z M78.407,47.52v-2.376h2.377h2.375v-2.376v-2.376h2.377
	h2.375v-2.377V35.64h-2.375h-2.377v-2.377v-2.376h-2.375h-2.377v-2.376v-2.376h-2.375h-2.376v2.376v2.376H71.28h-2.376v2.376v2.377
	h-2.376h-2.376v2.375v2.377h2.376h2.376v2.376v2.376h2.376h2.376v2.376v2.376h2.376h2.375V47.52z M73.656,42.768v-2.376H71.28
	h-2.376v-2.377V35.64h2.376h2.376v-2.377v-2.376h2.376h2.375v2.376v2.377h2.377h2.375v2.375v2.377h-2.375h-2.377v2.376v2.376h-2.375
	h-2.376V42.768z M78.407,38.015V35.64h-2.375h-2.376v2.375v2.377h2.376h2.375V38.015z M111.673,52.272v-2.376h-2.377h-2.375V47.52
	v-2.376h-2.377h-2.375v-2.376v-2.376h-2.377h-2.377v-2.377V35.64h2.377h2.377v-2.377v-2.376h2.375h2.377v-2.376v-2.376h2.375h2.377
	V23.76v-2.376h2.375h2.377v2.376v2.376h2.375h2.377v2.376v2.376h2.375h2.377v2.376v2.377h2.375h2.377v2.375v2.377h-2.377h-2.375
	v2.376v2.376h-2.377h-2.375v2.376v2.376H118.8h-2.375v2.376v2.376h-2.377h-2.375V52.272z M116.425,47.52v-2.376h2.375h2.377v-2.376
	v-2.376h2.375h2.377v-2.377V35.64h-2.377h-2.375v-2.377v-2.376H118.8h-2.375v-2.376v-2.376h-2.377h-2.375v2.376v2.376h-2.377h-2.375
	v2.376v2.377h-2.377h-2.375v2.375v2.377h2.375h2.377v2.376v2.376h2.375h2.377v2.376v2.376h2.375h2.377V47.52z M111.673,42.768
	v-2.376h-2.377h-2.375v-2.377V35.64h2.375h2.377v-2.377v-2.376h2.375h2.377v2.376v2.377h2.375h2.377v2.375v2.377H118.8h-2.375v2.376
	v2.376h-2.377h-2.375V42.768z M116.425,38.015V35.64h-2.377h-2.375v2.375v2.377h2.375h2.377V38.015z M149.688,52.272v-2.376h-2.375
	h-2.377V47.52v-2.376h-2.377h-2.375v-2.376v-2.376h-2.377h-2.375v-2.377V35.64h2.375h2.377v-2.377v-2.376h2.375h2.377v-2.376v-2.376
	h2.377h2.375V23.76v-2.376h1.188h1.189v2.376v2.376h-1.189h-1.188v2.376v2.376h1.188h1.189v2.376v2.377h-1.189h-1.188v2.375v2.377
	h1.188h1.189v2.376v2.376h-1.189h-1.188v2.376v2.376h1.188h1.189v2.376v2.376h-1.189h-1.188V52.272z M149.688,42.768v-2.376h-2.375
	h-2.377v-2.377V35.64h2.377h2.375v-2.377v-2.376h-2.375h-2.377v2.376v2.377h-2.377h-2.375v2.375v2.377h2.375h2.377v2.376v2.376
	h2.377h2.375V42.768z M-0.001,14.256V11.88h1.188h1.188V9.504V7.128H1.187h-1.188V4.752V2.376h1.188c1.188,0,1.188,0,1.188-1.188V0
	h2.376h2.376v1.188v1.188h2.376h2.376V1.187V0h2.376h2.376v1.188v1.188h-2.376H11.88v2.376v2.376H9.504H7.127v2.376v2.376H4.751
	H2.375v2.376v2.376H1.187h-1.188V14.256z M7.127,4.752V2.376H4.751H2.375v2.376v2.376h2.376h2.376V4.752z M35.639,14.256V11.88
	h-2.376h-2.376V9.504V7.128h-2.376h-2.376V4.752V2.376H23.76h-2.376V1.187V0h2.376h2.376v1.188v1.188h2.376h2.376V1.187V0h2.376
	h2.376v1.188v1.188h2.376h2.376V1.187V0h2.376h2.376v1.188v1.188h2.376h2.376V1.187V0h2.376h2.376v1.188v1.188h-2.376h-2.376v2.376
	v2.376H47.52h-2.376v2.376v2.376h-2.376h-2.376v2.376v2.376h-2.376h-2.376V14.256z M40.392,9.504V7.128h2.376h2.376V4.752V2.376
	h-2.376h-2.376v2.376v2.376h-2.376h-2.376V4.752V2.376h-2.376h-2.376v2.376v2.376h2.376h2.376v2.376v2.376h2.376h2.376V9.504z
	 M73.656,14.256V11.88H71.28h-2.376V9.504V7.128h-2.376h-2.376V4.752V2.376h-2.376H59.4V1.187V0h2.376h2.376v1.188v1.188h2.376
	h2.376V1.187V0h2.376h2.376v1.188v1.188h2.376h2.375V1.187V0h2.377h2.375v1.188v1.188h2.377h2.375V1.187V0h2.377h2.375v1.188v1.188
	h-2.375h-2.377v2.376v2.376h-2.375h-2.377v2.376v2.376h-2.375h-2.377v2.376v2.376h-2.375h-2.376V14.256z M78.407,9.504V7.128h2.377
	h2.375V4.752V2.376h-2.375h-2.377v2.376v2.376h-2.375h-2.376V4.752V2.376H71.28h-2.376v2.376v2.376h2.376h2.376v2.376v2.376h2.376
	h2.375V9.504z M111.673,14.256V11.88h-2.377h-2.375V9.504V7.128h-2.377h-2.375V4.752V2.376h-2.377h-2.377V1.187V0h2.377h2.377v1.188
	v1.188h2.375h2.377V1.187V0h2.375h2.377v1.188v1.188h2.375h2.377V1.187V0h2.375h2.377v1.188v1.188h2.375h2.377V1.187V0h2.375h2.377
	v1.188v1.188h-2.377h-2.375v2.376v2.376h-2.377h-2.375v2.376v2.376H118.8h-2.375v2.376v2.376h-2.377h-2.375V14.256z M116.425,9.504
	V7.128h2.375h2.377V4.752V2.376H118.8h-2.375v2.376v2.376h-2.377h-2.375V4.752V2.376h-2.377h-2.375v2.376v2.376h2.375h2.377v2.376
	v2.376h2.375h2.377V9.504z M149.688,14.256V11.88h-2.375h-2.377V9.504V7.128h-2.377h-2.375V4.752V2.376h-2.377h-2.375V1.187V0h2.375
	h2.377v1.188v1.188h2.375h2.377V1.187V0h2.377h2.375v1.188c0,1.188,0,1.188,1.188,1.188h1.189v2.376v2.376h-1.189h-1.188v2.376
	v2.376h1.188h1.189v2.376v2.376h-1.189h-1.188V14.256z M149.688,4.752V2.376h-2.375h-2.377v2.376v2.376h2.377h2.375V4.752z"/>
</svg>
